<?xml version="1.0" encoding="utf-8"?>
<!-- Generator: Adobe Illustrator 24.0.2, SVG Export Plug-In . SVG Version: 6.00 Build 0)  -->
<svg version="1.1" id="Слой_1" xmlns="http://www.w3.org/2000/svg" xmlns:xlink="http://www.w3.org/1999/xlink" x="0px" y="0px"
	 width="30px" height="30px" viewBox="0 0 30 30" style="enable-background:new 0 0 30 30;" xml:space="preserve">
<style type="text/css">
	.st0{fill-rule:evenodd;clip-rule:evenodd;fill:#E6642B;}
</style>
<g>
	<path class="st0" d="M11.02,6.5c-0.25-0.72-0.5-1.43-0.7-2.15c-0.2-0.74-0.36-1.5-0.47-2.26C9.79,1.66,9.8,1.65,10.21,1.51
		c0.82-0.29,1.67-0.51,2.53-0.64c0.4-0.06,0.42-0.05,0.47,0.36c0.23,1.71,0.71,3.38,1.45,4.94c0.08,0.18,0.13,0.47,0.32,0.48
		c0.24,0.01,0.28-0.3,0.36-0.48c0.73-1.55,1.21-3.2,1.43-4.89c0.06-0.46,0.07-0.47,0.54-0.4c0.86,0.13,1.7,0.37,2.52,0.65
		c0.38,0.13,0.37,0.14,0.31,0.55c-0.2,1.36-0.55,2.69-1.02,3.98c-0.05,0.15-0.21,0.32-0.06,0.46c0.12,0.11,0.28-0.03,0.41-0.09
		c1.35-0.56,2.53-1.37,3.56-2.39l0.14-0.14c0.38-0.38,0.38-0.38,0.8-0.02c0.63,0.53,1.24,1.08,1.77,1.71
		c0.27,0.32,0.26,0.32-0.01,0.61c-2.02,2.11-4.46,3.5-7.3,4.2c-0.13,0.03-0.26,0.06-0.39,0.09c-0.31,0.09-0.33,0.16-0.09,0.4
		c0.78,0.79,1.63,1.49,2.56,2.1c0.29,0.19,0.3,0.18,0.63-0.13c1.41-1.32,3.03-2.39,4.79-3.18c0.52-0.23,1.05-0.44,1.58-0.63
		c0.36-0.13,0.42-0.1,0.57,0.26c0.33,0.8,0.62,1.63,0.8,2.48c0.08,0.38,0.08,0.4-0.31,0.54c-0.85,0.3-1.68,0.67-2.46,1.13
		c-0.51,0.29-0.99,0.62-1.47,0.97c-0.13,0.1-0.34,0.18-0.32,0.35c0.03,0.22,0.28,0.21,0.44,0.26c1.2,0.38,2.43,0.62,3.69,0.72
		c0.95,0.07,0.76,0.04,0.69,0.85c-0.07,0.75-0.22,1.49-0.43,2.21c-0.11,0.39-0.12,0.4-0.52,0.37c-1.37-0.1-2.73-0.35-4.04-0.73
		c-3.35-0.98-6.24-2.72-8.71-5.18c-0.48-0.48-0.39-0.53-0.91-0.01c-2.56,2.61-5.79,4.46-9.33,5.37c-1.09,0.28-2.19,0.47-3.31,0.56
		c-0.52,0.04-0.51,0.02-0.65-0.46c-0.23-0.77-0.35-1.57-0.44-2.37c-0.06-0.53-0.05-0.55,0.51-0.59c1.22-0.08,2.43-0.29,3.6-0.64
		c0.21-0.06,0.41-0.13,0.62-0.2c0.18-0.06,0.2-0.18,0.06-0.3C5.41,14.45,5.21,14.3,5,14.16c-1.11-0.76-2.29-1.39-3.56-1.83
		c-0.44-0.15-0.45-0.16-0.34-0.61c0.19-0.82,0.44-1.61,0.78-2.38c0.19-0.43,0.2-0.44,0.63-0.29c1.44,0.5,2.81,1.18,4.08,2.03
		c0.81,0.54,1.57,1.14,2.29,1.8c0.32,0.29,0.32,0.28,0.68,0.05c0.82-0.55,1.59-1.17,2.29-1.87c0.08-0.08,0.17-0.16,0.24-0.25
		c0.12-0.14,0.06-0.25-0.09-0.3c-0.09-0.03-0.19-0.05-0.29-0.08C8.82,9.75,6.34,8.36,4.28,6.24L4.14,6.09
		C4.02,5.97,3.99,5.84,4.12,5.7c0.65-0.74,1.37-1.43,2.14-2.04C6.42,3.53,6.53,3.6,6.65,3.72c0.4,0.41,0.81,0.8,1.25,1.15
		c0.84,0.67,1.77,1.21,2.77,1.61C10.76,6.52,10.85,6.58,11.02,6.5"/>
	<path class="st0" d="M14.95,29.16c-0.42,0-0.84,0.02-1.25-0.01c-0.37-0.02-0.42-0.09-0.42-0.47c-0.01-1.27-0.02-2.54,0.01-3.81
		c0.01-0.38-0.12-0.76-0.36-1.05c-1.39-1.78-2.76-3.58-4.13-5.37c-0.35-0.46-0.34-0.46,0.19-0.72c0.69-0.33,1.37-0.69,2.03-1.1
		c0.49-0.31,0.5-0.3,0.84,0.14c0.93,1.21,1.85,2.42,2.78,3.62c0.37,0.48,0.38,0.48,0.74,0.01l2.84-3.7c0.29-0.38,0.3-0.38,0.68-0.14
		c0.74,0.46,1.51,0.87,2.29,1.24c0.34,0.16,0.35,0.22,0.12,0.51c-1.42,1.86-2.84,3.72-4.28,5.57c-0.21,0.26-0.32,0.58-0.31,0.92
		c0.01,1.27,0.01,2.54,0,3.81c0,0.46-0.02,0.5-0.46,0.53C15.82,29.18,15.38,29.16,14.95,29.16L14.95,29.16"/>
</g>
</svg>
