<?xml version="1.0" encoding="utf-8"?>
<!-- Generator: Adobe Illustrator 24.0.2, SVG Export Plug-In . SVG Version: 6.00 Build 0)  -->
<svg version="1.1" id="Слой_1" xmlns="http://www.w3.org/2000/svg" xmlns:xlink="http://www.w3.org/1999/xlink" x="0px" y="0px"
	 width="30px" height="30px" viewBox="0 0 30 30" style="enable-background:new 0 0 30 30;" xml:space="preserve">
<style type="text/css">
	.st0{fill:#E31E13;}
	.st1{fill:#EB5D56;}
</style>
<g>
	<path class="st0" d="M3.32,21.89c2.19-0.06,4.38-0.24,6.56-0.54c3.3-0.39,6.54-1.23,9.62-2.48c1.42-0.55,2.73-1.38,3.83-2.43
		c0.61-0.56,1.02-1.3,1.17-2.11c0.12-0.93-0.18-1.86-0.81-2.55c-0.81-0.94-1.81-1.7-2.93-2.24c-1.38-0.72-2.82-1.3-4.31-1.73
		c-0.1-0.03-0.2-0.06-0.3-0.11c0.43,0,0.85,0.05,1.27,0.15c2.53,0.41,5.01,1.09,7.39,2.04c1.41,0.53,2.71,1.32,3.82,2.34
		c0.63,0.56,1.04,1.32,1.15,2.16c0.06,0.74-0.17,1.47-0.63,2.04c-0.71,0.89-1.61,1.62-2.64,2.13c-1.89,0.99-3.9,1.73-5.98,2.2
		c-3.46,0.83-6.99,1.32-10.55,1.47c-2.75,0.13-5.5,0.1-8.24-0.09c-0.58-0.04-1.16-0.1-1.74-0.15c0.05-0.14,0.16-0.07,0.24-0.07h2.78
		C3.13,21.92,3.23,21.92,3.32,21.89L3.32,21.89z"/>
	<path class="st0" d="M21.26,16.53c-1.47,0.02-2.68-1.16-2.71-2.63c-0.02-1.47,1.15-2.69,2.62-2.71c1.47-0.03,2.69,1.15,2.72,2.62
		C23.91,15.29,22.74,16.5,21.26,16.53z M10.83,14.86H9.17c-0.21,0-0.23-0.06-0.18-0.24c0.23-0.89,0.23-0.89,1.15-0.89h2.08
		c0.12,0,0.24,0,0.19,0.18c-0.36,2.08-2.32,3.48-4.4,3.16c-1.27-0.18-2.18-1.33-2.06-2.61c0.18-2.13,1.89-3.81,4.03-3.95
		c0.97-0.07,1.9,0.38,2.46,1.16c0.1,0.14,0.12,0.22-0.06,0.29c-0.06,0.03-0.12,0.06-0.17,0.09c-0.2,0.16-0.43,0.29-0.68,0.37
		c-0.26,0.04-0.34-0.3-0.54-0.44c-0.71-0.47-1.64-0.47-2.36,0c-0.92,0.5-1.49,1.46-1.49,2.5c0,0.81,0.63,1.48,1.43,1.53
		C9.49,16.09,10.36,15.64,10.83,14.86L10.83,14.86z M2.36,15.85h1.93c0.23,0,0.3,0,0.22,0.28c-0.26,0.84-0.25,0.84-1.13,0.84H1.11
		c-0.22,0-0.31,0-0.23-0.28C1.45,14.8,2.01,12.9,2.55,11c0.02-0.21,0.21-0.35,0.41-0.33c0.01,0,0.02,0,0.03,0.01h2.83
		c0.21,0,0.25,0.04,0.19,0.25c-0.25,0.88-0.25,0.88-1.16,0.88H3.79c-0.18,0-0.28,0.04-0.33,0.22c-0.07,0.28-0.15,0.57-0.25,0.84
		s0,0.23,0.19,0.23H5.1c0.21,0,0.28,0,0.22,0.26c-0.24,0.85-0.23,0.86-1.11,0.86H3.03c-0.12-0.02-0.23,0.06-0.25,0.17
		c0,0,0,0,0,0.01c-0.11,0.42-0.25,0.83-0.36,1.23C2.4,15.69,2.39,15.76,2.36,15.85z M14.84,11.81h-1.34c0.1-0.35,0.2-0.67,0.28-0.99
		c0.04-0.12,0.12-0.13,0.23-0.13h3.65l-0.29,1.03c-0.03,0.12-0.13,0.09-0.22,0.09h-0.87c-0.26,0-0.29,0.1-0.34,0.28
		c-0.44,1.49-0.88,2.98-1.31,4.48c-0.09,0.31-0.2,0.43-0.54,0.42c-0.77-0.03-0.77,0-0.55-0.74L14.84,11.81z"/>
	<path class="st1" d="M4.85,21.89c-0.09,0.08-0.19,0.05-0.29,0.05H1.8c-0.09,0-0.2-0.04-0.28,0.05c-0.24,0.01-0.48-0.03-0.7-0.09
		H4.85z"/>
</g>
</svg>
