<?xml version="1.0" standalone="no"?>
<!DOCTYPE svg PUBLIC "-//W3C//DTD SVG 20010904//EN"
 "http://www.w3.org/TR/2001/REC-SVG-20010904/DTD/svg10.dtd">
<svg version="1.0" xmlns="http://www.w3.org/2000/svg"
 width="424.000000pt" height="241.000000pt" viewBox="0 0 424.000000 241.000000"
 preserveAspectRatio="xMidYMid meet">
<g transform="translate(0.000000,241.000000) scale(0.100000,-0.100000)"
fill="#ff1323" stroke="none">
<path d="M1055 2395 c-272 -59 -524 -267 -623 -515 -12 -30 -112 -341 -222
-691 -150 -479 -201 -655 -206 -710 -21 -235 112 -422 334 -468 82 -17 769
-14 852 3 245 53 475 236 589 471 36 73 301 911 301 950 0 13 -52 15 -438 15
l-438 0 -78 -240 c-43 -132 -75 -244 -71 -250 4 -6 57 -10 131 -10 l126 0 -7
-28 c-3 -15 -25 -90 -49 -167 l-43 -140 -282 -3 c-266 -2 -282 -1 -277 15 3
10 69 221 146 468 78 248 159 507 181 578 l40 127 589 0 588 0 26 78 c67 206
166 519 166 525 0 4 -287 7 -637 6 -486 0 -652 -4 -698 -14z"/>
<path d="M3033 2390 c-268 -71 -504 -265 -603 -495 -11 -25 -108 -332 -217
-683 l-197 -637 -1 -130 c0 -126 1 -132 32 -197 42 -89 100 -150 183 -192 107
-53 163 -58 562 -53 392 5 403 6 554 77 201 93 369 252 460 432 21 41 113 324
231 710 186 609 197 648 201 740 9 208 -77 344 -266 420 -56 22 -65 23 -462
25 -372 2 -411 1 -477 -17z m557 -592 c0 -7 -82 -277 -182 -600 l-181 -588
-289 0 c-271 0 -289 1 -284 18 58 195 362 1160 369 1170 14 18 567 18 567 0z"/>
</g>
</svg>
