<?xml version="1.0" encoding="utf-8"?>
<!-- Generator: Adobe Illustrator 24.0.2, SVG Export Plug-In . SVG Version: 6.00 Build 0)  -->
<svg version="1.1" id="Слой_1" xmlns="http://www.w3.org/2000/svg" xmlns:xlink="http://www.w3.org/1999/xlink" x="0px" y="0px"
	 width="30px" height="30px" viewBox="0 0 30 30" style="enable-background:new 0 0 30 30;" xml:space="preserve">
<style type="text/css">
	.st0{fill:#D1AB56;}
</style>
<g>
	<g>
		<path class="st0" d="M7.42,13.38c0.51-0.07,1.01-0.14,1.56-0.22c-0.5-0.71-1.24-0.76-2.09-0.8c1.12-0.94,2.33-1.09,3.64-0.98
			c-0.4-0.66-1.32-0.81-2.84-0.52c0.28-0.48,0.79-0.77,1.86-0.98c0.73-0.14,1.47-0.22,2.24-0.46c-0.41-0.09-0.82-0.22-1.24-0.26
			c-0.44-0.05-0.9-0.01-1.36-0.08c0.83-0.71,1.89-0.66,2.89-0.81c0-0.06,0.01-0.12,0.01-0.18C11.55,7.92,11,7.75,10.46,7.58
			c0-0.03,0.01-0.07,0.01-0.1c0.92,0,1.84,0,2.76,0c0.01-0.05,0.03-0.09,0.04-0.14c-0.31-0.17-0.62-0.34-0.93-0.5
			c0.01-0.05,0.03-0.09,0.04-0.14c0.63,0.15,1.25,0.31,2.02,0.49c-0.2-0.28-0.34-0.48-0.48-0.67c0.02-0.03,0.03-0.06,0.05-0.1
			c0.37,0.23,0.75,0.46,1.19,0.73c-0.03-0.2-0.05-0.35-0.07-0.47c0.5,0.19,1.02,0.39,1.61,0.61c-0.15-0.84-0.46-1.2-1.84-2.27
			c1.21,0.32,2,1.07,2.81,1.81c-0.38-1.28-1.34-2.12-2.2-3.03c0.04-0.05,0.09-0.09,0.13-0.14c0.59,0.52,1.29,0.96,1.74,1.59
			c1.16,1.59,2.63,2.77,4.23,3.89c1.04,0.72,1.86,1.77,3.33,1.71c0.01,0.07,0.01,0.14,0.02,0.21c-0.29,0.32-0.59,0.64-0.8,0.86
			c-0.57-0.2-1.06-0.33-1.52-0.54c-0.37-0.17-0.69-0.42-1.03-0.64c-0.28-0.17-0.57-0.48-0.84-0.47c-0.37,0.02-0.83,0.2-1.04,0.48
			c-0.16,0.21-0.09,0.78,0.09,1c0.21,0.25,0.69,0.43,1.01,0.38c0.44-0.07,0.74-0.13,1.04,0.3c0.14,0.2,0.51,0.24,0.92,0.42
			c-0.48,0.23-0.87,0.47-1.3,0.62c-0.28,0.1-0.54,0.06-0.68-0.34c-0.21-0.6-0.81-0.75-1.35-0.78c-0.76-0.04-1.29-0.34-1.81-0.92
			c-0.42-0.47-1.06-0.73-1.59-1.06c0.1-0.03,0.34-0.11,0.59-0.19c-0.78-0.63-2.71-0.36-3.57,0.48c-1.07,1.06-0.9,2.18,0.68,4.28
			c-0.75,0.47-1.49,0.96-2.25,1.4c-0.14,0.08-0.44,0.05-0.55-0.05c-0.35-0.31-0.68-0.66-0.96-1.03c-0.66-0.86-1.44-1.5-2.54-1.68
			C7.43,13.5,7.42,13.44,7.42,13.38z"/>
		<path class="st0" d="M9.75,19.26c0.13,0.14,0.23,0.25,0.36,0.39c0.06-0.1,0.13-0.16,0.13-0.22c0.08-1.26,0.76-2.11,1.8-2.73
			c1.23-0.74,2.46-1.49,3.68-2.24c0.13-0.08,0.24-0.18,0.44-0.34c-0.32-0.1-0.56-0.17-0.79-0.26c-0.6-0.23-0.9-0.77-0.74-1.3
			c0.16-0.54,0.69-0.83,1.31-0.73c1.42,0.23,2.02,1.64,1.04,2.67c-1.06,1.1-2.29,2.03-3.43,3.07c-0.53,0.49-1.09,0.98-1.5,1.56
			c-0.79,1.09-0.35,2.61,0.9,3.1c0.54,0.21,1.2,0.27,1.78,0.19c1.31-0.19,1.83-1.5,1.07-2.59c-0.24-0.35-0.58-0.64-0.91-0.91
			c-0.31-0.26-0.68-0.46-1.11-0.75c0.7-0.56,1.37-1.11,2.05-1.63c0.07-0.05,0.24-0.05,0.32,0c1.4,0.84,2.66,1.82,3.4,3.39
			c-0.16,0-0.29,0-0.46,0c0.12,0.58,0.24,1.13,0.36,1.68c-0.07-0.01-0.13-0.03-0.2-0.04c-0.1,0.21-0.23,0.42-0.3,0.64
			c-0.15,0.46-0.26,0.93-0.41,1.5c-0.2-0.21-0.31-0.33-0.42-0.45c-2.34,2.48-5.08,2.02-6.69,0.89C9.76,22.96,9.09,21.11,9.75,19.26z
			"/>
		<path class="st0" d="M28.43,20.71c0.37,0.23,0.68,0.42,0.99,0.62c0.06,0.04,0.11,0.1,0.23,0.21c-2.96,4.68-7.26,7.24-12.68,7.76
			c-6.35,0.62-11.69-1.45-15.85-6.62c1.04-0.04,1.8-0.11,2.59,0.7c3.79,3.86,8.47,5.24,13.77,4.5c3.99-0.56,7.31-2.39,9.83-5.57
			C27.71,21.83,28.04,21.29,28.43,20.71z"/>
		<path class="st0" d="M28.79,6.95c-0.43,0.34-0.77,0.6-1.15,0.91c-3.24-4.13-7.54-6.14-12.73-6.11C9.72,1.78,5.46,3.85,2.26,8.08
			C1.85,7.87,1.44,7.66,0.96,7.4c3.18-4.31,7.45-6.59,12.67-6.95C19.71,0.04,24.84,2.09,28.79,6.95z"/>
	</g>
</g>
</svg>
