<?xml version="1.0" encoding="utf-8"?>
<!-- Generator: Adobe Illustrator 24.0.2, SVG Export Plug-In . SVG Version: 6.00 Build 0)  -->
<svg version="1.1" id="Слой_1" xmlns="http://www.w3.org/2000/svg" xmlns:xlink="http://www.w3.org/1999/xlink" x="0px" y="0px"
	 width="30px" height="30px" viewBox="0 0 30 30" style="enable-background:new 0 0 30 30;" xml:space="preserve">
<style type="text/css">
	.st0{fill-rule:evenodd;clip-rule:evenodd;fill:#FFFFFF;stroke:#CCCCCC;stroke-width:0.0109;stroke-miterlimit:2.613;}
	.st1{fill:none;stroke:#000000;stroke-width:1.2605;stroke-miterlimit:2.613;}
</style>
<g>
	<path class="st0" d="M24.49,11.38c0.48-0.77,1.14-1.51,2.02-1.6c2.37-0.25,3,0.66,2.92,2.7c-0.05,1.12-0.82,2.12-1.74,2.87
		c-0.84,0.68-0.67,0.46-1.07,1.52c-0.19,0.51-0.38,1.03-0.56,1.55c-0.52,1.49-1.03,3.03-1.48,4.54c-0.97,3.3-0.44,3.07-3.68,3.08
		c-4.51,0.02-9.02,0.06-13.53,0.02c-1.1-0.01-2.32,0.04-2.7-1.66c-0.44-1.97-0.77-3.95-1.2-5.92c-0.37-1.69-0.1-1.65-1.11-2.69
		c-0.55-0.57-1.02-1.26-1.32-1.98C0.28,11.98,0.88,9.78,3.11,9.8c2.1,0.02,2.23,1.64,3,2.71c0.22,0.31,0.38,0.01,0.4-0.2
		c0.01-0.08-0.43-0.8-0.52-1c-0.54-1.27-0.46-2.78,0.87-3.54c0.79-0.45,1.53-0.59,2.46-0.2c1.06,0.45,1.56,1.41,1.73,2.47
		c0.06,0.37-0.01,0.79,0.06,1.02c0.15,0.55,0.39,0.59,1.12-0.91c0.51-1.06,0.35-0.75,0.13-1.85c-0.23-1.18-0.21-2.43,0.5-3.32
		c1.31-1.63,4.01-1.08,4.6,0.88c0.23,0.75,0.16,1.61-0.04,2.44c-0.26,1.12-0.43,0.82,0.1,1.92c0.11,0.22,0.22,0.42,0.34,0.6
		c0.43,0.61,0.57,0.39,0.61-0.15c0.08-1.36,0.46-2.71,1.85-3.17c1.06-0.36,1.69-0.13,2.48,0.47c1.12,0.86,1.13,2.25,0.63,3.43
		c-0.85,1.98-0.13,2.05,0.54,1.28C24.2,12.38,24.26,11.75,24.49,11.38L24.49,11.38z"/>
	<path class="st1" d="M6.5,24.11c-0.63-2.96-2.15-12.37-3.75-11.74c-0.73,0.29,1.61,5.12,4.68,2.49c1.75-1.51,1.86-5.72,0.29-4.83
		c-0.83,0.47,2.49,5.26,4.83,3.66c0.74-0.51,4.1-7.16,2.19-7.16c-1.75,0,0.73,6.58,2.78,7.16c2,0.57,4.53-3.07,3.81-3.63
		c-1.29-0.98-1.42,2.53-0.32,4.24c1.74,2.69,6.66-0.45,6.09-1.75c-0.97-2.19-4.52,9.63-5.11,11.56c-0.1,0.33-0.02,0.26-0.37,0.26
		c-1.9,0.01-12.66,0.02-14.72,0.01C6.56,24.37,6.58,24.49,6.5,24.11L6.5,24.11z"/>
</g>
</svg>
