<?xml version="1.0" encoding="utf-8"?>
<!-- Generator: Adobe Illustrator 24.0.2, SVG Export Plug-In . SVG Version: 6.00 Build 0)  -->
<svg version="1.1" id="Слой_1" xmlns="http://www.w3.org/2000/svg" xmlns:xlink="http://www.w3.org/1999/xlink" x="0px" y="0px"
	 width="30px" height="30px" viewBox="0 0 30 30" style="enable-background:new 0 0 30 30;" xml:space="preserve">
<style type="text/css">
	.st0{filter:url(#Adobe_OpacityMaskFilter);}
	.st1{fill-rule:evenodd;clip-rule:evenodd;fill:#FFFFFF;}
	.st2{mask:url(#b_1_);fill-rule:evenodd;clip-rule:evenodd;fill:#426AAF;}
</style>
<g transform="matrix(.34926 0 0 .35278 .1321 .0001)">
	<defs>
		<filter id="Adobe_OpacityMaskFilter" filterUnits="userSpaceOnUse" x="2.77" y="2.66" width="79.73" height="79.73">
			<feColorMatrix  type="matrix" values="1 0 0 0 0  0 1 0 0 0  0 0 1 0 0  0 0 0 1 0"/>
		</filter>
	</defs>
	<mask maskUnits="userSpaceOnUse" x="2.77" y="2.66" width="79.73" height="79.73" id="b_1_">
		<g class="st0">
			<path id="a_1_" class="st1" d="M2.77,2.66H82.5v79.73H2.77V2.66z"/>
		</g>
	</mask>
	<path class="st2" d="M42.63,76.22C23.79,76.22,8.2,61,8.2,42.16c0-18.85,15.58-34.43,34.43-34.43c7.61,0,14.86,2.17,21.02,6.52
		l-9.79,3.62c-2.9-1.09-5.8-1.81-9.06-1.81c-12.68,0-22.83,10.15-22.83,22.47c0,2.9,0.36,5.44,1.45,7.97
		c1.81,4.71,4.71,8.34,9.06,11.23c3.99,2.54,8.7,3.99,13.41,3.99c12.68,0.36,23.19-9.78,23.19-22.47c0-2.17-0.36-3.99-0.72-5.8
		c-5.44,1.45-10.87,3.99-15.95,6.89c-5.44,3.26-10.51,7.25-14.86,11.6c-3.26-2.17-5.8-5.07-7.25-8.34
		c11.23-10.87,25.01-18.48,39.86-22.47v0.36c4.35,5.8,6.89,13.05,6.89,20.66C77.06,61,61.84,76.22,42.63,76.22 M42.63,2.66
		c-22.11,0-39.86,17.76-39.86,39.86c0,22.11,17.76,39.86,39.86,39.86c22.11,0,39.86-17.76,39.86-39.86
		C82.5,20.41,64.37,2.66,42.63,2.66"/>
</g>
</svg>
