<svg height="512" viewBox="0 0 64 64" width="512" xmlns="http://www.w3.org/2000/svg"><g id="Mobilephone-3" data-name="Mobilephone"><rect fill="#6d6e71" height="58" rx="4" width="34" x="21" y="3"/><path d="m50 58h-24a2 2 0 0 1 -2-2v-48a2 2 0 0 1 2-2h4.93a2 2 0 0 1 1.664.891l.812 1.218a2 2 0 0 0 1.664.891h5.86a2 2 0 0 0 1.664-.891l.812-1.218a2 2 0 0 1 1.664-.891h4.93a2 2 0 0 1 2 2v48a2 2 0 0 1 -2 2z" fill="#ffcd00"/><path d="m50 6h-4v35a13 13 0 0 1 -13 13h-9v2a2 2 0 0 0 2 2h24a2 2 0 0 0 2-2v-48a2 2 0 0 0 -2-2z" fill="#ddb200"/><path d="m19.828 18.172-1.656 1.656a4 4 0 0 1 -2.829 1.172h-.343v22h6v-14a6 6 0 0 1 6-6h3a3 3 0 0 0 0-6h-7.343a4 4 0 0 0 -2.829 1.172z" fill="#ff9e84"/><path d="m36 50h4v4h-4z" fill="#ed1c24"/><path d="m28 50h4v4h-4z" fill="#ed1c24"/><path d="m44 50h4v4h-4z" fill="#ed1c24"/><path d="m57 22a3 3 0 0 0 -3-3h-4a3 3 0 0 0 0 6h4a3 3 0 0 0 3-3z" fill="#ffb19d"/><path d="m56 25h-6a3 3 0 0 0 0 6h6a3 3 0 0 0 0-6z" fill="#ff9e84"/><path d="m47 40a3 3 0 0 0 3 3h4a3 3 0 0 0 0-6h-4a3 3 0 0 0 -3 3z" fill="#ffa791"/><circle cx="38" cy="34" fill="#ff5023" r="10"/><path d="m3 19h12v26h-12z" fill="#006df0"/><path d="m47 34a3 3 0 0 0 3 3h4a3 3 0 0 0 0-6h-4a3 3 0 0 0 -3 3z" fill="#ffb19d"/><g fill="#f1f2f2"><path d="m39 7h-2a1 1 0 0 1 0-2h2a1 1 0 0 1 0 2z"/><path d="m38 31c1.221 0 2 .592 2 1a1 1 0 0 0 2 0c0-1.421-1.259-2.571-3-2.9v-1.1a1 1 0 0 0 -2 0v1.1c-1.741.327-3 1.477-3 2.9 0 1.682 1.757 3 4 3 1.221 0 2 .592 2 1s-.779 1-2 1-2-.592-2-1a1 1 0 0 0 -2 0c0 1.421 1.259 2.571 3 2.9v1.1a1 1 0 0 0 2 0v-1.1c1.741-.327 3-1.477 3-2.9 0-1.682-1.757-3-4-3-1.221 0-2-.592-2-1s.779-1 2-1z"/><path d="m45 33h-1a1 1 0 0 0 0 2h1a1 1 0 0 0 0-2z"/><path d="m31 33a1 1 0 0 0 0 2h1a1 1 0 0 0 0-2z"/></g><path d="m12 19h3v26h-3z" fill="#005ece"/></g></svg>