<svg id="Flat" height="512" viewBox="0 0 512 512" width="512" xmlns="http://www.w3.org/2000/svg"><path d="m248 456h184v40h-184z" fill="#3ea7ff"/><path d="m232 336 48 120h80v-120z" fill="#fe99a0"/><path d="m80 16h336v40h-336z" fill="#808080"/><path d="m136 56h224v280h-224z" fill="#a0cc00"/><g fill="#85b200"><path d="m208 336h-72v-72a72.00575 72.00575 0 0 1 72 72z"/><path d="m360 264v72h-72a72.00575 72.00575 0 0 1 72-72z"/><path d="m320 56a72 72 0 0 1 -144 0z"/></g><path d="m445.83008 299.37012-29.83008 156.62988h-72l-8-8a79.19237 79.19237 0 0 1 0-112l-54.06006-54.07007a33.89088 33.89088 0 0 1 -9.93994-23.98999v-.65994a33.27993 33.27993 0 0 1 33.28-33.28h.65991a33.95618 33.95618 0 0 1 24 9.93994l30.06009 30.06006v-144a44.39571 44.39571 0 0 1 42.12012 30.35986l42.22 126.66016a44.40117 44.40117 0 0 1 1.48996 22.3501z" fill="#ffc7cc"/><path d="m336 240 48 48" fill="#ffc7cc"/><path d="m395.31006 288a8.00358 8.00358 0 0 1 -11.31006 0l-24-24v-22.62012l35.31006 35.31006a7.98533 7.98533 0 0 1 0 11.31006z" fill="#fe99a0"/></svg>