<?xml version="1.0" standalone="no"?>
<!DOCTYPE svg PUBLIC "-//W3C//DTD SVG 20010904//EN"
 "http://www.w3.org/TR/2001/REC-SVG-20010904/DTD/svg10.dtd">
<svg version="1.0" xmlns="http://www.w3.org/2000/svg"
 width="289.000000pt" height="460.000000pt" viewBox="0 0 289.000000 460.000000"
 preserveAspectRatio="xMidYMid meet">
<g transform="translate(0.000000,460.000000) scale(0.100000,-0.100000)"
fill="#093479" stroke="none">
<path d="M2740 4509 c-731 -495 -1394 -1139 -1785 -1734 -398 -608 -725 -1500
-909 -2485 -19 -102 -37 -209 -41 -238 l-7 -52 258 2 257 3 78 370 c65 311
103 470 210 878 l10 37 819 0 820 0 0 -645 0 -645 220 0 220 0 0 2300 c0 1265
-3 2300 -7 2300 -5 0 -69 -41 -143 -91z m-312 -2765 c-2 -1 -333 -5 -735 -9
l-733 -8 16 54 c40 134 155 385 263 574 92 159 256 404 354 525 145 180 413
439 717 693 l115 96 3 -961 c1 -529 1 -962 0 -964z"/>
</g>
</svg>
