<?xml version="1.0" encoding="utf-8"?>
<!-- Generator: Adobe Illustrator 24.0.2, SVG Export Plug-In . SVG Version: 6.00 Build 0)  -->
<svg version="1.1" id="Слой_1" xmlns="http://www.w3.org/2000/svg" xmlns:xlink="http://www.w3.org/1999/xlink" x="0px" y="0px"
	 width="30px" height="30px" viewBox="0 0 30 30" style="enable-background:new 0 0 30 30;" xml:space="preserve">
<style type="text/css">
	.st0{fill:#FF000F;}
</style>
<g>
	<path d="M0.43,6.12c2.09,0,4.18,0,6,0C6.21,6.59,5.65,7.21,5.79,7.59c1.27,3.62,2.65,7.19,4.11,11.09c1.4-3.51,2.68-6.71,3.96-9.91
		c0.88-2.2,1.85-4.38,2.6-6.62c0.47-1.43,1.23-2.03,2.7-1.82c0.49,0.07,1,0.01,1.59,0.15c-1.49,0.07-1.85,1.22-2.31,2.23
		c-2.78,6.14-5.53,12.29-8.31,18.43c-0.24,0.54-0.54,1.05-0.98,1.88c-0.38-0.77-0.62-1.2-0.81-1.66c-1.71-4.12-3.43-8.24-5.1-12.38
		C2.69,7.61,2.13,6.35,0.43,6.12z"/>
	<path d="M20.25,7.1c0.96,2.31,1.92,4.62,2.88,6.93c1.02,2.45,2.01,4.92,3.07,7.36c0.71,1.64,1.08,1.89,2.64,2.34
		c-2.11,0-4.22,0-6.51,0c0.51-0.27,0.92-0.49,1.41-0.76c-1.4-3.78-2.77-7.51-4.25-11.5c-0.28,0.55-0.48,0.88-0.62,1.24
		c-1.92,4.7-3.82,9.41-5.77,14.1c-1.38,3.34-0.71,2.97-4.77,2.81c2.23-0.06,2.6-1.83,3.23-3.31c2.53-5.94,5.05-11.88,7.58-17.82
		c0.2-0.46,0.44-0.91,0.66-1.37C19.96,7.11,20.11,7.11,20.25,7.1z"/>
	<path class="st0" d="M20.85,17.93c-1.05,1.28-2.08,1.12-3.09-0.07C19.21,16.6,19.26,16.6,20.85,17.93z"/>
</g>
</svg>
