<?xml version="1.0" encoding="iso-8859-1"?>
<!-- Generator: Adobe Illustrator 19.0.0, SVG Export Plug-In . SVG Version: 6.00 Build 0)  -->
<svg version="1.1" id="Capa_1" xmlns="http://www.w3.org/2000/svg" xmlns:xlink="http://www.w3.org/1999/xlink" x="0px" y="0px"
	 viewBox="0 0 512 512" style="enable-background:new 0 0 512 512;" xml:space="preserve">
<path style="fill:#81493B;" d="M474.257,154.748H35.259c-12.735,0-27.759,13.515-27.759,26.25v46.251h481.757v-57.501
	C489.257,161.464,482.541,154.748,474.257,154.748z"/>
<path style="fill:#60F375;" d="M433.497,69.752H78.503c-8.284,0-15,6.716-15,15v122.496h384.993V84.752
	C448.497,76.468,441.781,69.752,433.497,69.752z"/>
<path style="fill:#00BD4F;" d="M433.497,69.752h-15V177.25H304.54c-5.376-27.271-25.064-47.5-48.54-47.5s-43.165,20.229-48.54,47.5
	H63.503v30c3.579,0,381.321,0,384.993,0V84.752C448.497,76.468,441.781,69.752,433.497,69.752z"/>
<path style="fill:#CE795F;" d="M489.5,207.248h-454c-15.298,0-26.154-11.453-28-26.25v26.25v20v200c0,8.284,6.716,15,15,15h467
	c8.284,0,15-6.716,15-15v-205C504.5,213.964,497.784,207.248,489.5,207.248z"/>
<path style="fill:#81493B;" d="M489.5,207.248h-15v96.667h-22.79c-4.557,0-8.866,2.071-11.713,5.629l-8,10
	c-4.383,5.479-4.383,13.263,0,18.742l8,10c2.847,3.558,7.156,5.629,11.713,5.629h22.79v58.333H7.5v15c0,8.284,6.716,15,15,15h467
	c8.284,0,15-6.716,15-15c0-5.201,0-196.598,0-205C504.5,213.963,497.784,207.248,489.5,207.248z"/>
<path d="M493.868,200.416c-2.653-0.517-5.395-0.416-8.098-0.416H456v-38h18.59c4.08,0.01,7.4,3.37,7.41,7.5v7
	c0,4.14,3.359,7.5,7.5,7.5c4.13,0,7.5-3.36,7.5-7.5v-7c0-6-2.33-11.65-6.55-15.89c-4.23-4.26-9.86-6.6-15.86-6.61H456V84.5
	c0-12.407-10.094-22.5-22.5-22.5h-355C66.094,62,56,72.093,56,84.5V147H34.973C17.781,147,0,159.718,0,181v235.25
	C0,435.175,14.646,450,33.343,450H489.59c12.357,0,22.41-10.093,22.41-22.5l0,0v-205l0,0
	C512,211.562,504.185,202.427,493.868,200.416z M71,84.5c0-4.136,3.364-7.5,7.5-7.5h355c4.136,0,7.5,3.364,7.5,7.5V200h-15v-40.498
	c0-4.066-3.326-7.508-7.393-7.5c-29.034,0.058-52.667-23.574-52.608-52.609c0.008-4.067-3.434-7.393-7.5-7.393H153.501
	c-4.067,0-7.508,3.326-7.5,7.393c0.059,29.035-23.574,52.667-52.608,52.609c-4.067-0.008-7.393,3.434-7.393,7.5
	c0,22.429,0,17.529,0,40.498H71V84.5z M256,122.002c-31.706,0-57.5,31.402-57.5,70c0,2.706,0.138,5.372,0.388,7.998H101
	c0-6.726,0-16.856,0-33.411c31.24-3.469,56.118-28.348,59.587-59.589h190.826c3.469,31.241,28.347,56.119,59.587,59.589V200h-97.888
	c0.25-2.625,0.388-5.292,0.388-7.998C313.5,153.404,287.706,122.002,256,122.002z M265.498,162h-2.499
	c0-6.282-7.722-10.755-14.186-4.46c-0.513,0.5-0.813,1.186-0.813,1.903v4.369c-6.422,2.929-10.906,9.396-10.906,16.905
	c0,10.169,8.209,18.456,18.349,18.583c0.821,0.01,1.601,0.271,2.255,0.701h-43.735c-0.299-2.612-0.463-5.279-0.463-7.998
	c0-30.327,19.065-55,42.5-55s42.5,24.673,42.5,55c0,2.718-0.165,5.386-0.463,7.998h-24.041c-1.444-8.783-9.046-15.52-18.22-15.567
	c-1.599-0.008-3.113-0.955-3.611-2.475c-0.843-2.57,1.063-4.958,3.515-4.958h12.384c0.718,0,1.405-0.301,1.905-0.816
	C276.251,169.71,271.777,162,265.498,162z M34.973,162H56v38H33.5h-0.157C22.886,200,15,191.832,15,181
	C15,167.895,26.68,162,34.973,162z M497,346h-44.985c-2.256,0-4.36-1.02-5.775-2.798l-7.955-10c-2.201-2.768-2.201-6.635,0-9.403
	l7.955-10c0,0,0,0,0.001,0c1.414-1.778,3.519-2.798,5.774-2.798H497V346z M497,296h-44.985c-6.854,0-13.237,3.084-17.515,8.461
	l-7.954,10c-6.576,8.266-6.576,19.813,0,28.079l7.954,10c4.277,5.377,10.661,8.461,17.515,8.461H497v66.5
	c0,4.136-3.324,7.5-7.41,7.5H33.343C22.886,435,15,426.939,15,416.25V209.554C20.23,213.01,26.517,215,33.343,215H33.5h456h0.09
	c4.086,0,7.41,3.364,7.41,7.5V296z"/>
<path d="M96.726,126.031c1.919,0,3.839-0.732,5.303-2.197c2.929-2.929,2.929-7.678,0-10.606c-0.892-0.892-1.025-1.934-1.025-2.475
	s0.133-1.583,1.025-2.475s1.933-1.025,2.474-1.025s1.583,0.133,2.475,1.025c2.929,2.929,7.678,2.929,10.606,0
	c2.929-2.929,2.929-7.678,0-10.606c-3.494-3.494-8.14-5.418-13.082-5.418s-9.587,1.924-13.081,5.418
	c-3.494,3.494-5.418,8.14-5.418,13.082s1.924,9.587,5.418,13.082C92.887,125.298,94.806,126.031,96.726,126.031z"/>
<path d="M405.021,108.278c1.365-1.364,3.585-1.364,4.95,0c1.364,1.365,1.364,3.585,0,4.95c-2.929,2.929-2.928,7.678,0,10.607
	c1.465,1.464,3.384,2.196,5.303,2.196s3.839-0.732,5.304-2.197c7.212-7.213,7.212-18.95,0-26.163c-7.213-7.213-18.95-7.213-26.163,0
	c-2.929,2.929-2.929,7.678,0,10.606C397.344,111.206,402.093,111.206,405.021,108.278z"/>
<g>
</g>
<g>
</g>
<g>
</g>
<g>
</g>
<g>
</g>
<g>
</g>
<g>
</g>
<g>
</g>
<g>
</g>
<g>
</g>
<g>
</g>
<g>
</g>
<g>
</g>
<g>
</g>
<g>
</g>
</svg>
