<svg height="492pt" viewBox="1 1 492 492.586" width="492pt" xmlns="http://www.w3.org/2000/svg" xmlns:xlink="http://www.w3.org/1999/xlink"><linearGradient id="a"><stop offset="0" stop-color="#fc4a1a"/><stop offset="1" stop-color="#f7b733"/></linearGradient><linearGradient id="b" gradientTransform="matrix(1.000845 0 0 -1.000845 .293 483.988896)" gradientUnits="userSpaceOnUse" x1="-13.3411" x2="502.4271" xlink:href="#a" y1="237.2885" y2="237.2885"/><linearGradient id="c" gradientTransform="matrix(1.000845 0 0 -1.000845 .293 483.988896)" gradientUnits="userSpaceOnUse" x1="-13.3411" x2="502.4258" xlink:href="#a" y1="233.1837" y2="233.1837"/><linearGradient id="d" gradientTransform="matrix(1.000845 0 0 -1.000845 .293 483.988896)" gradientUnits="userSpaceOnUse" x1="-13.3411" x2="502.4261" xlink:href="#a" y1="426.1124" y2="426.1124"/><linearGradient id="e" gradientTransform="matrix(1.000845 0 0 -1.000845 .293 483.988896)" gradientUnits="userSpaceOnUse" x1="-13.3413" x2="502.426" xlink:href="#a" y1="48.4647" y2="48.4647"/><path d="m246.792969 410.832031c90.757812 0 164.332031-73.574219 164.332031-164.332031s-73.574219-164.332031-164.332031-164.332031c-90.757813 0-164.332031 73.574219-164.332031 164.332031.101562 90.714844 73.617187 164.230469 164.332031 164.332031zm-147.898438-164.332031c.042969-11.769531 1.5-23.488281 4.332031-34.910156l68.226563 57.460937-28.53125 82.578125c-28.179687-27.71875-44.042969-65.597656-44.027344-105.128906zm180.972657-58.109375c1.164062 2.714844 3.695312 4.597656 6.632812 4.925781l88.277344 9.914063-67.542969 56.890625c-2.601563 2.191406-3.585937 5.753906-2.476563 8.96875l27.914063 80.792968-83.886719-20.972656c-1.308594-.324218-2.679687-.324218-3.988281 0l-83.886719 20.972656 27.917969-80.792968c1.105469-3.214844.125-6.78125-2.476563-8.96875l-67.542968-56.890625 88.277344-9.914063c2.9375-.328125 5.46875-2.210937 6.632812-4.925781l33.074219-77.152344zm-118.808594 178.398437 85.734375-21.4375 85.734375 21.4375c-51.226563 36.816407-120.242188 36.816407-171.46875 0zm189.609375-15.15625-28.53125-82.582031 68.222656-57.460937c12.546875 50.417968-2.558594 103.707031-39.691406 140.042968zm31.691406-164.085937-89.269531-10.027344-33.558594-78.273437c54.019531 4.730468 101.136719 38.601562 122.828125 88.300781zm-148.304687-88.300781-33.558594 78.273437-89.269532 10.027344c21.691407-49.699219 68.808594-83.570313 122.828126-88.300781zm0 0" fill="url(#b)"/><path d="m41.375 246.5c0 113.449219 91.96875 205.417969 205.417969 205.417969s205.417969-91.96875 205.417969-205.417969-91.96875-205.417969-205.417969-205.417969c-113.394531.128907-205.289063 92.023438-205.417969 205.417969zm205.417969-188.984375c104.375 0 188.984375 84.609375 188.984375 188.984375s-84.609375 188.984375-188.984375 188.984375c-104.371094 0-188.984375-84.609375-188.984375-188.984375.121094-104.324219 84.660156-188.863281 188.984375-188.984375zm0 0" fill="url(#b)"/><path d="m219.542969 295.378906 19.46875 6.488282c-.246094.691406-.390625 1.417968-.433594 2.148437v8.21875c0 4.535156 3.679687 8.214844 8.214844 8.214844 4.539062 0 8.21875-3.679688 8.21875-8.214844v-5.03125l13.832031 4.609375c4.308594 1.433594 8.964844-.898438 10.398438-5.207031.277343-.835938.417968-1.707031.417968-2.589844v-41.082031c0-3.539063-2.261718-6.675782-5.617187-7.796875l-43.683594-14.558594v-31.980469l32.867187 10.957032v10.511718c0 4.539063 3.679688 8.214844 8.21875 8.214844 4.539063 0 8.214844-3.675781 8.214844-8.214844v-16.433594c.003906-3.535156-2.261718-6.675781-5.613281-7.796874l-19.035156-6.34375v-10.507813c0-4.539063-3.679688-8.21875-8.214844-8.21875-4.539063 0-8.21875 3.679687-8.21875 8.21875v5.03125l-13.832031-4.613281c-4.308594-1.433594-8.964844.898437-10.398438 5.207031-.277344.835937-.417968 1.710937-.417968 2.589844v49.300781c-.003907 3.535156 2.261718 6.675781 5.617187 7.792969l43.679687 14.5625v23.761719l-32.867187-10.957032v-2.292968c0-4.539063-3.675781-8.21875-8.214844-8.21875-4.539062 0-8.21875 3.679687-8.21875 8.21875v8.214843c0 3.539063 2.261719 6.679688 5.617188 7.796875zm0 0" fill="url(#c)"/><path d="m8.511719 65.734375c22.675781.027344 41.054687 18.402344 41.082031 41.082031 0 4.539063 3.679688 8.21875 8.214844 8.21875 4.539062 0 8.21875-3.679687 8.21875-8.21875.027344-22.675781 18.40625-41.054687 41.082031-41.082031 4.539063 0 8.21875-3.679687 8.21875-8.21875 0-4.535156-3.679687-8.214844-8.21875-8.214844-22.679687-.027343-41.054687-18.40625-41.082031-41.082031 0-4.539062-3.679688-8.21875-8.21875-8.21875-4.535156 0-8.214844 3.679688-8.214844 8.21875-.027344 22.675781-18.40625 41.054688-41.082031 41.082031-4.539063 0-8.21875 3.679688-8.21875 8.214844 0 4.539063 3.679687 8.21875 8.21875 8.21875zm49.296875-27.917969c4.867187 8.070313 11.628906 14.832032 19.699218 19.699219-8.070312 4.871094-14.832031 11.632813-19.699218 19.703125-4.867188-8.070312-11.628906-14.832031-19.699219-19.703125 8.070313-4.867187 14.832031-11.628906 19.699219-19.699219zm0 0" fill="url(#d)"/><path d="m435.777344 377.96875c-4.539063 0-8.21875 3.675781-8.21875 8.214844-.027344 22.679687-18.402344 41.058594-41.082032 41.082031-4.539062 0-8.21875 3.679687-8.21875 8.21875s3.679688 8.21875 8.21875 8.21875c22.675782.023437 41.054688 18.402344 41.082032 41.082031 0 4.539063 3.679687 8.21875 8.21875 8.21875 4.535156 0 8.214844-3.679687 8.214844-8.21875.027343-22.679687 18.40625-41.058594 41.085937-41.082031 4.535156 0 8.214844-3.679687 8.214844-8.21875s-3.679688-8.21875-8.214844-8.21875c-22.679687-.023437-41.058594-18.402344-41.085937-41.082031 0-4.539063-3.679688-8.214844-8.214844-8.214844zm19.699218 57.515625c-8.070312 4.867187-14.832031 11.628906-19.699218 19.699219-4.867188-8.070313-11.628906-14.832032-19.699219-19.699219 8.070313-4.867187 14.832031-11.628906 19.699219-19.699219 4.867187 8.070313 11.628906 14.832032 19.699218 19.699219zm0 0" fill="url(#e)"/></svg>