<svg xmlns="http://www.w3.org/2000/svg" xmlns:xlink="http://www.w3.org/1999/xlink" viewBox="0 0 256 256"><defs/><defs><linearGradient id="a" x1="102.7" x2="102.7" y1="194.6" y2="57.5" gradientUnits="userSpaceOnUse"><stop offset="0" stop-color="#3960ad"/><stop offset=".9" stop-color="#1a1c4b"/></linearGradient><linearGradient id="c" x1="203.4" x2="203.4" xlink:href="#a"/><linearGradient id="d" x1="227.5" x2="227.5" y1="132.4" y2="57.5" gradientUnits="userSpaceOnUse"><stop offset="0" stop-color="#939598"/><stop offset=".6" stop-color="#fff"/><stop offset=".8" stop-color="#babcbe"/><stop offset="1" stop-color="#939598"/></linearGradient><linearGradient id="b" x1="53.2" x2="53.2" y1="194.6" y2="57.5" gradientUnits="userSpaceOnUse"><stop offset=".1" stop-color="#1a1c4b"/><stop offset=".3" stop-color="#273f6e"/><stop offset=".7" stop-color="#367ec1"/><stop offset="1" stop-color="#3960ad"/></linearGradient><linearGradient id="e" x1="152.4" x2="152.4" xlink:href="#b"/></defs><ellipse cx="128" cy="194.9" fill="#221f1f" rx="91.6" ry="3.5"/><path fill="url(#a)" d="M78 116.4l28.3 78.2 21-58.7-28-78.4-21.4 59z"/><path fill="url(#c)" d="M178.3 119.3l27.3 75.3 23-62.2L199 57.5l-20.8 61.8z"/><path fill="url(#d)" d="M199 57.5l29.6 74.9L256 57.5h-57z"/><path fill="url(#b)" d="M56.5 57.5H0l49.2 137.1h57.1l-49.8-137z"/><path fill="url(#e)" d="M177.2 116.4l-21.4-58.9H99.3l49.1 137.1h57.2l-28.4-78.2z"/></svg>