<?xml version="1.0" encoding="utf-8"?>
<!-- Generator: Adobe Illustrator 24.0.2, SVG Export Plug-In . SVG Version: 6.00 Build 0)  -->
<svg version="1.1" id="Слой_1" xmlns="http://www.w3.org/2000/svg" xmlns:xlink="http://www.w3.org/1999/xlink" x="0px" y="0px"
	 width="30px" height="30px" viewBox="0 0 30 30" style="enable-background:new 0 0 30 30;" xml:space="preserve">
<style type="text/css">
	.st0{fill:#01A3FB;}
</style>
<g>
	<path class="st0" d="M1.77,15.25c0-2.44,0.33-4.56,1.12-6.33c0.78-1.78,1.67-3.33,2.9-4.56c1.23-1.22,2.57-2.11,4.13-2.78
		s3.23-0.89,4.8-0.89c3.9,0,6.92,1.22,9.15,3.56c2.23,2.33,3.35,5.78,3.35,10.44v1.44c0,0.56-0.11,1-0.11,1.44H9.69
		c0.22,1.56,0.89,2.89,2.23,3.78c1.34,0.89,3.12,1.44,5.24,1.44c1.45,0,2.79-0.11,4.13-0.33c1.34-0.22,2.45-0.56,3.35-1l1,6.22
		c-0.45,0.22-1,0.44-1.67,0.67c-0.67,0.22-1.45,0.33-2.34,0.56c-0.89,0.11-1.78,0.33-2.68,0.33c-1,0.11-1.9,0.11-2.9,0.11
		c-2.45,0-4.57-0.33-6.36-1.11c-1.78-0.78-3.35-1.67-4.46-3C4,24.03,3.11,22.47,2.55,20.81C1.99,19.14,1.77,17.25,1.77,15.25z
		 M19.84,12.25c0-0.67-0.11-1.33-0.33-1.89c-0.22-0.67-0.45-1.22-0.89-1.67c-0.45-0.44-0.89-0.89-1.45-1.22
		c-0.56-0.33-1.34-0.44-2.23-0.44c-0.89,0-1.56,0.11-2.23,0.44c-0.67,0.33-1.12,0.67-1.56,1.11c-0.45,0.44-0.78,1-1,1.67
		c-0.22,0.67-0.33,1.33-0.45,1.89h10.15V12.25z"/>
</g>
</svg>
