<svg id="Layer_3" enable-background="new 0 0 64 64" height="512" viewBox="0 0 64 64" width="512" xmlns="http://www.w3.org/2000/svg"><g><path d="m18 2h28v16h-28z" fill="#758190"/><path d="m18 18h17.423c2.863-2.955 4.633-6.976 4.633-11.416 0-1.593-.238-3.128-.662-4.584h-21.394z" fill="#8892a0"/><path d="m21 5h22v10h-22z" fill="#c7e2fc"/><path d="m21 15h16.716c1.476-2.463 2.34-5.335 2.34-8.416 0-.535-.03-1.063-.08-1.584h-18.976z" fill="#ebf7fe"/><path d="m25 26h-2.074c-2.457-2.74-6.143-4.354-10.202-3.934-5.662.587-10.219 5.253-10.683 10.927-.248 3.03.634 5.844 2.267 8.074 1.314 1.794 1.625 4.133.922 6.243l-3.009 9.028c-.146.438-.221.898-.221 1.36 0 2.376 1.926 4.302 4.302 4.302h3.698c1.802 0 3.414-1.123 4.037-2.815l5.328-14.461c.995-.502 1.913-1.136 2.728-1.882.387 1.804 1.987 3.158 3.907 3.158 2.209 0 4-1.791 4-4h4c0 2.209 1.791 4 4 4 1.92 0 3.52-1.354 3.908-3.158.815.746 1.732 1.38 2.728 1.882l5.328 14.461c.622 1.692 2.233 2.815 4.036 2.815h3.698c2.376 0 4.302-1.926 4.302-4.302 0-.462-.075-.922-.221-1.36l-3.009-9.028c-.703-2.11-.392-4.449.922-6.243 1.633-2.231 2.515-5.044 2.267-8.074-.464-5.674-5.021-10.339-10.683-10.926-4.059-.421-7.745 1.193-10.202 3.933h-2.074" fill="#8892a0"/><path d="m61.944 57.009c-.037-.227-.092-.452-.165-.671l-.779-2.338h-12.947l1.105 3h12.785z" fill="#f2c351"/><path d="m2.053 57.009c.037-.227.092-.452.165-.671 0 0 .779-2.338.779-2.338h12.947l-1.105 3h-12.785z" fill="#f2c351"/><circle cx="50" cy="34" fill="#c1c8d1" r="8"/><circle cx="14" cy="34" fill="#c1c8d1" r="7"/><g><path d="m26 43.999c-1.103 0-2-.897-2-2s.897-2 2-2 2 .897 2 2c-.001 1.103-.898 2-2 2z" fill="#243242"/></g><g><path d="m38 43.999c-1.103 0-2-.897-2-2s.897-2 2-2 2 .897 2 2c-.001 1.103-.898 2-2 2z" fill="#243242"/></g><path d="m21 32h-5v-5h-4v5h-5v4h5v5h4v-5h5z" fill="#758190"/><circle cx="50" cy="29" fill="#c66b60" r="3"/><circle cx="50" cy="39" fill="#669e4f" r="3"/><circle cx="45" cy="34" fill="#f2c351" r="3"/><circle cx="55" cy="34" fill="#243242" r="3"/><path d="m39 21v7h-14v-7h4v4h6v-4z" fill="#758190"/><path d="m38 22h-12c-1.105 0-2-.895-2-2 0-1.105.895-2 2-2h12c1.105 0 2 .895 2 2 0 1.105-.895 2-2 2z" fill="#f2c351"/><path d="m25 34h4v3h-4z" fill="#243242"/><path d="m35 34h4v3h-4z" fill="#243242"/><g><path d="m25.171 8.999h5.657v2h-5.657z" fill="#c7e2fc" transform="matrix(.707 -.707 .707 .707 1.13 22.728)"/></g><g><path d="m33.171 8.999h5.657v2h-5.657z" fill="#c7e2fc" transform="matrix(.707 -.707 .707 .707 3.474 28.384)"/></g><path d="m26 18c-1.105 0-2 .895-2 2s.895 2 2 2h3.238c2.361-.858 4.471-2.231 6.185-4z" fill="#f7d881"/><path d="m49.158 57h6.536c.777-.866 1.386-1.881 1.782-3h-9.424z" fill="#f7d881"/><g fill="#f7d881"><path d="m2.054 57-.001.009.002-.009z"/><path d="m12.476 54h-9.479l-.779 2.338c-.072.216-.126.438-.163.662h8.639c.777-.866 1.386-1.881 1.782-3z"/></g><path d="m47 29c0 .911.414 1.717 1.055 2.267 1.905-.82 3.24-2.71 3.24-4.915 0-.017-.005-.033-.005-.05-.392-.188-.826-.302-1.29-.302-1.657 0-3 1.343-3 3z" fill="#e47c6e"/><path d="m42 34c0 .911.414 1.717 1.055 2.267 1.905-.82 3.24-2.71 3.24-4.915 0-.017-.005-.033-.005-.05-.392-.188-.826-.302-1.29-.302-1.657 0-3 1.343-3 3z" fill="#f7d881"/><path d="m52 34c0 .911.414 1.717 1.055 2.267 1.905-.82 3.24-2.71 3.24-4.915 0-.017-.005-.033-.005-.05-.392-.188-.826-.302-1.29-.302-1.657 0-3 1.343-3 3z" fill="#4d5d7a"/><path d="m47 39c0 .911.414 1.717 1.055 2.267 1.905-.82 3.24-2.71 3.24-4.915 0-.017-.005-.033-.005-.05-.392-.188-.826-.302-1.29-.302-1.657 0-3 1.343-3 3z" fill="#78b75b"/><g fill="#4d5d7a"><path d="m26 40c-1.103 0-2 .897-2 2 0 .689.351 1.298.883 1.658 1.101-.791 1.857-2.01 2.049-3.417-.281-.149-.594-.241-.932-.241z"/><path d="m38 40c-1.103 0-2 .897-2 2 0 .689.351 1.298.883 1.658 1.101-.791 1.857-2.01 2.049-3.417-.281-.149-.594-.241-.932-.241z"/><path d="m25 36.919c1.415-.377 2.519-1.494 2.871-2.919h-2.871z"/><path d="m35 36.919c1.415-.377 2.519-1.494 2.871-2.919h-2.871z"/></g><g><path d="m26 40c-1.103 0-2 .897-2 2s.897 2 2 2 2-.897 2-2c-.001-1.104-.898-2-2-2z"/><path d="m38 40c-1.103 0-2 .897-2 2s.897 2 2 2 2-.897 2-2c-.001-1.104-.898-2-2-2z"/><path d="m21.45 31.12c-.812-2.108-2.462-3.758-4.57-4.571-.166-.322-.493-.549-.88-.549h-4c-.388 0-.714.227-.88.549-2.109.812-3.759 2.463-4.571 4.571-.322.166-.549.492-.549.88v4c0 .388.227.714.549.88.813 2.108 2.463 3.758 4.57 4.57.166.323.493.55.881.55h4c.388 0 .715-.227.88-.55 2.108-.812 3.758-2.462 4.57-4.57.323-.166.55-.492.55-.88v-4c0-.388-.227-.715-.55-.88zm-2.256-.12h-2.194v-2.195c.913.526 1.669 1.281 2.194 2.195zm-8.194-2.195v2.195h-2.195c.525-.914 1.281-1.67 2.195-2.195zm-2.195 8.195h2.195v2.195c-.914-.527-1.669-1.282-2.195-2.195zm6.195-1v4h-2v-4c0-.552-.448-1-1-1h-4v-2h4c.552 0 1-.448 1-1v-4h2v4c0 .552.448 1 1 1h4v2h-4c-.553 0-1 .447-1 1zm2 3.194v-2.194h2.195c-.527.913-1.282 1.668-2.195 2.194z"/><path d="m59 34c0-4.96-4.032-8.995-8.991-9-.003 0-.006 0-.009 0s-.007.001-.01.001c-4.959.005-8.99 4.04-8.99 8.999 0 4.962 4.037 9 9 9 4.962 0 9-4.038 9-9zm-16 0c0-1.103.897-2 2-2s2 .897 2 2-.897 2-2 2-2-.897-2-2zm7-7h.009c1.098.005 1.99.899 1.99 1.999 0 1.103-.897 2-2 2s-2-.897-2-2c0-1.1.892-1.993 1.99-1.999.004.001.007 0 .011 0zm7 7c0 1.103-.897 2-2 2s-2-.897-2-2 .897-2 2-2 2 .897 2 2zm-7 3c1.103 0 2 .897 2 2s-.897 2-2 2-2-.897-2-2c0-1.104.896-2 2-2zm-1.206-1.794c.122-.383.206-.783.206-1.206s-.084-.824-.206-1.207c.383.122.783.206 1.206.206s.824-.084 1.207-.206c-.123.383-.207.783-.207 1.207 0 .423.084.823.206 1.206-.383-.123-.783-.206-1.206-.206s-.823.083-1.206.206zm5.124 4.591c.052-.258.081-.524.081-.797 0-.423-.084-.823-.206-1.206.383.122.784.206 1.207.206.273 0 .539-.028.796-.081-.501.739-1.139 1.377-1.878 1.878zm1.878-9.716c-.257-.053-.523-.081-.796-.081-.424 0-.824.084-1.207.206.122-.383.206-.784.206-1.207 0-.273-.028-.539-.081-.797.739.502 1.377 1.14 1.878 1.879zm-9.716-1.877c-.052.257-.08.523-.08.796 0 .423.084.823.206 1.206-.383-.122-.783-.206-1.206-.206-.273 0-.539.028-.797.081.501-.739 1.139-1.376 1.877-1.877zm-1.877 9.715c.258.052.524.081.797.081.423 0 .823-.084 1.206-.206-.123.383-.206.783-.206 1.206 0 .273.028.539.081.796-.739-.501-1.377-1.139-1.878-1.877z"/><path d="m42.999 4h-21.999c-.553 0-1 .447-1 1v10c0 .553.447 1 1 1h22c.553 0 1-.447 1-1v-10c-.001-.553-.448-1-1.001-1zm-1 9.999h-19.999v-7.999h20v7.999z"/><path d="m62.727 56.021-3.009-9.028c-.612-1.837-.321-3.833.78-5.336 1.84-2.512 2.712-5.619 2.457-8.746-.5-6.117-5.478-11.207-11.577-11.84-4.045-.412-7.94 1.008-10.741 3.929h-.638v-2.781c.609-.55 1-1.337 1-2.22 0-.352-.072-.686-.184-1h5.184c.553 0 1-.447 1-1v-15.999c0-.553-.447-1-1-1h-27.999c-.553 0-1 .447-1 1v16c0 .553.447 1 1 1h5.185c-.113.314-.185.647-.185 1 0 .883.391 1.67 1 2.219v2.781h-.637c-2.8-2.92-6.681-4.34-10.741-3.929-6.1.633-11.077 5.723-11.577 11.84-.255 3.127.617 6.234 2.457 8.746 1.101 1.504 1.393 3.499.78 5.336l-3.009 9.027c-.181.541-.273 1.105-.274 1.678 0 2.923 2.379 5.302 5.303 5.302h3.698c2.211 0 4.21-1.395 4.975-3.469l5.195-14.1c.52-.283 1.02-.6 1.496-.948.874 1.517 2.518 2.517 4.334 2.517 2.415 0 4.435-1.721 4.899-4h2.201c.465 2.279 2.485 4 4.9 4 1.815 0 3.459-1 4.334-2.517.476.349.976.666 1.496.948l5.195 14.099c.764 2.075 2.763 3.47 4.975 3.47h3.698c2.923 0 5.302-2.379 5.303-5.302-.001-.571-.093-1.136-.274-1.677zm-43.727-53.021h26v14h-26zm30.486 51.999h10.792l.333 1h-10.756zm-19.486-31.999h4v1h-4zm-4-2c-.552 0-1-.449-1-1 0-.552.448-1 1-1h12c.551 0 .999.448.999 1 0 .551-.448 1-.999 1zm2 2v2c0 .552.447 1 1 1h6c.553 0 1-.447 1-1v-2h2v4h-12v-4zm-24.28 31.999h10.793l-.369 1h-10.757zm6.28 6.001h-3.698c-.882 0-1.711-.344-2.335-.967-.552-.552-.868-1.267-.938-2.034h10.378l-.31.84c-.475 1.292-1.72 2.161-3.097 2.161zm35.085-17.169c-.911-.459-1.753-1.041-2.503-1.727-.264-.242-.635-.322-.979-.215-.342.109-.599.392-.674.743-.294 1.372-1.526 2.368-2.929 2.368-1.654 0-3-1.346-3-3 0-.553-.448-1-1-1h-4c-.553 0-1 .447-1 1 0 1.654-1.346 3-3 3-1.403 0-2.636-.996-2.93-2.368-.075-.351-.332-.634-.674-.743-.34-.107-.714-.027-.979.215-.75.686-1.592 1.267-2.503 1.727-.226.114-.4.31-.488.547l-3.176 8.622h-10.863l1.791-5.374c.817-2.451.419-5.124-1.063-7.15-1.556-2.125-2.293-4.754-2.077-7.402.423-5.173 4.632-9.478 9.79-10.013 3.559-.365 6.967.946 9.354 3.607.189.211.46.332.744.332h1.074v1c0 .552.447 1 1 1h14c.553 0 1-.448 1-1v-1h1.074c.284 0 .555-.121.745-.333 2.386-2.661 5.8-3.973 9.354-3.607 5.158.535 9.367 4.839 9.79 10.013.216 2.648-.521 5.277-2.077 7.402-1.483 2.026-1.881 4.699-1.063 7.15l1.789 5.375h-10.862l-3.176-8.621c-.088-.238-.262-.434-.489-.548zm12.612 17.169h-3.697c-1.377 0-2.623-.869-3.099-2.161l-.309-.84h10.378c-.156 1.678-1.555 3.001-3.273 3.001z"/><path d="m29 33h-4c-.553 0-1 .447-1 1v3c0 .553.447 1 1 1h4c.552 0 1-.447 1-1v-3c0-.553-.448-1-1-1zm-1 2.999h-2v-1h2z"/><path d="m39 33h-4c-.553 0-1 .447-1 1v3c0 .553.447 1 1 1h4c.552 0 1-.447 1-1v-3c0-.553-.448-1-1-1zm-1 2.999h-2v-1h2z"/><path d="m25.171 8.999h5.657v2h-5.657z" transform="matrix(.707 -.707 .707 .707 1.13 22.728)"/><path d="m33.171 8.999h5.657v2h-5.657z" transform="matrix(.707 -.707 .707 .707 3.474 28.384)"/></g></g></svg>