<?xml version="1.0" encoding="utf-8"?>
<!-- Generator: Adobe Illustrator 24.0.2, SVG Export Plug-In . SVG Version: 6.00 Build 0)  -->
<svg version="1.1" id="Слой_1" xmlns="http://www.w3.org/2000/svg" xmlns:xlink="http://www.w3.org/1999/xlink" x="0px" y="0px"
	 width="30px" height="30px" viewBox="0 0 30 30" style="enable-background:new 0 0 30 30;" xml:space="preserve">
<style type="text/css">
	.st0{fill:#0066B3;}
</style>
<g>
	<path class="st0" d="M14.69,29.78c-0.59-0.45-1.23-0.86-1.75-1.37c-3.97-3.92-7.91-7.87-11.87-11.81
		c-1.15-1.15-1.15-2.08,0.01-3.23c0.94-0.94,1.87-1.89,2.84-2.8c0.23-0.21,0.6-0.36,0.92-0.38c1.77-0.12,3.54-0.11,5.3-0.3
		c1.31-0.14,2.39-0.81,2.96-2.08c0.1-0.21,0.15-0.45,0.26-0.79c-1.93,0-3.78,0-5.77,0c0.17-0.24,0.24-0.36,0.34-0.46
		c1.88-1.88,3.76-3.76,5.65-5.63c0.94-0.93,1.97-0.94,2.91-0.01c1.9,1.89,3.8,3.78,5.7,5.67c0.07,0.07,0.14,0.16,0.34,0.38
		c-0.42,0-0.69-0.01-0.96,0c-1.7,0.1-3.42,0.05-5.09,0.34c-1.97,0.34-3.05,1.68-3.12,3.67c-0.08,2.67-0.1,5.35,0.01,8.01
		c0.1,2.4,1.81,3.82,4.5,3.92c1.28,0.05,2.57,0.06,3.85,0.09c0.21,0,0.43,0.02,0.76,0.03c-0.2,0.22-0.32,0.37-0.45,0.5
		c-1.61,1.61-3.21,3.24-4.85,4.82c-0.55,0.53-1.2,0.95-1.8,1.42C15.13,29.78,14.91,29.78,14.69,29.78z"/>
	<path class="st0" d="M21.98,19.8c-1.02,0-2.04,0.02-3.06-0.01c-1.37-0.04-1.95-0.44-2-1.77c-0.09-2.11-0.03-4.23,0.07-6.35
		c0.05-0.97,0.64-1.46,1.63-1.48c2.28-0.05,4.57-0.03,6.85-0.01c0.21,0,0.45,0.16,0.61,0.32c1.05,1.02,2.08,2.05,3.11,3.09
		c0.83,0.84,0.87,1.86,0.06,2.71c-1.07,1.12-2.17,2.21-3.29,3.28c-0.17,0.16-0.47,0.24-0.71,0.24c-1.09,0.03-2.17,0.01-3.26,0.01
		C21.98,19.82,21.98,19.81,21.98,19.8z"/>
</g>
</svg>
