<?xml version="1.0"?>
<svg xmlns="http://www.w3.org/2000/svg" xmlns:xlink="http://www.w3.org/1999/xlink" xmlns:svgjs="http://svgjs.com/svgjs" version="1.1" width="512" height="512" x="0" y="0" viewBox="0 0 512 512" style="enable-background:new 0 0 512 512" xml:space="preserve" class=""><g><g xmlns="http://www.w3.org/2000/svg"><path d="m218.045 0h128.609c9.695 0 18.51 3.969 24.889 10.347 6.378 6.378 10.318 15.194 10.318 24.889v218.412c0 9.694-3.94 18.51-10.318 24.888s-15.194 10.318-24.889 10.318h-22.365l-22.479 9.496-81.979 83.963c-6.605 6.633-15.307 10.375-24.69 10.488-8.788.113-19.503-3.656-25.399-10.346l-155.964-152.251c-6.633-6.633-10.403-15.335-10.517-24.718-.114-9.892 3.628-18.51 10.488-25.512l64.631-66.218c-2.551-8.051-2.041-16.498.963-23.896 3.402-8.334 9.978-15.392 18.936-19.162l84.53-35.604c.057-9.638 3.996-18.397 10.347-24.747 6.379-6.378 15.194-10.347 24.889-10.347zm115.825 432.09c-2.75.454-5.527.567-8.306.369-5.754-.425-11.424-2.268-16.47-5.499l-14.343 14.372c5.641 4.28 11.877 7.342 18.397 9.185 6.803 1.899 13.89 2.494 20.863 1.786-.51-3.516-.793-7.059-.793-10.603 0-3.204.227-6.435.652-9.61zm-35.377-15.732c-3.713-5.811-5.584-12.444-5.584-19.106 0-6.633 1.871-13.295 5.584-19.077l-14.343-14.372c-7.512 9.865-11.254 21.657-11.254 33.449 0 11.821 3.742 23.613 11.254 33.449zm10.602-48.785c5.811-3.742 12.445-5.613 19.106-5.613 6.662 0 13.295 1.871 19.105 5.613l14.344-14.372c-9.865-7.483-21.657-11.254-33.449-11.254s-23.585 3.771-33.449 11.254zm48.784 10.602c1.474 2.296 2.664 4.706 3.543 7.2 5.528-4.139 11.509-7.342 17.774-9.638-.907-2.154-1.956-4.224-3.146-6.293-1.134-1.928-2.381-3.798-3.798-5.641zm-9.382 19.757c.085-2.438-.255-4.875-1.049-7.2-2.778-8.192-10.545-13.776-19.247-13.776-11.226 0-20.296 9.1-20.296 20.296 0 5.215 1.984 10.403 5.953 14.372 3.572 3.571 8.136 5.527 12.814 5.896 4.11.312 8.277-.623 11.905-2.778 2.465-5.925 5.781-11.594 9.92-16.81zm57.487-26.504c.511-1.162 1.077-2.324 1.729-3.458.34-.567.681-1.134 1.021-1.701l-14.372-14.4c-.652.878-1.275 1.729-1.871 2.608-1.446 2.154-2.75 4.45-3.884 6.804.114.227.255.453.397.68 1.871 3.232 3.487 6.633 4.819 10.092 3.232-.425 6.463-.652 9.723-.652.794-.001 1.616-.001 2.438.027zm13.351-15.789c5.783-3.713 12.444-5.584 19.078-5.584 6.661 0 13.323 1.871 19.106 5.584l14.343-14.343c-9.836-7.512-21.628-11.253-33.449-11.253-11.793 0-23.585 3.742-33.45 11.253zm48.785 10.602c3.742 5.811 5.612 12.444 5.612 19.105 0 6.662-1.871 13.295-5.612 19.106l14.372 14.344c7.484-9.865 11.253-21.658 11.253-33.45s-3.77-23.585-11.253-33.449zm-11.905 28.885c1.672-3.033 2.523-6.407 2.523-9.78 0-5.188-1.984-10.403-5.953-14.343-3.969-3.968-9.157-5.953-14.372-5.953-5.188 0-10.375 1.984-14.344 5.953-.878.879-1.672 1.814-2.353 2.778 13.295 3.543 25.371 11.055 34.499 21.345zm-71.774 16.866c5.783-3.713 12.444-5.584 19.105-5.584 6.633 0 13.295 1.871 19.078 5.584l14.372-14.343c-9.865-7.512-21.657-11.254-33.449-11.254-11.821 0-23.613 3.742-33.449 11.254zm48.784 10.602c3.742 5.811 5.612 12.444 5.612 19.105 0 6.662-1.871 13.295-5.612 19.107l14.372 14.343c7.484-9.865 11.254-21.657 11.254-33.45 0-11.792-3.77-23.584-11.254-33.448zm-10.601 48.813c-5.783 3.713-12.444 5.585-19.078 5.585-6.662 0-13.323-1.871-19.105-5.585l-14.343 14.343c9.836 7.512 21.628 11.254 33.449 11.254 11.792 0 23.585-3.742 33.449-11.254zm-48.785-10.601c-3.742-5.811-5.613-12.444-5.613-19.107 0-6.661 1.871-13.294 5.613-19.105l-14.373-14.343c-7.483 9.864-11.253 21.656-11.253 33.448 0 11.793 3.77 23.585 11.253 33.45zm29.707-39.403c-11.225 0-20.325 9.071-20.325 20.296 0 11.226 9.1 20.297 20.325 20.297 11.197 0 20.296-9.071 20.296-20.297.001-11.224-9.099-20.296-20.296-20.296zm-65.679 45.469c-9.581 1.332-19.39.681-28.772-1.956-11.225-3.146-21.798-9.127-30.615-17.944-13.719-13.719-20.579-31.719-20.579-49.72 0-17.972 6.86-35.972 20.579-49.692 13.239-13.238 31.012-20.608 49.721-20.608 19.077 0 37.191 7.653 50.457 21.373 2.863-4.592 6.236-8.872 10.063-12.699 13.72-13.72 31.72-20.58 49.692-20.58 18 0 36 6.86 49.72 20.58 13.239 13.238 20.608 31.012 20.608 49.72 0 22.763-10.885 43.768-29.112 56.977-1.927 1.389-3.883 2.665-5.924 3.855-1.049 16.47-7.852 32.656-20.466 45.242-13.72 13.72-31.72 20.58-49.692 20.58-18 0-36-6.86-49.72-20.58-7.229-7.2-12.53-15.591-15.96-24.548zm-55.531-361.309 5.13-5.103c6.605-6.604 15.279-9.921 23.953-9.921s17.377 3.316 23.982 9.921c6.576 6.577 9.893 15.279 9.893 23.954 0 8.674-3.317 17.376-9.893 23.952l-47.764 47.765c-2.92 2.919-7.654 2.919-10.602 0l-47.736-47.765c-6.605-6.576-9.893-15.278-9.893-23.952s3.288-17.377 9.893-23.954c6.605-6.604 15.279-9.921 23.982-9.921 8.674 0 17.348 3.316 23.953 9.921zm15.732 5.5-10.431 10.403c-2.92 2.92-7.654 2.92-10.602 0l-10.403-10.403c-3.657-3.685-8.504-5.5-13.351-5.5s-9.694 1.814-13.379 5.5c-3.657 3.657-5.5 8.504-5.5 13.352 0 4.847 1.843 9.694 5.5 13.351l42.435 42.436 42.463-42.436c3.657-3.656 5.499-8.504 5.499-13.351 0-4.848-1.842-9.695-5.499-13.352-3.686-3.685-8.533-5.5-13.38-5.5-4.848 0-9.696 1.815-13.352 5.5zm-249.168 99.186c-2.977-2.863-3.033-7.626-.17-10.573 2.891-2.948 7.625-3.033 10.573-.142l12.7 12.387c2.977 2.892 3.033 7.626.142 10.573-2.863 2.977-7.598 3.033-10.574.142zm70.668-98.307c-1.587-3.799.199-8.193 3.997-9.78 3.798-1.616 8.192.17 9.779 3.968l6.888 16.356c1.616 3.798-.17 8.192-3.968 9.779-3.827 1.616-8.192-.17-9.808-3.968zm208.491 112.876c0-4.139 3.373-7.512 7.512-7.512s7.483 3.373 7.483 7.512v17.745c0 4.139-3.345 7.484-7.483 7.484s-7.512-3.345-7.512-7.484zm-106.442-178.499c0-4.139 3.373-7.512 7.512-7.512s7.512 3.373 7.512 7.512v17.746c0 4.138-3.373 7.483-7.512 7.483s-7.512-3.345-7.512-7.483zm44.703 266.97-55.928 23.556c-8.929 3.771-18.567 3.544-26.901.17-8.334-3.402-15.42-9.978-19.19-18.936l-79.713-189.243-60.265 61.711c-3.969 4.706-6.18 8.249-6.123 14.769.085 5.585 2.211 10.375 6.151 14.315l155.822 152.137c4.706 3.94 8.277 6.18 14.797 6.095 5.584-.057 10.346-2.183 14.287-6.123zm-172.207-200.298 83.963 199.277c2.154 5.131 6.208 8.901 11.027 10.857 4.848 1.956 10.403 2.097 15.506-.057l81.213-34.214h-67.777c-9.694 0-18.51-3.94-24.888-10.318s-10.347-15.194-10.347-24.888v-202.34l-78.719 33.166c-5.131 2.154-8.901 6.208-10.856 11.027-2.864 7.029-1.418 11.055.878 17.49zm252.541-97.995h-128.609c-5.556 0-10.602 2.296-14.287 5.953-3.657 3.657-5.924 8.731-5.924 14.287v218.412c0 5.556 2.268 10.601 5.924 14.286 3.685 3.657 8.731 5.925 14.287 5.925h128.609c5.556 0 10.602-2.268 14.287-5.925 3.657-3.685 5.925-8.73 5.925-14.286v-218.413c0-5.556-2.268-10.63-5.925-14.287-3.685-3.656-8.731-5.952-14.287-5.952z" fill="#222222" data-original="#000000" style="" class=""/></g></g></svg>
