<?xml version="1.0"?>
<svg xmlns="http://www.w3.org/2000/svg" xmlns:xlink="http://www.w3.org/1999/xlink" xmlns:svgjs="http://svgjs.com/svgjs" version="1.1" width="512" height="512" x="0" y="0" viewBox="0 0 512 512.01259" style="enable-background:new 0 0 512 512" xml:space="preserve" class=""><g><path xmlns="http://www.w3.org/2000/svg" d="m25.605469 512.011719h307.199219c14.132812-.015625 25.585937-11.46875 25.601562-25.597657v-13.265624l6.800781 15.214843c3.011719 6.695313 8.800781 11.738281 15.847657 13.808594 4.804687 6.183594 12.1875 9.8125 20.019531 9.839844h85.332031c14.132812-.015625 25.585938-11.46875 25.601562-25.597657v-136.535156c-.015624-14.132812-11.46875-25.585937-25.601562-25.601562h-45.066406l-7.296875-16.355469c-2.765625-6.203125-7.882813-11.050781-14.222657-13.476563-6.34375-2.425781-13.390624-2.230468-19.589843.542969l-77.914063 34.90625c-5.871094 2.648438-10.511718 7.433594-12.980468 13.382813-11.695313-8.003906-24.875-13.582032-38.761719-16.410156-1.175781-1.226563-2.695313-2.070313-4.359375-2.421876l-42.667969-8.53125c-3.066406-.621093-6.226563.492188-8.226563 2.898438l-1.980468 2.375v-26.554688c46.523437-9.929687 83.996094-44.320312 97.878906-89.820312h13.054688c14.132812-.015625 25.585937-11.46875 25.597656-25.601562-.015625-10.824219-6.863282-20.460938-17.078125-24.042969.011719-2.671875.011719-5.179688.011719-5.820313-1.285157-83.605468-69.988282-150.402344-153.597657-149.3359372-83.609375-1.0664068-152.3125 65.7304692-153.601562 149.3359372 0 .640625 0 3.136719.015625 5.800782-3.574219 1.210937-6.816406 3.238281-9.472656 5.917968-4.898438 4.765625-7.644532 11.316406-7.609376 18.144532.015626 14.132812 11.46875 25.585937 25.601563 25.601562h13.050781c13.878906 45.503906 51.355469 79.894531 97.882813 89.820312v26.554688l-1.980469-2.375c-2-2.40625-5.160156-3.523438-8.230469-2.902344l-42.664062 8.535156c-1.667969.351563-3.191407 1.199219-4.371094 2.429688-14.761719 2.984375-28.730469 9.058594-40.980469 17.820312l-.070312.046876-.085938.054687c-29.273437 20.808594-46.6679685 54.5-46.6835935 90.414063v51.203124c.015625 14.128907 11.4648435 25.582032 25.5976565 25.597657zm35.503906-156.199219c7.613281-4.894531 15.925781-8.609375 24.652344-11.015625 2.660156 51.921875 15.125 102.867187 36.738281 150.148437h-53.398438c3.214844-46.527343.527344-93.277343-7.992187-139.132812zm228.203125 139.132812h-53.402344c21.617188-47.28125 34.082032-98.226562 36.742188-150.148437 8.726562 2.410156 17.035156 6.125 24.648437 11.023437-8.519531 45.851563-11.203125 92.597657-7.988281 139.125zm-72.625 0h-28.949219v-106.859374l30.964844 12.386718c3.652344 1.457032 7.828125.230469 10.117187-2.96875l25.355469-35.496094c-4.109375 46.257813-16.824219 91.34375-37.488281 132.9375zm-46.015625 0h-28.949219c-20.664062-41.59375-33.378906-86.679687-37.488281-132.941406l25.359375 35.496094c2.289062 3.199219 6.464844 4.425781 10.117188 2.96875l30.960937-12.382812zm170.667969-59.734374v51.203124c-.003906 4.710938-3.824219 8.527344-8.535156 8.53125h-26.359376c-3.09375-41.808593-1.160156-83.839843 5.753907-125.1875l29.132812 65.1875c0 .089844.007813.175782.007813.265626zm153.601562-85.332032v136.535156c-.007812 4.710938-3.824218 8.527344-8.535156 8.53125h-85.332031c-4.710938-.003906-8.53125-3.820312-8.535157-8.53125v-136.535156c.003907-4.710937 3.824219-8.527344 8.535157-8.53125h85.332031c4.710938.003906 8.527344 3.820313 8.535156 8.53125zm-170.113281.382813c.785156-2.132813 2.398437-3.859375 4.46875-4.789063l77.898437-34.902344c2.066407-.921874 4.414063-.988281 6.53125-.183593 2.113282.800781 3.816407 2.414062 4.730469 4.484375l4.195313 9.40625h-21.578125c-14.132813.015625-25.585938 11.46875-25.601563 25.601562v119.621094l-50.441406-112.863281c-.917969-2.011719-.992188-4.308594-.203125-6.375zm-99.652344-16.617188 24.746094 4.949219-31.097656 43.542969-25.542969-10.214844zm99.097657-145.898437h-9.527344c.066406-.535156.199218-1.046875.261718-1.582032.480469-4.328124.722657-8.675781.730469-13.027343 0-.804688-.097656-1.644531-.113281-2.457031h8.648438c2.296874-.007813 4.496093.9375 6.074218 2.609374 1.589844 1.558594 2.480469 3.695313 2.457032 5.921876-.003907 4.710937-3.820313 8.53125-8.53125 8.535156zm-145.066407-170.667969c74.183594-1.074219 135.253907 58.085937 136.53125 132.269531v4.265625h-1.71875c-.128906-.785156-.179687-1.546875-.324219-2.332031-.851562-4.203125-1.867187-8.25-3.015624-12.019531-.050782-.167969-.179688-.28125-.242188-.445313-.054688-.148437-.03125-.316406-.097656-.460937-10.238282-23.542969-32.933594-64.585938-69.863282-75-21.175781-5.230469-43.578124-.894531-61.269531 11.859375-17.691406-12.753906-40.097656-17.089844-61.269531-11.859375-36.933594 10.414062-59.628906 51.457031-69.867188 75-.0625.136719-.039062.308593-.09375.457031-.0625.164062-.191406.28125-.242187.449219-1.152344 3.769531-2.167969 7.824219-3.046875 12.175781-.132812.726562-.179688 1.449219-.300781 2.175781h-1.714844c0-2.023437 0-3.757812 0-4.265625 1.28125-74.183594 62.347656-133.34375 136.535156-132.269531zm-145.066406 170.667969c-4.710937-.003906-8.53125-3.824219-8.535156-8.535156-.003907-2.300782.941406-4.5 2.613281-6.082032 1.585938-1.601562 3.753906-2.488281 6.007812-2.449218h8.5625c-.019531.816406-.117187 1.648437-.117187 2.457031.011719 4.367187.257813 8.726562.738281 13.066406.058594.523437.1875 1.023437.257813 1.542969zm26.230469-3.414063c-1.117188-9.886719-.753906-19.886719 1.082031-29.667969.683594-3.410156 1.535156-6.800781 2.519531-10.0625 7.46875-17.019531 27.648438-56.085937 58.601563-64.820312 15.980469-4.507812 33.386719-.289062 51.742187 12.558594.054688.042968.125.042968.183594.085937.578125.339844 1.191406.609375 1.832031.800781.402344.191407.820313.351563 1.246094.480469 1.503906.402344 3.105469.234375 4.492187-.476562.644532-.191407 1.269532-.464844 1.847657-.808594.058593-.035156.125-.039063.179687-.078125 18.355469-12.847656 35.761719-17.066406 51.742188-12.558594 30.902344 8.71875 51.082031 47.703125 58.578125 64.769532l.015625.03125c.988281 3.265624 1.839844 6.660156 2.496094 9.925781 1.855468 9.816406 2.230468 19.855469 1.109374 29.78125-6.253906 55.476562-57.34375 97.320312-118.832031 97.320312s-112.582031-41.84375-118.835937-97.28125zm101.769531 113.261719c5.664063.6875 11.359375 1.046875 17.066406 1.085938 5.703125-.039063 11.402344-.398438 17.066407-1.085938v44.074219l-17.066407 20.480469-17.066406-20.480469zm-28.90625 36.050781 31.898437 38.277344-25.542968 10.214844-31.101563-43.542969zm-116.160156 101.566407c.050781-25.46875 10.449219-49.820313 28.808593-67.472657 7.167969 42 9.210938 84.714844 6.085938 127.207031h-26.363281c-4.710938-.003906-8.527344-3.820312-8.53125-8.53125zm0 0" fill="#222222" data-original="#000000" style=""/><path xmlns="http://www.w3.org/2000/svg" d="m435.898438 380.652344-25.601563 59.734375c-1.296875 2.820312-.960937 6.121093.878906 8.621093 1.835938 2.5 4.882813 3.804688 7.960938 3.410157s5.699219-2.429688 6.84375-5.3125l5.097656-11.894531h25.320313l5.101562 11.894531c1.339844 3.140625 4.429688 5.179687 7.84375 5.171875 1.15625.003906 2.296875-.230469 3.359375-.691406 4.328125-1.855469 6.332031-6.867188 4.476563-11.199219l-25.597657-59.734375c-1.34375-3.136719-4.429687-5.171875-7.84375-5.171875-3.414062 0-6.496093 2.035156-7.839843 5.171875zm13.1875 37.492187h-10.691407l5.34375-12.464843zm0 0" fill="#222222" data-original="#000000" style=""/></g></svg>
