<?xml version="1.0"?>
<svg xmlns="http://www.w3.org/2000/svg" xmlns:xlink="http://www.w3.org/1999/xlink" xmlns:svgjs="http://svgjs.com/svgjs" version="1.1" width="512" height="512" x="0" y="0" viewBox="0 0 64 64" style="enable-background:new 0 0 512 512" xml:space="preserve"><g><g xmlns="http://www.w3.org/2000/svg"><path d="m62 45h-1v-3c0-.553-.447-1-1-1h-26c-.553 0-1 .447-1 1v4c0 .553.447 1 1 1h1v2h-1c-.553 0-1 .447-1 1v4c0 .553.447 1 1 1h1v2h-1c-.553 0-1 .447-1 1v4c0 .553.447 1 1 1h26c.553 0 1-.447 1-1v-3h1c.553 0 1-.447 1-1v-4c0-.553-.447-1-1-1h-1v-2h1c.553 0 1-.447 1-1v-4c0-.553-.447-1-1-1zm-27-2h24v2h-23-1zm24 18h-24v-2h1 23zm2-4h-1-23v-2h23 1zm-2-4h-23-1v-2h1 23zm2-4h-1-23v-2h23 1z" fill="#222222" data-original="#000000" style=""/><path d="m30 1h-28c-.553 0-1 .447-1 1v44c0 .553.447 1 1 1h28c.553 0 1-.447 1-1v-44c0-.553-.447-1-1-1zm-1 44h-26v-42h26z" fill="#222222" data-original="#000000" style=""/><path d="m8 23c0 2.757 2.243 5 5 5 .166 0 .328-.024.492-.041l-2.324 3.486c-.204.307-.224.701-.05 1.026s.513.529.882.529h8c.369 0 .708-.203.882-.528s.154-.72-.05-1.026l-2.324-3.486c.164.016.326.04.492.04 2.757 0 5-2.243 5-5 0-2.139-1.331-3.992-3.303-4.696-.705-1.973-2.559-3.304-4.697-3.304-2.139 0-3.992 1.331-4.696 3.303-1.973.705-3.304 2.559-3.304 4.697zm5.868 8 2.132-3.197 2.132 3.197zm-1.536-10.918c.374-.086.666-.378.751-.752.313-1.372 1.514-2.33 2.917-2.33s2.604.959 2.918 2.332c.086.374.378.666.752.751 1.372.313 2.33 1.514 2.33 2.917 0 1.654-1.346 3-3 3-.864 0-1.662-.369-2.247-1.038-.19-.217-.465-.342-.753-.342s-.563.125-.753.342c-.585.669-1.383 1.038-2.247 1.038-1.654 0-3-1.346-3-3 0-1.403.959-2.604 2.332-2.918z" fill="#222222" data-original="#000000" style=""/><path d="m7 11h2v2h2v-5c0-1.654-1.346-3-3-3s-3 1.346-3 3v5h2zm1-4c.552 0 1 .448 1 1v1h-2v-1c0-.552.448-1 1-1z" fill="#222222" data-original="#000000" style=""/><path d="m21 38v5h2v-2h2v2h2v-5c0-1.654-1.346-3-3-3s-3 1.346-3 3zm4 0v1h-2v-1c0-.552.448-1 1-1s1 .448 1 1z" fill="#222222" data-original="#000000" style=""/><path d="m46 39c4.963 0 9-4.037 9-9s-4.037-9-9-9-9 4.037-9 9 4.037 9 9 9zm-6.315-6h2.34c.279.369.606.695.974.974v2.34c-1.449-.691-2.622-1.864-3.314-3.314zm-.685-3c0-.34.033-.672.08-1h2.021c-.066.323-.101.658-.101 1s.035.677.101 1h-2.021c-.047-.328-.08-.66-.08-1zm14 0c0 .34-.033.672-.08 1h-2.021c.066-.323.101-.658.101-1s-.035-.677-.101-1h2.021c.047.328.08.66.08 1zm-4 0c0 1.654-1.346 3-3 3s-3-1.346-3-3 1.346-3 3-3 3 1.346 3 3zm-4 6.92v-2.021c.323.066.658.101 1 .101s.677-.035 1-.101v2.021c-.328.047-.66.08-1 .08s-.672-.033-1-.08zm4-.605v-2.34c.369-.279.695-.606.974-.974h2.34c-.691 1.449-1.864 2.622-3.314 3.314zm3.315-9.315h-2.34c-.279-.369-.606-.695-.974-.974v-2.34c1.449.691 2.622 1.864 3.314 3.314zm-5.315-3.92v2.021c-.323-.066-.658-.101-1-.101s-.677.035-1 .101v-2.021c.328-.047.66-.08 1-.08s.672.033 1 .08zm-4 .605v2.34c-.369.279-.695.606-.974.974h-2.34c.691-1.449 1.864-2.622 3.314-3.314z" fill="#222222" data-original="#000000" style=""/><path d="m54 19c4.963 0 9-4.037 9-9s-4.037-9-9-9-9 4.037-9 9 4.037 9 9 9zm-6.315-6h2.34c.279.369.606.695.974.974v2.34c-1.449-.691-2.622-1.864-3.314-3.314zm-.685-3c0-.34.033-.672.08-1h2.021c-.066.323-.101.658-.101 1s.035.677.101 1h-2.021c-.047-.328-.08-.66-.08-1zm14 0c0 .34-.033.672-.08 1h-2.021c.066-.323.101-.658.101-1s-.035-.677-.101-1h2.021c.047.328.08.66.08 1zm-4 0c0 1.654-1.346 3-3 3s-3-1.346-3-3 1.346-3 3-3 3 1.346 3 3zm-4 6.92v-2.021c.323.066.658.101 1 .101s.677-.035 1-.101v2.021c-.328.047-.66.08-1 .08s-.672-.033-1-.08zm4-.605v-2.34c.369-.279.695-.606.974-.974h2.34c-.691 1.449-1.864 2.622-3.314 3.314zm3.315-9.315h-2.34c-.28-.369-.606-.695-.975-.974v-2.34c1.45.691 2.623 1.864 3.315 3.314zm-5.315-3.92v2.021c-.323-.066-.658-.101-1-.101s-.677.035-1 .101v-2.021c.328-.047.66-.08 1-.08s.672.033 1 .08zm-4 .605v2.34c-.369.28-.695.606-.974.975h-2.34c.691-1.45 1.864-2.623 3.314-3.315z" fill="#222222" data-original="#000000" style=""/></g></g></svg>
