<svg id="Capa_1" xmlns="http://www.w3.org/2000/svg" viewBox="0 0 512 512"><style>.st0{fill:#43ade0}</style><path class="st0" d="M248.2 343.2c-14.6 0-26.5 12.2-26.5 26.8 0 14.3 11.5 26.8 26.5 26.8S275 384.3 275 370c0-14.6-12.2-26.8-26.8-26.8zm4.5-203.2c-47.1 0-68.7 27.9-68.7 46.7 0 13.6 11.5 19.9 20.9 19.9 18.8 0 11.2-26.8 46.7-26.8 17.4 0 31.4 7.7 31.4 23.7 0 18.8-19.5 29.6-31 39.4-10.1 8.7-23.4 23-23.4 53 0 18.1 4.9 23.4 19.2 23.4 17.1 0 20.6-7.7 20.6-14.3 0-18.1.4-28.6 19.5-43.6 9.4-7.3 39-31 39-63.8S297.3 140 252.7 140z"/><path class="st0" d="M256 0C114.5 0 0 114.5 0 256v236c0 11 9 20 20 20h236c141.5 0 256-114.5 256-256S397.5 0 256 0zm0 472H40V256c0-119.4 96.6-216 216-216s216 96.6 216 216-96.6 216-216 216z"/></svg>