<?xml version="1.0"?>
<svg xmlns="http://www.w3.org/2000/svg" xmlns:xlink="http://www.w3.org/1999/xlink" xmlns:svgjs="http://svgjs.com/svgjs" version="1.1" width="512" height="512" x="0" y="0" viewBox="0 0 512 512" style="enable-background:new 0 0 512 512" xml:space="preserve" class=""><g><g xmlns="http://www.w3.org/2000/svg" id="XMLID_507_"><circle id="XMLID_508_" cx="256.127" cy="91" r="24" fill="#222222" data-original="#000000" style=""/><path id="XMLID_538_" d="m448.254 252c5.522 0 10-4.477 10-10v-30h23.746c5.522 0 10-4.477 10-10v-48c0-5.523-4.478-10-10-10h-22.775l-197.382-142.115c-3.49-2.513-8.195-2.513-11.686 0l-197.382 142.115h-22.775c-5.522 0-10 4.477-10 10v48c0 5.523 4.478 10 10 10h24v30c0 5.523 4.478 10 10 10h2v152h-2c-5.522 0-10 4.477-10 10v30h-24c-5.522 0-10 4.477-10 10v48c0 5.523 4.478 10 10 10h452c5.522 0 10-4.477 10-10v-48c0-5.523-4.478-10-10-10h-23.746v-30c0-5.523-4.478-10-10-10h-2v-152zm-10-20h-52v-20h52zm-182.254-209.678 168.997 121.678h-337.994zm-216 141.678h415.965c.009 0 .017.001.026.001.006 0 .011-.001.017-.001h15.992v28h-432zm86 48v20h-52v-20zm-12 40v149.5h-28v-149.5zm-40 172h52v20h-52zm398 68h-432v-28h432zm-85.746-48v-20h52v20zm-10-40c-5.522 0-10 4.477-10 10v30h-220.254v-30c0-5.523-4.478-10-10-10h-2v-152h2c5.522 0 10-4.477 10-10v-30h220.254v30c0 5.523 4.478 10 10 10h2v152zm50-2.5h-28v-149.5h28z" fill="#222222" data-original="#000000" style=""/><path id="XMLID_1091_" d="m273.125 316.554c-2.343-.828-4.734-1.69-7.125-2.583v-42.999c6.223 1.912 10.353 4.858 10.53 4.987 4.402 3.293 10.639 2.417 13.962-1.968 3.335-4.402 2.47-10.674-1.932-14.009-.566-.428-9.469-7.032-22.561-9.613v-9.314c0-5.523-4.478-10-10-10s-10 4.477-10 10v9.235c-1.552.307-3.125.695-4.717 1.173-13.704 4.117-23.946 15.832-26.73 30.573-2.544 13.472 1.78 26.471 11.284 33.926 5.083 3.986 11.421 7.627 20.163 11.484v55.338c-7.689-.52-12.399-2.299-20.604-7.667-4.626-3.024-10.821-1.726-13.843 2.895-3.023 4.622-1.728 10.819 2.894 13.843 12.3 8.046 20.662 10.381 31.554 10.954v9.638c0 5.523 4.478 10 10 10s10-4.477 10-10v-10.697c20.647-4.65 32.726-21.936 35.445-38.112 3.573-21.258-7.543-39.74-28.32-47.084zm-34.944-16.33c-3.55-2.784-5.11-8.466-3.975-14.477 1.041-5.514 4.689-12.139 11.794-14.77v34.243c-2.945-1.598-5.608-3.261-7.819-4.996zm43.541 60.098c-1.347 8.012-6.685 16.496-15.722 20.418v-45.494c.156.055-.157-.056 0 0 17.036 6.022 16.448 20.755 15.722 25.076z" fill="#222222" data-original="#000000" style=""/></g></g></svg>
