<?xml version="1.0"?>
<svg xmlns="http://www.w3.org/2000/svg" xmlns:xlink="http://www.w3.org/1999/xlink" version="1.1" id="Capa_1" x="0px" y="0px" viewBox="0 0 512 512" style="enable-background:new 0 0 512 512;" xml:space="preserve" width="512px" height="512px"><g><g>
	<g>
		<path d="M496,0.016H16c-8.832,0-16,7.168-16,16v224c0,8.832,7.168,16,16,16h95.584c-3.968,7.68-8.288,15.552-13.248,23.68    C16.32,414.192,64.064,500.368,66.112,503.952c2.848,4.96,8.16,8.032,13.888,8.032h224c5.664,0,10.88-3.072,13.76-7.936    s2.912-10.976,0.192-15.936c-1.664-2.976-39.744-74.496,31.712-191.776c8.544-14.016,15.392-27.392,21.312-40.32H496    c8.832,0,16-7.168,16-16v-224C512,7.184,504.832,0.016,496,0.016z M345.984,233.648c-0.064,0.128-0.096,0.224-0.128,0.352    c-6.08,14.368-13.664,29.568-23.52,45.728c-57.728,94.688-51.136,165.44-41.472,200.256H90.336    c-8.224-22.048-23.296-87.456,35.328-183.648c28.224-46.304,40.896-86.72,45.504-120.192c0-0.032,0.032-0.096,0.032-0.128    c0,0,0,0,0-0.032c4.832-35.008,0.832-62.208-4.096-79.968h190.528C364.48,114.256,375.936,162.576,345.984,233.648z     M140.928,160.016H112c-8.832,0-16-7.2-16-16v-32c0-8.8,7.168-16,16-16h21.632C137.728,106.992,143.424,128.88,140.928,160.016z     M480,224.016h-96.16c3.776-11.232,6.496-21.856,8.576-32H400c26.464,0,48-21.536,48-48v-32c0-26.464-21.536-48-48-48H112    c-26.464,0-48,21.536-48,48v32c0,26.464,21.536,48,48,48h23.744c-2.368,10.048-5.632,20.704-9.92,32H32v-192h448V224.016z     M391.104,96.016H400c8.832,0,16,7.2,16,16v32c0,8.8-7.168,16-16,16h-3.136C398.72,132.624,395.264,110.992,391.104,96.016z" data-original="#000000" class="active-path" data-old_color="#000000" fill="#222222"/>
	</g>
</g><g>
	<g>
		<path d="M208,128.016c-8.832,0-16,7.168-16,16v32c0,8.832,7.168,16,16,16c8.832,0,16-7.168,16-16v-32    C224,135.184,216.832,128.016,208,128.016z" data-original="#000000" class="active-path" data-old_color="#000000" fill="#222222"/>
	</g>
</g><g>
	<g>
		<path d="M240,384.016c-8.832,0-16,7.168-16,16v32c0,8.832,7.168,16,16,16c8.832,0,16-7.168,16-16v-32    C256,391.184,248.832,384.016,240,384.016z" data-original="#000000" class="active-path" data-old_color="#000000" fill="#222222"/>
	</g>
</g><g>
	<g>
		<path d="M224,232.016c-26.464,0-48,25.12-48,56s21.536,56,48,56s48-25.12,48-56S250.464,232.016,224,232.016z M224,312.016    c-8.544,0-16-11.232-16-24s7.456-24,16-24s16,11.232,16,24S232.544,312.016,224,312.016z" data-original="#000000" class="active-path" data-old_color="#000000" fill="#222222"/>
	</g>
</g></g> </svg>
