<?xml version="1.0"?>
<svg xmlns="http://www.w3.org/2000/svg" xmlns:xlink="http://www.w3.org/1999/xlink" xmlns:svgjs="http://svgjs.com/svgjs" version="1.1" width="512" height="512" x="0" y="0" viewBox="0 0 495.997 495.997" style="enable-background:new 0 0 512 512" xml:space="preserve" class=""><g>
<path xmlns="http://www.w3.org/2000/svg" style="" d="M487.998,399.999h-72v72l-113.28-113.28c33.232-11.414,62.031-32.993,82.32-61.68L487.998,399.999z" fill="#03aa6f" data-original="#03aa6f"/>
<path xmlns="http://www.w3.org/2000/svg" style="" d="M193.278,358.719C105.554,328.498,58.939,232.885,89.16,145.16S214.994,10.821,302.718,41.042  S437.058,166.876,406.837,254.6c-16.838,48.877-55.241,87.28-104.119,104.119C267.288,371.093,228.709,371.093,193.278,358.719z   M367.998,199.999c0-66.274-53.726-120-120-120s-120,53.726-120,120s53.726,120,120,120  C314.24,319.92,367.919,266.24,367.998,199.999z" fill="#ffb546" data-original="#ffb546"/>
<path xmlns="http://www.w3.org/2000/svg" style="" d="M247.998,79.999c66.274,0,120,53.726,120,120s-53.726,120-120,120s-120-53.726-120-120  C128.078,133.758,181.757,80.078,247.998,79.999z M335.998,199.999c0-48.601-39.399-88-88-88s-88,39.399-88,88s39.399,88,88,88  C296.587,287.968,335.967,248.587,335.998,199.999z" fill="#ec9821" data-original="#ec9821"/>
<path xmlns="http://www.w3.org/2000/svg" style="" d="M231.998,247.999h32v-104h-24l-24,40h16V247.999z M247.998,111.999c48.601,0,88,39.399,88,88  s-39.399,88-88,88s-88-39.399-88-88C160.029,151.411,199.41,112.03,247.998,111.999z" fill="#ffb546" data-original="#ffb546"/>
<path xmlns="http://www.w3.org/2000/svg" style="" d="M263.998,143.999v104h-32v-64h-16l24-40H263.998z" fill="#d32144" data-original="#d32144"/>
<path xmlns="http://www.w3.org/2000/svg" style="" d="M193.278,358.719l-113.28,113.28v-72h-72l102.96-102.96  C131.248,325.727,160.047,347.305,193.278,358.719z" fill="#03aa6f" data-original="#03aa6f"/>
<g xmlns="http://www.w3.org/2000/svg">
	<path style="" d="M362.348,357.625l11.314-11.314l32.001,32.001l-11.314,11.314L362.348,357.625z" fill="#2aba8a" data-original="#2aba8a" class=""/>
	<path style="" d="M90.342,378.344l32.001-32.001l11.314,11.314l-32.001,32.001L90.342,378.344z" fill="#2aba8a" data-original="#2aba8a" class=""/>
</g>
<path xmlns="http://www.w3.org/2000/svg" style="" d="M207.998,239.999h80v16h-80V239.999z" fill="#d32144" data-original="#d32144"/>
<path xmlns="http://www.w3.org/2000/svg" d="M375.998,199.999c0-70.692-57.308-128-128-128s-128,57.308-128,128s57.308,128,128,128  C318.656,327.915,375.915,270.657,375.998,199.999z M247.998,311.999c-61.856,0-112-50.144-112-112s50.144-112,112-112  s112,50.144,112,112C359.932,261.828,309.827,311.933,247.998,311.999z" fill="#444444" data-original="#000000" style="" class=""/>
<path xmlns="http://www.w3.org/2000/svg" d="M247.998,103.999c-53.019,0-96,42.981-96,96s42.981,96,96,96s96-42.981,96-96  C343.941,147.004,300.994,104.056,247.998,103.999z M247.998,279.999c-44.183,0-80-35.817-80-80s35.817-80,80-80s80,35.817,80,80  C327.95,244.162,292.161,279.951,247.998,279.999z" fill="#444444" data-original="#000000" style="" class=""/>
<path xmlns="http://www.w3.org/2000/svg" d="M399.766,300.455c3.032-2.31,5.593-5.181,7.544-8.456c4.23-9.548,5.317-20.194,3.104-30.4  c-1.064-5.99-1.104-12.117-0.12-18.12c2.106-5.442,5.116-10.489,8.904-14.928c7.212-7.902,11.699-17.91,12.8-28.552  c-1.101-10.642-5.588-20.65-12.8-28.552c-3.776-4.441-6.776-9.488-8.872-14.928c-1.002-6.001-0.978-12.128,0.072-18.12  c2.214-10.206,1.127-20.852-3.104-30.4c-6.227-8.508-15.004-14.81-25.056-17.992c-5.629-2.014-10.874-4.971-15.512-8.744  c-3.767-4.639-6.719-9.884-8.728-15.512c-3.182-10.056-9.488-18.836-18-25.064c-9.551-4.223-20.195-5.304-30.4-3.088  c-5.982,1.065-12.101,1.103-18.096,0.112c-5.441-2.095-10.491-5.091-14.936-8.864c-7.898-7.236-17.914-11.74-28.568-12.848  c-10.64,1.099-20.646,5.586-28.544,12.8c-4.444,3.777-9.494,6.776-14.936,8.872c-6.001,0.998-12.127,0.974-18.12-0.072  c-10.206-2.213-20.852-1.126-30.4,3.104c-8.511,6.226-14.816,15.003-18,25.056c-2.015,5.631-4.971,10.879-8.744,15.52  c-4.638,3.77-9.884,6.724-15.512,8.736c-10.056,3.182-18.836,9.488-25.064,18c-4.23,9.548-5.317,20.194-3.104,30.4  c1.064,5.99,1.104,12.117,0.12,18.12c-2.105,5.436-5.113,10.477-8.896,14.912c-7.212,7.902-11.699,17.91-12.8,28.552  c1.101,10.642,5.588,20.65,12.8,28.552c3.776,4.441,6.776,9.488,8.872,14.928c1.002,6.001,0.978,12.128-0.072,18.12  c-2.214,10.206-1.127,20.852,3.104,30.4c1.951,3.275,4.512,6.146,7.544,8.456L2.342,394.343c-3.124,3.125-3.123,8.19,0.002,11.314  c1.5,1.499,3.534,2.342,5.654,2.342h64v64c0.001,4.418,3.583,7.999,8.002,7.998c2.121,0,4.154-0.843,5.654-2.342l115.848-115.848  c1.014,0.083,2.02,0.247,3.008,0.488c5.444,2.107,10.494,5.117,14.936,8.904c7.9,7.215,17.909,11.702,28.552,12.8  c10.64-1.099,20.646-5.586,28.544-12.8c4.444-3.777,9.494-6.776,14.936-8.872c0.993-0.233,2-0.396,3.016-0.488l115.848,115.816  c3.125,3.124,8.19,3.123,11.314-0.002c1.499-1.5,2.342-3.534,2.342-5.654v-64h64c4.418-0.001,7.999-3.583,7.998-8.002  c0-2.121-0.843-4.154-2.342-5.654L399.766,300.455z M87.998,452.687v-52.688c0-4.418-3.582-8-8-8H27.31l83.368-83.368  c1.024,0.464,2.056,0.912,3.064,1.36c5.629,2.014,10.874,4.971,15.512,8.744c3.773,4.638,6.73,9.883,8.744,15.512  c3.182,10.056,9.488,18.836,18,25.064c6.628,3.38,14.105,4.729,21.496,3.88L87.998,452.687z M287.334,346.839  c-7.409,2.53-14.285,6.412-20.28,11.448c-5.295,4.99-11.907,8.36-19.056,9.712c-7.153-1.351-13.769-4.724-19.064-9.72  c-5.997-5.031-12.872-8.91-20.28-11.44c-3.536-0.902-7.175-1.333-10.824-1.28c-4.39,0.078-8.772,0.393-13.128,0.944  c-6.858,1.592-14.024,1.231-20.688-1.04c-5.361-4.686-9.298-10.785-11.36-17.6c-2.726-7.495-6.825-14.416-12.088-20.408  c-5.994-5.257-12.911-9.355-20.4-12.088c-6.815-2.064-12.913-6-17.6-11.36c-2.264-6.66-2.621-13.82-1.032-20.672  c1.362-7.953,1.248-16.088-0.336-24c-2.532-7.407-6.41-14.282-11.44-20.28c-5.011-5.286-8.399-11.9-9.76-19.056  c1.35-7.151,4.724-13.765,9.72-19.056c5.03-5.998,8.908-12.873,11.44-20.28c1.587-7.911,1.701-16.047,0.336-24  c-1.586-6.85-1.228-14.006,1.032-20.664c4.697-5.367,10.81-9.304,17.64-11.36c7.491-2.734,14.411-6.832,20.408-12.088  c5.261-5.996,9.361-12.919,12.088-20.416c2.064-6.814,6-12.912,11.36-17.6c6.66-2.265,13.82-2.623,20.672-1.032  c7.953,1.354,16.088,1.24,24-0.336c7.409-2.53,14.285-6.412,20.28-11.448c5.285-4.988,11.886-8.36,19.024-9.72  c7.153,1.351,13.769,4.724,19.064,9.72c5.997,5.031,12.872,8.91,20.28,11.44c7.896,1.576,16.015,1.69,23.952,0.336  c6.858-1.588,14.024-1.228,20.688,1.04c5.361,4.686,9.298,10.785,11.36,17.6c2.726,7.495,6.825,14.416,12.088,20.408  c5.994,5.257,12.911,9.355,20.4,12.088c6.815,2.064,12.913,6,17.6,11.36c2.264,6.66,2.621,13.82,1.032,20.672  c-1.362,7.953-1.248,16.088,0.336,24c2.532,7.407,6.41,14.282,11.44,20.28c5.011,5.286,8.399,11.9,9.76,19.056  c-1.35,7.151-4.724,13.765-9.72,19.056c-5.03,5.998-8.908,12.873-11.44,20.28c-1.587,7.911-1.701,16.047-0.336,24  c1.586,6.85,1.228,14.006-1.032,20.664c-4.686,5.361-10.785,9.297-17.6,11.36c-7.491,2.734-14.411,6.832-20.408,12.088  c-5.261,5.996-9.361,12.919-12.088,20.416c-2.064,6.814-6,12.912-11.36,17.6c-6.662,2.253-13.819,2.61-20.672,1.032  C303.386,345.139,295.248,345.255,287.334,346.839L287.334,346.839z M415.998,391.999c-4.418,0-8,3.582-8,8v52.688l-89.488-89.488  c7.386,0.842,14.857-0.51,21.48-3.888c8.511-6.226,14.816-15.003,18-25.056c2.015-5.631,4.971-10.879,8.744-15.52  c4.638-3.77,9.884-6.724,15.512-8.736l3.08-1.36l83.36,83.36H415.998z" fill="#444444" data-original="#000000" style="" class=""/>
<path xmlns="http://www.w3.org/2000/svg" d="M362.348,357.625l11.314-11.314l32.001,32.001l-11.314,11.314L362.348,357.625z" fill="#444444" data-original="#000000" style="" class=""/>
<path xmlns="http://www.w3.org/2000/svg" d="M90.342,378.344l32.001-32.001l11.314,11.314l-32.001,32.001L90.342,378.344z" fill="#444444" data-original="#000000" style="" class=""/>
<path xmlns="http://www.w3.org/2000/svg" d="M271.998,143.999c0-4.418-3.582-8-8-8h-24c-2.808,0.001-5.41,1.473-6.856,3.88l-24,40c-2.275,3.787-1.05,8.702,2.738,10.978  c1.244,0.747,2.667,1.142,4.118,1.142h8v48h-16v16h80v-16h-16V143.999z M255.998,239.999h-16v-56c0-4.418-3.582-8-8-8h-1.864  l14.4-24h11.464V239.999z" fill="#444444" data-original="#000000" style="" class=""/>
<g xmlns="http://www.w3.org/2000/svg">
</g>
<g xmlns="http://www.w3.org/2000/svg">
</g>
<g xmlns="http://www.w3.org/2000/svg">
</g>
<g xmlns="http://www.w3.org/2000/svg">
</g>
<g xmlns="http://www.w3.org/2000/svg">
</g>
<g xmlns="http://www.w3.org/2000/svg">
</g>
<g xmlns="http://www.w3.org/2000/svg">
</g>
<g xmlns="http://www.w3.org/2000/svg">
</g>
<g xmlns="http://www.w3.org/2000/svg">
</g>
<g xmlns="http://www.w3.org/2000/svg">
</g>
<g xmlns="http://www.w3.org/2000/svg">
</g>
<g xmlns="http://www.w3.org/2000/svg">
</g>
<g xmlns="http://www.w3.org/2000/svg">
</g>
<g xmlns="http://www.w3.org/2000/svg">
</g>
<g xmlns="http://www.w3.org/2000/svg">
</g>
</g></svg>
