<svg xmlns="http://www.w3.org/2000/svg" viewBox="0 0 82 82"><path fill="#FFC98C" d="M68.9 22.4c.2-1.3.3-2.5.4-3.7.3-6.7-17.8-5.4-23.9-2.6-3.1 1.4-5.9 10.1-2.5 18.6.9 2.1 1 3 3.2 4.3 9.2 5.1 17.5-1.5 17.5-1.5 1.5-1.1 3.4-5.6 4.6-10.8h.1c1.2 0 2.2-1 2.2-2.2-.1-1-.8-1.8-1.6-2.1z"/><path fill="#D91324" d="M68.9 36s4.8-2 6.9.8c2.3 3.2-.7 6.5-2.4 6.3-2.8-.1-6.9-5.5-4.5-7.1z"/><path fill="#4F3B30" d="M43 15.3c2.6 2.4 13.2-.9 19.9.2 3.4.5 5.9 2.6 6.2 2.9.3.4 3.1-5.5.1-10.1S47.6 4.8 47.6 0C45-.6 36.5 9.1 43 15.3z"/><path fill="#FFF" d="M48.1 28.4c-.1 2.1 1.5 4 3.6 4.1 2.1.1 4-1.5 4.1-3.6l-7.7-.5z"/><path fill="#18B579" d="M75.9 45.7c-1.7-6.7-9.2-11-9.2-11s-6.4 4.5-16.2 4.5c-5 0-7.7-4.5-7.7-4.5-1.9-.9-2.4-1.2-4.7-1.7-15.8-3.8-34.6-.3-34.3 7.9.3 8.4 9.2 7.7 16.1 13.5C29.7 62.7 40 75.3 40 75.3s3.3 3.3 12.9 3.3S69.2 76 69.2 76c1.3-6.8-1.8-24.6-1.8-24.6L73 67.7h5.7s-.7-13.9-2.8-22z"/><path fill="#D91324" d="M5.1 49.4c-2.9 8.8-1.4 25-1.4 25l6.1-.1.5-18s0 11.2 2.8 21.4c0 0 4.1 2.3 13.5 1.4 7.7-.7 13.6-4 13.6-4S36.9 71 37.9 62s2.3-16.9 2.3-16.9c-1.4-2.3-7.9-5.9-16.7-5.9-6.6.2-15.7 2.1-18.4 10.2z"/><path fill="#F7A16E" d="M22.7 12.7c-12.2 1.8-13.1 7.6-13 14.6-1.6 0-2.6 1.3-2.6 2.9 0 1.6 1.7 2.9 3.3 2.9 1.8 5.8 6.9 10.1 13.3 10.1 7.7 0 14-6.2 14-14 0-8.5-2.2-18.4-15-16.5z"/><path fill="#FFF" d="M29.2 33.9c.2 1.7-.9 3.3-2.6 3.5-1.7.2-3.3-.9-3.5-2.6l6.1-.9z"/><circle fill="#835443" cx="21.3" cy="28.4" r="1.2"/><circle fill="#835443" cx="29.9" cy="27.2" r="1"/><path d="M32.3 23.3s-2.7-.9-4.5-.2v.8s3.1.5 4 .7l.5-1.3zM17 24.7s3.4-1.8 5.4-1.4l.3.8s-4.1 1.6-4.8 2.2l-.9-1.6z" fill="#9F4F43"/><path fill="#FFC98C" d="M73 67.7s-1 8.6 2.6 8c3.7-.6 3.1-8 3.1-8H73z"/><path fill="#F7A16E" d="M3.7 74.4s-.1 7 3.1 5.9c4-1.4 3-6 3-6l-6.1.1z"/><path fill="#BF6843" d="M5.5 11.5c-2.7 2.3 4.3 15.8 4.3 15.8s.7-7.7 13.7-9.6c8.3-1.2 13.1 2.6 13.1 2.6-.2-3.8 2.7-11 2.7-11l-2.1.1-1.5 3-1.5-2.8-28.7 1.9z"/><path fill="#AE1324" d="M37.7 62.2c1-9 2.3-16.9 2.3-16.9s-9.7 21.5-3.2 31.4c.8-.3 3.2-1.5 3.2-1.5s-3.2-4-2.3-13z"/><path fill="#C71324" d="M15.5 40.4c-1.9.5-4.8 1.8-4.8 1.8 13.2 7.1 21.2-1.7 21.2-1.7-2.3 1.6-5.1 2.6-8.1 2.6-3.2.1-6-1-8.3-2.7z"/><path fill="#FFC98C" d="M5.5 41.7c0 2 2.3 6.6 6.8 4.6 4.5-1.9-.4-6.5-2.3-7.2-2-.5-4.5.6-4.5 2.6z"/><path fill="#128D65" d="M66.7 43.1c1.4 3.1 7.5 3.5 8.5.6 0 0-.6-1.6-1.3-2.5-.3-.5-7.8.4-7.2 1.9z"/><g fill="#4F3B30"><circle cx="49.1" cy="23.4" r="1"/><circle cx="57" cy="24" r="1"/><path d="M46.6 20.7s2.7-1 4.7-.5l.2 1.1s-3.5.1-4.4.3l-.5-.9zm14.7 1.4s-3.1-2.1-5-1.5l-.4.7s3.5 1 4.3 1.5l1.1-.7z"/></g><path fill="#F7A16E" d="M73.2 36.8c-1.8-.8-7-.5-6.9 4.5 0 4.9 6.4 2.4 7.8.8 1.3-1.6.9-4.5-.9-5.3z"/></svg>