<?xml version="1.0" encoding="utf-8"?>
<!-- Generator: Adobe Illustrator 23.0.1, SVG Export Plug-In . SVG Version: 6.00 Build 0)  -->
<svg version="1.1" id="Слой_1" xmlns="http://www.w3.org/2000/svg" xmlns:xlink="http://www.w3.org/1999/xlink" x="0px" y="0px"
	 viewBox="0 0 1009 954" style="enable-background:new 0 0 1009 954;" xml:space="preserve">
<style type="text/css">
	.st0{fill:#FFFFFF;}
	.st1{fill:#5664FF;}
	.st2{fill:#4477EA;}
	.st3{fill:#3668DB;}
	.st4{opacity:0.5;fill:#FFFFFF;}
	.st5{fill:#FF00B4;}
	.st6{fill:#FFCE4D;}
	.st7{fill:#FFB900;}
	.st8{fill:none;stroke:#FFDA88;stroke-width:4.1772;stroke-linecap:round;stroke-miterlimit:10;}
	.st9{fill:#F8910E;}
	.st10{fill:#101421;}
	.st11{fill:#424A60;}
	.st12{fill:#232B47;}
	.st13{fill:#57585A;}
	.st14{fill:#E4EAF6;}
	.st15{fill-rule:evenodd;clip-rule:evenodd;fill:#FF6465;}
	.st16{fill:#FF6465;}
	.st17{opacity:0.2;fill-rule:evenodd;clip-rule:evenodd;fill:#424A60;}
</style>
<g>
	<g>
		<g>
			<g>
				<circle class="st0" cx="740.33" cy="198.84" r="118.14"/>
				<path class="st1" d="M746.42,302.42c-57.11,3.36-106.31-40.37-109.67-97.48c-3.36-57.11,40.37-106.32,97.48-109.68
					s106.32,40.38,109.68,97.49C847.27,249.86,803.53,299.06,746.42,302.42z"/>
				<path class="st0" d="M745.8,291.87c-51.3,3.02-95.49-36.26-98.5-87.56c-3.02-51.3,36.26-95.49,87.56-98.51
					c51.3-3.02,95.49,36.26,98.51,87.56S797.1,288.85,745.8,291.87z"/>
			</g>
			<g>
				<g>
					<g>
						<path class="st2" d="M743.18,247.27c63.59-3.74,128.9-16.19,182.04-38.55c0.36-6.84,0.38-13.76-0.04-20.75
							C919.18,85.87,831.55,7.98,729.45,13.98c-102.09,6.01-179.98,93.64-173.98,195.73c0.41,7,1.24,13.87,2.4,20.62
							C613.27,246.31,679.59,251.01,743.18,247.27z"/>
					</g>
				</g>
				<path class="st3" d="M743.18,247.27c-63.59,3.74-129.91-0.96-185.3-16.94c15.72,91.75,98.23,158.96,193.33,153.36
					c95.1-5.59,169.16-82.02,174.01-174.97C872.08,231.08,806.77,243.52,743.18,247.27z"/>
				<g>
					<g>
						<path class="st2" d="M743.18,247.27c63.59-3.74,128.9-16.19,182.04-38.55c0.36-6.84,0.38-13.76-0.04-20.75
							C919.18,85.87,831.55,7.98,729.45,13.98c-102.09,6.01-179.98,93.64-173.98,195.73c0.41,7,1.24,13.87,2.4,20.62
							C613.27,246.31,679.59,251.01,743.18,247.27z"/>
					</g>
				</g>
				<circle class="st0" cx="740.33" cy="198.84" r="118.14"/>
				<path class="st2" d="M746.42,302.42c-57.11,3.36-106.31-40.37-109.67-97.48c-3.36-57.11,40.37-106.32,97.48-109.68
					s106.32,40.38,109.68,97.49C847.27,249.86,803.53,299.06,746.42,302.42z"/>
				<path class="st0" d="M747.99,329.07c-71.81,4.22-133.67-50.76-137.9-122.57c-4.22-71.81,50.76-133.68,122.57-137.9
					s133.68,50.77,137.9,122.58C874.79,262.99,819.8,324.85,747.99,329.07z"/>
			</g>
			<g>
				<path class="st4" d="M715.75,52.44l29.78-1.75c7.64-0.45,13.46-7,13.01-14.64l0.13-21.48c-9.56-0.94-19.31-1.17-29.21-0.58
					c-10.65,0.63-21.02,2.19-31.07,4.52l2.72,20.92C701.56,47.06,708.11,52.89,715.75,52.44z"/>
				<path class="st4" d="M852.79,101.9c3.76,3.34,15.62-1.69,19.13-5.64l12.34-13.88c-12.76-15.74-28.02-29.31-45.15-40.13
					l-16.45,20.67c-3.34,3.76-3,9.52,0.76,12.86L852.79,101.9z"/>
				<path class="st4" d="M921.18,159.02l-13.87,0.82c-7.72,0.45-20.92,8.6-20.48,15.96l1.81,30.8c0.43,7.35,6.75,12.97,14.1,12.53
					l21.61,0.22c1.13-10.26,1.47-20.74,0.84-31.39C924.6,178.07,923.23,168.41,921.18,159.02z"/>
				<path class="st4" d="M655.32,324.06l-29.38-26.12c-3.76-3.34-15.71,1.8-19.22,5.75l-10.31,11.6
					c12.76,15.74,28.02,29.31,45.15,40.13l10.31-11.6C655.37,339.88,659.08,327.4,655.32,324.06z"/>
				<path class="st4" d="M876.36,283.21c-3.76-3.34-9.52-3-12.86,0.76l-26.12,29.38c-3.34,3.76,1.7,15.72,5.65,19.23l12.54,11.15
					c15.85-12.63,29.55-27.77,40.52-44.81L876.36,283.21z"/>
				<path class="st4" d="M780.14,379.69l-0.69-11.74c-0.45-7.71-8.6-21-15.94-20.56l-30.84,1.81c-7.34,0.43-13.97,14.59-13.52,22.3
					l0.67,11.36c10.26,1.13,20.74,1.47,31.39,0.84C761.1,383.11,770.76,381.74,780.14,379.69z"/>
				<path class="st4" d="M559.99,240.78l10.79-0.63c8.02-0.47,21.55-8.98,21.1-16.62l-1.75-29.76c-0.45-7.64-14.87-14.4-22.89-13.93
					l-11.17,0.66c-0.94,9.56-1.17,19.31-0.58,29.21C556.1,220.36,557.67,230.73,559.99,240.78z"/>
				<path class="st4" d="M582.92,101.37l19.44,15.26c3.76,3.34,9.52,3,12.86-0.76l26.12-29.38c3.34-3.76-1.8-15.61-5.74-19.12
					l-12.93-11.49C607.04,68.77,593.61,84.15,582.92,101.37z"/>
			</g>
		</g>
	</g>
	<path class="st5" d="M767.47,265.87c-1.62-0.2-3.15-0.71-4.56-1.51l-26.9-15.3c-0.53-0.31-1.11-0.5-1.71-0.57
		c-0.6-0.07-1.21-0.03-1.8,0.15l-29.77,8.44c-1.57,0.44-3.17,0.57-4.79,0.38c-2.57-0.31-4.94-1.4-6.83-3.16
		c-3.1-2.87-4.5-7.22-3.65-11.35l6.27-30.19c0.26-1.2,0.01-2.45-0.68-3.46l-17.29-25.59c-2.36-3.5-2.73-8.04-0.95-11.87
		c1.79-3.82,5.51-6.49,9.72-6.95l30.77-3.36c1.21-0.13,2.33-0.75,3.08-1.71l19.07-24.27c2.61-3.32,6.85-5.06,11.06-4.56
		c4.21,0.51,7.9,3.21,9.64,7.06l12.74,28.11c0.49,1.11,1.43,1.98,2.58,2.39l29.08,10.6c3.98,1.44,6.96,4.92,7.78,9.07
		c0.82,4.13-0.63,8.46-3.76,11.29l-22.89,20.73c-0.9,0.82-1.45,1.97-1.48,3.2l-1.12,30.81c-0.14,4.21-2.54,8.1-6.23,10.15
		C772.6,265.69,770.05,266.19,767.47,265.87z"/>
</g>
<g>
	<circle class="st6" cx="798" cy="719.6" r="125.47"/>
	<path class="st7" d="M700.53,798.57c43.03,53.14,120.89,62.12,174.89,19.77c54-42.35,63.85-120.1,22.49-174.56L700.53,798.57z"/>
	<path class="st8" d="M767.65,622.67"/>
	<circle class="st9" cx="798" cy="719.6" r="73.69"/>
	<circle class="st7" cx="798" cy="719.6" r="53.77"/>
</g>
<path class="st10" d="M699.83,888.3l-449.11-54.31c-18.13-2.19-31.04-18.66-28.85-36.79l83.75-692.55
	c2.33-19.23,19.96-33.06,39.2-30.74l448.97,54.3c19.23,2.33,33.06,19.96,30.74,39.19L741.27,855.8
	C738.81,876.13,720.16,890.76,699.83,888.3z M742.84,856"/>
<rect x="224.45" y="229.1" transform="matrix(0.1201 -0.9928 0.9928 0.1201 4.5339 927.9275)" class="st11" width="602.54" height="464.61"/>
<path class="st12" d="M522.5,815.29c-2.01,16.62-17.12,28.47-33.74,26.46c-16.63-2.01-28.48-17.12-26.47-33.74
	c2.01-16.63,17.12-28.47,33.75-26.45C512.66,783.57,524.51,798.66,522.5,815.29L522.5,815.29z M522.5,815.29"/>
<path class="st13" d="M586.97,140.72c-0.83,6.88-7.08,11.78-13.96,10.95c-6.88-0.83-11.78-7.08-10.95-13.96
	c0.83-6.87,7.08-11.78,13.96-10.95C582.9,127.6,587.8,133.85,586.97,140.72L586.97,140.72z M586.97,140.72"/>
<g>
	<g>
		<path class="st14" d="M877.48,441.16l-217.05,340l-170.41-20.61l-134.85-86.07c-15.5-9.9-20.05-30.49-10.16-46L584.12,253.9
			c9.89-15.51,30.49-20.04,45.99-10.15l237.21,151.41C882.82,405.06,887.37,425.64,877.48,441.16z"/>
		<path class="st15" d="M691.85,481.73c-15.39-10.55-34.99-10.77-42.51-6.6c0.62-8.58-7.83-26.26-23.88-35.78
			c-41.82-24.82-84.57,8.77-88.89,54c-3.51,36.76,7.78,78.32,20.35,105.58c2.44,5.29,4.63,8.39,6.9,10.19
			c2.58,1.29,6.32,1.98,12.14,1.97c30.02-0.07,72.47-7.32,104.34-25.99C719.5,562.13,731.97,509.22,691.85,481.73z"/>
	</g>
	<path class="st15" d="M676.76,308.36c-4.12-2.84-9.39-2.9-11.41-1.78c0.17-2.3-2.1-7.04-6.41-9.61
		c-11.22-6.66-22.69,2.36-23.86,14.5c-0.94,9.87,2.09,21.02,5.47,28.34c0.65,1.41,1.25,2.25,1.85,2.73c0.7,0.35,1.7,0.53,3.26,0.53
		c8.06-0.01,19.45-1.97,28.01-6.98C684.19,329.94,687.54,315.74,676.76,308.36z"/>
	<g>
		<path class="st16" d="M620.74,280.26l-11.51,18.04c-1.7,2.64-3.82,3.19-5.81,1.91c-1.75-1.12-2.43-2.93-2.75-5.48l-8.16,1.56
			c0.26,4,1.98,8.03,6.96,11.19c3.25,2.08,6.6,2.78,9.66,2.11c3.14-0.69,5.65-2.65,7.94-6.23l11.54-18.08L620.74,280.26z"/>
	</g>
	<g>
		<path class="st16" d="M572.84,735.38l-11.52,18.04c-1.69,2.65-3.81,3.19-5.8,1.92c-1.75-1.12-2.43-2.93-2.76-5.48l-8.15,1.56
			c0.26,4,1.98,8.03,6.95,11.2c3.25,2.07,6.6,2.78,9.66,2.1c3.14-0.69,5.65-2.64,7.94-6.23l11.54-18.08L572.84,735.38z"/>
	</g>
	<path class="st15" d="M632.63,777.79l-47.87-5.79c-0.16-2.33-0.16-4.65,0.06-6.9c1.17-12.14,12.64-21.16,23.86-14.5
		c4.31,2.56,6.58,7.31,6.42,9.61c2.02-1.12,7.28-1.06,11.41,1.79C632.39,766.03,634.06,772.11,632.63,777.79z"/>
</g>
<polyline class="st17" points="514.21,363.41 727.94,675.41 660.43,781.16 490.02,760.55 321.95,740.22 283.19,690.81 "/>
<g>
	<g>
		<path class="st14" d="M590.37,537.68c7.36,16.86-0.33,36.49-17.18,43.85L315.32,694.22c-16.85,7.36-36.49-0.33-43.86-17.18
			L93.52,269.84c-7.37-16.85,0.33-36.49,17.18-43.85L368.56,113.3c16.86-7.37,36.49,0.33,43.86,17.18L590.37,537.68z"/>
		<path class="st15" d="M342.74,307.24c-17.33,6.91-28.43,23.06-29.16,31.63c-6.78-5.3-26.17-8.12-43.02-0.09
			c-43.91,20.91-39.82,75.12-4.65,103.9c28.57,23.39,69.38,37.16,99.02,41.9c5.75,0.92,9.55,0.82,12.3-0.06
			c2.51-1.43,5.17-4.15,8.4-8.99c16.66-24.97,34.28-64.27,36.52-101.14C424.92,329.06,387.92,289.23,342.74,307.24z"/>
	</g>
	<path class="st15" d="M192.05,226.05c-4.66,1.84-7.63,6.18-7.83,8.48c-1.82-1.42-7.02-2.18-11.55-0.03
		c-11.78,5.61-10.68,20.16-1.25,27.89c7.67,6.27,18.63,9.97,26.58,11.24c1.54,0.24,2.56,0.22,3.3-0.02
		c0.68-0.38,1.39-1.11,2.25-2.41c4.48-6.7,9.2-17.25,9.8-27.15C214.11,231.9,204.18,221.21,192.05,226.05z"/>
	<g>
		<path class="st16" d="M134.11,257.84l8.62-3.76l27.92,26.48l-9.58,4.19l-4.87-4.73l-12.44,5.44l0.21,6.76l-9.4,4.11L134.11,257.84
			z M150.58,274.18l-7.6-7.6l0.37,10.76L150.58,274.18z"/>
	</g>
	<path class="st15" d="M534.15,514.42c-4.66,1.84-7.63,6.18-7.83,8.48c-1.82-1.42-7.02-2.18-11.55-0.03
		c-11.78,5.61-10.68,20.16-1.25,27.89c7.67,6.27,18.63,9.97,26.58,11.24c1.54,0.24,2.56,0.22,3.3-0.02
		c0.68-0.38,1.39-1.11,2.25-2.41c4.48-6.7,9.2-17.25,9.8-27.15C556.2,520.27,546.27,509.58,534.15,514.42z"/>
	<g>
		<path class="st16" d="M476.2,546.2l8.62-3.76l27.92,26.48l-9.58,4.19l-4.87-4.73l-12.44,5.44l0.21,6.76l-9.4,4.11L476.2,546.2z
			 M492.67,562.54l-7.6-7.6l0.37,10.76L492.67,562.54z"/>
	</g>
</g>
<g>
	<circle class="st6" cx="199.19" cy="644.98" r="125.47"/>
	<path class="st7" d="M101.73,723.95c43.03,53.14,120.89,62.12,174.89,19.77s63.85-120.1,22.49-174.56L101.73,723.95z"/>
	<path class="st8" d="M168.85,548.05"/>
	<circle class="st9" cx="199.19" cy="644.98" r="73.69"/>
	<circle class="st7" cx="199.19" cy="644.98" r="53.77"/>
</g>
<g>
	<circle class="st6" cx="309.09" cy="818.29" r="125.47"/>
	<path class="st7" d="M211.62,897.26c43.03,53.14,120.89,62.12,174.89,19.77s63.85-120.1,22.49-174.56L211.62,897.26z"/>
	<path class="st8" d="M278.74,721.36"/>
	<circle class="st9" cx="309.09" cy="818.29" r="73.69"/>
	<circle class="st7" cx="309.09" cy="818.29" r="53.77"/>
</g>
</svg>
