<?xml version="1.0"?>
<svg xmlns="http://www.w3.org/2000/svg" xmlns:xlink="http://www.w3.org/1999/xlink" xmlns:svgjs="http://svgjs.com/svgjs" version="1.1" width="512" height="512" x="0" y="0" viewBox="0 0 510 510" style="enable-background:new 0 0 512 512" xml:space="preserve" class=""><g><path xmlns="http://www.w3.org/2000/svg" d="m510 255c0-140.85-114.162-255-255-255-140.85 0-255 114.162-255 255 0 140.85 114.162 255 255 255 140.85 0 255-114.162 255-255zm-479.488 15h48.13c3.167 37.553 18.106 71.801 41.107 99.038l-34.021 34.022c-31.592-36.073-51.857-82.29-55.216-133.06zm55.216-163.06 34.022 34.022c-23.002 27.237-37.941 61.485-41.108 99.038h-48.13c3.359-50.77 23.624-96.987 55.216-133.06zm393.76 133.06h-48.13c-3.167-37.553-18.106-71.801-41.107-99.038l34.022-34.022c31.591 36.073 51.856 82.29 55.215 133.06zm-224.488 162c-81.056 0-147-65.944-147-147s65.944-147 147-147 147 65.944 147 147-65.944 147-147 147zm114.038-282.25c-27.237-23.002-61.485-37.941-99.038-41.108v-48.13c50.769 3.359 96.987 23.624 133.059 55.216zm-129.038-41.108c-37.553 3.167-71.801 18.106-99.038 41.108l-34.022-34.022c36.073-31.592 82.291-51.857 133.06-55.216zm-99.038 311.608c27.237 23.001 61.485 37.941 99.038 41.107v48.13c-50.769-3.359-96.987-23.625-133.059-55.216zm129.038 41.108c37.553-3.167 71.801-18.106 99.038-41.107l34.022 34.022c-36.072 31.591-82.29 51.857-133.059 55.216v-48.131zm120.251-62.32c23.001-27.237 37.941-61.485 41.107-99.038h48.13c-3.359 50.77-23.624 96.987-55.216 133.06z" fill="#d84447" data-original="#000000" style="" class=""/><path xmlns="http://www.w3.org/2000/svg" d="m272.466 240h-34.933c-9.027 0-16.371-7.344-16.371-16.371 0-8.947 7.19-16.373 16.492-16.371l33.52.248c8.077.06 15.498 4.158 19.847 10.956l.177.277c4.461 6.981 13.737 9.023 20.717 4.562s9.023-13.736 4.562-20.717l-.181-.283c-9.352-14.619-25.258-24.649-46.296-24.804v-15.673c0-8.284-6.716-15-15-15s-15 6.716-15 15v15.451c-30.354-.223-48.837 22.378-48.837 46.354 0 25.569 20.802 46.371 46.371 46.371h34.933c9.027 0 16.371 7.344 16.371 16.371 0 8.943-7.196 16.395-16.492 16.371l-36.568-.27c-7.009-.052-13.603-3.171-18.09-8.557-5.303-6.366-14.761-7.226-21.125-1.923-6.365 5.302-7.226 14.761-1.923 21.125 10.149 12.182 25.063 19.236 40.917 19.354l4.444.033v15.673c0 8.284 6.716 15 15 15s15-6.716 15-15v-15.451c30.018.221 48.837-22.03 48.837-46.354-.001-25.57-20.802-46.372-46.372-46.372z" fill="#d84447" data-original="#000000" style="" class=""/></g></svg>
