<?xml version="1.0"?>
<svg xmlns="http://www.w3.org/2000/svg" xmlns:xlink="http://www.w3.org/1999/xlink" xmlns:svgjs="http://svgjs.com/svgjs" version="1.1" width="512" height="512" x="0" y="0" viewBox="0 0 512 512" style="enable-background:new 0 0 512 512" xml:space="preserve" class=""><g><path xmlns="http://www.w3.org/2000/svg" d="m512 83.96875c0-28.042969-23.003906-50.859375-51.273438-50.859375-28.273437 0-51.277343 22.816406-51.277343 50.859375 0 16.253906 7.738281 30.742188 19.742187 40.058594l-96.734375 69.566406-54.988281-97.179688c16.882812-8.332031 28.515625-25.617187 28.515625-45.558593 0-28.042969-23-50.855469-51.273437-50.855469-28.273438 0-51.273438 22.8125-51.273438 50.855469 0 20.183593 11.914062 37.65625 29.128906 45.867187l-50.753906 96.980469-99.269531-73.140625c12.15625-9.308594 20.007812-23.890625 20.007812-40.265625 0-28.042969-23.003906-50.859375-51.277343-50.859375-28.269532 0-51.273438 22.816406-51.273438 50.859375 0 23.960937 16.800781 44.09375 39.328125 49.445313l57.722656 220.34375v51.136718c0 8.285156 6.714844 15 15 15h292.101563c8.28125 0 15-6.714844 15-15v-51.238281l53.667968-216.601563c22.453126-5.410156 39.179688-25.503906 39.179688-49.414062zm-51.273438-20.859375c11.730469 0 21.273438 9.355469 21.273438 20.855469 0 11.503906-9.542969 20.859375-21.273438 20.859375-11.734374 0-21.277343-9.359375-21.277343-20.859375s9.542969-20.855469 21.277343-20.855469zm-206.015624-33.109375c11.730468 0 21.273437 9.355469 21.273437 20.855469 0 11.449219-9.460937 20.765625-21.117187 20.851562-.042969-.003906-.085938-.003906-.128907-.003906-.078125 0-.160156 0-.238281 0-11.636719-.109375-21.066406-9.414063-21.066406-20.847656 0-11.5 9.542968-20.855469 21.277344-20.855469zm-224.710938 50.296875c0-11.503906 9.542969-20.859375 21.273438-20.859375 11.734374 0 21.277343 9.355469 21.277343 20.859375 0 11.5-9.542969 20.855469-21.277343 20.855469-11.730469 0-21.273438-9.355469-21.273438-20.855469zm97.050781 305.925781v-23.058594l262.101563-.007812v23.066406zm265.363281-53.066406-268.78125.007812-47.09375-179.765624 101.554688 74.828124c3.523438 2.597657 8.007812 3.527344 12.269531 2.542969 4.265625-.984375 7.890625-3.785156 9.917969-7.664062l54.972656-105.035157 59.332032 104.851563c2.097656 3.707031 5.671874 6.347656 9.835937 7.261719 4.160156.914062 8.515625.015625 11.976563-2.472656l99.953124-71.882813zm0 0" fill="#222222" data-original="#000000" style=""/></g></svg>
