<?xml version="1.0"?>
<svg xmlns="http://www.w3.org/2000/svg" xmlns:xlink="http://www.w3.org/1999/xlink" xmlns:svgjs="http://svgjs.com/svgjs" version="1.1" width="512" height="512" x="0" y="0" viewBox="0 0 424 424" style="enable-background:new 0 0 512 512" xml:space="preserve" class=""><g><g xmlns="http://www.w3.org/2000/svg"><path d="m369.394 75.889h-21.284v-19.715c0-30.974-25.199-56.174-56.173-56.174h-235.762c-30.975 0-56.175 25.2-56.175 56.174v235.762c0 30.975 25.2 56.174 56.175 56.174h19.715v21.282c0 30.11 24.496 54.607 54.606 54.607h238.897c30.11 0 54.606-24.497 54.606-54.607v-238.896c.001-30.11-24.495-54.607-54.605-54.607zm-313.219 242.222c-14.433 0-26.175-11.742-26.175-26.174v-235.763c0-14.432 11.742-26.174 26.175-26.174h235.762c14.433 0 26.174 11.742 26.174 26.174v19.715h-187.615c-30.11 0-54.606 24.497-54.606 54.607v187.615zm337.825 51.282c0 13.568-11.038 24.607-24.606 24.607h-238.898c-13.568 0-24.606-11.039-24.606-24.607v-238.897c0-13.568 11.038-24.607 24.606-24.607h238.897c13.568 0 24.606 11.039 24.606 24.607v238.897z" fill="#222222" data-original="#000000" style="" class=""/><path d="m192.248 146.061c-25.468 0-46.188 20.72-46.188 46.188s20.72 46.188 46.188 46.188 46.188-20.72 46.188-46.188-20.72-46.188-46.188-46.188zm0 62.375c-8.926 0-16.188-7.262-16.188-16.188s7.262-16.188 16.188-16.188 16.188 7.262 16.188 16.188-7.262 16.188-16.188 16.188z" fill="#222222" data-original="#000000" style="" class=""/><path d="m308.161 261.974c-25.468 0-46.188 20.72-46.188 46.188s20.72 46.187 46.188 46.187 46.188-20.719 46.188-46.187-20.72-46.188-46.188-46.188zm0 62.374c-8.926 0-16.188-7.261-16.188-16.187s7.262-16.188 16.188-16.188 16.188 7.262 16.188 16.188-7.262 16.187-16.188 16.187z" fill="#222222" data-original="#000000" style="" class=""/></g></g></svg>
