<?xml version="1.0"?>
<svg xmlns="http://www.w3.org/2000/svg" xmlns:xlink="http://www.w3.org/1999/xlink" xmlns:svgjs="http://svgjs.com/svgjs" version="1.1" width="512" height="512" x="0" y="0" viewBox="0 0 512.005 512.005" style="enable-background:new 0 0 512 512" xml:space="preserve" class=""><g><g xmlns="http://www.w3.org/2000/svg"><path d="m166.003 164.382v60c0 8.284 6.716 15 15 15h30v45h-30c-8.284 0-15 6.716-15 15v60c0 8.284 6.716 15 15 15h150c8.284 0 15-6.716 15-15v-60c0-8.284-6.716-15-15-15h-30v-150c0-8.284-6.716-15-15-15h-62.561c-6.357 0-12.024 4.007-14.143 10.001-4.228 11.962-15.6 19.999-28.297 19.999-8.283 0-14.999 6.715-14.999 15zm30 13.09c15.511-4.017 28.904-14.137 36.972-28.091h38.028v150c0 8.284 6.716 15 15 15h30v30h-120v-30h30c8.284 0 15-6.716 15-15v-75c0-8.284-6.716-15-15-15h-30z" fill="#222222" data-original="#000000" style=""/><path d="m500.83 293.878c-1.406-.371-26.778-6.878-53.521-1.652 2.36-11.484 3.661-23.042 3.921-34.556 15.026-6.614 40.734-20.983 52.864-45.675 17.366-35.353.69-77.534-.028-79.313-2.922-7.235-10.905-11.021-18.356-8.708-1.69.525-37.239 11.835-57.314 38.869-5.818-10.811-12.724-21.197-20.702-31.018 6.322-14.38 15.204-41.622 6.88-68.089-11.817-37.573-52.989-56.605-54.736-57.397-6.963-3.156-15.187-.57-19.09 6.004-.979 1.649-23.845 40.822-12.028 78.395 10.446 33.213 43.823 51.935 52.637 56.381 91.54 106.661 15.249 272.261-125.354 272.261-140.992 0-217.606-166.455-124.48-273.269 10.749-5.596 41.272-23.858 51.35-55.219 12.05-37.499-10.571-76.813-11.54-78.468-3.862-6.599-12.07-9.236-19.053-6.123-1.752.781-43.041 19.556-55.092 57.055-8.635 26.872.533 54.672 6.781 68.882-7.821 9.665-14.651 19.901-20.434 30.59-20.233-26.923-56.053-36.851-57.757-37.31-7.319-1.971-14.959 1.829-17.804 8.854-.72 1.778-17.428 43.946-.09 79.313 12.081 24.642 37.607 38.211 52.797 44.396.296 11.532 1.632 23.046 3.98 34.41-26.66-5.329-51.989 1-53.395 1.362-7.801 2.007-12.625 9.817-10.926 17.691.418 1.938 10.632 47.715 44.184 67.93 14.663 8.834 31.157 11.372 45.276 11.372 9.719 0 18.31-1.203 24.4-2.383 6.867 7.348 14.256 14.109 22.105 20.238-7.042 2.159-14.055 5.291-20.601 9.749-32.556 22.17-38.879 67.084-39.132 68.986-1.01 7.579 3.843 14.704 11.265 16.541.919.228 12.133 2.918 27.171 2.918 15.424 0 34.871-2.831 51.355-14.057 19.881-13.539 29.978-35.559 34.885-51.086 17.422 4.999 35.799 7.63 54.754 7.63 18.694 0 36.826-2.562 54.033-7.432 4.978 15.51 15.342 38.022 35.78 51.593 16.092 10.685 34.871 13.463 50.049 13.463 15.772 0 27.657-3 28.603-3.245 7.4-1.924 12.168-9.106 11.07-16.672-.275-1.898-7.125-46.736-39.938-68.523-6.534-4.338-13.51-7.37-20.509-9.444 8.194-6.355 15.892-13.396 23.021-21.074 6.273 1.245 14.79 2.447 24.362 2.447 13.925 0 30.047-2.543 44.608-11.193 33.683-20.011 44.14-65.741 44.568-67.677 1.739-7.862-3.036-15.693-10.819-17.747zm-351.353 174.164c-12.166 8.284-28.027 9.369-39.495 8.748 3.625-10.897 10.443-25.259 22.609-33.544 12.16-8.281 28.016-9.366 39.473-8.751-3.639 10.905-10.468 25.294-22.587 33.547zm-23.727-395.505c4.501-14.007 16.34-24.608 25.756-31.167 3.833 10.839 7.291 26.386 2.805 40.345-4.503 14.013-16.349 24.617-25.775 31.178-3.838-10.824-7.289-26.344-2.786-40.356zm-90.929 127.943c-6.536-13.33-5.285-29.345-3.014-40.619 10.834 5.095 25.136 13.988 31.718 27.413 2.073 4.23 3.486 9.047 4.22 14.344-2.259 7.969-3.99 16.086-5.176 24.313-10.864-5.738-22.27-14.276-27.748-25.451zm25.185 153.299c-12.632-7.61-20.654-22.027-25.255-33.183 11.874-.846 28.104-.125 40.737 7.487.04.024.079.051.118.075.719 1.744 1.457 3.482 2.227 5.21 4.303 9.66 9.274 18.82 14.838 27.45-10.35.356-22.588-.968-32.665-7.039zm341.991 123.034c-11.474.744-27.374-.155-39.587-8.264-12.256-8.138-19.242-22.412-22.995-33.257 11.47-.744 27.375.154 39.589 8.264 12.254 8.137 19.239 22.405 22.993 33.257zm46.474-289.57c6.659-13.557 20.932-22.975 31.851-28.528 2.191 11.249 3.28 26.952-3.156 40.053-5.545 11.288-17.023 20.254-27.983 26.444-1.174-7.855-2.841-15.634-4.994-23.297.725-5.429 2.161-10.355 4.282-14.672zm-91.133-105.504c-4.417-14.043-.867-29.545 3.036-40.338 9.385 6.62 21.166 17.298 25.582 31.338s.869 29.538-3.038 40.337c-9.385-6.619-21.164-17.296-25.58-31.337zm94.42 271.769c-10.004 5.943-22.021 7.248-32.248 6.882 5.428-8.473 10.287-17.456 14.503-26.917.855-1.919 1.672-3.847 2.463-5.778 12.668-7.508 28.854-8.132 40.689-7.221-4.681 11.146-12.793 25.54-25.407 33.034z" fill="#222222" data-original="#000000" style=""/></g></g></svg>
