<?xml version="1.0"?>
<svg xmlns="http://www.w3.org/2000/svg" xmlns:xlink="http://www.w3.org/1999/xlink" xmlns:svgjs="http://svgjs.com/svgjs" version="1.1" width="512" height="512" x="0" y="0" viewBox="0 0 512 512" style="enable-background:new 0 0 512 512" xml:space="preserve" class=""><g>
<g xmlns="http://www.w3.org/2000/svg">
	<g>
		<path d="M327.227,235.882c-6.522-11.926-16.407-21.226-25.127-29.432c-1.436-1.35-2.857-2.688-4.244-4.02    c-5.38-5.165-10.779-10.102-16.001-14.876c-5.089-4.652-10.351-9.463-15.465-14.374L256,163.205l-10.39,9.976    c-5.114,4.912-10.376,9.722-15.465,14.374c-5.222,4.774-10.621,9.711-16,14.876c-1.388,1.333-2.81,2.67-4.245,4.02    c-8.72,8.205-18.605,17.506-25.128,29.433c-9.158,16.749-8.849,36.186,0.83,51.995c9.518,15.546,24.323,24.179,41.688,24.308    c4.628,0.042,9.233-0.546,13.71-1.713V328h30v-17.531c4.349,1.133,8.818,1.718,13.317,1.718c0.131,0,0.262,0,0.393-0.001    c17.364-0.129,32.17-8.762,41.688-24.309C336.076,272.069,336.386,252.632,327.227,235.882z M300.813,272.213    c-4.134,6.752-9.322,9.922-16.327,9.974c-4.451,0.049-8.924-1.278-12.95-3.818L256,268.637l-15.573,9.756    c-3.939,2.484-8.342,3.794-12.746,3.794c-0.056,0-0.111,0-0.166,0c-7.005-0.052-12.193-3.222-16.327-9.974    c-4.117-6.726-4.15-14.516-0.094-21.935c4.234-7.742,11.927-14.979,19.365-21.979c1.51-1.42,3.005-2.828,4.465-4.229    c5.114-4.912,10.376-9.722,15.465-14.375c1.851-1.692,3.725-3.405,5.611-5.142c1.887,1.736,3.761,3.449,5.611,5.142    c5.089,4.652,10.351,9.463,15.466,14.375c1.459,1.401,2.954,2.809,4.464,4.229c7.439,7,15.131,14.237,19.365,21.979    C304.963,257.698,304.93,265.488,300.813,272.213z" fill="#222222" data-original="#000000" style="" class=""/>
	</g>
</g>
<g xmlns="http://www.w3.org/2000/svg">
	<g>
		<path d="M437.02,74.981C388.667,26.629,324.38,0,256,0S123.333,26.629,74.98,74.981C26.629,123.333,0,187.62,0,256    s26.629,132.668,74.98,181.02C123.333,485.371,187.62,512,256,512s132.667-26.629,181.02-74.98    C485.371,388.668,512,324.38,512,256S485.371,123.333,437.02,74.981z M481.472,240.714l-56.978,0.073    c-1.783-19.911-7.028-38.837-15.131-56.175l49.312-28.526C471.457,181.91,479.445,210.507,481.472,240.714z M443.62,130.138    l-49.315,28.528c-11.253-15.942-25.189-29.859-41.146-41.092l28.465-49.35C406.082,84.64,427.173,105.701,443.62,130.138z     M271,30.51c30.213,1.99,58.82,9.94,84.658,22.688l-28.464,49.348c-17.347-8.08-36.279-13.301-56.194-15.059V30.51z M241,30.51    v56.977c-20.212,1.784-39.413,7.135-56.97,15.422l-28.712-49.201C181.423,40.662,210.387,32.526,241,30.51z M129.426,68.86    l28.712,49.202c-15.898,11.312-29.756,25.306-40.93,41.307l-49.456-28.276C84.078,106.569,105.055,85.396,129.426,68.86z     M52.816,157.111l49.458,28.277c-8.012,17.374-13.161,36.326-14.844,56.252l-56.974,0.216    C32.332,211.628,40.169,182.991,52.816,157.111z M30.564,271.856l56.98-0.216c1.833,19.903,7.126,38.817,15.274,56.136    L53.58,356.425C40.73,330.63,32.668,302.053,30.564,271.856z M68.697,382.338l49.243-28.652    c11.292,15.912,25.267,29.79,41.253,40.984l-28.339,49.421C106.351,427.735,85.203,406.732,68.697,382.338z M156.855,459.057    l28.339-49.422c17.365,8.035,36.31,13.208,56.233,14.916l0.144,56.975C211.348,479.612,182.721,471.737,156.855,459.057z     M116.814,256c0-76.748,62.439-139.185,139.186-139.185S395.185,179.253,395.185,256S332.747,395.186,256,395.186    S116.814,332.748,116.814,256z M271.571,481.454l-0.144-56.979c19.907-1.808,38.826-7.077,56.155-15.202l28.588,49.275    C330.36,471.364,301.773,479.389,271.571,481.454z M382.101,443.462l-28.591-49.28c15.927-11.272,29.824-25.228,41.038-41.199    l49.386,28.402C427.547,405.865,406.516,426.986,382.101,443.462z M409.544,327c8.058-17.356,13.255-36.295,14.988-56.213    l56.976-0.072c-1.952,30.218-9.864,58.835-22.579,84.687L409.544,327z" fill="#222222" data-original="#000000" style="" class=""/>
	</g>
</g>
<g xmlns="http://www.w3.org/2000/svg">
</g>
<g xmlns="http://www.w3.org/2000/svg">
</g>
<g xmlns="http://www.w3.org/2000/svg">
</g>
<g xmlns="http://www.w3.org/2000/svg">
</g>
<g xmlns="http://www.w3.org/2000/svg">
</g>
<g xmlns="http://www.w3.org/2000/svg">
</g>
<g xmlns="http://www.w3.org/2000/svg">
</g>
<g xmlns="http://www.w3.org/2000/svg">
</g>
<g xmlns="http://www.w3.org/2000/svg">
</g>
<g xmlns="http://www.w3.org/2000/svg">
</g>
<g xmlns="http://www.w3.org/2000/svg">
</g>
<g xmlns="http://www.w3.org/2000/svg">
</g>
<g xmlns="http://www.w3.org/2000/svg">
</g>
<g xmlns="http://www.w3.org/2000/svg">
</g>
<g xmlns="http://www.w3.org/2000/svg">
</g>
</g></svg>
