<?xml version="1.0"?>
<svg xmlns="http://www.w3.org/2000/svg" xmlns:xlink="http://www.w3.org/1999/xlink" xmlns:svgjs="http://svgjs.com/svgjs" version="1.1" width="512" height="512" x="0" y="0" viewBox="0 0 512 512" style="enable-background:new 0 0 512 512" xml:space="preserve" class=""><g><g xmlns="http://www.w3.org/2000/svg"><path d="m467 60h-96v-25c0-19.299-15.701-35-35-35h-160c-19.299 0-35 15.701-35 35v25h-96c-24.813 0-45 20.187-45 45v280c0 24.813 20.187 45 45 45h126.994l-29.475 60.424c-2.268 4.649-1.98 10.138.761 14.524 2.74 4.387 7.548 7.052 12.72 7.052h200c5.172 0 9.98-2.665 12.721-7.052 2.741-4.386 3.028-9.875.761-14.524l-29.476-60.424h126.994c24.813 0 45-20.187 45-45v-280c0-24.813-20.187-45-45-45zm-296-25c0-2.757 2.243-5 5-5h160c2.757 0 5 2.243 5 5v230c0 2.757-2.243 5-5 5h-160c-2.757 0-5-2.243-5-5zm-126 55h96v175c0 19.299 15.701 35 35 35h160c19.299 0 35-15.701 35-35v-175h96c8.271 0 15 6.729 15 15v235h-452v-235c0-8.271 6.729-15 15-15zm286.994 392h-151.988l25.366-52h101.255zm135.006-82h-422c-8.271 0-15-6.729-15-15v-15h452v15c0 8.271-6.729 15-15 15z" fill="#222222" data-original="#000000" style=""/><path d="m243.043 217.558c2.688 4.609 7.622 7.442 12.957 7.442s10.269-2.833 12.957-7.442l35-60c2.725-4.67 2.725-10.446 0-15.116l-35-60c-2.688-4.609-7.622-7.442-12.957-7.442s-10.269 2.833-12.957 7.442l-35 60c-2.725 4.67-2.725 10.446 0 15.116zm12.957-97.788 17.634 30.23-17.634 30.23-17.634-30.23z" fill="#222222" data-original="#000000" style=""/></g></g></svg>
