<?xml version="1.0"?>
<svg xmlns="http://www.w3.org/2000/svg" xmlns:xlink="http://www.w3.org/1999/xlink" xmlns:svgjs="http://svgjs.com/svgjs" version="1.1" width="512" height="512" x="0" y="0" viewBox="0 0 511.99973 511" style="enable-background:new 0 0 512 512" xml:space="preserve" class=""><g><path xmlns="http://www.w3.org/2000/svg" d="m76.085938 139.398438c-41.347657 41.347656-68.601563 109.109374-74.78125 185.917968-5.542969 68.929688 6.875 129.46875 31.644531 154.234375 31.976562 31.980469 107.90625 35.371094 154.234375 31.644531 76.808594-6.179687 144.570312-33.433593 185.917968-74.78125 49.410157-49.410156 67.742188-101.09375 34.003907-162.273437 6.042969 1.054687 12.226562 1.597656 18.511719 1.597656.394531 0 .789062 0 1.183593-.003906 28.25-.304687 54.738281-11.40625 74.59375-31.257813l10.605469-10.605468-53.039062-53.039063c-19.816407-19.816406-46.464844-30.558593-74.914063-30.257812-.226563.003906-.453125.011719-.683594.015625 35.152344-32.441406 80.523438-50.226563 128.636719-50.226563v-30.003906c-54.542969 0-108.503906 20.320313-150.101562 59.222656.007812-.375.023437-.75.027343-1.128906.308594-28.492187-10.4375-55.097656-30.257812-74.914063l-53.035157-53.039062-10.609374 10.609375c-19.851563 19.851563-30.953126 46.34375-31.253907 74.589844-.074219 6.691406.472657 13.277343 1.59375 19.695312-61.277343-33.792969-112.988281-15.285156-162.277343 34.003907zm275.796874 275.800781c-36.382812 36.382812-97.289062 60.472656-167.105468 66.089843-65.421875 5.265626-115.226563-7.5625-130.613282-22.949218-15.390624-15.390625-28.214843-65.195313-22.953124-130.617188 5.617187-69.816406 29.703124-130.722656 66.089843-167.109375 74.394531-74.394531 124.445313-45.269531 212.117188 42.394531l.082031.085938c89.726562 89.734375 115.441406 139.050781 42.382812 212.105469zm85.863282-213.152344 30.78125 30.78125c-12.316406 8.234375-26.824219 12.742187-42.050782 12.902344-.285156.003906-.566406.003906-.851562.003906-20.03125 0-38.660156-7.605469-52.527344-21.472656l-30.796875-30.796875c29.589844-19.882813 69.761719-17.101563 95.445313 8.582031zm-158.074219-158.074219 30.78125 30.78125c14.066406 14.066406 21.691406 33.019532 21.472656 53.378906-.164062 15.226563-4.671875 29.734376-12.902343 42.050782l-30.785157-30.785156c-14.0625-14.0625-21.6875-33.019532-21.46875-53.375.160157-15.226563 4.667969-29.734376 12.902344-42.050782zm0 0" fill="#222222" data-original="#000000" style="" class=""/><path xmlns="http://www.w3.org/2000/svg" d="m192.769531 256.085938-21.214843-21.214844 42.429687-42.429688 21.214844 21.214844zm0 0" fill="#222222" data-original="#000000" style="" class=""/><path xmlns="http://www.w3.org/2000/svg" d="m277.628906 340.949219-21.214844-21.214844 42.429688-42.429687 21.21875 21.214843zm0 0" fill="#222222" data-original="#000000" style="" class=""/><path xmlns="http://www.w3.org/2000/svg" d="m107.90625 256.085938-21.214844-21.214844 42.429688-42.429688 21.214844 21.214844zm0 0" fill="#222222" data-original="#000000" style="" class=""/><path xmlns="http://www.w3.org/2000/svg" d="m192.769531 340.949219-21.214843-21.214844 42.429687-42.429687 21.214844 21.214843zm0 0" fill="#222222" data-original="#000000" style="" class=""/><path xmlns="http://www.w3.org/2000/svg" d="m277.628906 425.8125-21.214844-21.214844 42.429688-42.433594 21.214844 21.21875zm0 0" fill="#222222" data-original="#000000" style="" class=""/><path xmlns="http://www.w3.org/2000/svg" d="m107.90625 425.808594-21.214844-21.214844 42.429688-42.429688 21.214844 21.214844zm0 0" fill="#222222" data-original="#000000" style="" class=""/><path xmlns="http://www.w3.org/2000/svg" d="m107.90625 340.949219-21.214844-21.214844 42.429688-42.429687 21.214844 21.214843zm0 0" fill="#222222" data-original="#000000" style="" class=""/><path xmlns="http://www.w3.org/2000/svg" d="m192.769531 425.8125-21.21875-21.21875 42.429688-42.425781 21.21875 21.214843zm0 0" fill="#222222" data-original="#000000" style="" class=""/></g></svg>
