<?xml version="1.0"?>
<svg xmlns="http://www.w3.org/2000/svg" xmlns:xlink="http://www.w3.org/1999/xlink" xmlns:svgjs="http://svgjs.com/svgjs" version="1.1" width="512" height="512" x="0" y="0" viewBox="0 0 512 512" style="enable-background:new 0 0 512 512" xml:space="preserve" class=""><g>
<g xmlns="http://www.w3.org/2000/svg">
	<g>
		<path d="M256,0C115.03,0,0,115.049,0,256c0,140.97,115.049,256,256,256c140.97,0,256-115.049,256-256C512,115.029,396.951,0,256,0    z M481.489,241h-61.178c-3.102-34.25-16.707-65.512-37.571-90.527l43.24-43.24C457.751,143.489,478.127,189.956,481.489,241z     M271,30.51c51.045,3.362,97.512,23.739,133.768,55.51l-43.241,43.24C336.512,108.396,305.25,94.791,271,91.689V30.51z M241,30.51    v61.179c-34.25,3.101-65.512,16.707-90.527,37.571l-43.24-43.24C143.489,54.249,189.955,33.872,241,30.51z M86.02,107.233    l43.24,43.24C108.396,175.488,94.791,206.75,91.689,241H30.51C33.872,189.955,54.249,143.489,86.02,107.233z M30.51,271h61.179    c3.102,34.25,16.707,65.512,37.571,90.527l-43.24,43.24C54.249,368.511,33.872,322.045,30.51,271z M241,481.49    c-51.045-3.362-97.511-23.739-133.767-55.51l43.24-43.24c25.015,20.864,56.277,34.469,90.527,37.571V481.49z M121,256    c0-74.425,60.554-135,135-135c74.408,0,135,60.539,135,135c0,74.384-60.518,135-135,135C181.582,391,121,330.451,121,256z     M270.999,481.49v-61.179H271c34.25-3.102,65.512-16.707,90.527-37.571l43.24,43.24    C368.511,457.751,322.044,478.128,270.999,481.49z M425.981,404.767l-43.24-43.24c20.864-25.015,34.469-56.377,37.571-90.627    h61.179C478.128,321.945,457.751,368.511,425.981,404.767z" fill="#222222" data-original="#000000" style="" class=""/>
	</g>
</g>
<g xmlns="http://www.w3.org/2000/svg">
	<g>
		<path d="M256,241c-8.271,0-15-6.729-15-15c0-6.042,3.595-11.468,9.16-13.825c6.715-2.844,14.755-0.417,22.058,6.659    c5.951,5.766,15.446,5.613,21.211-0.336c5.764-5.95,5.614-15.446-0.336-21.211c-6.772-6.561-14.3-11.198-22.093-13.815V166    c0-8.284-6.716-15-15-15s-15,6.716-15,15v17.571c-0.851,0.303-1.699,0.623-2.54,0.979C221.779,191.615,211,207.885,211,226    c0,24.813,20.187,45,45,45c8.271,0,15,6.729,15,15c0,6.286-3.965,11.953-9.866,14.103c-7.704,2.805-16.674-1-24.606-10.445    c-5.328-6.343-14.79-7.167-21.133-1.839c-6.344,5.328-7.167,14.79-1.839,21.133c8.109,9.654,17.548,16.275,27.445,19.608V346    c0,8.284,6.716,15,15,15s15-6.716,15-15v-17.572c0.134-0.047,0.268-0.088,0.401-0.137C289.105,321.843,301,304.847,301,286    C301,261.187,280.813,241,256,241z" fill="#222222" data-original="#000000" style="" class=""/>
	</g>
</g>
<g xmlns="http://www.w3.org/2000/svg">
</g>
<g xmlns="http://www.w3.org/2000/svg">
</g>
<g xmlns="http://www.w3.org/2000/svg">
</g>
<g xmlns="http://www.w3.org/2000/svg">
</g>
<g xmlns="http://www.w3.org/2000/svg">
</g>
<g xmlns="http://www.w3.org/2000/svg">
</g>
<g xmlns="http://www.w3.org/2000/svg">
</g>
<g xmlns="http://www.w3.org/2000/svg">
</g>
<g xmlns="http://www.w3.org/2000/svg">
</g>
<g xmlns="http://www.w3.org/2000/svg">
</g>
<g xmlns="http://www.w3.org/2000/svg">
</g>
<g xmlns="http://www.w3.org/2000/svg">
</g>
<g xmlns="http://www.w3.org/2000/svg">
</g>
<g xmlns="http://www.w3.org/2000/svg">
</g>
<g xmlns="http://www.w3.org/2000/svg">
</g>
</g></svg>
