<?xml version="1.0"?>
<svg xmlns="http://www.w3.org/2000/svg" xmlns:xlink="http://www.w3.org/1999/xlink" xmlns:svgjs="http://svgjs.com/svgjs" version="1.1" width="512" height="512" x="0" y="0" viewBox="0 0 512 512" style="enable-background:new 0 0 512 512" xml:space="preserve" class=""><g><g xmlns="http://www.w3.org/2000/svg"><path d="m456 120h-5v-15c0-30.327-24.673-55-55-55h-17.739c-5.412 0-10.462-3.063-13.179-7.993-14.493-26.303-55.271-42.007-109.082-42.007s-94.589 15.704-109.082 42.006c-2.717 4.931-7.767 7.994-13.179 7.994h-17.739c-30.327 0-55 24.673-55 55v15h-5c-30.327 0-55 24.673-55 55v322c0 8.284 6.716 15 15 15h480c8.284 0 15-6.716 15-15v-322c0-30.327-24.673-55-55-55zm-265 300v-210h130v210zm-160 0v-210h130v210zm320-210h130v210h-130zm-260-105c0-13.785 11.215-25 25-25h17.739c16.344 0 31.462-9.011 39.454-23.516 8.729-15.841 42.006-26.484 82.807-26.484s74.078 10.643 82.807 26.484c7.992 14.505 23.11 23.516 39.454 23.516h17.739c13.785 0 25 11.215 25 25v15h-330zm-60 70c0-13.785 11.215-25 25-25h400c13.785 0 25 11.215 25 25v5h-450zm450 307h-450v-32h450z" fill="#222222" data-original="#000000" style="" class=""/><path d="m296 60h-80c-8.284 0-15 6.716-15 15s6.716 15 15 15h80c8.284 0 15-6.716 15-15s-6.716-15-15-15z" fill="#222222" data-original="#000000" style="" class=""/><path d="m256 247.5c-19.072 0-35.578 13.568-39.249 32.261-1.33 6.774 3.083 13.344 9.857 14.674 6.768 1.33 13.344-3.083 14.674-9.857 1.374-6.999 7.564-12.079 14.718-12.079 8.271 0 15 6.729 15 15s-6.729 15-15 15c-6.903 0-12.5 5.597-12.5 12.5s5.597 12.5 12.5 12.5c8.271 0 15 6.729 15 15s-6.729 15-15 15c-7.442 0-13.829-5.542-14.854-12.891-.097-.694-.146-1.403-.146-2.109 0-6.903-5.597-12.5-12.5-12.5s-12.5 5.597-12.5 12.5c0 1.857.13 3.728.386 5.563 2.739 19.633 19.77 34.438 39.614 34.438 22.056 0 40-17.944 40-40 0-10.642-4.178-20.326-10.979-27.5 6.801-7.174 10.979-16.858 10.979-27.5 0-22.056-17.944-40-40-40z" fill="#222222" data-original="#000000" style="" class=""/><path d="m416 247.5c-19.072 0-35.578 13.568-39.249 32.261-1.33 6.774 3.083 13.344 9.857 14.674 6.766 1.33 13.344-3.083 14.674-9.857 1.374-6.999 7.564-12.079 14.718-12.079 8.271 0 15 6.729 15 15s-6.729 15-15 15c-6.903 0-12.5 5.597-12.5 12.5s5.597 12.5 12.5 12.5c8.271 0 15 6.729 15 15s-6.729 15-15 15c-7.442 0-13.829-5.542-14.854-12.891-.097-.694-.146-1.403-.146-2.109 0-6.903-5.597-12.5-12.5-12.5s-12.5 5.597-12.5 12.5c0 1.857.13 3.728.386 5.563 2.739 19.633 19.77 34.438 39.614 34.438 22.056 0 40-17.944 40-40 0-10.642-4.178-20.326-10.979-27.5 6.801-7.174 10.979-16.858 10.979-27.5 0-22.056-17.944-40-40-40z" fill="#222222" data-original="#000000" style="" class=""/><path d="m96 247.5c-19.072 0-35.578 13.568-39.249 32.261-1.33 6.774 3.083 13.344 9.857 14.674 6.766 1.33 13.344-3.083 14.674-9.857 1.374-6.998 7.565-12.078 14.718-12.078 8.271 0 15 6.729 15 15s-6.729 15-15 15c-6.903 0-12.5 5.597-12.5 12.5s5.597 12.5 12.5 12.5c8.271 0 15 6.729 15 15s-6.729 15-15 15c-7.442 0-13.829-5.542-14.854-12.891-.097-.694-.146-1.403-.146-2.109 0-6.903-5.597-12.5-12.5-12.5s-12.5 5.597-12.5 12.5c0 1.857.13 3.728.386 5.563 2.739 19.632 19.77 34.437 39.614 34.437 22.056 0 40-17.944 40-40 0-10.642-4.178-20.326-10.979-27.5 6.801-7.174 10.979-16.858 10.979-27.5 0-22.056-17.944-40-40-40z" fill="#222222" data-original="#000000" style="" class=""/></g></g></svg>
