<?xml version="1.0"?>
<svg xmlns="http://www.w3.org/2000/svg" xmlns:xlink="http://www.w3.org/1999/xlink" xmlns:svgjs="http://svgjs.com/svgjs" version="1.1" width="512" height="512" x="0" y="0" viewBox="0 0 512.017 512.017" style="enable-background:new 0 0 512 512" xml:space="preserve" class=""><g><g xmlns="http://www.w3.org/2000/svg"><g><path d="m256.095 512.009-58.026-35.315-71.059 5.414-30.65-63.848-63.847-30.65 5.395-70.81-37.908-58.275 37.908-58.275-5.395-70.81 63.847-30.649 30.65-63.847 70.586 5.378 58.499-40.313 58.499 40.313 70.586-5.378 30.65 63.847 63.847 30.65-5.396 70.826 37.737 58.259-37.737 58.259 5.396 70.826-63.847 30.65-30.65 63.847-71.059-5.414zm-50.678-65.962 50.678 30.843 50.677-30.843 60.237 4.589 26.336-54.86 54.86-26.335-4.607-60.47 32.675-50.445-32.675-50.445 4.607-60.47-54.86-26.335-26.336-54.86-60.709 4.624-50.206-34.598-50.205 34.598-60.709-4.625-26.335 54.86-54.86 26.335 4.608 60.486-32.804 50.429 32.804 50.429-4.608 60.486 54.86 26.335 26.335 54.86z" fill="#222222" data-original="#000000" style="" class=""/></g><g><path d="m256.095 420.999c-90.981 0-165-74.019-165-165s74.019-165 165-165 165 74.019 165 165-74.019 165-165 165zm0-300c-74.439 0-135 60.561-135 135s60.561 135 135 135 135-60.561 135-135-60.561-135-135-135z" fill="#222222" data-original="#000000" style="" class=""/></g><g><path d="m320.1 346.622-64.005-33.65-64.006 33.65 12.224-71.271-51.782-50.475 71.561-10.398 32.003-64.845 32.002 64.845 71.562 10.398-51.782 50.475zm-64.005-67.543 24.162 12.703-4.614-26.905 19.548-19.054-27.015-3.925-12.081-24.479-12.081 24.479-27.014 3.925 19.547 19.054-4.615 26.905z" fill="#222222" data-original="#000000" style="" class=""/></g></g></g></svg>
