<?xml version="1.0"?>
<svg xmlns="http://www.w3.org/2000/svg" xmlns:xlink="http://www.w3.org/1999/xlink" xmlns:svgjs="http://svgjs.com/svgjs" version="1.1" width="512" height="512" x="0" y="0" viewBox="0 0 510.115 510.115" style="enable-background:new 0 0 512 512" xml:space="preserve" class=""><g><g xmlns="http://www.w3.org/2000/svg"><path d="m435.369 74.745c-99.654-99.655-260.96-99.665-360.623 0-99.653 99.652-99.668 260.958 0 360.625 99.652 99.652 260.956 99.667 360.623 0 99.653-99.652 99.669-260.958 0-360.625zm-339.411 21.213c70.546-70.546 174.23-83.229 256.147-44.015l-300.08 300.08c-39.839-83.62-25.206-186.926 43.933-256.065zm-28.621 283.179 311.831-311.83c24.399 16.201 46.44 37.738 63.639 63.64l-311.83 311.83c-24.898-16.468-46.775-38.14-63.64-63.64zm346.819 35.02c-69.141 69.139-172.445 83.772-256.065 43.933l300.08-300.081c39.175 81.836 26.599 185.534-44.015 256.148z" fill="#222222" data-original="#000000" style="" class=""/></g></g></svg>
