<?xml version="1.0"?>
<svg xmlns="http://www.w3.org/2000/svg" xmlns:xlink="http://www.w3.org/1999/xlink" xmlns:svgjs="http://svgjs.com/svgjs" version="1.1" width="512" height="512" x="0" y="0" viewBox="0 0 511.99999 511" style="enable-background:new 0 0 512 512" xml:space="preserve" class=""><g transform="matrix(1,0,0,1,0,70)"><path xmlns="http://www.w3.org/2000/svg" d="m407.5 152c0-83.535156-67.960938-151.5-151.5-151.5s-151.5 67.960938-151.5 151.5v125.984375h-34.492188v99.539063h371.984376v-99.539063h-34.492188zm-273 0c0-66.996094 54.503906-121.5 121.5-121.5s121.5 54.503906 121.5 121.5v125.984375h-243zm277.492188 195.523438h-311.984376v-39.539063h311.984376zm0 0" fill="#222222" data-original="#000000" style="" class=""/><path xmlns="http://www.w3.org/2000/svg" d="m446.105469 101.121094h65.894531v30h-65.894531zm0 0" fill="#222222" data-original="#000000" style="" class=""/><path xmlns="http://www.w3.org/2000/svg" d="m430.066406 31.867188 60.269532-29.816407 13.300781 26.890625-60.265625 29.8125zm0 0" fill="#222222" data-original="#000000" style="" class=""/><path xmlns="http://www.w3.org/2000/svg" d="m430.074219 200.382812 13.300781-26.890624 60.269531 29.816406-13.300781 26.886718zm0 0" fill="#222222" data-original="#000000" style="" class=""/><path xmlns="http://www.w3.org/2000/svg" d="m0 101.121094h65.894531v30h-65.894531zm0 0" fill="#222222" data-original="#000000" style="" class=""/><path xmlns="http://www.w3.org/2000/svg" d="m8.347656 28.945312 13.300782-26.886718 60.269531 29.8125-13.300781 26.890625zm0 0" fill="#222222" data-original="#000000" style="" class=""/><path xmlns="http://www.w3.org/2000/svg" d="m8.347656 203.289062 60.269532-29.816406 13.300781 26.890625-60.265625 29.8125zm0 0" fill="#222222" data-original="#000000" style="" class=""/></g></svg>
