<?xml version="1.0"?>
<svg xmlns="http://www.w3.org/2000/svg" xmlns:xlink="http://www.w3.org/1999/xlink" xmlns:svgjs="http://svgjs.com/svgjs" version="1.1" width="512" height="512" x="0" y="0" viewBox="0 0 512 512" style="enable-background:new 0 0 512 512" xml:space="preserve" class=""><g><path xmlns="http://www.w3.org/2000/svg" d="m512 135c0-74.435-60.588-135-135-135-47.416 0-89.389 24.619-113.512 62h-248.488c-8.284 0-15 6.716-15 15v420c0 8.284 6.716 15 15 15h300c8.284 0 15-6.716 15-15v-235.445c14.644 5.456 30.479 8.445 47 8.445 74.435 0 135-60.587 135-135zm-238.924 15h30.433c1.948 9.562 5.731 18.46 10.948 26.329l-21.52 21.52c-10.301-13.743-17.309-30.086-19.861-47.849zm207.848-30h-30.433c-1.948-9.562-5.731-18.46-10.948-26.329l21.52-21.52c10.301 13.743 17.309 30.086 19.861 47.849zm-103.924 60c-24.813 0-45-20.187-45-45s20.187-45 45-45 45 20.187 45 45-20.187 45-45 45zm41.33-107.542c-7.869-5.218-16.768-9-26.33-10.948v-30.434c17.763 2.552 34.106 9.56 47.849 19.861zm-56.33-10.949c-9.562 1.949-18.46 5.731-26.33 10.948l-21.52-21.52c13.744-10.301 30.087-17.309 47.85-19.861zm-47.542 32.162c-5.218 7.869-9 16.768-10.948 26.329h-30.433c2.552-17.763 9.56-34.106 19.862-47.85zm-.307 125.392 21.52-21.52c7.869 5.218 16.768 9 26.33 10.948v30.433c-17.764-2.552-34.107-9.56-47.85-19.861zm77.849-10.572c9.562-1.949 18.46-5.731 26.33-10.948l21.52 21.52c-13.743 10.301-30.086 17.309-47.849 19.861v-30.433zm47.542-32.162c5.218-7.869 9-16.768 10.948-26.329h30.433c-2.552 17.763-9.56 34.106-19.862 47.85zm-139.542 305.671h-270v-390.001h219.023c-4.552 13.512-7.023 27.974-7.023 43.001 0 44.908 22.187 85.862 58 110.822z" fill="#222222" data-original="#000000" style="" class=""/><path xmlns="http://www.w3.org/2000/svg" d="m202.212 348.066c29.277 0 52.211-24.332 52.211-55.394 0-33.918-28.026-56.262-60.436-83.615-6.122-5.167-12.452-10.51-19.163-16.327-5.639-4.886-14.01-4.886-19.648 0-6.71 5.815-13.04 11.159-19.162 16.326-35.086 29.614-60.437 51.01-60.437 83.616 0 31.062 22.934 55.394 52.211 55.394 7.993 0 15.452-1.803 22.212-5.297v19.231h-15c-8.284 0-15 6.716-15 15s6.716 15 15 15h60c8.284 0 15-6.716 15-15s-6.716-15-15-15h-15v-19.231c6.76 3.494 14.219 5.297 22.212 5.297zm-74.424-30c-14.582 0-22.211-12.774-22.211-25.394 0-17.876 16.162-32.311 49.786-60.691 3.147-2.656 6.349-5.358 9.637-8.153 3.288 2.795 6.49 5.498 9.638 8.155 31.299 26.418 49.785 42.222 49.785 60.689 0 12.619-7.629 25.394-22.211 25.394-16.108 0-22.336-19.851-22.768-21.296-.021-.077-.049-.15-.07-.227-.036-.123-.074-.245-.114-.367-1.934-6.25-7.665-10.559-14.26-10.559s-12.326 4.308-14.26 10.559c-.04.122-.077.244-.114.367-.022.077-.05.149-.07.227-.432 1.446-6.66 21.296-22.768 21.296z" fill="#222222" data-original="#000000" style="" class=""/><path xmlns="http://www.w3.org/2000/svg" d="m90 167v-30c0-8.284-6.716-15-15-15s-15 6.716-15 15v30c0 8.284 6.716 15 15 15s15-6.716 15-15z" fill="#222222" data-original="#000000" style="" class=""/><path xmlns="http://www.w3.org/2000/svg" d="m255 392c-8.284 0-15 6.716-15 15v30c0 8.284 6.716 15 15 15s15-6.716 15-15v-30c0-8.284-6.716-15-15-15z" fill="#222222" data-original="#000000" style="" class=""/></g></svg>
