<?xml version="1.0"?>
<svg xmlns="http://www.w3.org/2000/svg" xmlns:xlink="http://www.w3.org/1999/xlink" xmlns:svgjs="http://svgjs.com/svgjs" version="1.1" width="512" height="512" x="0" y="0" viewBox="0 0 512 512" style="enable-background:new 0 0 512 512" xml:space="preserve" class=""><g><g xmlns="http://www.w3.org/2000/svg"><path d="m270.394 224.03c-3.85 3.85-8.962 5.97-14.394 5.97s-10.543-2.12-14.394-5.97c-5.857-5.858-15.355-5.858-21.213 0s-5.858 15.355 0 21.213c9.517 9.516 22.162 14.757 35.607 14.757s26.09-5.241 35.606-14.757c5.858-5.858 5.858-15.355 0-21.213-5.857-5.859-15.355-5.859-21.212 0z" fill="#222222" data-original="#000000" style="" class=""/><path d="m437.118 355.724c-20.748-28.108-48.848-48.913-81.573-60.477-3.241-5.537-7.82-10.302-13.516-13.822-.039-.024-.079-.044-.118-.068 18.084-20.323 29.089-47.077 29.089-76.357v-83.696c23.766-12.596 40-37.584 40-66.304 0-30.327-24.673-55-55-55h-130c-46.869 0-85 38.131-85 85v120c0 29.28 11.005 56.034 29.089 76.357-.039.024-.079.044-.118.068-5.696 3.52-10.276 8.285-13.516 13.822-32.725 11.563-60.825 32.368-81.573 60.477-22.166 30.029-33.882 65.636-33.882 102.969v38.307c0 8.284 6.716 15 15 15h400c8.284 0 15-6.716 15-15v-38.307c0-37.333-11.716-72.94-33.882-102.969zm-222.037-2.035-19.609 9.805c-4.5 2.25-8.303.443-9.729-.438s-4.743-3.474-4.743-8.506v-39.098c0-5.033 3.317-7.625 4.743-8.507s5.228-2.688 9.729-.438l19.609 9.804c-2.613 5.697-4.081 12.023-4.081 18.689s1.468 12.992 4.081 18.689zm81.838-37.378 19.609-9.804c4.502-2.25 8.304-.443 9.729.438 1.426.881 4.743 3.474 4.743 8.507v39.098c0 5.032-3.317 7.625-4.743 8.506-1.425.882-5.23 2.689-9.729.438l-19.609-9.805c2.613-5.697 4.081-12.023 4.081-18.689s-1.468-12.992-4.081-18.689zm-25.919 18.689c0 8.271-6.729 15-15 15s-15-6.729-15-15 6.729-15 15-15 15 6.729 15 15zm-118.315 89.146 15.696-36.625c.523.358 1.046.717 1.589 1.053 6.465 3.996 13.72 6.011 21.005 6.011 6.1 0 12.22-1.413 17.913-4.259l28.628-14.314c1.138.515 2.298.987 3.483 1.407v104.581h-56.174zm118.315-46.726c1.185-.42 2.346-.892 3.483-1.407l28.628 14.314c5.693 2.847 11.812 4.259 17.913 4.259 7.284 0 14.541-2.016 21.005-6.011.544-.336 1.066-.695 1.589-1.053l15.696 36.625-32.14 57.853h-56.174zm70-172.42c0 46.869-38.131 85-85 85s-85-38.131-85-85v-75h165c1.682 0 3.345-.076 5-.185zm-170-120c0-30.327 24.673-55 55-55h130c13.785 0 25 11.215 25 25 0 24.813-20.187 45-45 45h-165zm-100 373.693c0-55.589 31.38-104.878 80-128.673v21.901l-28.787 67.17c-1.828 4.265-1.579 9.137.675 13.193l27.619 49.716h-79.507zm370 23.307h-79.507l27.62-49.715c2.254-4.057 2.503-8.928.675-13.193l-28.788-67.171v-21.901c48.62 23.795 80 73.084 80 128.673z" fill="#222222" data-original="#000000" style="" class=""/></g></g></svg>
