<?xml version="1.0"?>
<svg xmlns="http://www.w3.org/2000/svg" xmlns:xlink="http://www.w3.org/1999/xlink" xmlns:svgjs="http://svgjs.com/svgjs" version="1.1" width="512" height="512" x="0" y="0" viewBox="0 0 448.011 448.011" style="enable-background:new 0 0 512 512" xml:space="preserve" class=""><g>
<polygon xmlns="http://www.w3.org/2000/svg" style="" points="16.008,16.007 432.008,224.007 16.008,432.007 144.008,224.007 " fill="#828282" data-original="#828282" class=""/>
<path xmlns="http://www.w3.org/2000/svg" d="M16.008,448.007c-8.837,0.003-16.002-7.159-16.005-15.995c-0.001-2.962,0.82-5.866,2.373-8.389l122.848-199.616  L2.376,24.391C-2.255,16.865,0.09,7.01,7.616,2.378c4.72-2.905,10.607-3.161,15.561-0.676l416,208  c7.9,3.959,11.094,13.573,7.135,21.473c-1.547,3.086-4.049,5.588-7.135,7.135l-416,208  C20.951,447.426,18.497,448.006,16.008,448.007z M59.048,55.399l98.592,160.224c3.163,5.142,3.163,11.626,0,16.768L59.048,392.615  l337.184-168.608L59.048,55.399z" fill="#ffffff" data-original="#ffffff" style=""/>
<g xmlns="http://www.w3.org/2000/svg">
</g>
<g xmlns="http://www.w3.org/2000/svg">
</g>
<g xmlns="http://www.w3.org/2000/svg">
</g>
<g xmlns="http://www.w3.org/2000/svg">
</g>
<g xmlns="http://www.w3.org/2000/svg">
</g>
<g xmlns="http://www.w3.org/2000/svg">
</g>
<g xmlns="http://www.w3.org/2000/svg">
</g>
<g xmlns="http://www.w3.org/2000/svg">
</g>
<g xmlns="http://www.w3.org/2000/svg">
</g>
<g xmlns="http://www.w3.org/2000/svg">
</g>
<g xmlns="http://www.w3.org/2000/svg">
</g>
<g xmlns="http://www.w3.org/2000/svg">
</g>
<g xmlns="http://www.w3.org/2000/svg">
</g>
<g xmlns="http://www.w3.org/2000/svg">
</g>
<g xmlns="http://www.w3.org/2000/svg">
</g>
</g></svg>
