<?xml version="1.0" encoding="iso-8859-1"?>
<!-- Generator: Adobe Illustrator 19.0.0, SVG Export Plug-In . SVG Version: 6.00 Build 0)  -->
<svg version="1.1" id="Capa_1" xmlns="http://www.w3.org/2000/svg" xmlns:xlink="http://www.w3.org/1999/xlink" x="0px" y="0px"
	 viewBox="0 0 512 512" style="enable-background:new 0 0 512 512;" xml:space="preserve">
<path style="fill:#FD6244;" d="M461.75,36h-220c-22.091,0-40,17.909-40,40v220c0,22.091,17.909,40,40,40h220
	c22.091,0,40-17.909,40-40V76C501.75,53.909,483.841,36,461.75,36z"/>
<g>
	<circle style="fill:#57555C;" cx="271.75" cy="106" r="30"/>
	<circle style="fill:#57555C;" cx="431.75" cy="266" r="30"/>
	<circle style="fill:#57555C;" cx="431.75" cy="106" r="30"/>
</g>
<path style="fill:#F0E6DE;" d="M309.75,436c0,22.09-17.91,40-40,40h-220c-22.09,0-40-17.91-40-40V216c0-22.09,17.91-40,40-40
	c18.093,0,212.143,0,220,0c22.09,0,40,17.91,40,40C309.75,222.796,309.75,429.266,309.75,436z"/>
<g>
	<circle style="fill:#FD6244;" cx="239.75" cy="406" r="30"/>
	<circle style="fill:#FD6244;" cx="159.75" cy="326" r="30"/>
	<circle style="fill:#FD6244;" cx="79.75" cy="246" r="30"/>
</g>
<path d="M50,426c-5.52,0-10,4.48-10,10s4.48,10,10,10s10-4.48,10-10S55.52,426,50,426z"/>
<path d="M160,286c-22.056,0-40,17.944-40,40s17.944,40,40,40s40-17.944,40-40S182.056,286,160,286z M160,346
	c-11.028,0-20-8.972-20-20s8.972-20,20-20s20,8.972,20,20S171.028,346,160,346z"/>
<path d="M80,286c22.056,0,40-17.944,40-40s-17.944-40-40-40s-40,17.944-40,40S57.944,286,80,286z M80,226c11.028,0,20,8.972,20,20
	c0,11.028-8.972,20-20,20s-20-8.972-20-20S68.972,226,80,226z"/>
<path d="M242,26c-27.57,0-50,22.43-50,50v90H50c-27.57,0-50,22.43-50,50v220c0,27.57,22.43,50,50,50h220c27.57,0,50-22.43,50-50v-90
	h142c27.57,0,50-22.43,50-50V76c0-27.57-22.43-50-50-50H242z M300,436c0,16.542-13.458,30-30,30H50c-16.542,0-30-13.458-30-30V216
	c0-16.542,13.458-30,30-30h220c16.542,0,30,13.458,30,30V436z M492,76v220c0,16.542-13.458,30-30,30H320V216c0-27.57-22.43-50-50-50
	h-58V76c0-16.542,13.458-30,30-30h220C478.542,46,492,59.458,492,76z"/>
<path d="M272,66c-22.056,0-40,17.944-40,40s17.944,40,40,40s40-17.944,40-40S294.056,66,272,66z M272,126c-11.028,0-20-8.972-20-20
	s8.972-20,20-20s20,8.972,20,20S283.028,126,272,126z"/>
<path d="M432,226c-22.056,0-40,17.944-40,40s17.944,40,40,40s40-17.944,40-40S454.056,226,432,226z M432,286
	c-11.028,0-20-8.972-20-20s8.972-20,20-20s20,8.972,20,20C452,277.028,443.028,286,432,286z"/>
<path d="M432,66c-22.056,0-40,17.944-40,40s17.944,40,40,40s40-17.944,40-40S454.056,66,432,66z M432,126c-11.028,0-20-8.972-20-20
	s8.972-20,20-20s20,8.972,20,20S443.028,126,432,126z"/>
<path d="M240,366c-22.056,0-40,17.944-40,40s17.944,40,40,40s40-17.944,40-40S262.056,366,240,366z M240,426
	c-11.028,0-20-8.972-20-20s8.972-20,20-20s20,8.972,20,20S251.028,426,240,426z"/>
<path d="M130,426H90c-5.522,0-10,4.478-10,10s4.478,10,10,10h40c5.522,0,10-4.478,10-10S135.522,426,130,426z"/>
<g>
</g>
<g>
</g>
<g>
</g>
<g>
</g>
<g>
</g>
<g>
</g>
<g>
</g>
<g>
</g>
<g>
</g>
<g>
</g>
<g>
</g>
<g>
</g>
<g>
</g>
<g>
</g>
<g>
</g>
</svg>
