<svg height="512" viewBox="0 0 512 512" width="512" xmlns="http://www.w3.org/2000/svg"><g id="Fill_out_line" data-name="Fill out line"><rect fill="#2f4054" height="464" rx="64" width="304" x="104" y="24"/><path d="m168 464a40.04552 40.04552 0 0 1 -40-40v-336a40.04552 40.04552 0 0 1 40-40h32l16 24h80l16-24h32a40.04552 40.04552 0 0 1 40 40v336a40.04552 40.04552 0 0 1 -40 40z" fill="#4ba477"/><path d="m305.1 276.42-60.26 19.58-46.26 15.03-4.88-15.03-1.7-5.22-47.81-147.13 47.81-15.53 58.71-19.08z" fill="#d3e1e9"/><path d="m234.73 215.16992 17.49 27.96008-30.43 9.89-2.28-32.91-7.61011 2.48a15.995 15.995 0 0 1 -19.89989-9.55c-.09009-.24-.17993-.48-.26-.73a15.99686 15.99686 0 0 1 10.27-20.16016 16.00312 16.00312 0 0 1 30.44-9.88984 16.00162 16.00162 0 0 1 9.88008 30.44z" fill="#396795"/><path d="m200 112h112v176h-112z" fill="#d3e1e9"/><path d="m288 190.63v2.74a16.008 16.008 0 0 1 -4.68994 11.31994l-27.31006 27.31006-27.31006-27.31006a15.92513 15.92513 0 0 1 -4.31982-7.91992 15.40178 15.40178 0 0 1 -.37012-3.40002v-2.74a16.008 16.008 0 0 1 4.68994-11.31994 16.00625 16.00625 0 0 1 22.62012 0l4.68994 4.68994 4.68994-4.68994a16.0002 16.0002 0 0 1 27.31006 11.31994z" fill="#e44b4d"/><path d="m231.355 122.034h112v176h-112z" fill="#d3e1e9" transform="matrix(.951 .309 -.309 .951 78.968 -78.518)"/><path d="m259.77709 243.13238 30.43381 9.88855 2.2801-32.90593 7.60847 2.47214a16 16 0 0 0 20.16115-10.27262 16 16 0 0 0 -2.13134-14.15122l-18.41393-26.17113-30.28018 10.34946a16 16 0 0 0 -10.04217 10.1958 16 16 0 0 0 10.27263 20.16116l7.60846 2.47214z" fill="#396795"/><path d="m192 360h128v64h-128z" fill="#e44b4d"/><path d="m320 112a8.00008 8.00008 0 0 0 -8-8h-40.32422l-7.915-2.57178a7.93216 7.93216 0 0 0 -7.759 1.61719 7.98732 7.98732 0 0 0 -7.76245-1.61719l-7.91584 2.57178h-40.32349a8.00008 8.00008 0 0 0 -8 8v7.70154l-50.2793 16.33655a8 8 0 0 0 -5.13672 10.08056l54.3877 167.38574a7.99174 7.99174 0 0 0 10.08008 5.13623l54.94873-17.85375 54.94775 17.85375a7.99174 7.99174 0 0 0 10.08008-5.13623l54.38768-167.38574a8 8 0 0 0 -5.13672-10.08056l-50.27928-16.33667zm-70.68481 8-15.40332 47.40674a24.01528 24.01528 0 0 0 -17.91187 23.2207v2.74512a23.81717 23.81717 0 0 0 4.79688 14.39807l-12.79688 39.38501v-127.15564zm-95.04175 28.78271 37.72656-12.25817v52.09a23.96625 23.96625 0 0 0 0 37.51062v38.76644zm47.83447 147.21729h16.84863l-15.23974 4.95166zm106.17529 4.95166-91.2998-29.66553 49.44238-152.16894 91.30078 29.66552z"/><path d="m251.78418 190.06543a24.03486 24.03486 0 0 0 13.3291 29.4585l-12.11719 19.36474a7.99937 7.99937 0 0 0 4.3086 11.85205l30.43359 9.88867a7.99973 7.99973 0 0 0 10.45313-7.05517l1.5791-22.78809a24.00427 24.00427 0 0 0 28.09863-16.00049 24.11671 24.11671 0 0 0 -3.19726-21.22607l-18.41309-26.1709a8.00055 8.00055 0 0 0 -9.12988-2.96631l-30.28028 10.34912a24.11446 24.11446 0 0 0 -15.06445 15.29395zm32.72656 29.49609-1.57226 22.68457-10.94434-3.55566 12.06152-19.27588a8.026 8.026 0 0 0 .81055-1.71924 7.96555 7.96555 0 0 0 -.35547 1.86621zm-17.50974-24.55127a8.04023 8.04023 0 0 1 5.02148-5.09863l24.60352-8.40869 14.96 21.26367a8.04005 8.04005 0 0 1 1.0664 7.07569 7.9989 7.9989 0 0 1 -10.08007 5.13623l-7.6084-2.47217a8.001 8.001 0 0 0 -10.06446 5.08447 7.99884 7.99884 0 0 0 -5.15332-10.02832l-7.60742-2.47217a8.00882 8.00882 0 0 1 -5.13773-10.08008z"/><path d="m344 16h-176a72.08156 72.08156 0 0 0 -72 72v336a72.08156 72.08156 0 0 0 72 72h176a72.08156 72.08156 0 0 0 72-72v-336a72.08156 72.08156 0 0 0 -72-72zm56 408a56.06322 56.06322 0 0 1 -56 56h-176a56.06322 56.06322 0 0 1 -56-56v-336a56.06322 56.06322 0 0 1 56-56h176a56.06322 56.06322 0 0 1 56 56z"/><path d="m344 40h-32a7.99943 7.99943 0 0 0 -6.65625 3.5625l-13.625 20.4375h-71.4375l-13.625-20.4375a7.99943 7.99943 0 0 0 -6.65625-3.5625h-32a48.054 48.054 0 0 0 -48 48v336a48.054 48.054 0 0 0 48 48h176a48.054 48.054 0 0 0 48-48v-336a48.054 48.054 0 0 0 -48-48zm32 384a32.03635 32.03635 0 0 1 -32 32h-176a32.03635 32.03635 0 0 1 -32-32v-336a32.03635 32.03635 0 0 1 32-32h27.71875l13.625 20.4375a7.99943 7.99943 0 0 0 6.65625 3.5625h80a7.99943 7.99943 0 0 0 6.65625-3.5625l13.625-20.4375h27.71875a32.03635 32.03635 0 0 1 32 32z"/><path d="m224 40h40v16h-40z"/><circle cx="280" cy="48" r="8"/><path d="m320 352h-128a8.00008 8.00008 0 0 0 -8 8v64a8.00008 8.00008 0 0 0 8 8h128a8.00008 8.00008 0 0 0 8-8v-64a8.00008 8.00008 0 0 0 -8-8zm-8 64h-112v-48h112z"/><path d="m216 384h48v16h-48z"/><path d="m280 384h16v16h-16z"/></g></svg>