<?xml version="1.0"?>
<svg xmlns="http://www.w3.org/2000/svg" xmlns:xlink="http://www.w3.org/1999/xlink" xmlns:svgjs="http://svgjs.com/svgjs" version="1.1" width="512" height="512" x="0" y="0" viewBox="0 0 64 64" style="enable-background:new 0 0 512 512" xml:space="preserve" class=""><g><g xmlns="http://www.w3.org/2000/svg"><path d="m41.429 16.027c.354-.596.571-1.284.571-2.027 0-1.511-.852-2.814-2.092-3.494l2.971-2.971c.723-.723 1.121-1.684 1.121-2.706 0-2.112-1.718-3.829-3.828-3.829h-.101c-1.521 0-2.957.562-4.07 1.591-1.073-1.013-2.522-1.591-4.001-1.591-1.458 0-2.886.562-4 1.592-1.112-1.029-2.549-1.592-4.071-1.592h-.727c-1.765 0-3.202 1.437-3.202 3.203 0 .748.264 1.476.742 2.05l3.484 4.181c-1.314.656-2.226 2-2.226 3.566 0 .743.217 1.431.571 2.028-7.799 5.156-13.571 16.412-13.571 26.772 0 12.46 8.813 20.2 23 20.2s23-7.74 23-20.2c0-10.361-5.772-21.616-13.571-26.773zm-19.429-11.824c0-.663.539-1.203 1.202-1.203h.727c1.068 0 2.073.416 2.828 1.17.662.665 1.774.714 2.536-.049 1.426-1.425 3.938-1.474 5.464.049.662.665 1.825.664 2.485.001.756-.755 1.761-1.171 2.829-1.171h.101c1.008 0 1.828.82 1.828 1.829 0 .488-.19.948-.535 1.293l-3.879 3.878h-1.109l1.451-3.628-1.857-.743-1.748 4.371h-1.323v-5h-2v5h-1.323l-1.749-4.372-1.857.743 1.452 3.629h-1.054l-4.189-5.027c-.181-.216-.28-.49-.28-.77zm4 7.797h12c1.103 0 2 .897 2 2s-.897 2-2 2h-12c-1.103 0-2-.897-2-2s.897-2 2-2zm6 49c-13.149 0-21-6.804-21-18.2 0-9.904 5.57-20.653 13.034-25.338.583.333 1.248.538 1.966.538h.523l-1.451 3.628 1.857.743 1.748-4.371h2.323v4h2v-4h2.323l1.749 4.372 1.857-.743-1.452-3.629h.523c.718 0 1.382-.205 1.965-.538 7.465 4.685 13.035 15.433 13.035 25.338 0 11.396-7.851 18.2-21 18.2z" fill="#222222" data-original="#000000" style="" class=""/><path d="m33 31v-2h-2v2c-2.757 0-5 2.243-5 5s2.243 5 5 5v6c-1.654 0-3-1.346-3-3v-1h-2v1c0 2.757 2.243 5 5 5v2h2v-2c2.757 0 5-2.243 5-5s-2.243-5-5-5v-6c1.654 0 3 1.346 3 3v1h2v-1c0-2.757-2.243-5-5-5zm3 13c0 1.654-1.346 3-3 3v-6c1.654 0 3 1.346 3 3zm-5-5c-1.654 0-3-1.346-3-3s1.346-3 3-3z" fill="#222222" data-original="#000000" style="" class=""/><path d="m32 25c-8.271 0-15 6.729-15 15s6.729 15 15 15 15-6.729 15-15-6.729-15-15-15zm0 28c-7.168 0-13-5.832-13-13s5.832-13 13-13 13 5.832 13 13-5.832 13-13 13z" fill="#222222" data-original="#000000" style="" class=""/></g></g></svg>
