<svg height="459.158pt" viewBox="0 0 459.158 459.158" width="459.158pt" xmlns="http://www.w3.org/2000/svg"><path d="m413.101562 229.5c0 101.398438-82.203124 183.601562-183.601562 183.601562s-183.601562-82.203124-183.601562-183.601562 82.203124-183.601562 183.601562-183.601562 183.601562 82.203124 183.601562 183.601562zm0 0" fill="#fdbd40"/><path d="m374.851562 229.5c0 80.273438-65.078124 145.351562-145.351562 145.351562s-145.351562-65.078124-145.351562-145.351562 65.078124-145.351562 145.351562-145.351562 145.351562 65.078124 145.351562 145.351562zm0 0" fill="#55b56a"/><path d="m229.5 84.148438 37.820312 88.238281 99.878907 11.214843-76.5 64.425782 30.601562 88.574218-91.800781-22.953124-91.800781 22.953124 30.601562-88.574218-76.5-64.425782 99.878907-11.214843zm0 0" fill="#fcf05a"/><path d="m252.449219 221.851562c4.226562 0 7.648437-3.425781 7.652343-7.652343v-15.300781c0-3.292969-2.109374-6.214844-5.230468-7.257813l-17.722656-5.90625v-9.785156c0-4.222657-3.421876-7.648438-7.648438-7.648438s-7.652344 3.425781-7.652344 7.648438v4.6875l-12.878906-4.292969c-4.011719-1.335938-8.34375.832031-9.679688 4.84375-.257812.777344-.390624 1.59375-.390624 2.414062v45.898438c0 3.292969 2.105468 6.214844 5.230468 7.257812l40.667969 13.554688v22.125l-30.597656-10.203125v-2.132813c0-4.226562-3.425781-7.652343-7.652344-7.652343-4.222656 0-7.648437 3.425781-7.648437 7.652343v7.648438c0 3.292969 2.105468 6.214844 5.230468 7.257812l18.125 6.042969c-.226562.644531-.363281 1.316407-.40625 2v7.648438c0 4.226562 3.425782 7.652343 7.652344 7.652343 4.222656 0 7.648438-3.425781 7.648438-7.652343v-4.683594l12.878906 4.292969c4.011718 1.335937 8.34375-.835938 9.679687-4.847656.257813-.777344.390625-1.589844.390625-2.410157v-38.25c.003906-3.292969-2.105468-6.214843-5.226562-7.257812l-40.671875-13.554688v-29.773437l30.601562 10.199218v9.789063c0 4.222656 3.425781 7.644531 7.648438 7.648437zm0 0" fill="#e9686a"/><path d="m53.550781 107.101562c-4.226562 0-7.652343-3.425781-7.652343-7.652343-.023438-21.113281-17.132813-38.222657-38.25-38.25-4.222657 0-7.648438-3.425781-7.648438-7.648438 0-4.226562 3.425781-7.652343 7.648438-7.652343 21.117187-.023438 38.226562-17.132813 38.25-38.25 0-4.222657 3.425781-7.648438 7.652343-7.648438 4.222657 0 7.648438 3.425781 7.648438 7.648438.027343 21.117187 17.136719 38.226562 38.25 38.25 4.226562 0 7.652343 3.425781 7.652343 7.652343 0 4.226563-3.425781 7.648438-7.652343 7.648438-21.113281.027343-38.222657 17.136719-38.25 38.25 0 4.226562-3.425781 7.648437-7.648438 7.652343zm-18.34375-53.550781c7.515625 4.53125 13.808594 10.828125 18.34375 18.339844 4.53125-7.511719 10.828125-13.808594 18.339844-18.339844-7.511719-4.53125-13.808594-10.828125-18.339844-18.34375-4.535156 7.515625-10.828125 13.8125-18.34375 18.34375zm0 0" fill="#fcf05a"/><path d="m405.449219 459c-4.222657 0-7.648438-3.425781-7.648438-7.648438-.027343-21.117187-17.136719-38.226562-38.25-38.25-4.226562 0-7.652343-3.425781-7.652343-7.652343 0-4.226563 3.425781-7.648438 7.652343-7.648438 21.113281-.027343 38.222657-17.136719 38.25-38.25 0-4.226562 3.425781-7.652343 7.648438-7.652343 4.226562 0 7.652343 3.425781 7.652343 7.652343.023438 21.113281 17.132813 38.222657 38.25 38.25 4.222657 0 7.648438 3.421875 7.648438 7.648438 0 4.226562-3.425781 7.652343-7.648438 7.652343-21.117187.023438-38.226562 17.132813-38.25 38.25 0 4.222657-3.425781 7.648438-7.652343 7.648438zm-18.339844-53.550781c7.511719 4.535156 13.808594 10.828125 18.339844 18.34375 4.535156-7.515625 10.828125-13.808594 18.34375-18.34375-7.515625-4.53125-13.808594-10.828125-18.34375-18.339844-4.53125 7.511719-10.828125 13.808594-18.339844 18.339844zm0 0" fill="#fcf05a"/><path d="m229.5 382.5c84.5 0 153-68.5 153-153s-68.5-153-153-153-153 68.5-153 153c.097656 84.460938 68.539062 152.902344 153 153zm-137.699219-153c.039063-10.957031 1.394531-21.867188 4.035157-32.5l63.515624 53.496094-26.5625 76.886718c-26.234374-25.8125-41-61.078124-40.988281-97.882812zm168.492188-54.101562c1.082031 2.527343 3.441406 4.277343 6.175781 4.585937l82.1875 9.230469-62.882812 52.96875c-2.421876 2.035156-3.339844 5.355468-2.304688 8.347656l25.988281 75.222656-78.101562-19.527344c-1.21875-.300781-2.496094-.300781-3.714844 0l-78.101563 19.527344 25.988282-75.222656c1.035156-2.992188.117187-6.3125-2.304688-8.347656l-62.882812-52.96875 82.1875-9.230469c2.734375-.304687 5.09375-2.058594 6.175781-4.585937l30.792969-71.832032zm-110.613281 166.09375 79.820312-19.957032 79.824219 19.957032c-47.695313 34.277343-111.953125 34.277343-159.644531 0zm176.53125-14.109376-26.566407-76.886718 63.519531-53.496094c11.683594 46.9375-2.378906 96.550781-36.953124 130.382812zm29.503906-152.769531-83.113282-9.335937-31.242187-72.875c50.292969 4.402344 94.160156 35.941406 114.355469 82.210937zm-138.074219-82.210937-31.242187 72.875-83.113282 9.335937c20.195313-46.269531 64.0625-77.808593 114.355469-82.210937zm0 0"/><path d="m38.25 229.5c0 105.625 85.625 191.25 191.25 191.25s191.25-85.625 191.25-191.25-85.625-191.25-191.25-191.25c-105.574219.117188-191.132812 85.675781-191.25 191.25zm191.25-175.949219c97.175781 0 175.949219 78.773438 175.949219 175.949219s-78.773438 175.949219-175.949219 175.949219-175.949219-78.773438-175.949219-175.949219c.109375-97.128906 78.820313-175.839844 175.949219-175.949219zm0 0"/><path d="m204.128906 275.007812 18.125 6.042969c-.226562.644531-.363281 1.316407-.402344 2v7.648438c0 4.226562 3.421876 7.652343 7.648438 7.652343s7.652344-3.425781 7.652344-7.652343v-4.683594l12.878906 4.292969c4.011719 1.335937 8.34375-.835938 9.679688-4.847656.257812-.777344.390624-1.589844.390624-2.410157v-38.25c0-3.292969-2.105468-6.214843-5.230468-7.257812l-40.667969-13.554688v-29.773437l30.597656 10.199218v9.789063c0 4.222656 3.425781 7.648437 7.652344 7.648437 4.222656 0 7.648437-3.425781 7.648437-7.648437v-15.300781c0-3.292969-2.105468-6.214844-5.230468-7.257813l-17.71875-5.90625v-9.785156c0-4.226563-3.425782-7.652344-7.652344-7.652344-4.222656 0-7.648438 3.425781-7.648438 7.652344v4.683594l-12.878906-4.292969c-4.011718-1.332031-8.34375.835938-9.679687 4.847656-.257813.777344-.390625 1.589844-.390625 2.410156v45.902344c-.003906 3.292969 2.105468 6.214844 5.226562 7.257813l40.671875 13.554687v22.125l-30.601562-10.203125v-2.136719c0-4.222656-3.421875-7.648437-7.648438-7.648437-4.226562 0-7.652343 3.421875-7.652343 7.648437v7.652344c0 3.289063 2.109374 6.210938 5.230468 7.253906zm0 0"/><path d="m7.648438 61.199219c21.117187.027343 38.226562 17.136719 38.25 38.25 0 4.226562 3.425781 7.652343 7.652343 7.652343 4.226563 0 7.648438-3.425781 7.648438-7.652343.027343-21.113281 17.136719-38.222657 38.25-38.25 4.226562 0 7.652343-3.425781 7.652343-7.648438 0-4.226562-3.425781-7.652343-7.652343-7.652343-21.113281-.023438-38.222657-17.132813-38.25-38.25 0-4.222657-3.425781-7.648438-7.648438-7.648438-4.226562 0-7.652343 3.425781-7.652343 7.648438-.023438 21.117187-17.132813 38.226562-38.25 38.25-4.222657 0-7.648438 3.425781-7.648438 7.652343 0 4.222657 3.425781 7.648438 7.648438 7.648438zm45.902343-25.992188c4.53125 7.515625 10.828125 13.808594 18.339844 18.34375-7.511719 4.53125-13.808594 10.828125-18.339844 18.339844-4.53125-7.511719-10.828125-13.808594-18.34375-18.339844 7.515625-4.53125 13.808594-10.828125 18.34375-18.34375zm0 0"/><path d="m405.449219 351.898438c-4.222657 0-7.648438 3.425781-7.648438 7.652343-.027343 21.113281-17.136719 38.222657-38.25 38.25-4.226562 0-7.652343 3.425781-7.652343 7.648438 0 4.226562 3.425781 7.652343 7.652343 7.652343 21.113281.023438 38.222657 17.132813 38.25 38.25 0 4.222657 3.425781 7.648438 7.648438 7.648438 4.226562 0 7.652343-3.425781 7.652343-7.648438.023438-21.117187 17.132813-38.226562 38.25-38.25 4.222657 0 7.648438-3.425781 7.648438-7.652343 0-4.222657-3.425781-7.648438-7.648438-7.648438-21.117187-.027343-38.226562-17.136719-38.25-38.25 0-4.226562-3.425781-7.648437-7.652343-7.652343zm18.34375 53.550781c-7.515625 4.535156-13.808594 10.828125-18.34375 18.34375-4.53125-7.515625-10.828125-13.808594-18.339844-18.34375 7.511719-4.53125 13.808594-10.828125 18.339844-18.339844 4.53125 7.511719 10.828125 13.808594 18.34375 18.339844zm0 0"/></svg>