<svg id="Layer_3" enable-background="new 0 0 64 64" height="512" viewBox="0 0 64 64" width="512" xmlns="http://www.w3.org/2000/svg"><g><g><circle cx="59" cy="23" fill="#4e4a40" r="3"/></g><g><path d="m50 40h4v6h-4z" fill="#625d51"/></g><g><path d="m6 16v-6h13c0-4.418 3.582-8 8-8 4.418 0 8 3.582 8 8h13v6z" fill="#4e4a40"/></g><g><circle cx="27" cy="9" fill="#f29f8c" r="3"/></g><g><path d="m4 16h46v40h-46z" fill="#d5cec2"/></g><g><path d="m16 42c0-2.209 1.791-4 4-4h14c2.209 0 4 1.791 4 4z" fill="#4e4a40"/></g><g><path d="m8 20h10v14h-10z" fill="#c8ec6c"/></g><g><path d="m22 20h10v14h-10z" fill="#c8ec6c"/></g><g><path d="m36 20h10v14h-10z" fill="#c8ec6c"/></g><g><path d="m10 46h34v10h-34z" fill="#fff"/></g><g><path d="m2 56h50v6h-50z" fill="#625d51"/></g><g><path d="m51 56h-2v-39h-44v39h-2v-40c0-.552.447-1 1-1h46c.553 0 1 .448 1 1z"/></g><g><path d="m49 16h-2v-5h-12c-.553 0-1-.448-1-1 0-3.86-3.141-7-7-7s-7 3.14-7 7c0 .552-.447 1-1 1h-12v5h-2v-6c0-.552.447-1 1-1h12.056c.499-4.494 4.319-8 8.944-8s8.445 3.506 8.944 8h12.056c.553 0 1 .448 1 1z"/></g><g><path d="m52 63h-50c-.553 0-1-.448-1-1v-6c0-.552.447-1 1-1h50c.553 0 1 .448 1 1v6c0 .552-.447 1-1 1zm-49-2h48v-4h-48z"/></g><g><path d="m18 35h-10c-.553 0-1-.448-1-1v-14c0-.552.447-1 1-1h10c.553 0 1 .448 1 1v14c0 .552-.447 1-1 1zm-9-2h8v-12h-8z"/></g><g><path d="m32 35h-10c-.553 0-1-.448-1-1v-14c0-.552.447-1 1-1h10c.553 0 1 .448 1 1v14c0 .552-.447 1-1 1zm-9-2h8v-12h-8z"/></g><g><path d="m46 35h-10c-.553 0-1-.448-1-1v-14c0-.552.447-1 1-1h10c.553 0 1 .448 1 1v14c0 .552-.447 1-1 1zm-9-2h8v-12h-8z"/></g><g><path d="m4 41h46v2h-46z"/></g><g><path d="m39 42h-2c0-1.654-1.346-3-3-3h-14c-1.654 0-3 1.346-3 3h-2c0-2.757 2.243-5 5-5h14c2.757 0 5 2.243 5 5z"/></g><g><path d="m45 56h-2v-9h-32v9h-2v-10c0-.552.447-1 1-1h34c.553 0 1 .448 1 1z"/></g><g><path d="m14 30h-2v-3.586l-.293.293-1.414-1.414 2-2c.287-.286.716-.372 1.09-.217s.617.52.617.924z"/></g><g><path d="m11 29h4v2h-4z"/></g><g><path d="m28 30h-2v-3.586l-.293.293-1.414-1.414 2-2c.286-.286.716-.372 1.09-.217s.617.52.617.924z"/></g><g><path d="m25 29h4v2h-4z"/></g><g><path d="m42 30h-2v-3.586l-.293.293-1.414-1.414 2-2c.286-.286.717-.372 1.09-.217.374.155.617.52.617.924z"/></g><g><path d="m39 29h4v2h-4z"/></g><g><path d="m27 13c-2.206 0-4-1.794-4-4s1.794-4 4-4 4 1.794 4 4-1.794 4-4 4zm0-6c-1.103 0-2 .897-2 2s.897 2 2 2 2-.897 2-2-.897-2-2-2z"/></g><g><path d="m54 47h-4v-2h3v-4h-3v-2h4c.553 0 1 .448 1 1v6c0 .552-.447 1-1 1z"/></g><g><path d="m57 44h-3v-2h3c.552 0 1-.449 1-1v-15h2v15c0 1.654-1.346 3-3 3z"/></g><g><path d="m59 27c-2.206 0-4-1.794-4-4s1.794-4 4-4 4 1.794 4 4-1.794 4-4 4zm0-6c-1.103 0-2 .897-2 2s.897 2 2 2 2-.897 2-2-.897-2-2-2z"/></g></g></svg>