<svg xmlns="http://www.w3.org/2000/svg" width="96" height="96"><title>GDC - Icon - Circle - Games</title><desc>Created with Sketch.</desc><g fill="none"><g><circle cx="48" cy="48" r="48" fill="#ECEDEF"/><rect width="60" height="60" x="18" y="18" fill="#fff" stroke="#000" stroke-width="2" rx="7"/><path id="Path" fill="#fff" stroke="#000" stroke-width="2" d="M35 51l7.3 7.72c.44.3.8.7 1.1 1.17l.1.1h-.04c.35.6.54 1.27.54 2 0 2.2-1.8 4-4 4-1.36 0-2.57-.68-3.3-1.72L39 70h-8l2.3-5.73C32.56 65.32 31.36 66 30 66c-2.2 0-4-1.8-4-4 0-.73.2-1.4.54-2h-.04l.1-.1c.28-.47.66-.87 1.1-1.18L35 51z" stroke-linejoin="round"/><path id="Path" fill="#D4393E" d="M40 26c2.76 0 5 2.24 5 5 0 1.28-.48 2.45-1.27 3.33h.02L35 43.5l-8.75-9.17h.02C25.47 33.45 25 32.28 25 31c0-2.76 2.24-5 5-5 2.7 0 4.88 2.12 5 4.78V31v-.22c.12-2.6 2.2-4.66 4.78-4.78H40z"/><path fill="#fff" stroke="#000" stroke-width="2" d="M62 26c2.2 0 4 1.8 4 4 0 .92-.3 1.77-.84 2.45.55-.3 1.18-.45 1.84-.45 2.2 0 4 1.8 4 4s-1.8 4-4 4c-1.36 0-2.57-.68-3.3-1.72L66 44h-8l2.3-5.73C59.56 39.32 58.36 40 57 40c-2.2 0-4-1.8-4-4s1.8-4 4-4c.66 0 1.3.16 1.84.45-.53-.68-.84-1.53-.84-2.45 0-2.2 1.8-4 4-4z" stroke-linejoin="round"/><path fill="#D23B42" d="M62.25 50l8.25 11-8.25 11L54 61z"/></g></g></svg>