<?xml version="1.0" encoding="utf-8"?>
<!-- Generator: Adobe Illustrator 24.0.2, SVG Export Plug-In . SVG Version: 6.00 Build 0)  -->
<svg version="1.1" id="Слой_1" xmlns="http://www.w3.org/2000/svg" xmlns:xlink="http://www.w3.org/1999/xlink" x="0px" y="0px"
	 width="30px" height="30px" viewBox="0 0 30 30" style="enable-background:new 0 0 30 30;" xml:space="preserve">
<style type="text/css">
	.st0{fill:#FF3D66;}
	.st1{fill:#AFCB42;}
</style>
<g>
	<g>
		<g>
			<path class="st0" d="M5.94,19.51c1.23,0,2.35,0,3.49,0c-0.14,0.94-0.04,1.84,0.25,2.71c0.84,2.55,3.3,4.23,5.98,4.1
				c2.93-0.14,5.3-2.43,5.64-5.35c0.33-2.81-1.56-5.94-5-6.52c-0.45-0.07-0.91-0.08-1.36-0.09c-0.99-0.01-1.97,0-2.99,0
				c0.03-0.12,0.03-0.21,0.06-0.28c0.36-0.94,0.72-1.89,1.09-2.83c0.05-0.11,0.2-0.27,0.3-0.27c1.46,0,2.93-0.11,4.38,0.28
				c3.68,0.99,6.38,4.03,6.9,7.8c0.69,5.04-2.75,9.73-7.75,10.55c-5.12,0.84-9.95-2.59-10.82-7.72C5.96,21.13,5.99,20.34,5.94,19.51
				z"/>
		</g>
	</g>
	<path class="st1" d="M13.37,9.66c0.7-1.86,1.29-3.42,1.93-5.12C12.1,3.6,7.53,6.03,6.29,0.6c4.88,0,9.63,0,14.69,0
		c-1.12,2.92-2.18,5.77-3.35,8.58c-0.12,0.3-0.87,0.43-1.34,0.47C15.43,9.72,14.55,9.66,13.37,9.66z"/>
</g>
</svg>
