<?xml version="1.0"?>
<svg xmlns="http://www.w3.org/2000/svg" xmlns:xlink="http://www.w3.org/1999/xlink" xmlns:svgjs="http://svgjs.com/svgjs" version="1.1" width="512" height="512" x="0" y="0" viewBox="0 0 64 64" style="enable-background:new 0 0 512 512" xml:space="preserve" class=""><g><path xmlns="http://www.w3.org/2000/svg" d="m49 36v-30c0-2.206-1.794-4-4-4h-39c-2.206 0-4 1.794-4 4v49c0 2.206 1.794 4 4 4h34.705c2.253 1.872 5.144 3 8.295 3 7.168 0 13-5.832 13-13s-5.832-13-13-13zm-9 3.641v-4.641h7v1.17c-2.695.419-5.118 1.661-7 3.471zm7-6.641h-7v-6h7zm-9 8h-7v-6h7zm-16 0v-6h7v6zm7 2v6h-7v-6zm-9-10h-7v-6h7zm2-6h7v6h-7zm-2 8v6h-7v-6zm11-2v-6h7v6zm16-8h-7v-6h7zm-9 0h-7v-6h7zm-9 0h-7v-6h7zm-9 0h-7v-6h7zm-9 0h-7v-6h7zm0 2v6h-7v-6zm0 8v6h-7v-6zm0 8v6h-7v-6zm2 0h7v6h-7zm7 8v6h-7v-6zm2 0h7v6h-7zm9 0h5.17c.348 2.24 1.264 4.29 2.604 6h-7.774zm5-2h-5v-6h6.479c-.94 1.797-1.479 3.835-1.479 6zm-30-45h39c1.103 0 2 .897 2 2v11h-43v-11c0-1.103.897-2 2-2zm-2 51v-4h7v6h-5c-1.103 0-2-.897-2-2zm45 5c-6.065 0-11-4.935-11-11s4.935-11 11-11 11 4.935 11 11-4.935 11-11 11z" fill="#222222" data-original="#000000" style="" class=""/><path xmlns="http://www.w3.org/2000/svg" d="m48 43c-4.411 0-8 3.589-8 8s3.589 8 8 8 8-3.589 8-8-3.589-8-8-8zm0 14c-3.309 0-6-2.691-6-6s2.691-6 6-6 6 2.691 6 6-2.691 6-6 6z" fill="#222222" data-original="#000000" style="" class=""/><path xmlns="http://www.w3.org/2000/svg" d="m51 48h-6v2h4.132l-2.964 4.445 1.664 1.109 4-6c.204-.307.224-.701.05-1.026s-.513-.528-.882-.528z" fill="#222222" data-original="#000000" style="" class=""/><path xmlns="http://www.w3.org/2000/svg" d="m8 16h3c1.654 0 3-1.346 3-3 0-.771-.301-1.468-.78-2 .479-.532.78-1.229.78-2 0-1.654-1.346-3-3-3h-3c-.553 0-1 .448-1 1v4 4c0 .552.447 1 1 1zm3-2h-2v-2h2c.552 0 1 .449 1 1s-.448 1-1 1zm-2-6h2c.552 0 1 .449 1 1s-.448 1-1 1h-2z" fill="#222222" data-original="#000000" style="" class=""/><path xmlns="http://www.w3.org/2000/svg" d="m16 6h2v10h-2z" fill="#222222" data-original="#000000" style="" class=""/><path xmlns="http://www.w3.org/2000/svg" d="m22 10.487 3.152 5.043c.186.298.509.47.848.47.092 0 .185-.013.275-.039.429-.123.725-.515.725-.961v-9h-2v5.513l-3.152-5.043c-.235-.378-.696-.552-1.123-.432-.429.124-.725.516-.725.962v9h2z" fill="#222222" data-original="#000000" style="" class=""/><path xmlns="http://www.w3.org/2000/svg" d="m32 16h1c1.654 0 3-1.346 3-3v-2c0-.552-.447-1-1-1h-2v2h1v1c0 .551-.448 1-1 1h-1c-.552 0-1-.449-1-1v-4c0-.551.448-1 1-1h1c.552 0 1 .449 1 1h2c0-1.654-1.346-3-3-3h-1c-1.654 0-3 1.346-3 3v4c0 1.654 1.346 3 3 3z" fill="#222222" data-original="#000000" style="" class=""/><path xmlns="http://www.w3.org/2000/svg" d="m41 16h1c1.654 0 3-1.346 3-3v-4c0-1.654-1.346-3-3-3h-1c-1.654 0-3 1.346-3 3v4c0 1.654 1.346 3 3 3zm-1-7c0-.551.448-1 1-1h1c.552 0 1 .449 1 1v4c0 .551-.448 1-1 1h-1c-.552 0-1-.449-1-1z" fill="#222222" data-original="#000000" style="" class=""/></g></svg>
