<?xml version="1.0"?>
<svg xmlns="http://www.w3.org/2000/svg" xmlns:xlink="http://www.w3.org/1999/xlink" xmlns:svgjs="http://svgjs.com/svgjs" version="1.1" width="512" height="512" x="0" y="0" viewBox="0 0 64 64" style="enable-background:new 0 0 512 512" xml:space="preserve" class=""><g><path xmlns="http://www.w3.org/2000/svg" d="m61 11h-13a1 1 0 0 0 -.707.293l-1.707 1.707h-27.172l-1.707-1.707a1 1 0 0 0 -.707-.293h-13a1 1 0 0 0 -1 1v40a1 1 0 0 0 1 1h58a1 1 0 0 0 1-1v-40a1 1 0 0 0 -1-1zm-22 4h4.586l-2 2h-2.586zm-4 0h2v2h-2zm-4 0h2v2h-2zm-4 0h2v2h-2zm-2 0v2h-2.586l-2-2zm35 36h-56v-38h11.586l5.707 5.707a1 1 0 0 0 .707.293h20a1 1 0 0 0 .707-.293l5.707-5.707h11.586z" fill="#222222" data-original="#000000" style="" class=""/><path xmlns="http://www.w3.org/2000/svg" d="m43 21h-22v8h22zm-2 6h-18v-4h18z" fill="#222222" data-original="#000000" style="" class=""/><path xmlns="http://www.w3.org/2000/svg" d="m31 31h2v5h-2z" fill="#222222" data-original="#000000" style="" class=""/><path xmlns="http://www.w3.org/2000/svg" d="m55.906 23h-9a1 1 0 0 0 -1 1 13.933 13.933 0 0 1 -2.316 7.7 14.1 14.1 0 0 1 -6.928 5.448 13.53 13.53 0 0 1 -9.413 0 14.105 14.105 0 0 1 -6.93-5.449 13.93 13.93 0 0 1 -2.319-7.699 1 1 0 0 0 -1-1h-9a1 1 0 0 0 -1 1 25 25 0 0 0 24.888 25h.13a25 25 0 0 0 22.244-13.812 24.733 24.733 0 0 0 2.644-11.188 1 1 0 0 0 -1-1zm-46.885 2h7.01a15.906 15.906 0 0 0 1.916 6.643l-6.87 1.908a22.7 22.7 0 0 1 -2.056-8.551zm2.987 10.369 7.058-1.96a16.153 16.153 0 0 0 6.08 5.031l-5.166 5.165a22.979 22.979 0 0 1 -7.972-8.236zm18.9 11.6a23.01 23.01 0 0 1 -9.1-2.359l5.372-5.372a15.984 15.984 0 0 0 3.733.718zm2.094 0v-7.01a15.984 15.984 0 0 0 3.733-.718l5.372 5.372a23.01 23.01 0 0 1 -9.107 2.359zm10.926-3.367-5.167-5.162a16.15 16.15 0 0 0 6.079-5.031l7.058 1.96a22.962 22.962 0 0 1 -7.972 8.236zm8.9-10.054-6.87-1.908a15.914 15.914 0 0 0 1.917-6.64h7.01a22.7 22.7 0 0 1 -2.056 8.551z" fill="#222222" data-original="#000000" style="" class=""/><path xmlns="http://www.w3.org/2000/svg" d="m12 28h2v2h-2z" fill="#222222" data-original="#000000" style="" class=""/><path xmlns="http://www.w3.org/2000/svg" d="m17 37h2v2h-2z" fill="#222222" data-original="#000000" style="" class=""/><path xmlns="http://www.w3.org/2000/svg" d="m27 42h2v2h-2z" fill="#222222" data-original="#000000" style="" class=""/><path xmlns="http://www.w3.org/2000/svg" d="m35 42h2v2h-2z" fill="#222222" data-original="#000000" style="" class=""/><path xmlns="http://www.w3.org/2000/svg" d="m44 37h2v2h-2z" fill="#222222" data-original="#000000" style="" class=""/><path xmlns="http://www.w3.org/2000/svg" d="m50 28h2v2h-2z" fill="#222222" data-original="#000000" style="" class=""/><path xmlns="http://www.w3.org/2000/svg" d="m8 17h4v-2h-6v6h2z" fill="#222222" data-original="#000000" style="" class=""/><path xmlns="http://www.w3.org/2000/svg" d="m56 21h2v-6h-6v2h4z" fill="#222222" data-original="#000000" style="" class=""/></g></svg>
