<?xml version="1.0"?>
<svg xmlns="http://www.w3.org/2000/svg" xmlns:xlink="http://www.w3.org/1999/xlink" xmlns:svgjs="http://svgjs.com/svgjs" version="1.1" width="512" height="512" x="0" y="0" viewBox="0 0 64 64" style="enable-background:new 0 0 512 512" xml:space="preserve" class=""><g><g xmlns="http://www.w3.org/2000/svg"><path d="m50 23c0-9.925-8.075-18-18-18s-18 8.075-18 18 8.075 18 18 18 18-8.075 18-18zm-34 0c0-8.822 7.178-16 16-16s16 7.178 16 16-7.178 16-16 16-16-7.178-16-16z" fill="#222222" data-original="#000000" style="" class=""/><path d="m40.198 34.116c.389.341.875.51 1.36.51.531 0 1.06-.203 1.46-.603.772-.772.808-2.016.083-2.832l-8.168-9.178-.864-12.087c-.077-1.08-.986-1.926-2.069-1.926s-1.992.846-2.069 1.926l-.865 12.113-8.145 9.153c-.727.815-.69 2.059.082 2.831.4.401.93.604 1.46.604.485 0 .97-.169 1.36-.51l8.188-7.173zm2.156-2.259-.837.755-7.989-6.999.138-.121c.353-.237.647-.551.873-.912l7.068 7.941zm-9.356-8.847c-.006.546-.45.99-.998.99s-.992-.444-.998-.99l.002-.03c.012-.542.452-.98.996-.98s.984.438.996.98zm-.924-12.941.718 10.051c-.254-.071-.516-.12-.792-.12s-.538.049-.792.119l.718-10.051c.005-.076.143-.076.148.001zm-9.57 22.543-.09-.09 7.054-7.927c.236.373.549.69.921.928l.103.091z" fill="#222222" data-original="#000000" style="" class=""/><circle cx="27" cy="35" r="2" fill="#222222" data-original="#000000" style="" class=""/><circle cx="32" cy="36" r="2" fill="#222222" data-original="#000000" style="" class=""/><circle cx="37" cy="35" r="2" fill="#222222" data-original="#000000" style="" class=""/><circle cx="32" cy="31" r="2" fill="#222222" data-original="#000000" style="" class=""/><circle cx="41" cy="24" r="2" fill="#222222" data-original="#000000" style="" class=""/><circle cx="45" cy="21" r="2" fill="#222222" data-original="#000000" style="" class=""/><circle cx="20" cy="28" r="2" fill="#222222" data-original="#000000" style="" class=""/><circle cx="23" cy="24" r="2" fill="#222222" data-original="#000000" style="" class=""/><circle cx="26" cy="12" r="2" fill="#222222" data-original="#000000" style="" class=""/><circle cx="21" cy="17" r="2" fill="#222222" data-original="#000000" style="" class=""/><circle cx="44" cy="28" r="2" fill="#222222" data-original="#000000" style="" class=""/><path d="m52.565 57.057-10.11-14.705c6.87-3.726 11.545-11.003 11.545-19.352 0-12.131-9.869-22-22-22s-22 9.869-22 22c0 8.349 4.675 15.626 11.544 19.352l-10.11 14.705c-1.384.266-2.434 1.482-2.434 2.943 0 1.654 1.346 3 3 3h40c1.654 0 3-1.346 3-3 0-1.461-1.05-2.677-2.435-2.943zm-2.466-.057h-2.572l-8.916-13.017c.689-.218 1.364-.469 2.023-.751zm-22.099-12.371v1.248l-2.781 11.123h-6.322l8.547-12.477c.184.039.37.072.556.106zm2 .276c.659.06 1.325.095 2 .095s1.341-.035 2-.095v1.095c0 1.103-.897 2-2 2s-2-.897-2-2zm-.702 4.026c.713.657 1.658 1.069 2.702 1.069s1.989-.412 2.702-1.069l2.017 8.069h-9.438zm9.483 8.069-2.781-11.124v-1.248c.186-.034.372-.067.556-.106l8.547 12.478zm-26.781-34c0-11.028 8.972-20 20-20s20 8.972 20 20-8.972 20-20 20-20-8.972-20-20zm13.389 20.983-8.916 13.017h-2.572l9.465-13.767c.659.282 1.333.533 2.023.75zm26.611 17.017h-40c-.551 0-1-.449-1-1s.449-1 1-1h40c.551 0 1 .449 1 1s-.449 1-1 1z" fill="#222222" data-original="#000000" style="" class=""/></g></g></svg>
