<?xml version="1.0"?>
<svg xmlns="http://www.w3.org/2000/svg" xmlns:xlink="http://www.w3.org/1999/xlink" xmlns:svgjs="http://svgjs.com/svgjs" version="1.1" width="512" height="512" x="0" y="0" viewBox="0 0 512 512" style="enable-background:new 0 0 512 512" xml:space="preserve" class=""><g>
<g xmlns="http://www.w3.org/2000/svg">
	<g>
		<path d="M437.017,74.979C388.664,26.628,324.378,0,255.999,0C187.618,0,123.33,26.628,74.978,74.979    C26.627,123.331,0,187.618,0,256.001c0,68.378,26.628,132.665,74.978,181.017C123.33,485.371,187.619,512,255.999,512    c68.376,0,132.664-26.629,181.018-74.983C485.371,388.663,512,324.377,512,256.001C512,187.619,485.371,123.331,437.017,74.979z     M494.988,247.577h-27.657c-2.047-51.98-22.932-99.195-56.011-134.994l19.542-19.542    C468.933,133.865,492.913,187.98,494.988,247.577z M255.999,398.537c-78.595,0-142.537-63.942-142.537-142.537    s63.942-142.537,142.537-142.537s142.537,63.942,142.537,142.537S334.596,398.537,255.999,398.537z M330.559,435.811    c-15.5,6.452-32.006,10.958-49.213,13.206l-3.078-35.194c13.021-1.829,25.542-5.234,37.362-10.02L330.559,435.811z     M137.555,149.47c-8.617,9.572-16.092,20.19-22.211,31.638l-32.018-14.933c7.924-15.172,17.786-29.177,29.262-41.681    L137.555,149.47z M124.502,112.581c12.505-11.475,26.51-21.336,41.683-29.261l14.934,32.017    c-11.452,6.121-22.075,13.598-31.651,22.219L124.502,112.581z M108.199,196.366c-4.787,11.823-8.194,24.345-10.021,37.369    l-35.206-3.087c2.248-17.207,6.755-33.714,13.208-49.217L108.199,196.366z M96.72,250.519c-0.062,1.821-0.104,3.645-0.104,5.48    c0,11.331,1.197,22.387,3.456,33.055l-34.129,9.143c-3.016-13.593-4.62-27.711-4.62-42.198c0-2.871,0.075-5.725,0.199-8.566    L96.72,250.519z M104.438,305.327c4.049,12.411,9.582,24.157,16.391,35.028l-28.937,20.263    c-9.106-14.232-16.408-29.723-21.591-46.146L104.438,305.327z M130.504,354.148c7.977,10.177,17.163,19.364,27.34,27.341    l-20.248,28.918c-13.512-10.385-25.626-22.498-36.012-36.01L130.504,354.148z M171.637,391.165    c10.872,6.811,22.618,12.346,35.031,16.395l-9.144,34.127c-16.422-5.182-31.914-12.484-46.146-21.589L171.637,391.165z     M181.442,76.177c15.502-6.452,32.007-10.958,49.214-13.206l3.085,35.206c-13.022,1.827-25.544,5.232-37.366,10.019    L181.442,76.177z M381.487,157.839c-7.976-10.174-17.159-19.356-27.333-27.332l20.248-28.922    c13.51,10.384,25.621,22.497,36.005,36.008L381.487,157.839z M420.098,151.375c9.105,14.232,16.406,29.722,21.589,46.145    l-34.126,9.148c-4.051-12.415-9.587-24.163-16.398-35.036L420.098,151.375z M340.36,120.833    c-10.873-6.811-22.62-12.345-35.034-16.395l9.15-34.135c16.422,5.184,31.912,12.486,46.145,21.591L340.36,120.833z     M362.53,374.446l24.967,24.959c-12.502,11.476-26.506,21.338-41.679,29.262l-14.929-32.007    C342.338,390.539,352.958,383.064,362.53,374.446z M374.444,362.533c8.622-9.576,16.099-20.2,22.22-31.653l32.007,14.927    c-7.923,15.173-17.785,29.179-29.261,41.684L374.444,362.533z M403.805,315.621c4.785-11.821,8.189-24.34,10.018-37.36    l35.194,3.078c-2.246,17.206-6.753,33.71-13.203,49.211L403.805,315.621z M415.28,261.475c0.062-1.818,0.104-3.641,0.104-5.476    c0.001-11.332-1.197-22.389-3.456-33.058l34.116-9.147c3.017,13.595,4.621,27.716,4.621,42.206c0,2.866-0.075,5.716-0.199,8.552    L415.28,261.475z M264.425,17.013c59.59,2.075,113.701,26.049,154.525,64.115l-19.542,19.54    C363.61,67.59,316.399,46.704,264.425,44.657V17.013z M298.2,65.943l-9.147,34.127c-10.668-2.259-21.723-3.456-33.054-3.456    c-1.832,0-3.655,0.043-5.472,0.104l-3.085-35.198c2.839-0.124,5.69-0.199,8.558-0.199C270.488,61.322,284.607,62.926,298.2,65.943    z M247.575,17.011v27.647c-51.979,2.046-99.192,22.932-134.993,56.012L92.963,81.05C135.326,41.506,189.654,19.002,247.575,17.011    z M81.05,92.963l19.619,19.619c-33.079,35.8-53.965,83.015-56.012,134.993H17.01C19.002,189.655,41.505,135.327,81.05,92.963z     M17.012,264.425h27.644c2.047,51.974,22.932,99.186,56.011,134.983l-19.54,19.54C43.063,378.125,19.087,324.014,17.012,264.425z     M247.575,494.988c-59.596-2.075-113.712-26.055-154.536-64.126l19.542-19.541c35.801,33.078,83.015,53.964,134.995,56.011    V494.988z M213.798,446.045l9.141-34.117c10.67,2.26,21.727,3.457,33.06,3.457c1.836,0,3.662-0.043,5.482-0.104l3.078,35.187    c-2.838,0.124-5.69,0.199-8.56,0.199C241.511,450.666,227.391,449.062,213.798,446.045z M264.424,494.988v-27.657h0    c51.975-2.047,99.187-22.931,134.986-56.009l19.545,19.545C378.13,468.935,324.016,492.913,264.424,494.988z M430.868,418.955    l-19.545-19.545c33.077-35.799,53.962-83.009,56.009-134.984h27.657C492.913,324.017,468.935,378.131,430.868,418.955z" fill="#222222" data-original="#000000" style="" class=""/>
	</g>
</g>
<g xmlns="http://www.w3.org/2000/svg">
	<g>
		<path d="M343.432,307.904c-7.701-7.702-19.191-9.319-28.516-4.907l-36.245-36.244c3.214-6.792,3.214-14.719,0-21.509L314.915,209    c3.393,1.608,7.068,2.44,10.752,2.44c6.433,0,12.864-2.449,17.761-7.346c9.793-9.793,9.793-25.728,0-35.521    c-9.793-9.794-25.729-9.793-35.521,0c-7.702,7.702-9.319,19.191-4.907,28.516l-36.244,36.244c-6.792-3.214-14.718-3.214-21.509,0    l-36.245-36.245c4.412-9.325,2.795-20.814-4.907-28.516c-9.793-9.794-25.729-9.793-35.521,0c-9.793,9.793-9.793,25.728,0,35.521    c4.896,4.897,11.329,7.346,17.761,7.346c3.684,0,7.359-0.831,10.755-2.438l36.244,36.244c-3.213,6.792-3.213,14.718,0,21.509    l-36.245,36.244c-9.324-4.412-20.814-2.795-28.516,4.907c-9.793,9.793-9.793,25.728,0,35.521    c4.896,4.897,11.329,7.346,17.761,7.346c6.433,0,12.864-2.449,17.761-7.346c7.702-7.702,9.319-19.191,4.907-28.516l36.245-36.244    c3.395,1.607,7.071,2.438,10.756,2.438c3.684,0,7.359-0.831,10.755-2.438l36.245,36.244c-4.412,9.324-2.795,20.814,4.907,28.516    c4.896,4.897,11.329,7.346,17.761,7.346s12.864-2.449,17.761-7.346C353.225,333.632,353.225,317.697,343.432,307.904z     M319.82,180.485c1.562-1.562,3.639-2.422,5.847-2.422c2.209,0,4.286,0.86,5.849,2.422c3.225,3.225,3.225,8.471,0,11.696    c-3.225,3.224-8.47,3.225-11.696,0c-1.562-1.562-2.422-3.639-2.422-5.849C317.398,184.125,318.258,182.048,319.82,180.485z     M192.181,192.181c-3.225,3.222-8.47,3.224-11.696,0c-1.562-1.562-2.422-3.639-2.422-5.849c0-2.208,0.86-4.285,2.422-5.847    s3.639-2.422,5.847-2.422c2.209,0,4.286,0.86,5.849,2.422C195.406,183.71,195.406,188.957,192.181,192.181z M192.181,331.515    c-3.225,3.224-8.47,3.225-11.696,0c-1.562-1.562-2.422-3.639-2.422-5.847c0-2.208,0.86-4.285,2.422-5.847    c1.613-1.612,3.73-2.418,5.847-2.418c2.118,0,4.236,0.806,5.849,2.418C195.405,323.045,195.405,328.291,192.181,331.515z     M261.848,261.848c-3.225,3.224-8.471,3.225-11.696,0c-1.562-1.562-2.422-3.639-2.422-5.849c0-2.208,0.86-4.285,2.422-5.847    c1.561-1.562,3.639-2.422,5.847-2.422c2.209,0,4.286,0.86,5.849,2.422C265.073,253.377,265.073,258.623,261.848,261.848z     M331.515,331.515c-3.225,3.224-8.47,3.225-11.696,0c-1.562-1.562-2.422-3.639-2.422-5.847c0-2.208,0.86-4.285,2.422-5.847    c1.613-1.612,3.73-2.418,5.847-2.418c2.12,0,4.237,0.806,5.849,2.418C334.739,323.045,334.739,328.291,331.515,331.515z" fill="#222222" data-original="#000000" style="" class=""/>
	</g>
</g>
<g xmlns="http://www.w3.org/2000/svg">
</g>
<g xmlns="http://www.w3.org/2000/svg">
</g>
<g xmlns="http://www.w3.org/2000/svg">
</g>
<g xmlns="http://www.w3.org/2000/svg">
</g>
<g xmlns="http://www.w3.org/2000/svg">
</g>
<g xmlns="http://www.w3.org/2000/svg">
</g>
<g xmlns="http://www.w3.org/2000/svg">
</g>
<g xmlns="http://www.w3.org/2000/svg">
</g>
<g xmlns="http://www.w3.org/2000/svg">
</g>
<g xmlns="http://www.w3.org/2000/svg">
</g>
<g xmlns="http://www.w3.org/2000/svg">
</g>
<g xmlns="http://www.w3.org/2000/svg">
</g>
<g xmlns="http://www.w3.org/2000/svg">
</g>
<g xmlns="http://www.w3.org/2000/svg">
</g>
<g xmlns="http://www.w3.org/2000/svg">
</g>
</g></svg>
