<?xml version="1.0"?>
<svg xmlns="http://www.w3.org/2000/svg" xmlns:xlink="http://www.w3.org/1999/xlink" xmlns:svgjs="http://svgjs.com/svgjs" version="1.1" width="512" height="512" x="0" y="0" viewBox="0 0 480 480.02572" style="enable-background:new 0 0 512 512" xml:space="preserve" class=""><g><path xmlns="http://www.w3.org/2000/svg" d="m477.898438 271.175781c9.6875-73.925781-15.535157-148.160156-68.257813-200.882812-52.722656-52.722657-126.957031-77.945313-200.882813-68.257813-52.472656 6.675782-101.210937 30.695313-138.472656 68.238282-9.367187 9.34375-17.957031 19.433593-25.6875 30.167968-19.078125 26.546875-32.429687 56.769532-39.203125 88.753906-1.375 6.429688-2.488281 12.949219-3.34375 19.550782-8.96875 68.378906 11.902344 137.3125 57.296875 189.234375 45.394532 51.917969 110.925782 81.804687 179.890625 82.046875 10.683594-.003906 21.355469-.707032 31.949219-2.105469 52.472656-6.675781 101.210938-30.695313 138.472656-68.238281 9.355469-9.347656 17.933594-19.4375 25.65625-30.167969 19.09375-26.546875 32.453125-56.769531 39.238282-88.753906 1.378906-6.433594 2.492187-12.949219 3.34375-19.550781zm-15.269532-7.871093c-47.371094 7.316406-91.40625 28.84375-126.28125 61.730468l-85.078125-85.058594 152.574219-152.574218c44.34375 47.246094 65.820312 111.515625 58.785156 175.925781zm-3.105468 20.480468c-.503907 2.59375-1.070313 5.160156-1.671876 7.730469-.75 3.199219-1.570312 6.398437-2.457031 9.597656-.710937 2.511719-1.445312 5.015625-2.238281 7.503907-1 3.136718-2.097656 6.242187-3.199219 9.320312-.898437 2.398438-1.800781 4.855469-2.785156 7.25-1.253906 3.0625-2.625 6.078125-4 9.078125-1.070313 2.3125-2.128906 4.625-3.28125 6.894531-1.527344 3.027344-3.199219 5.976563-4.863281 8.929688-1.214844 2.152344-2.398438 4.320312-3.679688 6.398437-1.855468 3.035157-3.863281 5.976563-5.871094 8.921875-1.304687 1.917969-2.542968 3.878906-3.914062 5.765625-2.324219 3.203125-4.796875 6.28125-7.324219 9.363281-1.242187 1.527344-2.402343 3.101563-3.664062 4.597657-2.144531 2.511719-4.488281 4.890625-6.753907 7.3125l-56.128906-56.128907c31.242188-29.378906 70.351563-49.035156 112.570313-56.574218-.304688 1.375-.472657 2.726562-.738281 4.0625zm-78.96875 130.402344c-3.085938 2.503906-6.175782 5.007812-9.367188 7.335938-1.886719 1.367187-3.839844 2.597656-5.757812 3.902343-2.945313 2.007813-5.898438 4-8.929688 5.878907-2.105469 1.289062-4.273438 2.457031-6.398438 3.671874-2.960937 1.671876-5.921874 3.34375-8.953124 4.882813-2.265626 1.140625-4.566407 2.191406-6.863282 3.261719-3.015625 1.402344-6.046875 2.769531-9.121094 4-2.398437.976562-4.800781 1.871094-7.199218 2.769531-3.097656 1.144531-6.214844 2.238281-9.367188 3.246094-2.476562.785156-4.964844 1.527343-7.472656 2.226562-3.199219.894531-6.402344 1.710938-9.601562 2.46875-2.550782.59375-5.117188 1.160157-7.710938 1.664063-1.328125.265625-2.679688.457031-4 .691406 7.539062-42.21875 27.195312-81.328125 56.574219-112.570312l56.128906 56.128906c-2.398437 2.261718-4.800781 4.609375-7.3125 6.75-1.542969 1.320312-3.117187 2.472656-4.648437 3.707031zm-139.917969-398.257812c56.449219-.019532 110.777343 21.488281 151.917969 60.136718l-152.597657 152.597656-85.082031-85.078124c32.882812-34.871094 54.40625-78.898438 61.730469-126.265626 7.980469-.882812 16-1.347656 24.03125-1.390624zm-220.25 180.214843c.503906-2.589843 1.074219-5.160156 1.671875-7.726562.753906-3.199219 1.574218-6.398438 2.457031-9.601563.710937-2.511718 1.449219-5.015625 2.242187-7.503906 1-3.136719 2.09375-6.238281 3.199219-9.320312.894531-2.398438 1.800781-4.855469 2.785157-7.246094 1.253906-3.0625 2.621093-6.082032 4-9.082032 1.070312-2.308593 2.125-4.621093 3.277343-6.894531 1.527344-3.023437 3.199219-5.976562 4.863281-8.929687 1.21875-2.148438 2.402344-4.316406 3.679688-6.398438 1.859375-3.03125 3.867188-5.976562 5.875-8.917968 1.304688-1.921876 2.542969-3.882813 3.910156-5.769532 2.328125-3.199218 4.800782-6.28125 7.328125-9.359375 1.242188-1.527343 2.402344-3.105469 3.664063-4.601562 2.144531-2.511719 4.488281-4.886719 6.753906-7.3125l56.125 56.128906c-31.226562 29.367187-70.320312 49.023437-112.519531 56.566406.257812-1.34375.425781-2.695312.6875-4.03125zm67.066406-120c2.398437-2.261719 4.800781-4.605469 7.3125-6.75 1.488281-1.273437 3.0625-2.402343 4.589844-3.65625 3.089843-2.503906 6.175781-5.007812 9.367187-7.335937 1.890625-1.367188 3.839844-2.601563 5.761719-3.90625 2.945313-2.007813 5.894531-4 8.929687-5.878906 2.101563-1.289063 4.269532-2.457032 6.398438-3.671876 2.960938-1.671874 5.917969-3.34375 8.953125-4.878906 2.261719-1.144531 4.566406-2.191406 6.863281-3.265625 3.015625-1.398437 6.046875-2.765625 9.121094-4 2.398438-.976562 4.796875-1.871093 7.199219-2.765625 3.09375-1.144531 6.214843-2.242187 9.367187-3.25 2.46875-.785156 4.960938-1.523437 7.472656-2.222656 3.199219-.898438 6.398438-1.710938 9.597657-2.472656 2.554687-.59375 5.121093-1.160156 7.714843-1.664063 1.328126-.265625 2.679688-.457031 4-.6875-7.539062 42.214844-27.199218 81.328125-56.578124 112.566407zm-70.167969 140.480469c47.371094-7.316406 91.40625-28.839844 126.277344-61.726562l85.082031 85.078124-152.578125 152.578126c-44.34375-47.246094-65.820312-111.515626-58.78125-175.929688zm70.09375 187.199219 152.578125-152.535157 85.078125 85.082032c-32.886718 34.875-54.410156 78.910156-61.726562 126.285156-64.414063 7.019531-128.675782-14.457031-175.929688-58.789062zm0 0" fill="#222222" data-original="#000000" style="" class=""/></g></svg>
