<?xml version="1.0"?>
<svg xmlns="http://www.w3.org/2000/svg" xmlns:xlink="http://www.w3.org/1999/xlink" xmlns:svgjs="http://svgjs.com/svgjs" version="1.1" width="512" height="512" x="0" y="0" viewBox="0 0 494 494" style="enable-background:new 0 0 512 512" xml:space="preserve"><g><path xmlns="http://www.w3.org/2000/svg" d="m485.699219 0h-477.398438c-4.417969 0-8.300781 3.121094-8.300781 7.539062v339.773438c0 4.417969 3.882812 7.6875 8.300781 7.6875h166.699219v41h-40.449219c-4.417969 0-7.550781 4.042969-7.550781 8.460938v38c-.085938 2.027343.683594 3.996093 2.117188 5.429687 1.4375 1.429687 3.40625 2.195313 5.433593 2.109375h224.898438c2.027343.089844 3.996093-.675781 5.429687-2.109375 1.4375-1.433594 2.207032-3.402344 2.121094-5.429687v-38c0-4.417969-3.132812-8.460938-7.550781-8.460938h-40.449219v-41h166.699219c4.417969 0 8.300781-3.269531 8.300781-7.6875v-339.773438c0-4.417968-3.882812-7.539062-8.300781-7.539062zm-134.699219 434h-208v-22h208zm-48-38h-112v-41h112zm175-57h-462v-323h462zm0 0" fill="#222222" data-original="#000000" style=""/><path xmlns="http://www.w3.org/2000/svg" d="m449 52c0-4.417969-3.582031-8-8-8h-389c-4.417969 0-8 3.582031-8 8v252c0 4.417969 3.582031 8 8 8h389c4.417969 0 8-3.582031 8-8zm-389 8h374v235h-374zm0 0" fill="#222222" data-original="#000000" style=""/><path xmlns="http://www.w3.org/2000/svg" d="m247 72.742188c-59.238281 0-107.257812 48.023437-107.257812 107.257812.003906 59.238281 48.023437 107.257812 107.261718 107.257812 59.234375 0 107.257813-48.019531 107.257813-107.257812-.070313-59.210938-48.050781-107.191406-107.261719-107.257812zm47.398438 48.550781c-11.273438-9.144531-24.960938-14.828125-39.398438-16.359375v-15.832032c18.625 1.625 36.289062 8.960938 50.59375 21zm-55.398438-16.359375c-14.332031 1.519531-27.921875 7.132812-39.152344 16.167968l-11.203125-11.203124c14.261719-11.921876 31.835938-19.179688 50.355469-20.796876zm8 15.570312c32.863281-.003906 59.503906 26.636719 59.507812 59.5 0 32.859375-26.640624 59.5-59.5 59.5-32.863281 0-59.503906-26.640625-59.5-59.503906.035157-32.84375 26.648438-59.457031 59.492188-59.496094zm-47.394531 118.199219c11.277343 9.148437 24.957031 14.832031 39.394531 16.363281v15.832032c-18.621094-1.628907-36.289062-8.960938-50.589844-21zm55.394531 16.363281c14.539062-1.542968 28.3125-7.292968 39.632812-16.546875l11.191407 11.191407c-14.339844 12.148437-32.097657 19.554687-50.824219 21.1875zm50.898438-27.914062c9.035156-11.226563 14.648437-24.820313 16.171874-39.152344h15.835938c-1.617188 18.519531-8.878906 36.097656-20.800781 50.359375zm16.171874-55.152344c-1.535156-14.4375-7.21875-28.117188-16.359374-39.394531l11.199218-11.199219c12.035156 14.300781 19.371094 31.96875 21 50.589844zm-144.777343-50.820312 11.1875 11.1875c-9.253907 11.320312-15.003907 25.09375-16.546875 39.632812h-15.832032c1.636719-18.726562 9.039063-36.480469 21.191407-50.820312zm-21.191407 66.820312h15.835938c1.53125 14.4375 7.214844 28.117188 16.359375 39.394531l-11.199219 11.199219c-12.039062-14.304688-19.371094-31.972656-20.996094-50.59375zm0 0" fill="#222222" data-original="#000000" style=""/><path xmlns="http://www.w3.org/2000/svg" d="m200.300781 176.5 17.546875 17.101562-4.148437 24.152344c-.515625 3.003906.71875 6.035156 3.183593 7.824219 2.464844 1.792969 5.730469 2.027344 8.425782.609375l21.6875-11.398438 21.691406 11.398438c2.695312 1.417969 5.960938 1.183594 8.425781-.609375 2.464844-1.789063 3.699219-4.820313 3.183594-7.824219l-4.140625-24.152344 17.542969-17.101562c2.179687-2.125 2.964843-5.304688 2.023437-8.199219-.9375-2.898437-3.441406-5.007812-6.457031-5.445312l-24.25-3.527344-10.84375-21.972656c-1.347656-2.730469-4.128906-4.460938-7.175781-4.460938-3.042969 0-5.824219 1.730469-7.171875 4.460938l-10.847657 21.972656-24.25 3.527344c-3.011718.441406-5.511718 2.550781-6.453124 5.445312-.9375 2.898438-.152344 6.074219 2.027343 8.199219zm35.144531-1.941406c2.609376-.378906 4.859376-2.015625 6.027344-4.375l5.527344-11.210938 5.53125 11.210938c1.167969 2.359375 3.421875 3.996094 6.027344 4.375l12.371094 1.800781-8.953126 8.726563c-1.886718 1.835937-2.746093 4.484374-2.300781 7.078124l2.113281 12.320313-11.066406-5.816406c-2.328125-1.222657-5.113281-1.222657-7.445312 0l-11.0625 5.816406 2.109375-12.320313c.445312-2.59375-.414063-5.242187-2.296875-7.078124l-8.953125-8.726563zm0 0" fill="#222222" data-original="#000000" style=""/></g></svg>
