<?xml version="1.0"?>
<svg xmlns="http://www.w3.org/2000/svg" xmlns:xlink="http://www.w3.org/1999/xlink" xmlns:svgjs="http://svgjs.com/svgjs" version="1.1" width="512" height="512" x="0" y="0" viewBox="0 0 512 512" style="enable-background:new 0 0 512 512" xml:space="preserve" class=""><g><g xmlns="http://www.w3.org/2000/svg"><path d="m404.437 0h-242.633c-19.519 0-35.398 15.865-35.398 35.365v14.346h-18.858c-19.509 0-35.381 15.872-35.381 35.382v391.525c0 19.51 15.872 35.382 35.381 35.382h242.665c19.51 0 35.382-15.872 35.382-35.382v-14.329h18.843c19.519 0 35.397-15.865 35.397-35.365v-391.559c-.001-19.5-15.88-35.365-35.398-35.365zm-38.843 476.618c0 8.481-6.9 15.382-15.382 15.382h-242.665c-8.481 0-15.381-6.9-15.381-15.382v-391.525c0-8.481 6.9-15.382 15.381-15.382h242.665c8.481 0 15.382 6.9 15.382 15.382zm54.24-49.694c0 8.473-6.907 15.365-15.397 15.365h-18.843v-357.196c0-19.51-15.872-35.382-35.382-35.382h-203.806v-14.346c0-8.473 6.908-15.365 15.398-15.365h242.633c8.49 0 15.397 6.893 15.397 15.365z" fill="#222222" data-original="#000000" style="" class=""/><path d="m309.371 333.115c11.834-11.148 18.09-26.704 18.09-44.985 0-15.811-3.59-28.907-11.64-42.464-12.562-21.153-51.193-51.725-73.102-68.065-8.19-6.109-19.624-6.1-27.801.027-21.898 16.4-60.495 47.047-72.959 68.038-8.063 13.578-11.659 26.675-11.659 42.464 0 18.281 6.248 33.836 18.067 44.981 10.814 10.198 25.592 15.814 41.611 15.814 2.629 0 5.192-.145 7.681-.433l-5.448 28.337c-.563 2.929.211 5.957 2.111 8.257 1.899 2.299 4.727 3.631 7.709 3.631h53.699c2.982 0 5.81-1.332 7.71-3.631 1.899-2.3 2.673-5.328 2.11-8.257l-5.447-28.332c2.478.285 5.027.428 7.643.428 16.019.001 30.802-5.614 41.625-15.81zm-57.834-7.459c-3.405-1.605-7.424-1.166-10.399 1.142-2.975 2.309-4.402 6.092-3.691 9.789l6.177 32.131h-29.488l6.183-32.16c.711-3.702-.719-7.489-3.7-9.796-2.982-2.308-7.007-2.744-10.412-1.124-4.592 2.182-10.052 3.288-16.229 3.288-19.75 0-39.678-12.614-39.678-40.796 0-12.316 2.565-21.66 8.855-32.253 7.701-12.967 33.028-36.235 67.752-62.241 1.133-.85 2.718-.852 3.854-.004 34.73 25.903 60.1 49.172 67.863 62.245 6.276 10.57 8.837 19.915 8.837 32.253 0 28.182-19.947 40.796-39.716 40.796-6.161 0-11.614-1.1-16.208-3.27z" fill="#222222" data-original="#000000" style="" class=""/><path d="m154.422 154.676 3.234 8.559c1.513 4.003 5.316 6.469 9.356 6.469 1.174 0 2.369-.209 3.533-.648 5.167-1.952 7.772-7.723 5.82-12.889l-22.795-60.328c-.035-.094-.072-.186-.109-.277-1.766-4.282-5.897-7.047-10.529-7.047h-.015c-4.637.006-8.769 2.782-10.525 7.073-.031.074-.061.149-.089.225l-23.004 60.324c-1.968 5.161.62 10.939 5.781 12.907 5.16 1.97 10.939-.62 12.907-5.78l3.275-8.588zm-7.557-20h-7.978l4.007-10.508z" fill="#222222" data-original="#000000" style="" class=""/><path d="m342.682 392.667c-5.16-1.966-10.938.621-12.907 5.78l-3.275 8.588h-23.162l-3.234-8.56c-1.952-5.165-7.719-7.772-12.89-5.819-5.166 1.952-7.771 7.723-5.819 12.89l22.795 60.326c.035.092.071.183.108.273 1.765 4.285 5.896 7.051 10.53 7.051h.013c4.638-.005 8.771-2.781 10.527-7.073.03-.074.06-.149.089-.225l23.005-60.324c1.968-5.16-.62-10.939-5.78-12.907zm-31.787 34.368h7.978l-4.007 10.508z" fill="#222222" data-original="#000000" style="" class=""/></g></g></svg>
