<?xml version="1.0"?>
<svg xmlns="http://www.w3.org/2000/svg" xmlns:xlink="http://www.w3.org/1999/xlink" xmlns:svgjs="http://svgjs.com/svgjs" version="1.1" width="512" height="512" x="0" y="0" viewBox="0 0 512 512" style="enable-background:new 0 0 512 512" xml:space="preserve" class=""><g><g xmlns="http://www.w3.org/2000/svg"><path d="m482 166.66h-62v-90h-133.695l-64.513-61.32-61.986 61.32h-99.806c-33.083 0-59.999 26.915-60 59.998v285.002c0 41.355 33.645 75 75 75h407v-90h30v-150h-30zm-92-60v60h-9.009l-63.124-60zm-52.553 60h-140.994l69.244-68.198zm-115.239-109.534 21.733 20.657-90.241 88.877h-42.215zm-162.208 49.534h69.48l-59.539 58.9c-21.074-2.525-39.941-10.046-39.941-28.9 0-16.542 13.458-30 30-30zm392 360h-377c-24.813 0-45-20.187-45-45v-236.849c13.36 7.048 32.533 11.849 60 11.849h362v60h-152v150h152zm30-90h-152v-90h152z" fill="#222222" data-original="#000000" style=""/><path d="m375 316.66h30v30h-30z" fill="#222222" data-original="#000000" style=""/></g></g></svg>
