<?xml version="1.0"?>
<svg xmlns="http://www.w3.org/2000/svg" height="512px" viewBox="0 0 512 512" width="512px"><g><g id="_02-E-wallet" data-name="02-E-wallet"><g id="filled"><circle cx="332" cy="352" r="12" data-original="#000000" class="active-path" data-old_color="#000000" fill="#222222"/><path d="m400 292h-20v-36a60.09 60.09 0 0 0 -50.438-59.229l-13.92-55.682a12 12 0 0 0 -14.553-8.731l-39.27 9.818-24.131-51.285a12 12 0 0 0 -17.228-5.061l-175.908 110.17h-28.552a12 12 0 0 0 -12 12v288a12 12 0 0 0 12 12h304a60.068 60.068 0 0 0 60-60v-36h20a12 12 0 0 0 12-12v-96a12 12 0 0 0 -12-12zm-95.369-96h-159.154l112.465-28.116.08-.02 37.247-9.312zm-82.9-82.648 16.355 34.757-119.586 29.897zm134.269 334.648a36.04 36.04 0 0 1 -36 36h-292v-264h291.921.07.036a36.041 36.041 0 0 1 35.973 36v36h-52a28.032 28.032 0 0 0 -28 28v64a28.032 28.032 0 0 0 28 28h52zm32-60h-84a4 4 0 0 1 -4-4v-64a4 4 0 0 1 4-4h84z" data-original="#000000" class="active-path" data-old_color="#000000" fill="#222222"/><circle cx="332" cy="352" r="12" data-original="#000000" class="active-path" data-old_color="#000000" fill="#222222"/><path d="m144 300h40a12.013 12.013 0 0 1 12 12 12 12 0 0 0 24 0 36.04 36.04 0 0 0 -36-36h-12v-20a12 12 0 0 0 -24 0v20h-4a44 44 0 0 0 0 88h32a20 20 0 0 1 0 40h-40a12.013 12.013 0 0 1 -12-12 12 12 0 0 0 -24 0 36.04 36.04 0 0 0 36 36h12v20a12 12 0 0 0 24 0v-20h4a44 44 0 0 0 0-88h-32a20 20 0 0 1 0-40z" data-original="#000000" class="active-path" data-old_color="#000000" fill="#222222"/><path d="m352 148a12 12 0 0 0 0 24 36.04 36.04 0 0 1 36 36 12 12 0 0 0 24 0 60.068 60.068 0 0 0 -60-60z" data-original="#000000" class="active-path" data-old_color="#000000" fill="#222222"/><path d="m352 100a12 12 0 0 0 0 24 84.1 84.1 0 0 1 84 84 12 12 0 0 0 24 0 108.123 108.123 0 0 0 -108-108z" data-original="#000000" class="active-path" data-old_color="#000000" fill="#222222"/><path d="m352 52a12 12 0 0 0 0 24c72.785 0 132 59.215 132 132a12 12 0 0 0 24 0c0-86.019-69.981-156-156-156z" data-original="#000000" class="active-path" data-old_color="#000000" fill="#222222"/></g></g></g> </svg>
