<?xml version="1.0"?>
<svg xmlns="http://www.w3.org/2000/svg" height="512px" viewBox="0 -3 512 512" width="512px"><g><path d="m496.582031 35.742188h-100.433593v-20.324219c0-8.515625-6.902344-15.417969-15.417969-15.417969-8.511719 0-15.417969 6.902344-15.417969 15.417969v20.324219h-218.625v-20.324219c0-8.515625-6.90625-15.417969-15.417969-15.417969-8.515625 0-15.417969 6.902344-15.417969 15.417969v20.324219h-100.433593c-8.515625 0-15.417969 6.902343-15.417969 15.417968v439.113282c0 8.515624 6.902344 15.417968 15.417969 15.417968h481.164062c8.515625 0 15.417969-6.902344 15.417969-15.417968 0-4.34375 0-428.070313 0-439.113282 0-8.515625-6.902344-15.417968-15.417969-15.417968zm-465.746093 30.835937h85.015624v20.324219c0 8.515625 6.902344 15.417968 15.417969 15.417968 8.511719 0 15.417969-6.902343 15.417969-15.417968v-20.324219h218.625v20.324219c0 8.515625 6.90625 15.417968 15.417969 15.417968 8.515625 0 15.417969-6.902343 15.417969-15.417968v-20.324219h85.015624v81.730469h-450.328124zm0 408.28125v-295.714844h450.328124v295.714844zm0 0" data-original="#000000" class="active-path" data-old_color="#000000" fill="#222222"/><path d="m256 264.902344c-32.558594 0-59.046875 26.488281-59.046875 59.046875 0 32.558593 26.488281 59.046875 59.046875 59.046875s59.046875-26.488282 59.046875-59.046875c0-32.558594-26.488281-59.046875-59.046875-59.046875zm0 87.257812c-15.554688 0-28.210938-12.65625-28.210938-28.210937 0-15.554688 12.65625-28.210938 28.210938-28.210938s28.210938 12.65625 28.210938 28.210938c0 15.554687-12.65625 28.210937-28.210938 28.210937zm0 0" data-original="#000000" class="active-path" data-old_color="#000000" fill="#222222"/><path d="m365.132812 308.53125h-13.820312c-8.515625 0-15.417969 6.902344-15.417969 15.417969s6.902344 15.417969 15.417969 15.417969h13.820312c8.515626 0 15.417969-6.902344 15.417969-15.417969s-6.902343-15.417969-15.417969-15.417969zm0 0" data-original="#000000" class="active-path" data-old_color="#000000" fill="#222222"/><path d="m176.105469 323.949219c0-8.515625-6.902344-15.417969-15.417969-15.417969h-13.820312c-8.515626 0-15.417969 6.902344-15.417969 15.417969s6.902343 15.417969 15.417969 15.417969h13.820312c8.515625 0 15.417969-6.902344 15.417969-15.417969zm0 0" data-original="#000000" class="active-path" data-old_color="#000000" fill="#222222"/><path d="m334.296875 267.453125 9.773437-9.769531c6.023438-6.023438 6.023438-15.785156 0-21.804688-6.019531-6.023437-15.78125-6.023437-21.804687 0l-9.769531 9.773438c-6.023438 6.019531-6.023438 15.78125 0 21.800781 6.019531 6.023437 15.78125 6.023437 21.800781 0zm0 0" data-original="#000000" class="active-path" data-old_color="#000000" fill="#222222"/><path d="m177.703125 380.445312-9.773437 9.773438c-6.023438 6.019531-6.023438 15.78125 0 21.800781 6.019531 6.023438 15.78125 6.023438 21.804687 0l9.769531-9.769531c6.023438-6.023438 6.023438-15.785156 0-21.804688-6.019531-6.023437-15.78125-6.023437-21.800781 0zm0 0" data-original="#000000" class="active-path" data-old_color="#000000" fill="#222222"/><path d="m256 244.054688c8.515625 0 15.417969-6.902344 15.417969-15.417969v-13.820313c0-8.515625-6.902344-15.417968-15.417969-15.417968s-15.417969 6.902343-15.417969 15.417968v13.820313c0 8.515625 6.902344 15.417969 15.417969 15.417969zm0 0" data-original="#000000" class="active-path" data-old_color="#000000" fill="#222222"/><path d="m256 403.84375c-8.515625 0-15.417969 6.902344-15.417969 15.417969v13.820312c0 8.515625 6.902344 15.417969 15.417969 15.417969s15.417969-6.902344 15.417969-15.417969v-13.820312c0-8.515625-6.902344-15.417969-15.417969-15.417969zm0 0" data-original="#000000" class="active-path" data-old_color="#000000" fill="#222222"/><path d="m334.296875 380.445312c-6.019531-6.023437-15.78125-6.023437-21.800781 0-6.023438 6.019532-6.023438 15.78125 0 21.804688l9.769531 9.769531c6.023437 6.023438 15.785156 6.023438 21.804687 0 6.023438-6.019531 6.023438-15.78125 0-21.800781zm0 0" data-original="#000000" class="active-path" data-old_color="#000000" fill="#222222"/><path d="m177.703125 267.453125c6.019531 6.023437 15.78125 6.023437 21.800781 0 6.023438-6.019531 6.023438-15.78125 0-21.800781l-9.769531-9.773438c-6.023437-6.023437-15.785156-6.023437-21.804687 0-6.023438 6.019532-6.023438 15.78125 0 21.804688zm0 0" data-original="#000000" class="active-path" data-old_color="#000000" fill="#222222"/></g> </svg>
