<svg xmlns="http://www.w3.org/2000/svg" viewBox="0 0 82 82"><path fill="#FFF9EB" d="M74.6 63.1h-7.5l-1 4.5 1 6h7.5c1.7 0 3-1.3 3-3v-4.5c0-1.7-1.3-3-3-3z"/><path fill="#FF5368" d="M67.1 63.1h-25l-1 4.5 1 6h25z"/><path fill="#FFF9EB" d="M34.6 63.1c-1.7 0-3 1.3-3 3v4.5c0 1.7 1.3 3 3 3h7.5V63.1h-7.5z"/><path fill="#D3CDBF" d="M74.6 63.1h-3v4.5h-5.5l1 6h7.5c1.7 0 3-1.3 3-3v-4.5c0-1.7-1.3-3-3-3z"/><path fill="#C5324F" d="M67.1 67.6h-26l1 6h25z"/><path fill="#D3CDBF" d="M31.6 67.6v3c0 1.7 1.3 3 3 3h7.5v-6H31.6z"/><path fill="#FF5368" d="M74.6 52.5h-7.5l-1 4.5 1 6h7.5c1.7 0 3-1.3 3-3v-4.5c0-1.6-1.3-3-3-3z"/><path fill="#FFF9EB" d="M67.1 52.5h-25l-1 4.5 1 6.1h25z"/><path fill="#FF5368" d="M34.6 52.5c-1.7 0-3 1.3-3 3V60c0 1.7 1.3 3 3 3h7.5V52.5h-7.5z"/><path fill="#C5324F" d="M74.6 52.5h-3V57h-5.5l1 6h7.5c1.7 0 3-1.3 3-3v-4.5c0-1.6-1.3-3-3-3z"/><path fill="#D3CDBF" d="M67.1 57h-26l1 6.1h25z"/><path fill="#C5324F" d="M31.6 57v3c0 1.7 1.3 3 3 3h7.5v-6H31.6z"/><path fill="#FF5368" d="M78.6 42h-7.5l-1 4.5 1 6h7.5c1.7 0 3-1.3 3-3V45c0-1.6-1.3-3-3-3z"/><path fill="#FFF9EB" d="M71.1 42h-25l-1 4.5 1 6h25z"/><path fill="#FF5368" d="M38.6 42c-1.7 0-3 1.3-3 3v4.5c0 1.7 1.3 3 3 3h7.5V42h-7.5z"/><path fill="#C5324F" d="M78.6 42h-3v4.5h-5.5l1 6h7.5c1.7 0 3-1.3 3-3V45c0-1.6-1.3-3-3-3z"/><path fill="#D3CDBF" d="M71.1 46.5h-26l1 6h25z"/><path fill="#C5324F" d="M35.6 46.5v3c0 1.7 1.3 3 3 3h7.5v-6H35.6z"/><path fill="#FFF9EB" d="M74.6 31.5h-7.5l-1 4.5 1 6h7.5c1.7 0 3-1.3 3-3v-4.5c0-1.6-1.3-3-3-3z"/><path fill="#FF5368" d="M67.1 31.5h-25l-1 4.5 1 6h25z"/><path fill="#FFF9EB" d="M34.6 31.5c-1.7 0-3 1.3-3 3V39c0 1.7 1.3 3 3 3h7.5V31.5h-7.5z"/><path fill="#D3CDBF" d="M74.6 31.5h-3V36h-5.5l1 6h7.5c1.7 0 3-1.3 3-3v-4.5c0-1.6-1.3-3-3-3z"/><path fill="#C5324F" d="M67.1 36h-26l1 6h25z"/><path fill="#D3CDBF" d="M31.6 36v3c0 1.7 1.3 3 3 3h7.5v-6H31.6z"/><path fill="#FF9000" d="M41.6 60.8h-8.3v-10h-7.6v10h-8.3c-2.6 0-4.7 2.1-4.7 4.7v3.2l16.8 2.1 16.8-2.1v-3.2c0-2.6-2.1-4.7-4.7-4.7z"/><path fill="#FFC300" d="M32.4 65.9H17.2c-.9 0-1.6-.7-1.6-1.6v-.4c0-.9.7-1.6 1.6-1.6h15.2c.9 0 1.6.7 1.6 1.6v.4c0 .9-.7 1.6-1.6 1.6z"/><path fill="#494970" d="M12.7 68.7h33.7v4.8H12.7z"/><path fill="#FF9000" d="M31.7 53.8h-4.4c-9.7 0-17.5-7.8-17.5-17.5V14c0-1.6 1.3-2.9 2.9-2.9h33.6c1.6 0 2.9 1.3 2.9 2.9v22.3c0 9.7-7.9 17.5-17.5 17.5z"/><path fill="#FF9000" d="M45.9 11.2h-7.3c1.8 0 3.3 1.5 3.3 3.3v19.7c0 9.6-6.9 17.6-16 19.3 1.2.2 2.4.4 3.7.4 10.9 0 19.7-8.8 19.7-19.7V14.4a3.4 3.4 0 0 0-3.4-3.2z"/><path fill="#FFAB00" d="M41.9 34.2V14.4c0-1.8-1.5-3.3-3.3-3.3H13.1c-1.8 0-3.3 1.5-3.3 3.3v19.7c0 9.6 6.9 17.6 16 19.3 9.2-1.6 16.1-9.6 16.1-19.2z"/><path fill="#FFC300" d="M49.5 14.9h-40c-1.6 0-2.9-1.3-2.9-2.9v-.7c0-1.6 1.3-2.9 2.9-2.9h39.9c1.6 0 2.9 1.3 2.9 2.9v.7c0 1.7-1.2 2.9-2.8 2.9z"/><path fill="#FFF" d="M20.8 13.1h-9.4c-.9 0-1.6-.7-1.6-1.6v-.4c0-.9.7-1.6 1.6-1.6h9.4c.9 0 1.6.7 1.6 1.6v.4c0 .9-.7 1.6-1.6 1.6z"/><path fill="#FF9000" d="M47.3 37.1h-1.9v-18h10.1c1.8 0 3.3 1.5 3.3 3.3v3.3c-.1 6.3-5.2 11.4-11.5 11.4zM49.2 23v10c3.2-.9 5.6-3.8 5.6-7.3V23h-5.6z"/><path fill="#FFAB00" d="M.4 25.7v-3.3c0-1.8 1.5-3.3 3.3-3.3h10.1v18h-1.9C5.5 37.1.4 32 .4 25.7zM4.3 23v2.6c0 3.5 2.4 6.4 5.6 7.3V23H4.3z"/><path d="M27.3 32l-.2 1.4h1.3v1.7H27l-.2 1.5H25l.2-1.5h-1.1l-.2 1.5h-1.8l.2-1.5H21v-1.7h1.6l.2-1.4h-1.3v-1.7h1.6l.2-1.5h1.8l-.2 1.5H26l.2-1.5H28l-.2 1.5h1.3V32h-1.8zm-1.7 0h-1.1l-.2 1.4h1.1l.2-1.4zm10.5-7.9v12.4h-4.2v-9.3h-2.1V24h6.3z" fill="#FF9000"/><path d="M26.2 30.8l-.2 1.4h1.3v1.7h-1.6l-.2 1.5h-1.8l.2-1.5h-1.1l-.2 1.5h-1.8l.2-1.5h-1.3v-1.7h1.6l.2-1.4h-1.3v-1.7h1.6l.2-1.5h1.8l-.2 1.5h1.1l.2-1.5h1.8l-.2 1.5h1.3v1.7h-1.6zm-1.8 0h-1.1l-.2 1.4h1.1l.2-1.4zM35 23v12.4h-4.2v-9.3h-2.1V23H35z" fill="#FFF"/></svg>