<svg id="Layer_1" xmlns="http://www.w3.org/2000/svg" viewBox="0 0 48 60"><style>.st0{fill:#f7a16e}.st1{fill:#b66652}.st3{fill:#ff5368}.st6{fill:#d9435b}.st9{fill:#ede8df}.st10{fill:#e0dad1}.st11{fill:#fff}</style><g id="XMLID_1496_"><g id="XMLID_1505_"><circle id="XMLID_1525_" class="st0" cx="24" cy="36.1" r="23.5"/><path id="XMLID_1524_" class="st1" d="M24 59.6c13 0 23.5-10.5 23.5-23.5 0-7.5-3.5-14.2-9-18.5-1 1.1-1 2.8.1 3.9 3.9 3.9 6.1 9.1 6.1 14.6s-2.2 10.7-6.1 14.6-9.1 6.1-14.6 6.1-10.7-2.2-14.6-6.1a2.81 2.81 0 0 0-3.9-.1c4.3 5.5 11 9 18.5 9z"/><path id="XMLID_1523_" d="M40.1 26.8c-1.6-2.8-4-5.2-6.8-6.8L24 17.5c-3.4 0-6.5.9-9.3 2.5l-6.8 6.8c-1.6 2.7-2.5 5.9-2.5 9.3l2.5 9.3c1.6 2.8 4 5.2 6.8 6.8l9.3 2.5c3.4 0 6.5-.9 9.3-2.5l6.8-6.8c1.6-2.7 2.5-5.9 2.5-9.3l-2.5-9.3z" fill="#4d5967"/><g id="XMLID_1519_"><path id="XMLID_1522_" class="st3" d="M5.4 36.1c0 3.4.9 6.5 2.5 9.3L24 36.1H5.4z"/><path id="XMLID_1521_" class="st3" d="M14.7 20c-2.8 1.6-5.2 4-6.8 6.8L24 36.1 14.7 20z"/><path id="XMLID_1520_" class="st3" d="M33.3 20c-2.7-1.6-5.9-2.5-9.3-2.5v18.6L33.3 20z"/></g><path id="SVGCleanerId_0_9_" class="st3" d="M14.7 52.2c2.7 1.6 5.9 2.5 9.3 2.5V36.1l-9.3 16.1z"/><g id="XMLID_1518_"><path id="SVGCleanerId_0_8_" class="st3" d="M14.7 52.2c2.7 1.6 5.9 2.5 9.3 2.5V36.1l-9.3 16.1z"/></g><path id="XMLID_1517_" class="st3" d="M24 36.1h18.6c0-3.4-.9-6.5-2.5-9.3L24 36.1z"/><path id="XMLID_1516_" d="M33.3 52.2c2.8-1.6 5.2-4 6.8-6.8L24 36.1l9.3 16.1z" fill="#4fe267"/><path id="XMLID_1515_" d="M42.6 36.1l-2.5-9.3c-1.6-2.8-4-5.2-6.8-6.8l-2.7-.7c-.3 1.2.2 2.5 1.3 3.2 4.9 2.8 7.9 8 7.9 13.6 0 2.8-.7 5.5-2.1 7.9-2.8 4.9-8 7.9-13.6 7.9-2.8 0-5.5-.7-7.9-2.1-1.3-.7-2.9-.4-3.8.8.7.6 1.5 1.1 2.3 1.6l9.3 2.5c3.4 0 6.5-.9 9.3-2.5l6.8-6.8c1.6-2.8 2.5-5.9 2.5-9.3z" fill="#35404a"/><g id="XMLID_1512_"><path id="XMLID_1514_" class="st6" d="M30.7 18.8c-.6 1.3-.2 2.9 1.1 3.7l1.4-2.5c-.7-.5-1.6-.9-2.5-1.2z"/><path id="XMLID_1513_" class="st6" d="M16.1 49.7l-1.4 2.5c2.7 1.6 5.9 2.5 9.3 2.5v-2.8c-2.8-.1-5.5-.8-7.9-2.2z"/></g><path id="XMLID_1511_" d="M33.3 52.2c2.8-1.6 5.2-4 6.8-6.8L37.6 44c-1.4 2.4-3.4 4.4-5.8 5.7l1.5 2.5z" fill="#00bd4f"/><path id="XMLID_1510_" class="st6" d="M37.6 28.2c1.4 2.4 2.1 5.1 2.1 7.9h2.8c0-3.4-.9-6.5-2.5-9.3l-2.4 1.4z"/><path id="XMLID_1509_" class="st0" d="M24 43.3c-3.9 0-7.2-3.2-7.2-7.2s3.2-7.2 7.2-7.2 7.2 3.2 7.2 7.2-3.3 7.2-7.2 7.2z"/><path id="XMLID_1508_" class="st1" d="M31.2 36.1c0-3-1.9-5.6-4.5-6.7-.7 1.1-.6 2.6.4 3.6 1.7 1.7 1.7 4.5 0 6.2-1.7 1.7-4.5 1.7-6.2 0-1-1-2.5-1.1-3.6-.4 1.1 2.6 3.7 4.5 6.7 4.5 3.9 0 7.2-3.2 7.2-7.2z"/><g id="XMLID_1506_"><path id="XMLID_1507_" d="M27.7 34.8c-.5 0-.9.2-1.1.6h-1.9v-1.9c.4-.2.6-.7.6-1.1 0-.7-.6-1.3-1.3-1.3s-1.3.6-1.3 1.3c0 .5.2.9.6 1.1v1.9h-1.9c-.2-.4-.7-.6-1.1-.6-.7 0-1.3.6-1.3 1.3 0 .7.6 1.3 1.3 1.3.5 0 .9-.2 1.1-.6h1.9v1.9c-.4.2-.6.7-.6 1.1 0 .7.6 1.3 1.3 1.3.7 0 1.3-.6 1.3-1.3 0-.5-.2-.9-.6-1.1v-1.9h1.9c.2.4.7.6 1.1.6.7 0 1.3-.6 1.3-1.3 0-.7-.6-1.3-1.3-1.3z" fill="#fff9eb"/></g></g><g id="XMLID_1501_"><circle id="XMLID_1504_" class="st9" cx="36" cy="16" r="7.9"/><path id="XMLID_1503_" class="st10" d="M42.4 11.4c.2.7.3 1.5.3 2.3 0 5.1-4.1 9.2-9.2 9.2-.6 0-1.2-.1-1.8-.2 1.2.8 2.7 1.3 4.3 1.3 4.4 0 7.9-3.5 7.9-7.9 0-1.8-.6-3.4-1.5-4.7z"/><path id="XMLID_1502_" class="st11" d="M33.1 16c-.4-1.1-1.3-1.9-2.3-2.3-.1-.1-.1-.3 0-.3 1.1-.4 1.9-1.3 2.3-2.3.1-.1.3-.1.3 0 .4 1.1 1.3 1.9 2.3 2.3.1.1.1.3 0 .3-1.1.4-1.9 1.3-2.3 2.3 0 .2-.2.2-.3 0z"/></g><g id="XMLID_1497_"><circle id="XMLID_1500_" class="st9" cx="22.8" cy="5.3" r="4.9"/><path id="XMLID_1499_" class="st10" d="M26.8 2.4c.1.5.2.9.2 1.4 0 3.2-2.6 5.7-5.7 5.7-.4 0-.8 0-1.1-.1.8.5 1.7.8 2.7.8 2.7 0 4.9-2.2 4.9-4.9-.1-1.1-.4-2.1-1-2.9z"/><path id="XMLID_1498_" class="st11" d="M20.4 5.2c-.2-.6-.7-1.1-1.3-1.3-.1 0-.1-.2 0-.2.6-.2 1.1-.7 1.3-1.3 0-.1.2-.1.2 0 .2.6.7 1.1 1.3 1.3.1 0 .1.2 0 .2-.6.2-1.1.7-1.3 1.3-.1.1-.2.1-.2 0z"/></g></g></svg>