<svg xmlns="http://www.w3.org/2000/svg" viewBox="0 0 82 82"><linearGradient id="a" gradientUnits="userSpaceOnUse" x1="53.305" y1="55.505" x2="-59.331" y2="-57.131" gradientTransform="matrix(1 0 0 -1 0 84)"><stop offset="0" stop-color="#a840cc"/><stop offset="1" stop-color="#6427bd"/></linearGradient><circle fill="url(#a)" cx="40.8" cy="41" r="38.4"/><linearGradient id="b" gradientUnits="userSpaceOnUse" x1="22.7" y1="46.6" x2="79.224" y2="46.6" gradientTransform="matrix(1 0 0 -1 0 84)"><stop offset="0" stop-color="#a840cc"/><stop offset="1" stop-color="#6427bd"/></linearGradient><path fill="url(#b)" d="M53.8 32L38.5 16.7 22.7 32.5l21.8 21.8L56 42.8l15.3 15.3 6.8-6.8c.7-3 1.2-6.1 1.2-9.3 0-2.9-.3-5.8-1-8.5l-13-13L53.8 32z"/><path fill="#EDEBE8" d="M43.9 50.8l-17.7 4.5c-2 .5-4-.7-4.5-2.7l-7-27.9c-.5-2 .7-4 2.7-4.5L35 15.7c2-.5 4 .7 4.5 2.7l7 27.9c.6 2-.6 4-2.6 4.5z"/><path fill="#F7F5F0" d="M32.9 16.3l-15.6 3.9c-2 .5-3.2 2.5-2.7 4.5l6.9 27.2c3.5-1.9 6.7-5.1 9.1-9.2 1.4-2.4 2.6-5.1 3.3-8.1.7-2.9 1.1-5.7 1.1-8.4-.2-3.6-.8-7-2.1-9.9z"/><path fill="#646484" d="M38.9 31.9c-2.7-3.1-6.4-4.2-8.4-4.6-.8-.1-1.3-.2-1.3-.2-.3 0-.6.1-.9.2-.3.2-5.1 3.3-6.3 8.9-.7 3.2.9 6.5 3.7 7.5.2.1.3.1.5.2 1.6.4 3.8-.1 5.5-1.9 0 1.5-.4 3.2-2.2 4.1-.3.1-.1.6.2.6l3.5-.9.4-.1 3.5-.9c.3-.1.2-.6-.1-.6-2 .1-3.2-1.3-3.9-2.6 2.6.9 5 0 6.2-1.3 1.9-2.2 1.7-5.9-.4-8.4z"/><path fill="#494970" d="M38.9 31.9c-1.2-1.4-2.6-2.4-4-3.1-.1 1.9-.4 3.8-.9 5.8-.8 3-1.9 5.7-3.3 8.1-.1.1-.1.2-.2.3.4-.3.9-.6 1.2-1 0 1.5-.4 3.2-2.2 4.1-.3.1-.1.6.2.6l3.5-.9.4-.1 3.5-.9c.3-.1.2-.6-.1-.6-2 .1-3.2-1.3-3.9-2.6 2.6.9 5 0 6.2-1.3 1.9-2.2 1.7-5.9-.4-8.4z"/><path fill="#FFF" d="M27.3 34.4c-.4-.6-1.1-.9-1.8-1-.1 0-.1-.1-.1-.2.6-.4.9-1.1 1-1.8 0-.1.1-.1.2-.1.4.6 1.1.9 1.8 1 .1 0 .1.1.1.2-.6.4-.9 1.1-1 1.8 0 .1-.1.1-.2.1z"/><path fill="#EDEBE8" d="M58.2 55.3l-18.1-2.7c-2-.3-3.4-2.2-3.1-4.2L41.2 20c.3-2 2.2-3.4 4.2-3.1l18 2.7c2 .3 3.4 2.2 3.1 4.2l-4.2 28.4c-.2 2-2.1 3.4-4.1 3.1z"/><path fill="#F7F5F0" d="M61.3 19.3L45.4 17c-2-.3-3.9 1.1-4.2 3.1l-4.1 27.8c4-.4 8.2-2.1 12-5 2.2-1.7 4.3-3.8 6.1-6.2s3.2-4.9 4.2-7.4c1.3-3.4 1.9-6.8 1.9-10z"/><path fill="#FF5368" d="M59.8 29.6c-.1-.1-.3-.2-.4-.3-1.5-1.1-3.9-1.5-6.7.3-2.4-2.7-5-2.9-6.8-2-2.7 1.3-3.9 4.8-2.9 7.9 1.3 3.9 4.3 6.3 6 7.4.6.4 1.1.7 1.2.7.3.1.6.2.9.1.2 0 6-1.1 9.2-5.7 1.9-2.8 1.7-6.4-.5-8.4z"/><path fill="#FFF" d="M47.3 32.9c-.2-.7-.6-1.3-1.2-1.6-.1-.1-.1-.2 0-.2.7-.2 1.3-.6 1.6-1.2.1-.1.2-.1.2 0 .2.7.6 1.3 1.2 1.6.1.1.1.2 0 .2-.7.2-1.3.6-1.6 1.2-.1.1-.2.1-.2 0z"/><path fill="#D63C61" d="M49.1 42.8c.6.4 1.1.7 1.2.7.3.1.6.2.9.1.2 0 6-1.1 9.2-5.7 1.9-2.7 1.7-6.4-.5-8.4-.1-.1-.3-.2-.4-.3-1 2.5-2.4 5-4.2 7.4-1.9 2.5-4 4.6-6.2 6.2z"/><path opacity=".16" d="M40.7 23.2l-9.2 29 5-1.3z"/><path fill="#D91324" d="M73 78.1c-20.8-6.8-43.3-6.8-64.1 0l-9-27.6c26.6-8.7 55.4-8.7 82 0C79 59.7 76 68.9 73 78.1z"/><path d="M22 54l2.1 13.7-4.6.7L18 58.2l-2.4.4-.5-3.5L22 54zm6.2 12.7c-1-.5-1.8-1.3-2.4-2.3-.6-1-1-2.3-1.1-3.8s.1-2.8.5-3.9c.5-1.1 1.1-2 2-2.7.9-.6 2-1 3.2-1.1s2.3.1 3.3.6 1.8 1.3 2.4 2.3c.6 1 1 2.3 1.1 3.8s-.1 2.8-.5 3.9c-.5 1.1-1.1 2-2 2.7-.9.6-2 1-3.2 1.1-1.2.1-2.4-.1-3.3-.6zm4.3-6.7c-.2-2.3-.8-3.5-1.8-3.4-1.1.1-1.5 1.3-1.3 3.6s.8 3.5 1.8 3.4c1.1-.1 1.5-1.3 1.3-3.6zm8.7 6.1c-.9-.6-1.7-1.4-2.2-2.5s-.8-2.4-.7-3.9c0-1.5.3-2.8.9-3.9.6-1.1 1.3-1.9 2.3-2.5s2-.8 3.3-.8c1.2 0 2.3.3 3.2.9.9.6 1.7 1.4 2.2 2.5s.8 2.4.7 3.9c0 1.5-.3 2.8-.9 3.9-.6 1.1-1.3 1.9-2.3 2.5-1 .6-2 .8-3.3.8-1.2 0-2.3-.3-3.2-.9zm5-6.3c0-2.3-.5-3.5-1.5-3.5-1.1 0-1.6 1.1-1.7 3.5 0 2.3.5 3.5 1.5 3.5 1.1 0 1.6-1.2 1.7-3.5zm6.6-.3c-.6-.8-.8-1.8-.7-2.9.1-.8.3-1.5.7-2s.9-.9 1.5-1.2c.6-.2 1.2-.3 1.9-.2s1.3.3 1.8.7.9.9 1.1 1.5c.2.6.3 1.3.2 2.1-.2 1.2-.6 2.1-1.4 2.7-.8.6-1.7.8-2.8.7-.8-.2-1.7-.7-2.3-1.4zm11.6-5.1l3.3.4-11.2 12.6-3.3-.4 11.2-12.6zm-8.1 4c.2-.2.3-.7.4-1.3.1-.6.1-1-.1-1.3-.1-.3-.3-.5-.6-.5-.2 0-.5.1-.7.3s-.3.7-.4 1.3c-.1.6-.1 1 .1 1.3.1.3.3.5.6.5s.5-.1.7-.3zm5.8 8.9c-.6-.8-.8-1.8-.7-2.9.1-.8.3-1.5.7-2s.9-.9 1.5-1.1c.6-.2 1.2-.3 1.9-.2s1.3.3 1.8.7.9.9 1.1 1.5.3 1.3.2 2.1c-.2 1.2-.6 2.1-1.4 2.7s-1.7.8-2.8.7c-.9-.3-1.7-.8-2.3-1.5zm3.5-1.1c.2-.2.3-.7.4-1.3.1-.6.1-1-.1-1.3-.1-.3-.3-.5-.6-.5-.2 0-.5.1-.7.3s-.3.7-.4 1.3-.1 1 .1 1.3c.1.3.3.5.6.5.2 0 .5-.1.7-.3z" fill="#AD051A"/><path d="M21.1 53.1l2.1 13.7-4.6.8L17 57.3l-2.4.4-.5-3.5 7-1.1zm6.2 12.7c-1-.5-1.8-1.3-2.4-2.3s-1-2.3-1.1-3.8.1-2.8.5-3.9c.5-1.1 1.1-2 2-2.7.9-.6 2-1 3.2-1.1s2.3.1 3.3.6 1.8 1.3 2.4 2.3c.6 1 1 2.3 1.1 3.8s-.1 2.8-.5 3.9c-.5 1.1-1.1 2-2 2.7-.9.6-2 1-3.2 1.1-1.2.1-2.4-.1-3.3-.6zm4.3-6.7c-.2-2.3-.8-3.5-1.8-3.4s-1.5 1.3-1.3 3.6.8 3.5 1.8 3.4c1.1-.1 1.5-1.3 1.3-3.6zm8.7 6.1c-.9-.6-1.7-1.4-2.2-2.5s-.8-2.4-.7-3.9c0-1.5.3-2.8.9-3.9.6-1.1 1.3-1.9 2.3-2.5s2-.8 3.3-.8c1.2 0 2.3.3 3.2.9.9.6 1.7 1.4 2.2 2.5s.8 2.4.7 3.9c0 1.5-.3 2.8-.9 3.9-.6 1.1-1.3 1.9-2.3 2.5-1 .6-2 .8-3.3.8-1.2 0-2.3-.3-3.2-.9zm5-6.3c0-2.3-.5-3.5-1.5-3.5-1.1 0-1.6 1.1-1.7 3.5 0 2.3.5 3.5 1.5 3.5 1.1 0 1.6-1.2 1.7-3.5zm6.6-.3c-.6-.8-.8-1.8-.7-2.9.1-.8.3-1.5.7-2s.9-.9 1.5-1.2c.6-.2 1.2-.3 1.9-.2s1.3.3 1.8.7.9.9 1.1 1.5c.2.6.3 1.3.2 2.1-.2 1.2-.6 2.1-1.4 2.7-.8.6-1.7.8-2.8.7-.8-.2-1.7-.7-2.3-1.4zm11.6-5.1l3.3.4-11.2 12.6-3.3-.4 11.2-12.6zm-8.1 4c.2-.2.3-.7.4-1.3.1-.6.1-1-.1-1.3-.1-.3-.3-.5-.6-.5s-.5.1-.7.3-.3.7-.4 1.3c-.1.6-.1 1 .1 1.3.1.3.3.5.6.5s.5-.1.7-.3zm5.8 8.9c-.6-.8-.8-1.8-.7-2.9.1-.8.3-1.5.7-2s.9-.9 1.5-1.1c.6-.2 1.2-.3 1.9-.2s1.3.3 1.8.7.9.9 1.1 1.5.3 1.3.2 2.1c-.2 1.2-.6 2.1-1.4 2.7-.8.6-1.7.8-2.8.7-.9-.3-1.7-.8-2.3-1.5zm3.5-1.1c.2-.2.3-.7.4-1.3s.1-1-.1-1.3c-.1-.3-.3-.5-.6-.5-.2 0-.5.1-.7.3s-.3.7-.4 1.3c-.1.6-.1 1 .1 1.3.1.3.3.5.6.5.2 0 .5-.1.7-.3z" fill="#FFF"/></svg>