<?xml version="1.0" encoding="utf-8"?>
<!-- Generator: Adobe Illustrator 22.1.0, SVG Export Plug-In . SVG Version: 6.00 Build 0)  -->
<svg version="1.1" id="Слой_1" xmlns="http://www.w3.org/2000/svg" xmlns:xlink="http://www.w3.org/1999/xlink" x="0px" y="0px"
	 viewBox="0 0 100 100" style="enable-background:new 0 0 100 100;" xml:space="preserve">
<style type="text/css">
	.st0{fill:url(#XMLID_3_);}
	.st1{fill:#FFFFFF;}
	.st2{fill:url(#SVGID_1_);}
	.st3{fill:#494970;}
	.st4{fill:#F7F3F0;}
	.st5{fill:#006A63;}
	.st6{fill:#FF5368;}
	.st7{fill:#4D5967;}
	.st8{fill:#B00000;}
	.st9{fill:#FF0000;}
	.st10{fill:#F91DA4;}
	.st11{fill:#F977A4;}
	.st12{fill:#FECD48;}
	.st13{fill:#FFB635;}
</style>
<g>
	<g id="XMLID_147_">
		<linearGradient id="XMLID_3_" gradientUnits="userSpaceOnUse" x1="82.9446" y1="12.6309" x2="6.4012" y2="89.1743">
			<stop  offset="0" style="stop-color:#FECD48"/>
			<stop  offset="1" style="stop-color:#FE9748"/>
		</linearGradient>
		<path id="XMLID_148_" class="st0" d="M50,90.3L21.9,76.3l-6.4-55h69l-6.4,55L50,90.3z M31.4,69.6L50,79l18.6-9.3l4.4-38.2H26.9
			L31.4,69.6z"/>
	</g>
	<polygon id="XMLID_146_" class="st1" points="32.9,68.5 50,77 67.1,68.5 71.1,33.5 28.9,33.5 	"/>
	<g>
		<linearGradient id="SVGID_1_" gradientUnits="userSpaceOnUse" x1="10.286" y1="51.8853" x2="62.9192" y2="51.8853">
			<stop  offset="0" style="stop-color:#A840CC"/>
			<stop  offset="1" style="stop-color:#6427BD"/>
		</linearGradient>
		<path class="st2" d="M71.2,75.2H28.9c-2.8,0-5.1-2.3-5.1-5.1V33.7c0-2.8,2.3-5.1,5.1-5.1h42.4c2.8,0,5.1,2.3,5.1,5.1v36.4
			C76.4,72.9,74.1,75.2,71.2,75.2z"/>
		<path class="st3" d="M69.2,53.4H30.9c-1.8,0-3.2-1.4-3.2-3.2V31.7c0-1.8,1.4-3.2,3.2-3.2h38.3c1.8,0,3.2,1.4,3.2,3.2v18.5
			C72.4,52,71,53.4,69.2,53.4z"/>
		<g>
			<g>
				<g>
					<g>
						<g>
							<g>
								<path class="st4" d="M40.2,51.4h-7.7c-1.4,0-2.5-1.1-2.5-2.5V36.6c0-1.3,1-2.3,2.3-2.3h8.1c1.3,0,2.3,1,2.3,2.3v12.2
									C42.7,50.2,41.6,51.4,40.2,51.4z"/>
							</g>
						</g>
					</g>
				</g>
			</g>
		</g>
		<g>
			<path class="st5" d="M31.9,43.9c2,2,5.4,2,7.4,0c2-2,2-5.4,0-7.4L31.9,43.9z"/>
			<path class="st6" d="M32.8,43c1.6,1.6,4.1,1.6,5.7,0s1.6-4.1,0-5.7L32.8,43z"/>
			<g>
				<g>
					<path class="st7" d="M34.9,42.2c0-0.2,0.1-0.3,0.3-0.3s0.3,0.1,0.3,0.3s-0.1,0.6-0.3,0.6S34.9,42.4,34.9,42.2z"/>
				</g>
				<g>
					<path class="st7" d="M36.2,40.9c0-0.2,0.1-0.3,0.3-0.3c0.2,0,0.3,0.1,0.3,0.3c0,0.2-0.1,0.6-0.3,0.6
						C36.3,41.5,36.2,41.1,36.2,40.9z"/>
				</g>
				<g>
					<path class="st7" d="M37.5,39.6c0-0.2,0.1-0.3,0.3-0.3c0.2,0,0.3,0.1,0.3,0.3c0,0.2-0.1,0.6-0.3,0.6
						C37.6,40.2,37.5,39.8,37.5,39.6z"/>
				</g>
				<g>
					<path class="st7" d="M36.3,42.5c0-0.2,0.1-0.3,0.3-0.3c0.2,0,0.3,0.1,0.3,0.3c0,0.2-0.1,0.6-0.3,0.6
						C36.4,43.1,36.3,42.7,36.3,42.5z"/>
				</g>
				<g>
					<path class="st7" d="M37.6,41.2c0-0.2,0.1-0.3,0.3-0.3c0.2,0,0.3,0.1,0.3,0.3s-0.1,0.6-0.3,0.6C37.7,41.8,37.6,41.4,37.6,41.2z
						"/>
				</g>
			</g>
		</g>
		<g>
			<g>
				<g>
					<g>
						<g>
							<g>
								<path class="st4" d="M53.9,51.4h-7.7c-1.4,0-2.5-1.1-2.5-2.5V36.6c0-1.3,1-2.3,2.3-2.3h8.1c1.3,0,2.3,1,2.3,2.3v12.2
									C56.4,50.2,55.3,51.4,53.9,51.4z"/>
							</g>
						</g>
					</g>
				</g>
			</g>
		</g>
		<g>
			<path class="st5" d="M45,43.9c2,2,5.4,2,7.4,0c2-2,2-5.4,0-7.4L45,43.9z"/>
			<path class="st6" d="M45.9,43c1.6,1.6,4.1,1.6,5.7,0s1.6-4.1,0-5.7L45.9,43z"/>
			<g>
				<g>
					<path class="st7" d="M48,42.2c0-0.2,0.1-0.3,0.3-0.3s0.3,0.1,0.3,0.3s-0.1,0.6-0.3,0.6S48,42.4,48,42.2z"/>
				</g>
				<g>
					<path class="st7" d="M49.3,40.9c0-0.2,0.1-0.3,0.3-0.3c0.2,0,0.3,0.1,0.3,0.3c0,0.2-0.1,0.6-0.3,0.6
						C49.4,41.5,49.3,41.1,49.3,40.9z"/>
				</g>
				<g>
					<path class="st7" d="M50.6,39.6c0-0.2,0.1-0.3,0.3-0.3c0.2,0,0.3,0.1,0.3,0.3c0,0.2-0.1,0.6-0.3,0.6
						C50.7,40.2,50.6,39.8,50.6,39.6z"/>
				</g>
				<g>
					<path class="st7" d="M49.4,42.5c0-0.2,0.1-0.3,0.3-0.3c0.2,0,0.3,0.1,0.3,0.3c0,0.2-0.1,0.6-0.3,0.6
						C49.5,43.1,49.4,42.7,49.4,42.5z"/>
				</g>
				<g>
					<path class="st7" d="M50.7,41.2c0-0.2,0.1-0.3,0.3-0.3s0.3,0.1,0.3,0.3s-0.1,0.6-0.3,0.6S50.7,41.4,50.7,41.2z"/>
				</g>
			</g>
		</g>
		<g>
			<g>
				<g>
					<g>
						<g>
							<g>
								<path class="st4" d="M67.6,51.4h-7.7c-1.4,0-2.5-1.1-2.5-2.5V36.6c0-1.3,1-2.3,2.3-2.3h8.1c1.3,0,2.3,1,2.3,2.3v12.2
									C70.1,50.2,68.9,51.4,67.6,51.4z"/>
							</g>
						</g>
					</g>
				</g>
			</g>
		</g>
		<g>
			<path class="st5" d="M59.2,43.9c2,2,5.4,2,7.4,0c2-2,2-5.4,0-7.4L59.2,43.9z"/>
			<path class="st6" d="M60.1,43c1.6,1.6,4.1,1.6,5.7,0s1.6-4.1,0-5.7L60.1,43z"/>
			<g>
				<g>
					<path class="st7" d="M62.2,42.2c0-0.2,0.1-0.3,0.3-0.3s0.3,0.1,0.3,0.3s-0.1,0.6-0.3,0.6S62.2,42.4,62.2,42.2z"/>
				</g>
				<g>
					<path class="st7" d="M63.5,40.9c0-0.2,0.1-0.3,0.3-0.3c0.2,0,0.3,0.1,0.3,0.3c0,0.2-0.1,0.6-0.3,0.6
						C63.6,41.5,63.5,41.1,63.5,40.9z"/>
				</g>
				<g>
					<path class="st7" d="M64.8,39.6c0-0.2,0.1-0.3,0.3-0.3c0.2,0,0.3,0.1,0.3,0.3c0,0.2-0.1,0.6-0.3,0.6
						C64.9,40.2,64.8,39.8,64.8,39.6z"/>
				</g>
				<g>
					<path class="st7" d="M63.6,42.5c0-0.2,0.1-0.3,0.3-0.3c0.2,0,0.3,0.1,0.3,0.3c0,0.2-0.1,0.6-0.3,0.6
						C63.8,43.1,63.6,42.7,63.6,42.5z"/>
				</g>
				<g>
					<path class="st7" d="M64.9,41.2c0-0.2,0.1-0.3,0.3-0.3s0.3,0.1,0.3,0.3s-0.1,0.6-0.3,0.6S64.9,41.4,64.9,41.2z"/>
				</g>
			</g>
		</g>
	</g>
	<g>
		<g id="XMLID_142_">
			<g>
				<path id="XMLID_11_" class="st8" d="M10,71.9c11.3-1.9,25.9-2.6,40-1.9c14.5,0.8,29.1,3,39.2,6l6.2-20.8
					c-11.6-3.5-28.1-6.1-44.2-6.9L10,71.9z"/>
			</g>
		</g>
		<g id="XMLID_138_">
			<g>
				<path id="XMLID_10_" class="st9" d="M9.5,73.1c11.2-2.6,25.7-4,39.8-4c14.5,0,29.3,1.5,39.4,3.9L93.8,52
					c-11.8-2.8-28.4-4.5-44.5-4.5C33.4,47.4,17.5,49,4.6,52L9.5,73.1z"/>
			</g>
		</g>
	</g>
	<g>
		<path class="st10" d="M67.4,9.7H32.6c-2.3,0-4.2,1.9-4.2,4.2v11.5c0,2.3,1.9,4.2,4.2,4.2h13.5l3.9,4l3.9-4h13.5
			c2.3,0,4.2-1.9,4.2-4.2V13.9C71.6,11.5,69.7,9.7,67.4,9.7z"/>
		<path class="st11" d="M66.8,12.9H45.9c-0.9,0-1.6-0.7-1.6-1.6v0c0-0.9,0.7-1.6,1.6-1.6h20.9c0.9,0,1.6,0.7,1.6,1.6v0
			C68.4,12.2,67.7,12.9,66.8,12.9z"/>
		<g>
			<g>
				<g id="XMLID_134_">
					<path id="XMLID_137_" class="st12" d="M36.4,23.5l2-1c0.2-0.1,0.4-0.1,0.5,0l2,1c0.4,0.2,0.9-0.1,0.9-0.6l-0.4-2.2
						c0-0.2,0-0.4,0.2-0.5l1.6-1.6c0.3-0.4,0.2-1-0.3-1l-2.2-0.3c-0.2,0-0.4-0.2-0.4-0.3l-1-2c-0.2-0.4-0.8-0.4-1.1,0l-1,2
						c-0.1,0.2-0.3,0.3-0.4,0.3l-2.2,0.3c-0.5,0.1-0.7,0.7-0.3,1l1.6,1.6c0.1,0.1,0.2,0.3,0.2,0.5l-0.4,2.2
						C35.5,23.4,36,23.8,36.4,23.5z"/>
					<path id="XMLID_136_" class="st13" d="M39.6,18c-0.4-1.1-0.9-2-1.6-2.8l0.1-0.3c0.2-0.4,0.8-0.4,1.1,0l1,2
						c0.1,0.2,0.3,0.3,0.4,0.3l2.2,0.3c0.5,0.1,0.7,0.7,0.3,1l-1.6,1.6c-0.1,0.1-0.2,0.3-0.2,0.5l0.4,2.2c0.1,0.5-0.4,0.9-0.9,0.6
						l-1-0.5C40.3,21.4,40.2,19.6,39.6,18z"/>
					<path id="XMLID_135_" class="st12" d="M38.4,22.5l-2,1c-0.4,0.2-0.9-0.1-0.9-0.6l0.4-2.2c0-0.2,0-0.4-0.2-0.5l-1.6-1.6
						c-0.4-0.3-0.2-1,0.3-1l2.2-0.3c0.2,0,0.4-0.2,0.4-0.3l0.8-1.7c0.7,0.8,1.3,1.7,1.6,2.8c0.6,1.7,0.7,3.4,0.3,5l-1-0.5
						C38.8,22.4,38.6,22.4,38.4,22.5z"/>
				</g>
				<path id="XMLID_133_" class="st1" d="M36.8,19.2c-0.2-0.3-0.4-0.5-0.7-0.5c0,0-0.1-0.1,0-0.1c0.3-0.2,0.4-0.4,0.5-0.7
					c0,0,0.1-0.1,0.1,0c0.2,0.3,0.4,0.5,0.7,0.5c0,0,0.1,0.1,0,0.1C37.2,18.6,37,18.9,36.8,19.2C36.9,19.2,36.8,19.2,36.8,19.2z"/>
			</g>
			<g>
				<g id="XMLID_129_">
					<path id="XMLID_132_" class="st12" d="M47.8,23.5l2-1c0.2-0.1,0.4-0.1,0.5,0l2,1c0.4,0.2,0.9-0.1,0.9-0.6l-0.4-2.2
						c0-0.2,0-0.4,0.2-0.5l1.6-1.6c0.3-0.4,0.2-1-0.3-1L52,17.2c-0.2,0-0.4-0.2-0.4-0.3l-1-2c-0.2-0.4-0.8-0.4-1.1,0l-1,2
						c-0.1,0.2-0.3,0.3-0.4,0.3l-2.2,0.3c-0.5,0.1-0.7,0.7-0.3,1l1.6,1.6c0.1,0.1,0.2,0.3,0.2,0.5l-0.4,2.2
						C46.8,23.4,47.3,23.8,47.8,23.5z"/>
					<path id="XMLID_131_" class="st13" d="M51,18c-0.4-1.1-0.9-2-1.6-2.8l0.1-0.3c0.2-0.4,0.8-0.4,1.1,0l1,2
						c0.1,0.2,0.3,0.3,0.4,0.3l2.2,0.3c0.5,0.1,0.7,0.7,0.3,1l-1.6,1.6c-0.1,0.1-0.2,0.3-0.2,0.5l0.4,2.2c0.1,0.5-0.4,0.9-0.9,0.6
						l-1-0.5C51.6,21.4,51.6,19.6,51,18z"/>
					<path id="XMLID_130_" class="st12" d="M49.7,22.5l-2,1c-0.4,0.2-0.9-0.1-0.9-0.6l0.4-2.2c0-0.2,0-0.4-0.2-0.5l-1.6-1.6
						c-0.4-0.3-0.2-1,0.3-1l2.2-0.3c0.2,0,0.4-0.2,0.4-0.3l0.8-1.7C50,16,50.6,16.9,51,18c0.6,1.7,0.7,3.4,0.3,5l-1-0.5
						C50.1,22.4,49.9,22.4,49.7,22.5z"/>
				</g>
				<path id="XMLID_128_" class="st1" d="M48.2,19.2c-0.2-0.3-0.4-0.5-0.7-0.5c0,0-0.1-0.1,0-0.1c0.3-0.2,0.4-0.4,0.5-0.7
					c0,0,0.1-0.1,0.1,0c0.2,0.3,0.4,0.5,0.7,0.5c0,0,0.1,0.1,0,0.1C48.5,18.6,48.3,18.9,48.2,19.2C48.2,19.2,48.2,19.2,48.2,19.2z"
					/>
			</g>
			<g>
				<g id="XMLID_124_">
					<path id="XMLID_127_" class="st12" d="M59.1,23.5l2-1c0.2-0.1,0.4-0.1,0.5,0l2,1c0.4,0.2,0.9-0.1,0.9-0.6l-0.4-2.2
						c0-0.2,0-0.4,0.2-0.5l1.6-1.6c0.3-0.4,0.2-1-0.3-1l-2.2-0.3c-0.2,0-0.4-0.2-0.4-0.3l-1-2c-0.2-0.4-0.8-0.4-1.1,0l-1,2
						c-0.1,0.2-0.3,0.3-0.4,0.3l-2.2,0.3c-0.5,0.1-0.7,0.7-0.3,1l1.6,1.6c0.1,0.1,0.2,0.3,0.2,0.5l-0.4,2.2
						C58.2,23.4,58.7,23.8,59.1,23.5z"/>
					<path id="XMLID_126_" class="st13" d="M62.3,18c-0.4-1.1-0.9-2-1.6-2.8l0.1-0.3c0.2-0.4,0.8-0.4,1.1,0l1,2
						c0.1,0.2,0.3,0.3,0.4,0.3l2.2,0.3c0.5,0.1,0.7,0.7,0.3,1l-1.6,1.6c-0.1,0.1-0.2,0.3-0.2,0.5l0.4,2.2c0.1,0.5-0.4,0.9-0.9,0.6
						l-1-0.5C63,21.4,62.9,19.6,62.3,18z"/>
					<path id="XMLID_125_" class="st12" d="M61.1,22.5l-2,1c-0.4,0.2-0.9-0.1-0.9-0.6l0.4-2.2c0-0.2,0-0.4-0.2-0.5l-1.6-1.6
						c-0.4-0.3-0.2-1,0.3-1l2.2-0.3c0.2,0,0.4-0.2,0.4-0.3l0.8-1.7c0.7,0.8,1.3,1.7,1.6,2.8c0.6,1.7,0.7,3.4,0.3,5l-1-0.5
						C61.4,22.4,61.2,22.4,61.1,22.5z"/>
				</g>
				<path id="XMLID_122_" class="st1" d="M59.5,19.2c-0.2-0.3-0.4-0.5-0.7-0.5c0,0-0.1-0.1,0-0.1c0.3-0.2,0.4-0.4,0.5-0.7
					c0,0,0.1-0.1,0.1,0c0.2,0.3,0.4,0.5,0.7,0.5c0,0,0.1,0.1,0,0.1C59.8,18.6,59.7,18.9,59.5,19.2C59.6,19.2,59.5,19.2,59.5,19.2z"
					/>
			</g>
		</g>
	</g>
	<g id="XMLID_117_">
		<g>
			<g>
				<path class="st1" d="M21.3,62.8c-0.5-0.2-0.9-0.5-1.3-0.9c-0.3-0.4-0.5-0.9-0.6-1.4s0-1.1,0.2-1.5c0.2-0.5,0.5-0.9,1-1.2
					c0.4-0.3,1-0.5,1.6-0.6s1.2,0,1.7,0.1c0.5,0.2,0.9,0.5,1.3,0.9c0.3,0.4,0.5,0.9,0.6,1.4c0.1,0.6,0,1.1-0.2,1.5s-0.5,0.9-1,1.2
					c-0.4,0.3-1,0.5-1.6,0.6C22.4,63,21.8,62.9,21.3,62.8z M23.3,61.1c0.2-0.1,0.3-0.3,0.4-0.5c0.1-0.2,0.1-0.5,0.1-0.8
					c0-0.3-0.1-0.5-0.3-0.7c-0.1-0.2-0.3-0.3-0.5-0.4c-0.2-0.1-0.4-0.1-0.7-0.1c-0.2,0-0.4,0.1-0.6,0.3c-0.2,0.1-0.3,0.3-0.4,0.5
					c-0.1,0.2-0.1,0.5-0.1,0.8c0,0.3,0.1,0.5,0.3,0.7s0.3,0.3,0.5,0.4c0.2,0.1,0.4,0.1,0.7,0.1C23,61.4,23.2,61.3,23.3,61.1z"/>
				<path class="st1" d="M31.6,56.2l0.6,5.6l-1.5,0.2l-2.4-2.3l0.3,2.5l-1.8,0.2l-0.6-5.6l1.5-0.2l2.4,2.3l-0.3-2.5L31.6,56.2z"/>
				<path class="st1" d="M32.6,56.1l1.9-0.1l0.3,4.1l2.5-0.2l0.1,1.5L33,61.7L32.6,56.1z"/>
				<path class="st1" d="M37.6,55.7l1.9-0.1l0.3,5.6L38,61.3L37.6,55.7z"/>
				<path class="st1" d="M46.1,55.4l0.2,5.6L44.7,61l-2.2-2.5l0.1,2.5l-1.8,0.1l-0.2-5.6l1.6-0.1l2.2,2.5l-0.1-2.5L46.1,55.4z"/>
				<path class="st1" d="M51.8,59.5l0,1.4l-4.7,0l0-5.6l4.6,0l0,1.4l-2.7,0l0,0.7l2.4,0l0,1.4l-2.4,0l0,0.7L51.8,59.5z"/>
				<path class="st1" d="M55.6,60.9c-0.4-0.1-0.8-0.3-1.1-0.5l0.6-1.4c0.3,0.2,0.6,0.3,0.9,0.4c0.3,0.1,0.6,0.2,0.9,0.2
					c0.3,0,0.4,0,0.6-0.1c0.1,0,0.2-0.1,0.2-0.2c0-0.1-0.1-0.2-0.2-0.3c-0.1-0.1-0.4-0.1-0.7-0.2c-0.4-0.1-0.8-0.2-1.1-0.3
					c-0.3-0.1-0.5-0.3-0.7-0.5c-0.2-0.2-0.3-0.6-0.3-1c0-0.4,0.1-0.7,0.3-1s0.5-0.5,0.9-0.7s0.9-0.2,1.4-0.2c0.4,0,0.8,0.1,1.1,0.2
					c0.4,0.1,0.7,0.2,1,0.4l-0.6,1.4c-0.5-0.3-1.1-0.4-1.5-0.5c-0.5,0-0.7,0.1-0.7,0.3c0,0.1,0.1,0.2,0.2,0.3
					c0.1,0.1,0.4,0.1,0.7,0.2c0.4,0.1,0.8,0.2,1.1,0.3c0.3,0.1,0.5,0.3,0.7,0.5c0.2,0.2,0.3,0.6,0.3,1c0,0.4-0.1,0.7-0.3,0.9
					c-0.2,0.3-0.5,0.5-0.9,0.7s-0.9,0.2-1.4,0.2C56.5,61.1,56,61.1,55.6,60.9z"/>
				<path class="st1" d="M60.4,55.5l1.9,0.1L62,59.7l2.5,0.1l-0.1,1.5l-4.4-0.2L60.4,55.5z"/>
				<path class="st1" d="M66.2,61.2c-0.5-0.3-0.8-0.7-1-1.1c-0.2-0.5-0.3-1-0.3-1.5c0-0.6,0.2-1,0.5-1.5c0.3-0.4,0.7-0.7,1.2-1
					c0.5-0.2,1-0.3,1.6-0.2c0.6,0,1.1,0.2,1.6,0.5c0.5,0.3,0.8,0.7,1,1.1c0.2,0.5,0.3,1,0.3,1.5c0,0.6-0.2,1-0.5,1.5s-0.7,0.7-1.2,1
					s-1,0.3-1.6,0.2S66.7,61.5,66.2,61.2z M68.6,60.1c0.2-0.1,0.4-0.2,0.5-0.5c0.1-0.2,0.2-0.4,0.2-0.7c0-0.3,0-0.5-0.1-0.8
					c-0.1-0.2-0.2-0.4-0.4-0.5c-0.2-0.1-0.4-0.2-0.6-0.2c-0.2,0-0.4,0-0.6,0.1c-0.2,0.1-0.4,0.2-0.5,0.5c-0.1,0.2-0.2,0.4-0.2,0.7
					c0,0.3,0,0.5,0.1,0.8c0.1,0.2,0.2,0.4,0.4,0.5s0.4,0.2,0.6,0.2C68.1,60.2,68.4,60.2,68.6,60.1z"/>
				<path class="st1" d="M73.2,57.9l-1.6-0.2l0.2-1.5l5.1,0.6l-0.2,1.5L75,58.1l-0.4,4.1L72.7,62L73.2,57.9z"/>
				<path class="st1" d="M77.4,62.5c-0.4-0.2-0.8-0.4-1-0.6l0.8-1.3c0.2,0.2,0.5,0.4,0.8,0.5s0.6,0.2,0.9,0.3c0.3,0,0.4,0,0.6,0
					s0.2-0.1,0.2-0.2c0-0.1,0-0.2-0.2-0.3s-0.4-0.2-0.7-0.3c-0.4-0.1-0.8-0.3-1-0.4c-0.3-0.1-0.5-0.3-0.7-0.6
					c-0.2-0.3-0.2-0.6-0.2-1c0-0.3,0.2-0.7,0.4-0.9s0.6-0.4,1-0.6s0.9-0.1,1.4-0.1c0.4,0.1,0.7,0.1,1.1,0.3s0.7,0.3,0.9,0.5L81,59.1
					c-0.5-0.3-1-0.6-1.5-0.6c-0.5-0.1-0.7,0-0.8,0.2c0,0.1,0,0.2,0.2,0.3c0.1,0.1,0.4,0.2,0.7,0.3c0.4,0.1,0.8,0.3,1,0.4
					c0.3,0.1,0.5,0.3,0.7,0.6s0.2,0.6,0.2,1c0,0.3-0.2,0.7-0.4,0.9s-0.6,0.4-1,0.6c-0.4,0.1-0.9,0.1-1.4,0.1
					C78.3,62.8,77.8,62.7,77.4,62.5z"/>
			</g>
		</g>
	</g>
</g>
</svg>
