<?xml version="1.0"?>
<svg xmlns="http://www.w3.org/2000/svg" xmlns:xlink="http://www.w3.org/1999/xlink" xmlns:svgjs="http://svgjs.com/svgjs" version="1.1" width="512" height="512" x="0" y="0" viewBox="0 0 512 512" style="enable-background:new 0 0 512 512" xml:space="preserve"><g><path xmlns="http://www.w3.org/2000/svg" d="m465.221 120.616c-7.32-67.701-65.696-120.616-136.399-120.616h-145.644c-70.703 0-129.079 52.915-136.399 120.616-26.441 3.981-46.779 26.85-46.779 54.384v282c0 30.327 24.673 55 55 55h402c30.327 0 55-24.673 55-55v-282c0-27.534-20.338-50.403-46.779-54.384zm16.779 336.384c0 13.785-11.215 25-25 25h-402c-13.785 0-25-11.215-25-25v-282c0-13.785 11.215-25 25-25h6 390 6c13.785 0 25 11.215 25 25zm-298.822-427h145.644c53.9 0 98.636 39.183 106.088 90h-357.82c7.452-50.817 52.188-90 106.088-90z" fill="#d84447" data-original="#000000" style=""/><path xmlns="http://www.w3.org/2000/svg" d="m436 181.05h-360c-8.284 0-15 6.716-15 15v180c0 8.284 6.716 15 15 15h360c8.284 0 15-6.716 15-15v-180c0-8.284-6.716-15-15-15zm-225 30h90v150h-90zm-120 0h90v150h-90zm330 150h-90v-150h90z" fill="#d84447" data-original="#000000" style=""/><path xmlns="http://www.w3.org/2000/svg" d="m155.318 260.465c-.652-1.422-2.072-2.333-3.636-2.333h-34.444c-2.209 0-4 1.791-4 4v8.681c0 2.209 1.791 4 4 4h18.665l-18.06 33.736c-.664 1.24-.628 2.737.095 3.943.723 1.207 2.025 1.945 3.432 1.945h11.901c1.496 0 2.867-.834 3.553-2.164l21.493-41.584c.565-1.093.596-2.385.083-3.503z" fill="#d84447" data-original="#000000" style=""/><path xmlns="http://www.w3.org/2000/svg" d="m275.318 260.465c-.652-1.422-2.072-2.333-3.636-2.333h-34.444c-2.209 0-4 1.791-4 4v8.681c0 2.209 1.791 4 4 4h18.665l-18.06 33.736c-.664 1.24-.628 2.737.095 3.943.723 1.207 2.025 1.945 3.432 1.945h11.901c1.496 0 2.867-.834 3.553-2.164l21.493-41.584c.565-1.093.596-2.385.083-3.503z" fill="#d84447" data-original="#000000" style=""/><path xmlns="http://www.w3.org/2000/svg" d="m357.238 274.812h18.665l-18.06 33.736c-.664 1.24-.628 2.737.095 3.943.723 1.207 2.025 1.945 3.432 1.945h11.901c1.496 0 2.867-.834 3.553-2.164l21.493-41.584c.565-1.093.596-2.385.083-3.503l-3.081-6.721c-.652-1.422-2.072-2.333-3.636-2.333h-34.444c-2.209 0-4 1.791-4 4v8.681c-.001 2.209 1.79 4 3.999 4z" fill="#d84447" data-original="#000000" style=""/><path xmlns="http://www.w3.org/2000/svg" d="m436 423h-360c-8.284 0-15 6.716-15 15s6.716 15 15 15h360c8.284 0 15-6.716 15-15s-6.716-15-15-15z" fill="#d84447" data-original="#000000" style=""/><circle xmlns="http://www.w3.org/2000/svg" cx="226" cy="75" r="15" fill="#d84447" data-original="#000000" style=""/><circle xmlns="http://www.w3.org/2000/svg" cx="166" cy="75" r="15" fill="#d84447" data-original="#000000" style=""/><circle xmlns="http://www.w3.org/2000/svg" cx="286" cy="75" r="15" fill="#d84447" data-original="#000000" style=""/><circle xmlns="http://www.w3.org/2000/svg" cx="346" cy="75" r="15" fill="#d84447" data-original="#000000" style=""/></g></svg>
