<?xml version="1.0"?>
<svg xmlns="http://www.w3.org/2000/svg" xmlns:xlink="http://www.w3.org/1999/xlink" xmlns:svgjs="http://svgjs.com/svgjs" version="1.1" width="512" height="512" x="0" y="0" viewBox="0 0 512 512.001" style="enable-background:new 0 0 512 512" xml:space="preserve" class=""><g><path xmlns="http://www.w3.org/2000/svg" d="m507.605469 236.453125-64.804688-64.804687 20.488281-76.457032c2.144532-8.003906-2.605468-16.226562-10.605468-18.371094l-165.617188-44.378906v-17.441406c0-8.285156-6.714844-15-15-15h-257.066406c-8.285156 0-15 6.714844-15 15v353.46875c0 8.28125 6.714844 15 15 15h97.3125l124.140625 124.136719c2.8125 2.816406 6.628906 4.394531 10.605469 4.394531 3.980468 0 7.796875-1.578125 10.609375-4.394531l67.859375-67.859375 27.90625 7.476562c1.277344.34375 2.582031.511719 3.882812.511719 2.609375 0 5.199219-.683594 7.5-2.011719 3.445313-1.988281 5.960938-5.265625 6.988282-9.105468l15.792968-58.941407 120.011719-120.011719c5.855469-5.855468 5.855469-15.351562-.003906-21.210937zm-220.539063-44.054687 2.003906-1.570313 18.28125 45.546875-20.285156 15.925781zm-257.066406-162.398438h227.066406v323.46875h-227.066406zm217.058594 445.785156-77.957032-77.953125 122.964844 32.945313zm99.652344-61.421875-115.300782-30.898437h40.65625c8.285156 0 15-6.714844 15-15v-78.023438l47.660156-37.414062c5.242188-4.117188 7.140626-11.203125 4.65625-17.386719l-29.921874-74.550781c-1.757813-4.382813-5.480469-7.679688-10.039063-8.902344-4.25-1.136719-8.753906-.328125-12.355469 2.144531v-90.832031l143.363282 38.414062zm56.417968-94.644531 30.707032-114.609375 41.949218 41.949219zm0 0" fill="#d84447" data-original="#000000" style="" class=""/><path xmlns="http://www.w3.org/2000/svg" d="m78.199219 95.332031v-32.132812c0-8.285157-6.714844-15-15-15-8.28125 0-15 6.714843-15 15v32.132812c0 8.285157 6.71875 15 15 15 8.285156 0 15-6.714843 15-15zm0 0" fill="#d84447" data-original="#000000" style="" class=""/><path xmlns="http://www.w3.org/2000/svg" d="m223.867188 273.132812c-8.285157 0-15 6.71875-15 15v32.132813c0 8.285156 6.714843 15 15 15 8.285156 0 15-6.714844 15-15v-32.132813c0-8.28125-6.714844-15-15-15zm0 0" fill="#d84447" data-original="#000000" style="" class=""/><path xmlns="http://www.w3.org/2000/svg" d="m335.4375 328.175781c-8-2.144531-16.226562 2.601563-18.371094 10.605469l-8.324218 31.039062c-2.144532 8 2.605468 16.226563 10.605468 18.371094 1.300782.351563 2.605469.519532 3.894532.519532 6.621093 0 12.683593-4.421876 14.480468-11.121094l8.320313-31.039063c2.144531-8.003906-2.601563-16.230469-10.605469-18.375zm0 0" fill="#d84447" data-original="#000000" style="" class=""/><path xmlns="http://www.w3.org/2000/svg" d="m202.339844 148.992188c-15.902344-15.902344-40.101563-18.589844-58.804688-8.058594-18.707031-10.53125-42.902344-7.847656-58.808594 8.058594-19.136718 19.140624-19.136718 50.277343 0 69.414062l48.199219 48.199219c2.929688 2.929687 6.769531 4.394531 10.605469 4.394531 3.839844 0 7.679688-1.464844 10.605469-4.394531l48.203125-48.199219c19.136718-19.136719 19.136718-50.273438 0-69.414062zm-21.210938 48.199218-37.59375 37.59375-37.59375-37.59375c-7.441406-7.4375-7.441406-19.546875 0-26.984375 7.433594-7.4375 19.539063-7.445312 26.984375 0 5.855469 5.859375 15.355469 5.855469 21.214844 0 7.4375-7.441406 19.546875-7.441406 26.984375 0 7.441406 7.441407 7.441406 19.546875.003906 26.984375zm0 0" fill="#d84447" data-original="#000000" style="" class=""/></g></svg>
