<?xml version="1.0"?>
<svg xmlns="http://www.w3.org/2000/svg" xmlns:xlink="http://www.w3.org/1999/xlink" xmlns:svgjs="http://svgjs.com/svgjs" version="1.1" width="512" height="512" x="0" y="0" viewBox="0 0 512 512" style="enable-background:new 0 0 512 512" xml:space="preserve" class=""><g><path xmlns="http://www.w3.org/2000/svg" d="m76 180h30v9.027344c-19.394531 21.574218-30 49.171875-30 78.398437v17.574219h30v-17.574219c0-23.351562 9.09375-45.304687 25.605469-61.820312l4.394531-4.390625v-51.214844h-90v45h30zm0 0" fill="#222222" data-original="#000000" style="" class=""/><path xmlns="http://www.w3.org/2000/svg" d="m241 195v-15h30v9.027344c-19.394531 21.574218-30 49.171875-30 78.398437v17.574219h30v-17.574219c0-23.351562 9.09375-45.304687 25.605469-61.820312l4.394531-4.390625v-51.214844h-90v45zm0 0" fill="#222222" data-original="#000000" style="" class=""/><path xmlns="http://www.w3.org/2000/svg" d="m406 195v-15h30v9.027344c-19.394531 21.570312-30 49.167968-30 78.398437v17.574219h30v-17.574219c0-23.351562 9.09375-45.304687 25.605469-61.820312l4.394531-4.390625v-51.214844h-90v45zm0 0" fill="#222222" data-original="#000000" style="" class=""/><path xmlns="http://www.w3.org/2000/svg" d="m0 420h512c0-12.460938 0-407.601562 0-420h-512zm482-330.011719v240.011719h-121v-240.011719zm-151 240.011719h-150v-240.011719h150zm-180 0h-121v-240.011719h121zm331 60h-452v-30h452zm0-360.011719v30.011719h-452v-30.011719zm0 0" fill="#222222" data-original="#000000" style="" class=""/></g></svg>
