<?xml version="1.0"?>
<svg xmlns="http://www.w3.org/2000/svg" xmlns:xlink="http://www.w3.org/1999/xlink" xmlns:svgjs="http://svgjs.com/svgjs" version="1.1" width="512" height="512" x="0" y="0" viewBox="0 0 512 512" style="enable-background:new 0 0 512 512" xml:space="preserve" class=""><g>
<g xmlns="http://www.w3.org/2000/svg">
	<g>
		<path d="M322.783,200.348H89.044c-9.22,0-16.696,7.475-16.696,16.696v144.696c0,9.22,7.475,16.696,16.696,16.696h233.739    c9.22,0,16.696-7.475,16.696-16.696V217.043C339.478,207.823,332.003,200.348,322.783,200.348z M150.261,345.043h-44.522V233.739    h44.522V345.043z M228.174,345.043h-44.522V233.739h44.522V345.043z M306.087,345.043h-44.522V233.739h44.522V345.043z" fill="#222222" data-original="#000000" style="" class=""/>
	</g>
</g>
<g xmlns="http://www.w3.org/2000/svg">
	<g>
		<path d="M461.913,0c-27.618,0-50.087,22.469-50.087,50.087c0,21.766,13.959,40.323,33.391,47.215v136.437h-33.391v-27.826    C411.826,92.373,319.455,0,205.913,0C92.373,0,0,92.373,0,205.913v256C0,489.531,22.469,512,50.087,512h311.652    c27.618,0,50.087-22.469,50.087-50.087V267.13h50.087c9.22,0,16.696-7.475,16.696-16.696V97.302    C498.041,90.41,512,71.853,512,50.087C512,22.469,489.531,0,461.913,0z M378.435,461.913c0,9.206-7.49,16.696-16.696,16.696    H50.087c-9.206,0-16.696-7.49-16.696-16.696v-256c0-95.128,77.393-172.522,172.522-172.522s172.522,77.393,172.522,172.522    V461.913z M461.913,66.783c-9.206,0-16.696-7.49-16.696-16.696s7.49-16.696,16.696-16.696s16.696,7.49,16.696,16.696    S471.119,66.783,461.913,66.783z" fill="#222222" data-original="#000000" style="" class=""/>
	</g>
</g>
<g xmlns="http://www.w3.org/2000/svg">
	<g>
		<path d="M316.103,144.682c-16.521-46.594-60.802-77.9-110.19-77.9c-49.389,0-93.67,31.305-110.189,77.9    c-3.081,8.691,1.467,18.234,10.158,21.315c8.693,3.083,18.234-1.466,21.315-10.156c11.804-33.297,43.438-55.667,78.717-55.667    c35.278,0,66.912,22.371,78.718,55.667c2.428,6.846,8.864,11.122,15.736,11.12c1.851,0,3.734-0.311,5.58-0.964    C314.637,162.915,319.185,153.373,316.103,144.682z" fill="#222222" data-original="#000000" style="" class=""/>
	</g>
</g>
<g xmlns="http://www.w3.org/2000/svg">
	<g>
		<circle cx="205.913" cy="150.261" r="16.696" fill="#222222" data-original="#000000" style="" class=""/>
	</g>
</g>
<g xmlns="http://www.w3.org/2000/svg">
	<g>
		<path d="M289.391,411.826H122.435c-9.22,0-16.696,7.475-16.696,16.696s7.475,16.696,16.696,16.696h166.956    c9.22,0,16.696-7.475,16.696-16.696S298.612,411.826,289.391,411.826z" fill="#222222" data-original="#000000" style="" class=""/>
	</g>
</g>
<g xmlns="http://www.w3.org/2000/svg">
</g>
<g xmlns="http://www.w3.org/2000/svg">
</g>
<g xmlns="http://www.w3.org/2000/svg">
</g>
<g xmlns="http://www.w3.org/2000/svg">
</g>
<g xmlns="http://www.w3.org/2000/svg">
</g>
<g xmlns="http://www.w3.org/2000/svg">
</g>
<g xmlns="http://www.w3.org/2000/svg">
</g>
<g xmlns="http://www.w3.org/2000/svg">
</g>
<g xmlns="http://www.w3.org/2000/svg">
</g>
<g xmlns="http://www.w3.org/2000/svg">
</g>
<g xmlns="http://www.w3.org/2000/svg">
</g>
<g xmlns="http://www.w3.org/2000/svg">
</g>
<g xmlns="http://www.w3.org/2000/svg">
</g>
<g xmlns="http://www.w3.org/2000/svg">
</g>
<g xmlns="http://www.w3.org/2000/svg">
</g>
</g></svg>
