<?xml version="1.0"?>
<svg xmlns="http://www.w3.org/2000/svg" xmlns:xlink="http://www.w3.org/1999/xlink" xmlns:svgjs="http://svgjs.com/svgjs" version="1.1" width="512" height="512" x="0" y="0" viewBox="0 0 512 512" style="enable-background:new 0 0 512 512" xml:space="preserve" class=""><g><path xmlns="http://www.w3.org/2000/svg" d="m489.669 448.8 20.747-41.492c2.325-4.65 2.077-10.172-.656-14.594s-7.561-7.114-12.76-7.114h-81.4v-17.133c0-17.13-13.936-31.066-31.066-31.066h-49.268v-129.355l98.66-98.663c8.904-8.902 13.808-20.738 13.808-33.328s-4.903-24.426-13.806-33.327c-8.902-8.902-20.738-13.807-33.328-13.807s-24.426 4.903-33.327 13.807l-34.077 34.078c-.219-42.388-34.76-76.806-77.198-76.806-42.436 0-76.975 34.417-77.195 76.803l-34.074-34.076c-8.902-8.903-20.739-13.807-33.329-13.807s-24.427 4.904-33.328 13.807c-8.902 8.902-13.806 20.738-13.806 33.327-.001 12.59 4.902 24.426 13.806 33.328l98.661 98.664v129.354h-49.266c-17.13 0-31.066 13.936-31.066 31.066v17.134h-81.401c-5.198 0-10.026 2.692-12.76 7.114-2.733 4.422-2.981 9.944-.656 14.594l20.745 41.492-20.745 41.492c-2.325 4.65-2.077 10.172.656 14.594 2.734 4.422 7.562 7.114 12.76 7.114h80.332c17.131 0 31.068-13.936 31.068-31.066v-17.161c.354.012.709.027 1.066.027h257.066c.357 0 .712-.015 1.066-.027v17.161c0 17.13 13.937 31.066 31.066 31.066h80.336c5.199 0 10.026-2.692 12.76-7.114 2.733-4.422 2.981-9.944.656-14.594zm-233.671-418.8c26.03 0 47.207 21.177 47.207 47.207 0 26.031-21.177 47.208-47.207 47.208-26.029 0-47.205-21.177-47.205-47.208 0-26.03 21.176-47.207 47.205-47.207zm-53.659 161.227-103.056-103.059c-3.235-3.236-5.018-7.538-5.018-12.113 0-4.576 1.782-8.878 5.02-12.115 3.236-3.237 7.538-5.019 12.114-5.019s8.878 1.782 12.115 5.02l86.08 86.081c2.812 2.813 6.628 4.394 10.606 4.394h71.598c3.978 0 7.794-1.581 10.606-4.394l86.081-86.082c3.236-3.237 7.538-5.019 12.113-5.019s8.877 1.782 12.115 5.021c3.236 3.236 5.019 7.538 5.019 12.113s-1.782 8.877-5.02 12.114l-103.053 103.058c-2.813 2.813-4.394 6.628-4.394 10.606v135.567h-98.533v-135.567c0-3.978-1.58-7.793-4.393-10.606zm-105.939 289.707c0 .548-.52 1.066-1.068 1.066h-56.061l13.245-26.492c2.112-4.223 2.112-9.193 0-13.416l-13.245-26.492h57.129v17.134zm288.133-47.134h-257.066c-.548 0-1.066-.518-1.066-1.066v-32.134-32.133c0-.548.519-1.066 1.066-1.066h64.266 128.533 64.268c.548 0 1.066.518 1.066 1.066v32.133 32.134c0 .548-.519 1.066-1.067 1.066zm74.949 21.708 13.247 26.492h-56.062c-.548 0-1.066-.518-1.066-1.066v-48.2-17.134h57.129l-13.246 26.492c-2.114 4.223-2.114 9.193-.002 13.416z" fill="#222222" data-original="#000000" style="" class=""/></g></svg>
