<?xml version="1.0"?>
<svg xmlns="http://www.w3.org/2000/svg" xmlns:xlink="http://www.w3.org/1999/xlink" xmlns:svgjs="http://svgjs.com/svgjs" version="1.1" width="512" height="512" x="0" y="0" viewBox="0 0 439.274 439.274" style="enable-background:new 0 0 512 512" xml:space="preserve" class=""><g>
<path xmlns="http://www.w3.org/2000/svg" d="M437.387,146.228l-69.879-96.972c-1.879-2.608-4.898-4.154-8.113-4.154H79.879c-3.215,0-6.233,1.545-8.113,4.154  L1.887,146.228c-2.194,3.045-2.499,7.063-0.789,10.403c0.404,0.79,0.911,1.504,1.49,2.144l209.833,232.104  c1.896,2.097,4.591,3.293,7.418,3.293s5.522-1.197,7.418-3.293l209.599-232.315c0.503-0.588,0.957-1.226,1.319-1.933  C439.886,153.29,439.581,149.272,437.387,146.228z M409.742,142.074H309.048l50.347-69.867L409.742,142.074z M276.073,162.074  l-56.262,187.412l-56.588-187.412H276.073z M169.29,142.074l50.347-69.867l50.347,69.867H169.29z M239.169,65.102h100.694  l-50.347,69.868L239.169,65.102z M149.758,134.969L99.411,65.102h100.695L149.758,134.969z M142.332,162.074l55.063,182.362  L32.522,162.074H142.332z M296.955,162.074h110.201L242.172,344.559L296.955,162.074z M79.879,72.207l50.347,69.867H29.532  L79.879,72.207z" fill="#222222" data-original="#000000" style="" class=""/>
<g xmlns="http://www.w3.org/2000/svg">
</g>
<g xmlns="http://www.w3.org/2000/svg">
</g>
<g xmlns="http://www.w3.org/2000/svg">
</g>
<g xmlns="http://www.w3.org/2000/svg">
</g>
<g xmlns="http://www.w3.org/2000/svg">
</g>
<g xmlns="http://www.w3.org/2000/svg">
</g>
<g xmlns="http://www.w3.org/2000/svg">
</g>
<g xmlns="http://www.w3.org/2000/svg">
</g>
<g xmlns="http://www.w3.org/2000/svg">
</g>
<g xmlns="http://www.w3.org/2000/svg">
</g>
<g xmlns="http://www.w3.org/2000/svg">
</g>
<g xmlns="http://www.w3.org/2000/svg">
</g>
<g xmlns="http://www.w3.org/2000/svg">
</g>
<g xmlns="http://www.w3.org/2000/svg">
</g>
<g xmlns="http://www.w3.org/2000/svg">
</g>
</g></svg>
