<?xml version="1.0"?>
<svg xmlns="http://www.w3.org/2000/svg" xmlns:xlink="http://www.w3.org/1999/xlink" xmlns:svgjs="http://svgjs.com/svgjs" version="1.1" width="512" height="512" x="0" y="0" viewBox="0 0 512 512" style="enable-background:new 0 0 512 512" xml:space="preserve" class=""><g>
<g xmlns="http://www.w3.org/2000/svg">
	<g>
		<g>
			<path d="M341.76,42.667h-0.213c-5.888,0-10.56,4.779-10.56,10.667S335.872,64,341.76,64c5.888,0,10.667-4.779,10.667-10.667     S347.648,42.667,341.76,42.667z" fill="#222222" data-original="#000000" style="" class=""/>
			<path d="M256,469.333c11.776,0,21.333-9.557,21.333-21.333s-9.557-21.333-21.333-21.333s-21.333,9.557-21.333,21.333     S244.224,469.333,256,469.333z" fill="#222222" data-original="#000000" style="" class=""/>
			<path d="M277.333,42.667h-42.667c-5.888,0-10.667,4.779-10.667,10.667S228.779,64,234.667,64h42.667     C283.221,64,288,59.221,288,53.333S283.221,42.667,277.333,42.667z" fill="#222222" data-original="#000000" style="" class=""/>
			<path d="M362.667,0H149.333C119.936,0,96,23.936,96,53.333v405.333C96,488.064,119.936,512,149.333,512h213.333     C392.064,512,416,488.064,416,458.667V53.333C416,23.936,392.064,0,362.667,0z M394.667,458.667c0,17.643-14.357,32-32,32     H149.333c-17.643,0-32-14.357-32-32v-53.333h277.333V458.667z M394.667,384H117.333V106.667h277.333V384z M394.667,85.333     H117.333v-32c0-17.643,14.357-32,32-32h213.333c17.643,0,32,14.357,32,32V85.333z" fill="#222222" data-original="#000000" style="" class=""/>
		</g>
	</g>
</g>
<g xmlns="http://www.w3.org/2000/svg">
</g>
<g xmlns="http://www.w3.org/2000/svg">
</g>
<g xmlns="http://www.w3.org/2000/svg">
</g>
<g xmlns="http://www.w3.org/2000/svg">
</g>
<g xmlns="http://www.w3.org/2000/svg">
</g>
<g xmlns="http://www.w3.org/2000/svg">
</g>
<g xmlns="http://www.w3.org/2000/svg">
</g>
<g xmlns="http://www.w3.org/2000/svg">
</g>
<g xmlns="http://www.w3.org/2000/svg">
</g>
<g xmlns="http://www.w3.org/2000/svg">
</g>
<g xmlns="http://www.w3.org/2000/svg">
</g>
<g xmlns="http://www.w3.org/2000/svg">
</g>
<g xmlns="http://www.w3.org/2000/svg">
</g>
<g xmlns="http://www.w3.org/2000/svg">
</g>
<g xmlns="http://www.w3.org/2000/svg">
</g>
</g></svg>
