<?xml version="1.0"?>
<svg xmlns="http://www.w3.org/2000/svg" xmlns:xlink="http://www.w3.org/1999/xlink" xmlns:svgjs="http://svgjs.com/svgjs" version="1.1" width="512" height="512" x="0" y="0" viewBox="0 0 512 512" style="enable-background:new 0 0 512 512" xml:space="preserve" class=""><g>
<g xmlns="http://www.w3.org/2000/svg">
	<g>
		<path d="M500.053,296.96c-6.827-6.827-17.067-10.24-27.307-10.24h-133.12c-22.186,0-37.547,15.36-37.547,37.547v22.186    c0,20.48,13.653,35.84,32.426,37.547c-25.6,15.36-52.907,23.893-78.507,23.893c-64.853,0-122.88-40.96-145.067-102.4    c-6.827-20.48-27.307-34.133-47.787-34.133c-5.12,0-11.947,1.707-17.067,3.413c-27.307,8.534-40.96,39.253-30.72,64.853    C49.494,443.733,148.48,512,257.707,512c56.32,0,109.227-18.774,157.013-52.907c1.707,22.186,15.36,35.84,35.84,35.84h22.186    c22.186,0,39.253-17.067,39.253-39.253V324.267C512,314.027,508.587,305.493,500.053,296.96z M477.868,457.387L477.868,457.387    c-0.001,3.413-1.707,5.12-5.12,5.12h-23.893c0,0-1.707-1.707-1.707-5.12v-34.133c0-6.827-3.413-13.653-10.24-15.36    c-6.827-3.413-13.653-1.707-18.774,3.413c-46.08,44.373-102.4,66.56-162.134,66.56c-95.573,0-180.907-59.734-211.627-148.48    c-3.412-8.533,1.708-18.773,10.241-22.186c1.706,0,3.413-1.707,5.12-1.707c6.827,0,13.653,5.12,15.36,11.947    c25.6,75.093,97.28,124.587,177.493,124.587c47.787,0,98.987-22.186,139.947-63.147c5.12-5.12,6.827-11.947,3.413-18.774    s-8.534-10.24-15.36-10.24h-44.373c-1.707,0-1.707,0-1.707,0s0-1.707,0-3.413v-22.186c0-1.707,0-3.413,0-3.413h1.707h133.12    c3.413,0,3.413,0,3.413,0c5.12,1.707,5.12,1.707,5.12,3.413V457.387z" fill="#222222" data-original="#000000" style="" class=""/>
	</g>
</g>
<g xmlns="http://www.w3.org/2000/svg">
	<g>
		<path d="M494.935,172.373C462.507,68.267,363.52,0,254.294,0C197.973,0,145.067,18.773,97.28,52.906    c0-22.186-15.36-37.547-34.133-37.547H39.254C17.067,15.36,0,34.133,0,54.613v133.12c0,10.24,3.413,18.774,11.947,27.307    c6.827,6.827,17.067,10.24,27.307,10.24h133.12c22.187,0,35.84-15.36,35.84-37.547v-22.187c0-20.48-13.653-35.84-32.426-37.547    c25.6-15.36,52.907-23.893,78.507-23.893c64.853,0,122.88,40.96,145.067,102.4c6.827,20.48,27.307,34.133,47.787,34.133    c5.12,0,11.946-1.707,17.067-3.413C491.522,228.692,505.175,197.972,494.935,172.373z M455.68,204.8    c-8.534,3.413-18.774-1.707-22.186-10.24C407.893,119.467,336.214,69.974,256,69.974c-47.787,0-98.987,22.186-139.947,63.147    c-3.413,3.413-5.12,11.946-3.413,17.067c3.413,6.827,8.534,10.24,15.36,10.24h44.373c1.707,0,1.707,0,1.707,0s0,1.707,0,3.413    v23.893c0,1.707,0,3.413,0,3.413h-1.707H39.254c-3.413,0-3.413,0-3.413,0c-1.706-1.706-1.706-3.413-1.706-3.413V54.613h-0.001    c0-3.413,3.413-5.12,5.12-5.12H61.44c0,0,1.706,1.706,1.706,5.12v34.133c0,6.827,5.12,13.653,10.24,15.36    c6.827,3.413,13.653,1.706,18.773-3.413c46.08-44.373,102.4-66.56,162.134-66.56c95.573,0,180.907,59.734,211.627,148.48    C469.333,191.147,464.213,201.387,455.68,204.8z" fill="#222222" data-original="#000000" style="" class=""/>
	</g>
</g>
<g xmlns="http://www.w3.org/2000/svg">
</g>
<g xmlns="http://www.w3.org/2000/svg">
</g>
<g xmlns="http://www.w3.org/2000/svg">
</g>
<g xmlns="http://www.w3.org/2000/svg">
</g>
<g xmlns="http://www.w3.org/2000/svg">
</g>
<g xmlns="http://www.w3.org/2000/svg">
</g>
<g xmlns="http://www.w3.org/2000/svg">
</g>
<g xmlns="http://www.w3.org/2000/svg">
</g>
<g xmlns="http://www.w3.org/2000/svg">
</g>
<g xmlns="http://www.w3.org/2000/svg">
</g>
<g xmlns="http://www.w3.org/2000/svg">
</g>
<g xmlns="http://www.w3.org/2000/svg">
</g>
<g xmlns="http://www.w3.org/2000/svg">
</g>
<g xmlns="http://www.w3.org/2000/svg">
</g>
<g xmlns="http://www.w3.org/2000/svg">
</g>
</g></svg>
