<?xml version="1.0"?>
<svg xmlns="http://www.w3.org/2000/svg" xmlns:xlink="http://www.w3.org/1999/xlink" xmlns:svgjs="http://svgjs.com/svgjs" version="1.1" width="512" height="512" x="0" y="0" viewBox="0 0 512 512" style="enable-background:new 0 0 512 512" xml:space="preserve" class=""><g><g xmlns="http://www.w3.org/2000/svg"><path d="m432.733 208.866h-20.371c2.082-5.314 3.237-11.089 3.237-17.133 0-25.989-21.144-47.134-47.133-47.134-12.41 0-23.708 4.829-32.134 12.696-8.426-7.868-19.723-12.696-32.133-12.696-25.989 0-47.134 21.145-47.134 47.134 0 6.043 1.156 11.818 3.238 17.133h-20.37c-8.284 0-15 6.716-15 15v64.268c0 8.284 6.716 15 15 15h1.067v49.266c0 8.284 6.716 15 15 15h160.667c8.284 0 15-6.716 15-15v-49.267h1.066c8.284 0 15-6.716 15-15v-64.268c0-8.283-6.715-14.999-15-14.999zm-111.4 128.534h-50.333v-34.267h50.333zm0-64.266h-66.399v-34.268h66.399zm0-64.268h-17.133c-9.447 0-17.134-7.686-17.134-17.133s7.687-17.133 17.134-17.133 17.133 7.687 17.133 17.134zm30-17.133c0-9.447 7.687-17.134 17.134-17.134s17.133 7.687 17.133 17.134-7.686 17.133-17.133 17.133h-17.134zm50.334 145.667h-50.334v-34.267h50.334zm16.066-64.266h-66.4v-34.268h66.4z" fill="#222222" data-original="#000000" style="" class=""/><path d="m448.8 80.333h-385.6c-34.849 0-63.2 28.352-63.2 63.2v224.934c0 34.849 28.352 63.2 63.2 63.2h385.6c34.849 0 63.2-28.352 63.2-63.2v-224.934c0-34.848-28.352-63.2-63.2-63.2zm33.2 288.134c0 18.307-14.894 33.2-33.2 33.2h-385.6c-18.307 0-33.2-14.894-33.2-33.2v-224.934c0-18.307 14.894-33.2 33.2-33.2h385.6c18.307 0 33.2 14.894 33.2 33.2z" fill="#222222" data-original="#000000" style="" class=""/><path d="m127.467 337.4h-48.2c-8.284 0-15 6.716-15 15s6.716 15 15 15h48.2c8.284 0 15-6.716 15-15s-6.716-15-15-15z" fill="#222222" data-original="#000000" style="" class=""/><path d="m79.267 174.6h48.2c8.284 0 15-6.716 15-15s-6.716-15-15-15h-48.2c-8.284 0-15 6.716-15 15s6.715 15 15 15z" fill="#222222" data-original="#000000" style="" class=""/><path d="m175.667 273.134h-96.4c-8.284 0-15 6.716-15 15s6.716 15 15 15h96.4c8.284 0 15-6.716 15-15s-6.716-15-15-15z" fill="#222222" data-original="#000000" style="" class=""/></g></g></svg>
