<?xml version="1.0"?>
<svg xmlns="http://www.w3.org/2000/svg" xmlns:xlink="http://www.w3.org/1999/xlink" xmlns:svgjs="http://svgjs.com/svgjs" version="1.1" width="512" height="512" x="0" y="0" viewBox="0 0 277.169 277.169" style="enable-background:new 0 0 512 512" xml:space="preserve" class=""><g>
<g xmlns="http://www.w3.org/2000/svg">
	<g>
		<path style="" d="M129.774,197.433c-23.1,0-42.223-8.577-51.557-13.69c-1.474-0.81-3.231-0.887-4.781-0.218    c-1.539,0.669-2.681,2.007-3.1,3.639l-9.79,38.182c-0.615,2.399,0.468,4.911,2.638,6.108    c13.282,7.343,33.477,12.804,52.672,14.381v25.895c0,3.008,2.431,5.439,5.439,5.439h32.303c3.008,0,5.439-2.431,5.439-5.439    v-29.104c35.251-7.5,57.757-32.439,57.757-64.551c0-32.297-17.285-52.182-57.763-66.471    c-25.825-9.312-35.892-15.654-35.892-22.621c0-8.365,8.246-13.163,22.621-13.163c21.985,0,36.529,6.989,44.638,10.889    c1.463,0.702,3.155,0.718,4.629,0.038s2.567-1.974,2.986-3.541l9.796-36.877c0.68-2.562-0.582-5.243-2.997-6.342    c-9.083-4.15-23.312-9.633-44.47-11.009V5.439c0-3.008-2.431-5.439-5.439-5.439h-31.987c-3.008,0-5.439,2.431-5.439,5.439v26.586    C83.336,39.966,62.33,63.594,62.33,94.531c0,38.878,33.369,55.092,62.451,64.872c25.895,8.632,31.198,15.529,31.198,23.236    C155.985,193.544,142.447,197.433,129.774,197.433z M128.235,149.085c-38.574-12.972-55.027-29.289-55.027-54.554    c0-27.092,18.955-46.809,50.703-52.737c2.578-0.484,4.438-2.73,4.438-5.347V10.884h21.109v23.279c0,2.943,2.339,5.347,5.276,5.439    c18.917,0.566,31.906,4.514,41.359,8.441l-6.924,26.086c-9.274-4.117-23.551-9.181-43.404-9.181    c-24.699,0-33.499,12.417-33.499,24.041c0,14.566,15.142,22.779,43.115,32.868c36.371,12.836,50.54,28.604,50.54,56.224    c0,28.299-20.386,49.251-53.205,54.679c-2.622,0.43-4.553,2.703-4.553,5.363v28.174h-21.424v-25.558    c0-2.91-2.29-5.303-5.194-5.434c-20.625-0.925-38.617-6.396-49.37-11.466l7.016-27.386c11.406,5.412,29.447,11.873,50.594,11.873    c22.534,0,37.089-10.079,37.089-25.672C166.863,165.478,151.416,156.814,128.235,149.085z" fill="#222222" data-original="#010002" class=""/>
	</g>
</g>
<g xmlns="http://www.w3.org/2000/svg">
</g>
<g xmlns="http://www.w3.org/2000/svg">
</g>
<g xmlns="http://www.w3.org/2000/svg">
</g>
<g xmlns="http://www.w3.org/2000/svg">
</g>
<g xmlns="http://www.w3.org/2000/svg">
</g>
<g xmlns="http://www.w3.org/2000/svg">
</g>
<g xmlns="http://www.w3.org/2000/svg">
</g>
<g xmlns="http://www.w3.org/2000/svg">
</g>
<g xmlns="http://www.w3.org/2000/svg">
</g>
<g xmlns="http://www.w3.org/2000/svg">
</g>
<g xmlns="http://www.w3.org/2000/svg">
</g>
<g xmlns="http://www.w3.org/2000/svg">
</g>
<g xmlns="http://www.w3.org/2000/svg">
</g>
<g xmlns="http://www.w3.org/2000/svg">
</g>
<g xmlns="http://www.w3.org/2000/svg">
</g>
</g></svg>
