<?xml version="1.0"?>
<svg xmlns="http://www.w3.org/2000/svg" xmlns:xlink="http://www.w3.org/1999/xlink" xmlns:svgjs="http://svgjs.com/svgjs" version="1.1" width="512" height="512" x="0" y="0" viewBox="0 0 512 512" style="enable-background:new 0 0 512 512" xml:space="preserve" class=""><g><g xmlns="http://www.w3.org/2000/svg"><path d="m341.515 285.988c-7.606-47.007-25.141-88.527-52.305-123.913h15.685c62.063 0 112.557-50.493 112.557-112.557v-49.518h-63.895c-41.653 0-78.093 22.744-97.557 56.464-19.464-33.72-55.904-56.464-97.557-56.464h-63.894v49.518c0 62.064 50.493 112.557 112.557 112.557h32.447c-5.626 44.928-23.948 86.549-54.605 124.011-2.625-.186-5.261-.292-7.909-.292-62.365 0-113.104 50.738-113.104 113.104s50.738 113.102 113.103 113.102c29.597 0 58.013-11.793 78.983-32.189 20.397 19.903 48.259 32.189 78.941 32.189 62.365 0 113.104-50.738 113.104-113.104-.001-60.165-47.224-109.502-106.551-112.908zm12.041-255.988h33.895v19.518c0 45.522-37.035 82.557-82.557 82.557h-33.894v-19.518c0-45.522 37.035-82.557 82.556-82.557zm-229.007 19.518v-19.518h33.894c45.522 0 82.557 37.035 82.557 82.557v19.518h-33.894c-45.522-.001-82.557-37.035-82.557-82.557zm142.216 132.639c22.851 30.421 37.838 65.953 44.714 106.095-21.306 4.517-40.413 15.049-55.458 29.731-11.106-10.802-24.3-19.187-38.654-24.687 25.365-34.193 41.896-71.403 49.398-111.139zm-89.727 299.843c-45.823 0-83.104-37.28-83.104-83.104s37.28-83.104 83.104-83.104c22.848 0 44.742 9.563 60.34 25.98-9.858 16.775-15.521 36.299-15.521 57.123s5.663 40.348 15.521 57.123c-15.598 16.419-37.493 25.982-60.34 25.982zm157.924 0c-45.823 0-83.104-37.28-83.104-83.104s37.281-83.104 83.104-83.104 83.104 37.28 83.104 83.104-37.281 83.104-83.104 83.104z" fill="#222222" data-original="#000000" style=""/></g></g></svg>
