<svg height="512" viewBox="0 0 58 58" width="512" xmlns="http://www.w3.org/2000/svg"><g id="Page-1" fill="none" fill-rule="evenodd"><g id="001---Present" fill-rule="nonzero" transform="translate(0 -1)"><path id="Shape" d="m11 19c-7 0-11-9-11-9h5v-5l20 17z" fill="#f29c1f"/><path id="Shape" d="m33 22 20-17v5h5s-4 9-11 9z" fill="#f29c1f"/><path id="Shape" d="m30.013 19-1.013-6s-1.921-11.385-11.379-11.976c-.5387285-.02684994-1.0742298.09749997-1.546.359-1.636.884-5.415 3.328-6.865 7.671-.39220299 1.1577984-.23188379 2.4315068.435 3.456 1.593 2.438 5.225 6.986 10.238 7.127z" fill="#f0c419"/><path id="Shape" d="m24.27 15.59c-4.311-2.619-5.746-7.894-6.14-9.843-.0345128-.17351992.0252421-.35235999.1571323-.47028056.1318903-.11792056.3162776-.15736338.4848677-.10371944 4.648 1.309 6.653 6.9 7.118 8.437z" fill="#f29c1f"/><path id="Shape" d="m27.987 19 1.013-6.006s1.921-11.394 11.379-11.994c.5388624-.02697482 1.0744862.09775 1.546.36 1.636.89 5.415 3.34 6.865 7.683.3918377 1.1591601.2315734 2.4339061-.435 3.46-1.62 2.484-5.353 7.153-10.5 7.138z" fill="#f0c419"/><path id="Shape" d="m32.11 13.61c.465-1.537 2.47-7.128 7.118-8.437.1685901-.05364394.3529774-.01420112.4848677.10371944.1318902.11792057.1916451.29676064.1571323.47028056-.394 1.949-1.829 7.224-6.14 9.843z" fill="#f29c1f"/><path id="Shape" d="m28 13h2c2.209139 0 4 1.790861 4 4v2h-10v-2c0-2.209139 1.790861-4 4-4z" fill="#f3d55b"/><path id="Shape" d="m51 28v29c0 1.1045695-.8954305 2-2 2h-40c-1.1045695 0-2-.8954305-2-2v-29z" fill="#e64c3c"/><path id="Rectangle-path" d="m7 29h44v3h-44z" fill="#c03a2b"/><path id="Rectangle-path" d="m25 28h8v31h-8z" fill="#f29c1f"/><g fill="#c03a2b"><path id="Shape" d="m11 37c-.5522847 0-1-.4477153-1-1v-2c0-.5522847.4477153-1 1-1s1 .4477153 1 1v2c0 .5522847-.4477153 1-1 1z"/><path id="Shape" d="m11 56c-.5522847 0-1-.4477153-1-1v-15c0-.5522847.4477153-1 1-1s1 .4477153 1 1v15c0 .5522847-.4477153 1-1 1z"/><path id="Shape" d="m47 37c-.5522847 0-1-.4477153-1-1v-2c0-.5522847.4477153-1 1-1s1 .4477153 1 1v2c0 .5522847-.4477153 1-1 1z"/><path id="Shape" d="m47 56c-.5522847 0-1-.4477153-1-1v-15c0-.5522847.4477153-1 1-1s1 .4477153 1 1v15c0 .5522847-.4477153 1-1 1z"/></g><path id="Shape" d="m7 19h44c1.1045695 0 2 .8954305 2 2v7c0 .5522847-.4477153 1-1 1h-46c-.55228475 0-1-.4477153-1-1v-7c0-1.1045695.8954305-2 2-2z" fill="#e64c3c"/><path id="Rectangle-path" d="m23 19h12v10h-12z" fill="#f0c419"/></g></g></svg>