<svg id="Capa_1" enable-background="new 0 0 512 512" height="512" viewBox="0 0 512 512" width="512" xmlns="http://www.w3.org/2000/svg"><g><g><path d="m477.733 127.982-93.715-93.715c-37.659-21.79-81.38-34.267-128.018-34.267l-128.018 34.267c-38.847 22.477-71.238 54.868-93.715 93.715l-34.267 128.018c0 46.638 12.477 90.358 34.267 128.018l93.715 93.715c37.659 21.79 81.38 34.267 128.018 34.267l128.018-34.267c38.848-22.477 71.238-54.868 93.715-93.715l34.267-128.018c0-46.638-12.477-90.359-34.267-128.018z" fill="#f9f9f9"/><path d="m477.733 127.982-93.715-93.715c-37.659-21.79-81.38-34.267-128.018-34.267v512l128.018-34.267c38.848-22.477 71.238-54.868 93.715-93.715l34.267-128.018c0-46.638-12.477-90.359-34.267-128.018z" fill="#e4e4ff"/><path d="m256 0c-46.638 0-90.358 12.477-128.017 34.267 20.725 35.898 128.017 221.733 128.017 221.733s0-214.501 0-256z" fill="#ff6378"/><path d="m34.267 127.982c-21.789 37.659-34.267 81.38-34.267 128.017 41.499.001 256 .001 256 .001s-185.835-107.292-221.733-128.018z" fill="#ff6378"/><path d="m477.733 127.983c-22.477-38.848-54.868-71.238-93.715-93.715l-128.018 221.732z" fill="#d0004f"/><path d="m256 256 221.733 128.018c21.789-37.659 34.267-81.38 34.267-128.018z" fill="#d0004f"/><path d="m34.267 384.017c22.477 38.848 54.868 71.238 93.715 93.716 20.726-35.899 128.018-221.733 128.018-221.733s-185.835 107.291-221.733 128.017z" fill="#ff6378"/><path d="m256 512c46.638 0 90.358-12.477 128.017-34.267l-128.017-221.733z" fill="#d0004f"/></g><path d="m256 432c-97.047 0-176-78.953-176-176s78.953-176 176-176 176 78.953 176 176-78.953 176-176 176z" fill="#524798"/><path d="m256 80v352c97.047 0 176-78.953 176-176s-78.953-176-176-176z" fill="#38336b"/><path d="m275.456 243.364c-2.596-.918-5.245-1.872-7.893-2.861v-46.024c5.441 1.661 8.237 4.38 8.47 4.615 4.543 5.145 12.396 5.666 17.579 1.149 5.206-4.535 5.749-12.431 1.214-17.636-4.501-5.166-13.905-11.671-27.263-13.753v-7.854c0-6.903-5.597-12.5-12.5-12.5s-12.5 5.597-12.5 12.5v9.282c-1.086.275-2.181.569-3.295.904-15.702 4.73-27.43 18.145-30.608 35.011-2.91 15.443 2.082 30.371 13.029 38.956 5.376 4.217 11.973 8.081 20.874 12.119v59.205c-6.888-.787-11.811-2.869-19.716-8.041-5.777-3.779-13.524-2.159-17.304 3.617-3.779 5.777-2.16 13.524 3.617 17.304 13.052 8.538 22.168 11.378 33.403 12.227v9.416c0 6.903 5.597 12.5 12.5 12.5s12.5-5.597 12.5-12.5v-10.541c8.767-2.051 16.732-6.251 23.457-12.43 8.816-8.1 14.766-19.074 16.754-30.901 4.082-24.278-8.604-45.382-32.318-53.764zm-38.338-17.883c-3.52-2.761-5.047-8.514-3.89-14.656.93-4.934 3.855-10.724 9.335-13.977v32.326c-2-1.199-3.834-2.43-5.445-3.693zm46.003 67.502c-1.37 8.149-6.647 16.761-15.557 21.089v-46.97c17.376 6.403 16.309 21.404 15.557 25.881z" fill="#f9f9f9"/><path d="m275.456 243.364c-2.596-.918-5.245-1.872-7.893-2.861v-46.024c5.441 1.661 8.237 4.38 8.47 4.615 4.543 5.145 12.396 5.666 17.579 1.149 5.206-4.535 5.749-12.431 1.214-17.636-4.501-5.166-13.905-11.671-27.263-13.753v-7.854c0-6.587-5.099-11.972-11.564-12.453v214.905c6.464-.481 11.564-5.866 11.564-12.453v-10.541c8.767-2.051 16.732-6.251 23.457-12.43 8.816-8.1 14.766-19.074 16.754-30.901 4.082-24.277-8.604-45.381-32.318-53.763zm7.665 49.619c-1.37 8.149-6.647 16.761-15.557 21.089v-46.97c17.376 6.403 16.309 21.404 15.557 25.881z" fill="#e4e4ff"/></g></svg>