<svg id="Layer_1" enable-background="new 0 0 512.232 512.232" height="512" viewBox="0 0 512.232 512.232" width="512" xmlns="http://www.w3.org/2000/svg"><g><path d="m328.182 392.116c-32.489 14.268-6.037 2.652-146.65 64.4-16.18 7.1-35.06-.26-42.17-16.44l-128.66-292.99c-7.11-16.18.25-35.06 16.43-42.17 82.378-36.175 90.617-39.793 133.1-58.45v313.65c0 17.67 14.33 32 32 32z" fill="#edebfd"/><path d="m494.353 303.036-6.12 153.08h-152l-33.12-52.99 25.07-11.01h46.85l-18.23-30.41c-15.023-21.694-12.439-51.091 6.3-69.83 6.86-6.86 18.21-6.11 24.11 1.6l29.02 37.95v-147.31l45.1 40.59c22.109 19.9 34.209 48.61 33.02 78.33z" fill="#ebb19c"/><path d="m461.333 224.706-45.1-40.59v27.792l14.22 12.798c22.11 19.9 34.21 48.61 33.02 78.33l-6.12 153.08h30.88l6.12-153.08c1.189-29.72-10.911-58.43-33.02-78.33z" fill="#e58d72"/><path d="m312.232 456.116h192v48h-192z" fill="#e48c9b"/><path d="m464.232 456.116h40v48h-40z" fill="#cc5b6f"/><path d="m416.232 40.116v291.31l-29.02-37.95c-5.9-7.71-17.25-8.46-24.11-1.6-18.73 18.73-21.33 48.125-6.3 69.83l18.23 30.41h-182.8c-17.67 0-32-14.33-32-32v-320c0-17.67 14.33-32 32-32h192c17.67 0 32 14.33 32 32z" fill="#edebfd"/><path d="m192.232 392.116h-24c-17.67 0-32-14.33-32-32v-303.11l24-10.54v313.65c0 17.67 14.331 32 32 32z" fill="#d2d2fc"/><g fill="#e48c9b"><path d="m333.482 206.116-45.25 45.25-45.25-45.25c-12.5-12.5-12.5-32.76 0-45.25 12.49-12.5 32.75-12.5 45.25 0 12.5-12.5 32.76-12.5 45.25 0 12.5 12.49 12.5 32.75 0 45.25z"/><path d="m242.862 67.116-22.63 22.63-22.63-22.63c-6.25-6.25-6.25-16.38 0-22.63s16.38-6.25 22.63 0c6.25-6.25 16.38-6.25 22.63 0s6.25 16.38 0 22.63z"/><path d="m96.818 144.218-9.108 38.949-34.841-19.65 9.108-38.949z"/></g><path d="m504.232 448.116h-7.674l5.788-144.76c1.289-32.204-11.709-63.038-35.662-84.596l-42.451-38.206v-140.438c0-22.056-17.944-40-40-40h-192c-20.854 0-40 16.346-40 41.126l-128.318 56.35c-20.196 8.874-29.409 32.521-20.538 52.711l128.661 292.992c8.876 20.195 32.52 29.407 52.711 20.546l115.246-50.609 21.803 34.884h-9.565c-4.418 0-8 3.582-8 8v48c0 4.418 3.582 8 8 8h192c4.418 0 8-3.582 8-8v-48c-.001-4.418-3.583-8-8.001-8zm-312-432h192c13.233 0 24 10.766 24 24v267.686l-14.669-19.182c-8.858-11.583-25.863-12.654-36.121-2.397-21.379 21.379-24.459 54.904-7.371 79.815l10.838 18.079c-225.257 0-137.49 0-168.677 0-13.233 0-24-10.766-24-24 0-30.29 0-210.13 0-320 0-13.234 10.767-24.001 24-24.001zm-13.915 433.074c-12.113 5.317-26.306-.215-31.63-12.331l-128.661-292.991c-5.323-12.114.206-26.302 12.323-31.627l121.883-53.524v301.399c0 22.056 17.944 40 40 40h97.836zm136.483-42.459 15.063-6.615h41.098c2.625 2.307 6.396 2.653 9.385.861 3.79-2.272 5.02-7.185 2.748-10.975-20.783-34.667-19.48-32.512-19.714-32.85-12.856-18.572-10.596-43.644 5.377-59.616 3.491-3.492 9.168-3.029 12.098.803l51.532 67.388c2.683 3.51 7.703 4.179 11.214 1.495 3.51-2.684 4.18-7.705 1.495-11.214l-20.863-27.283v-126.646l31.748 28.574c20.403 18.364 31.477 44.63 30.379 72.064l-5.813 145.4h-139.88zm181.432 89.385h-176v-32h176z"/><path d="m225.607 183.488c0 10.684 4.161 20.729 11.718 28.286l45.25 45.25c3.125 3.124 8.189 3.124 11.314 0l45.25-45.25c24.963-24.963 7.485-68.282-28.278-68.282-8.197 0-16.019 2.45-22.629 7.004-26.033-17.935-62.625.437-62.625 32.992zm23.035-16.967c9.372-9.379 24.551-9.381 33.934.002 3.125 3.124 8.189 3.124 11.314 0 14.957-14.959 40.968-4.535 40.968 16.964 0 6.41-2.497 12.437-7.032 16.972l-39.593 39.593-39.593-39.593c-9.379-9.377-9.389-24.555.002-33.938z"/><path d="m214.575 95.403c3.125 3.124 8.189 3.125 11.314 0l22.63-22.63c14.936-14.938 4.574-40.974-16.972-40.974-4.013 0-7.876.978-11.315 2.822-3.439-1.844-7.303-2.822-11.315-2.822-21.494 0-31.933 26.011-16.972 40.974zm-11.315-45.26c3.119-3.12 8.196-3.12 11.315 0 3.125 3.125 8.189 3.125 11.314 0 3.119-3.119 8.196-3.12 11.315 0 3.12 3.12 3.12 8.196 0 11.316l-16.973 16.973-16.971-16.973c-3.12-3.12-3.12-8.196 0-11.316z"/><path d="m100.748 137.25-34.841-19.65c-4.648-2.621-10.508-.037-11.72 5.146l-9.108 38.949c-.81 3.462.763 7.043 3.86 8.79l34.841 19.65c4.641 2.617 10.506.044 11.72-5.146l9.108-38.949c.81-3.463-.762-7.044-3.86-8.79zm-18.399 33.709-20.323-11.462 5.313-22.72 20.323 11.462z"/></g></svg>