<?xml version="1.0"?>
<svg xmlns="http://www.w3.org/2000/svg" xmlns:xlink="http://www.w3.org/1999/xlink" xmlns:svgjs="http://svgjs.com/svgjs" version="1.1" width="512" height="512" x="0" y="0" viewBox="0 0 128 128" style="enable-background:new 0 0 512 512" xml:space="preserve" class=""><g><g xmlns="http://www.w3.org/2000/svg"><path d="M85.248,26.285H19.75A1.75,1.75,0,0,0,18,28.035V65.284a1.75,1.75,0,0,0,1.75,1.75h65.5A1.75,1.75,0,0,0,87,65.284V28.035A1.75,1.75,0,0,0,85.248,26.285Zm-24,3.5V63.534h-17.5V29.785Zm-39.747,0H40.251V63.534H21.5Zm62,33.749H64.747V29.785H83.5Z" fill="#222222" data-original="#000000" style="" class=""/><path d="M85.248,73.542H19.75A1.75,1.75,0,0,0,18,75.292v9a1.75,1.75,0,0,0,1.75,1.75h65.5A1.75,1.75,0,0,0,87,84.291v-9A1.75,1.75,0,0,0,85.248,73.542Zm-1.75,9h-62v-5.5h62Z" fill="#222222" data-original="#000000" style="" class=""/><path d="M36.829,37.683a1.751,1.751,0,0,0-1.454-.776H27a1.75,1.75,0,0,0,0,3.5h5.764l-5.637,13.71a1.75,1.75,0,0,0,3.238,1.33l6.629-16.125A1.751,1.751,0,0,0,36.829,37.683Z" fill="#222222" data-original="#000000" style="" class=""/><path d="M48.311,40.407h5.764l-5.636,13.71a1.75,1.75,0,1,0,3.237,1.33l6.629-16.125a1.75,1.75,0,0,0-1.619-2.415H48.311a1.75,1.75,0,1,0,0,3.5Z" fill="#222222" data-original="#000000" style="" class=""/><path d="M69.623,40.407h5.763L69.75,54.117a1.75,1.75,0,1,0,3.237,1.33l6.629-16.125A1.75,1.75,0,0,0,78,36.907H69.623a1.75,1.75,0,0,0,0,3.5Z" fill="#222222" data-original="#000000" style="" class=""/><path d="M122.25,26.285h-9.188a5.757,5.757,0,0,0-5.75,5.75v4.81a5.76,5.76,0,0,0,4.594,5.633V62.252a7.92,7.92,0,0,1-6.161,7.71v-8.3a1.75,1.75,0,0,0-1.75-1.75H97V22.035a5.757,5.757,0,0,0-5.75-5.75H77.04L67.555,5.56a1.754,1.754,0,0,0-1.311-.59H38.754a1.75,1.75,0,0,0-1.311.59L27.958,16.285H13.75A5.757,5.757,0,0,0,8,22.035v88.747H1.75A1.75,1.75,0,0,0,0,112.532v8.748a1.75,1.75,0,0,0,1.75,1.75h101.5a1.75,1.75,0,0,0,1.75-1.75v-8.748a1.75,1.75,0,0,0-1.75-1.75H97V91.916h7a1.75,1.75,0,0,0,1.75-1.75V81.575a19.43,19.43,0,0,0,17.661-19.323V42.478A5.76,5.76,0,0,0,128,36.845v-4.81A5.757,5.757,0,0,0,122.25,26.285ZM39.542,8.47H65.455l6.913,7.815H32.63ZM101.5,119.53H3.5v-5.248h98Zm-90-8.748V22.035a2.253,2.253,0,0,1,2.25-2.25h77.5a2.253,2.253,0,0,1,2.25,2.25v88.747Zm90.745-22.366H97v-25h5.247v25Zm17.661-26.164a15.934,15.934,0,0,1-14.161,15.816V73.53a11.431,11.431,0,0,0,9.661-11.278V42.6h4.5ZM124.5,36.845a2.253,2.253,0,0,1-2.25,2.25h-9.188a2.253,2.253,0,0,1-2.25-2.25v-4.81a2.253,2.253,0,0,1,2.25-2.25h9.188a2.253,2.253,0,0,1,2.25,2.25Z" fill="#222222" data-original="#000000" style="" class=""/></g></g></svg>
