<svg height="512" viewBox="0 0 64 64" width="512" xmlns="http://www.w3.org/2000/svg"><g id="Layer_13" data-name="Layer 13"><g fill="#ccc"><path d="m14.459 27.447h2v9.205h-2z" transform="matrix(.64 -.768 .768 .64 -19.058 23.407)"/><path d="m43.868 30.855h9.814v2h-9.814z" transform="matrix(.768 -.641 .641 .768 -9.085 38.633)"/><path d="m57 56v-24.537a4 4 0 0 1 -4 0v24.537z"/></g><path d="m52 56h6a4 4 0 0 1 4 4 2 2 0 0 1 -2 2h-10a2 2 0 0 1 -2-2 4 4 0 0 1 4-4z" fill="#a72b25"/><circle cx="55" cy="28" fill="#b52f28" r="4"/><path d="m51 28a3.971 3.971 0 0 0 1.068 2.7 3.987 3.987 0 0 0 4.432-6.4 3.99 3.99 0 0 0 -5.5 3.7z" fill="#d23f34"/><rect fill="#b52f28" height="4" rx="2" width="8" x="51" y="36"/><path d="m57 36h-4a2 2 0 0 0 -2 2h5a1 1 0 0 0 1-1z" fill="#d23f34"/><path d="m58 59a1 1 0 0 0 1-1v-1.859a3.977 3.977 0 0 0 -1-.141h-6a3.991 3.991 0 0 0 -3.859 3z" fill="#d23f34"/><path d="m11 56v-24.537a4 4 0 0 1 -4 0v24.537z" fill="#ccc"/><path d="m6 56h6a4 4 0 0 1 4 4 2 2 0 0 1 -2 2h-10a2 2 0 0 1 -2-2 4 4 0 0 1 4-4z" fill="#a72b25"/><circle cx="9" cy="28" fill="#b52f28" r="4"/><path d="m5 28a3.971 3.971 0 0 0 1.068 2.7 3.987 3.987 0 0 0 4.432-6.4 3.99 3.99 0 0 0 -5.5 3.7z" fill="#d23f34"/><path d="m17 36a20.484 20.484 0 0 0 14.485 6h1.03a20.484 20.484 0 0 0 14.485-6l-3-3-.05.05a16.9 16.9 0 0 1 -11.95 4.95 16.9 16.9 0 0 1 -11.95-4.95l-.05-.05z" fill="#d23f34"/><rect fill="#b52f28" height="4" rx="2" width="8" x="5" y="36"/><path d="m32 23 7 5-3-7 7-5h-8l-3-8-3 8h-8l7 5-3 7z" fill="#f0ae42"/><path d="m51 17 7 5-3-7 7-5h-8l-3-8-3 8h-8l7 5-3 7z" fill="#f9d266"/><path d="m13 17 7 5-3-7 7-5h-8l-3-8-3 8h-8l7 5-3 7z" fill="#f9d266"/><path d="m11 36h-4a2 2 0 0 0 -2 2h5a1 1 0 0 0 1-1z" fill="#d23f34"/><path d="m12 59a1 1 0 0 0 1-1v-1.859a3.977 3.977 0 0 0 -1-.141h-6a3.991 3.991 0 0 0 -3.859 3z" fill="#d23f34"/><path d="m58 55v-14.184a2.982 2.982 0 0 0 0-5.632v-3.21a4.991 4.991 0 1 0 -8-3.974 4.908 4.908 0 0 0 .211 1.356l-4.6 3.837-.9-.9a1.063 1.063 0 0 0 -1.464.05 15.9 15.9 0 0 1 -22.536-.043 1 1 0 0 0 -.711-.3 1 1 0 0 0 -.707.293l-.9.9-4.6-3.837a4.908 4.908 0 0 0 .207-1.356 5 5 0 1 0 -8 3.974v3.21a2.982 2.982 0 0 0 0 5.632v14.184a5.006 5.006 0 0 0 -5 5 3 3 0 0 0 3 3h10a3 3 0 0 0 3-3 5.006 5.006 0 0 0 -5-5v-14.184a2.982 2.982 0 0 0 0-5.632v-3.21a4.962 4.962 0 0 0 .837-.808l4.136 3.447-.68.68a1 1 0 0 0 0 1.414 21.344 21.344 0 0 0 15.192 6.293h1.03a21.344 21.344 0 0 0 15.192-6.293 1 1 0 0 0 0-1.414l-.68-.68 4.136-3.447a4.962 4.962 0 0 0 .837.808v3.21a2.982 2.982 0 0 0 0 5.632v14.184a5.006 5.006 0 0 0 -5 5 3 3 0 0 0 3 3h10a3 3 0 0 0 3-3 5.006 5.006 0 0 0 -5-5zm-43 5a1 1 0 0 1 -1 1h-10a1 1 0 0 1 -1-1 3 3 0 0 1 3-3h6a3 3 0 0 1 3 3zm-7-5v-14h2v14zm3-16h-4a1 1 0 0 1 0-2h4a1 1 0 0 1 0 2zm-1-4h-2v-2.1a5 5 0 0 0 2 0zm-1-4a3 3 0 1 1 3-3 3 3 0 0 1 -3 3zm23.515 10h-1.03a19.344 19.344 0 0 1 -13.053-5.018l1.585-1.582a17.9 17.9 0 0 0 23.964 0l1.587 1.586a19.344 19.344 0 0 1 -13.053 5.014zm22.485-16a3 3 0 1 1 -3 3 3 3 0 0 1 3-3zm0 8a5 5 0 0 0 1-.1v2.1h-2v-2.1a5 5 0 0 0 1 .1zm-2 4h4a1 1 0 0 1 0 2h-4a1 1 0 0 1 0-2zm1 4h2v14h-2zm6 20h-10a1 1 0 0 1 -1-1 3 3 0 0 1 3-3h6a3 3 0 0 1 3 3 1 1 0 0 1 -1 1z"/><path d="m20.048 15.7a1 1 0 0 0 .371 1.119l6.345 4.532-2.683 6.26a1 1 0 0 0 1.5 1.208l6.419-4.59 6.419 4.585a1 1 0 0 0 1.5-1.208l-2.683-6.26 6.345-4.532a1 1 0 0 0 -.581-1.814h-7.307l-2.756-7.351a1 1 0 0 0 -1.874 0l-2.756 7.351h-7.307a1 1 0 0 0 -.952.7zm8.952 1.3a1 1 0 0 0 .937-.649l2.063-5.503 2.063 5.5a1 1 0 0 0 .937.652h4.88l-4.461 3.186a1 1 0 0 0 -.338 1.208l1.592 3.715-4.092-2.923a1 1 0 0 0 -1.162 0l-4.092 2.923 1.592-3.715a1 1 0 0 0 -.338-1.208l-4.461-3.186z"/><path d="m39.419 10.814 6.345 4.532-2.683 6.26a1 1 0 0 0 1.5 1.208l6.419-4.585 6.419 4.585a1 1 0 0 0 1.5-1.208l-2.683-6.26 6.345-4.532a1 1 0 0 0 -.581-1.814h-7.307l-2.756-7.351a1 1 0 0 0 -1.874 0l-2.756 7.351h-7.307a1 1 0 0 0 -.581 1.814zm8.581.186a1 1 0 0 0 .937-.649l2.063-5.503 2.063 5.5a1 1 0 0 0 .937.652h4.88l-4.461 3.186a1 1 0 0 0 -.338 1.208l1.592 3.715-4.092-2.923a1 1 0 0 0 -1.162 0l-4.092 2.923 1.592-3.715a1 1 0 0 0 -.338-1.208l-4.461-3.186z"/><path d="m1.419 10.814 6.345 4.532-2.683 6.26a1 1 0 0 0 1.5 1.208l6.419-4.585 6.419 4.585a1 1 0 0 0 1.5-1.208l-2.683-6.26 6.345-4.532a1 1 0 0 0 -.581-1.814h-7.307l-2.756-7.351a1 1 0 0 0 -1.874 0l-2.756 7.351h-7.307a1 1 0 0 0 -.581 1.814zm8.581.186a1 1 0 0 0 .937-.649l2.063-5.503 2.063 5.5a1 1 0 0 0 .937.652h4.88l-4.461 3.186a1 1 0 0 0 -.338 1.208l1.592 3.715-4.092-2.923a1 1 0 0 0 -1.162 0l-4.092 2.923 1.592-3.715a1 1 0 0 0 -.338-1.208l-4.461-3.186z"/></g></svg>