<?xml version="1.0" encoding="utf-8"?>
<!-- Generator: Adobe Illustrator 24.0.2, SVG Export Plug-In . SVG Version: 6.00 Build 0)  -->
<svg version="1.1" id="svg8" xmlns="http://www.w3.org/2000/svg" xmlns:xlink="http://www.w3.org/1999/xlink" x="0px" y="0px"
	 width="30px" height="30px" viewBox="0 0 30 30" style="enable-background:new 0 0 30 30;" xml:space="preserve">
<style type="text/css">
	.st0{fill-rule:evenodd;clip-rule:evenodd;fill:#002E5B;}
	.st1{fill:#FDE428;}
</style>
<g id="layer1" transform="translate(0 -270.5417)">
	<g id="platipus-color" transform="matrix(.33073 0 0 .33073 -6.6146 263.927)">
		<g id="platipus" transform="translate(25 20)">
			<path id="Rounded_Rectangle_1" class="st0" d="M10.94,12.28h55.37L78.44,1.83v78.34c0,4.8-3.88,8.7-8.67,8.7H10.94
				c-2.3,0-4.51-0.92-6.13-2.55c-1.63-1.63-2.54-3.85-2.53-6.15V20.98c0-2.31,0.91-4.52,2.53-6.15C6.43,13.2,8.63,12.28,10.94,12.28
				z"/>
			<path id="path3386" class="st1" d="M43.6,59.34c0.84-0.5,1.56-1.19,2.09-2.02c0.55-0.89,0.94-1.87,1.13-2.9
				c0.22-1.11,0.33-2.24,0.33-3.37c0-1.13-0.12-2.26-0.36-3.37c-0.22-1.05-0.62-2.05-1.18-2.96c-0.54-0.85-1.26-1.57-2.12-2.1
				c-0.96-0.56-2.05-0.84-3.16-0.8c-1.13-0.04-2.24,0.24-3.22,0.8c-0.85,0.52-1.56,1.23-2.09,2.07c-0.55,0.9-0.93,1.89-1.13,2.93
				c-0.22,1.13-0.33,2.28-0.33,3.43c0,1.13,0.12,2.26,0.36,3.37c0.21,1.03,0.6,2.01,1.16,2.9C37.01,60.04,40.65,60.9,43.6,59.34z
				 M33.45,36.69v3.65h0.11c0.85-1.46,2.12-2.63,3.63-3.37c1.51-0.71,3.17-1.07,4.84-1.05c2-0.05,3.98,0.38,5.77,1.27
				c1.57,0.81,2.94,1.96,4.02,3.37c1.09,1.46,1.9,3.12,2.37,4.89c0.52,1.9,0.78,3.86,0.77,5.83c0.01,1.87-0.25,3.73-0.77,5.53
				c-0.48,1.7-1.27,3.29-2.34,4.7c-1.04,1.36-2.38,2.48-3.91,3.26c-1.7,0.84-3.58,1.26-5.47,1.22c-1.68,0.02-3.35-0.35-4.87-1.08
				c-1.48-0.71-2.74-1.81-3.66-3.18h-0.11v13.54h-7.81V36.69H33.45z"/>
		</g>
	</g>
</g>
</svg>
