<svg xmlns="http://www.w3.org/2000/svg" width="96" height="96"><g fill="none" fill-rule="evenodd"><circle cx="48" cy="48" r="48" fill="#ECEDEF"/><path fill="#D23B42" d="M56 60v24l-8.24-1.9L40 84V60z"/><path fill="#FFF" stroke="#D23B42" stroke-linecap="round" stroke-width="2" d="M36.5 63v21M59.5 63v21"/><path fill="#FFF" stroke="#000" stroke-width="2" d="M47.15 67.2l-4.61 2.17a2 2 0 01-2.5-.67l-2.9-4.18a2 2 0 00-1.48-.85l-5.07-.43a2 2 0 01-1.83-1.83l-.43-5.07a2 2 0 00-.85-1.47l-4.18-2.92a2 2 0 01-.67-2.49l2.17-4.61a2 2 0 000-1.7l-2.17-4.61a2 2 0 01.67-2.5l4.18-2.9a2 2 0 00.85-1.48l.43-5.07a2 2 0 011.83-1.83l5.07-.43a2 2 0 001.47-.85l2.92-4.18a2 2 0 012.49-.67l4.61 2.17a2 2 0 001.7 0l4.61-2.17a2 2 0 012.5.67l2.9 4.18a2 2 0 001.48.85l5.07.43a2 2 0 011.83 1.83l.43 5.07a2 2 0 00.85 1.47l4.18 2.92a2 2 0 01.67 2.49l-2.17 4.61a2 2 0 000 1.7l2.17 4.61a2 2 0 01-.67 2.5l-4.18 2.9a2 2 0 00-.85 1.48l-.43 5.07a2 2 0 01-1.83 1.83l-5.07.43a2 2 0 00-1.47.85l-2.92 4.18a2 2 0 01-2.49.67l-4.61-2.17a2 2 0 00-1.7 0z"/><path fill="#D23B42" d="M51.89 35h2.71a2.4 2.4 0 012.19 3.4l-6.64 13.27A2.4 2.4 0 0148.19 53L48 53h-1.9a2.4 2.4 0 01-1.66-.67l-.14-.15-4.7-5.33a2.4 2.4 0 011.62-3.98h3.27c.56 0 1.1.18 1.52.53l.15.14 3.59-7.2A2.4 2.4 0 0151.69 35l.2-.01h2.71-2.71z"/></g></svg>