<?xml version="1.0" encoding="utf-8"?>
<!-- Generator: Adobe Illustrator 24.0.2, SVG Export Plug-In . SVG Version: 6.00 Build 0)  -->
<svg version="1.1" id="Слой_1" xmlns="http://www.w3.org/2000/svg" xmlns:xlink="http://www.w3.org/1999/xlink" x="0px" y="0px"
	 width="30px" height="30px" viewBox="0 0 30 30" style="enable-background:new 0 0 30 30;" xml:space="preserve">
<style type="text/css">
	.st0{fill-rule:evenodd;clip-rule:evenodd;fill:#E46F2A;}
	.st1{filter:url(#Adobe_OpacityMaskFilter);}
	.st2{fill-rule:evenodd;clip-rule:evenodd;fill:#FFFFFF;}
	.st3{mask:url(#mask-2_1_);fill-rule:evenodd;clip-rule:evenodd;fill:#E46F2A;}
	.st4{filter:url(#Adobe_OpacityMaskFilter_1_);}
	.st5{mask:url(#mask-2_2_);fill-rule:evenodd;clip-rule:evenodd;fill:#E46F2A;}
	.st6{filter:url(#Adobe_OpacityMaskFilter_2_);}
	.st7{mask:url(#mask-2_3_);fill-rule:evenodd;clip-rule:evenodd;fill:#E46F2A;}
	.st8{filter:url(#Adobe_OpacityMaskFilter_3_);}
	.st9{mask:url(#mask-4_2_);fill-rule:evenodd;clip-rule:evenodd;fill:#E46F2A;}
</style>
<title>Group</title>
<desc>Created with Sketch.</desc>
<g id="Page-1">
	<g id="QUICKSPIN_x5F_WEB_x5F_RGB_x23_FF7800" transform="translate(-190.000000, -38.000000)">
		<g id="Group" transform="translate(190.000000, 38.000000)">
			<path id="Fill-6" class="st0" d="M22.74,0.77c-3.31,0-6.01,2.82-6.01,6.29c0,1,0.78,1.82,1.74,1.82c0.96,0,1.74-0.81,1.74-1.82
				c0-1.46,1.13-2.65,2.53-2.65c1.39,0,2.53,1.19,2.53,2.65c0,1,0.78,1.82,1.74,1.82c0.96,0,1.74-0.81,1.74-1.82
				C28.74,3.59,26.05,0.77,22.74,0.77"/>
			<g id="Group-11" transform="translate(0.000000, 0.265734)">
				<g id="Clip-8">
				</g>
				<defs>
					<filter id="Adobe_OpacityMaskFilter" filterUnits="userSpaceOnUse" x="16.73" y="17.83" width="12.01" height="8.11">
						<feColorMatrix  type="matrix" values="1 0 0 0 0  0 1 0 0 0  0 0 1 0 0  0 0 0 1 0"/>
					</filter>
				</defs>
				<mask maskUnits="userSpaceOnUse" x="16.73" y="17.83" width="12.01" height="8.11" id="mask-2_1_">
					<g class="st1">
						<polygon id="path-1_1_" class="st2" points="-48.57,0.5 28.74,0.5 28.74,29.26 -48.57,29.26 						"/>
					</g>
				</mask>
				<path id="Fill-7" class="st3" d="M27.01,17.83c-0.96,0-1.74,0.82-1.74,1.82c0,1.46-1.13,2.65-2.53,2.65
					c-1.39,0-2.53-1.19-2.53-2.65c0-1-0.78-1.82-1.74-1.82c-0.96,0-1.74,0.82-1.74,1.82c0,3.47,2.69,6.29,6.01,6.29
					c3.31,0,6.01-2.82,6.01-6.29C28.74,18.65,27.97,17.83,27.01,17.83"/>
				<defs>
					<filter id="Adobe_OpacityMaskFilter_1_" filterUnits="userSpaceOnUse" x="1.85" y="0.5" width="12.01" height="8.11">
						<feColorMatrix  type="matrix" values="1 0 0 0 0  0 1 0 0 0  0 0 1 0 0  0 0 0 1 0"/>
					</filter>
				</defs>
				<mask maskUnits="userSpaceOnUse" x="1.85" y="0.5" width="12.01" height="8.11" id="mask-2_2_">
					<g class="st4">
						<polygon id="path-1_2_" class="st2" points="1.86,0.5 79.17,0.5 79.17,29.26 1.86,29.26 						"/>
					</g>
				</mask>
				<path id="Fill-9" class="st5" d="M7.86,0.5c-3.31,0-6.01,2.82-6.01,6.29c0,1,0.78,1.82,1.74,1.82c0.96,0,1.74-0.81,1.74-1.82
					c0-1.46,1.13-2.65,2.53-2.65c1.39,0,2.53,1.19,2.53,2.65c0,1,0.78,1.82,1.74,1.82c0.96,0,1.74-0.81,1.74-1.82
					C13.86,3.33,11.17,0.5,7.86,0.5"/>
				<defs>
					<filter id="Adobe_OpacityMaskFilter_2_" filterUnits="userSpaceOnUse" x="1.85" y="17.83" width="12.01" height="11.44">
						<feColorMatrix  type="matrix" values="1 0 0 0 0  0 1 0 0 0  0 0 1 0 0  0 0 0 1 0"/>
					</filter>
				</defs>
				<mask maskUnits="userSpaceOnUse" x="1.85" y="17.83" width="12.01" height="11.44" id="mask-2_3_">
					<g class="st6">
						<polygon id="path-1_3_" class="st2" points="1.86,0.5 79.17,0.5 79.17,29.26 1.86,29.26 						"/>
					</g>
				</mask>
				<path id="Fill-10" class="st7" d="M12.12,17.83c-0.96,0-1.74,0.82-1.74,1.82c0,1.46-1.14,2.65-2.53,2.65
					c-1.39,0-2.53-1.19-2.53-2.65c0-1-0.78-1.82-1.74-1.82c-0.96,0-1.74,0.82-1.74,1.82c0,3.47,2.7,6.29,6.01,6.29
					c0.48,0,0.94-0.07,1.39-0.17l1.33,2.56c0.31,0.59,0.88,0.93,1.48,0.95c0.02,0,0.03,0,0.05,0c0.28,0,0.57-0.07,0.83-0.22
					c0.84-0.48,1.15-1.59,0.69-2.47l-1.38-2.65c1-1.12,1.62-2.62,1.62-4.28C13.86,18.65,13.08,17.83,12.12,17.83"/>
			</g>
			<path id="Fill-15" class="st0" d="M18.47,9.91c-0.1,0-0.2-0.01-0.3-0.02l6.21,9.26c0.32-1.2,1.37-2.09,2.62-2.09
				c0.08,0,0.16,0.01,0.23,0.01L21.08,7.9C20.74,9.06,19.7,9.91,18.47,9.91"/>
			<path id="Fill-23_1_" class="st0" d="M15.44,23.6"/>
			<g id="Group-30" transform="translate(0.000000, 0.265734)">
				<g id="Clip-28">
				</g>
				<defs>
					<filter id="Adobe_OpacityMaskFilter_3_" filterUnits="userSpaceOnUse" x="1.85" y="8.99" width="3.48" height="8.47">
						<feColorMatrix  type="matrix" values="1 0 0 0 0  0 1 0 0 0  0 0 1 0 0  0 0 0 1 0"/>
					</filter>
				</defs>
				<mask maskUnits="userSpaceOnUse" x="1.85" y="8.99" width="3.48" height="8.47" id="mask-4_2_">
					<g class="st8">
						<polygon id="path-3_2_" class="st2" points="1.86,0.5 28.96,0.5 28.96,17.46 1.86,17.46 						"/>
					</g>
				</mask>
				<path id="Fill-29" class="st9" d="M3.59,16.8c0.66,0,1.27,0.25,1.74,0.66V8.99C4.86,9.4,4.25,9.65,3.59,9.65
					c-0.66,0-1.27-0.25-1.74-0.65v8.46C2.32,17.04,2.93,16.8,3.59,16.8"/>
			</g>
			<path id="Fill-31" class="st0" d="M12.12,9.91c-0.66,0-1.27-0.25-1.74-0.66v8.47c0.47-0.41,1.08-0.66,1.74-0.66
				c0.66,0,1.26,0.25,1.74,0.66V9.26C13.39,9.66,12.78,9.91,12.12,9.91"/>
		</g>
	</g>
</g>
</svg>
