<?xml version="1.0" encoding="utf-8"?>
<!-- Generator: Adobe Illustrator 24.0.2, SVG Export Plug-In . SVG Version: 6.00 Build 0)  -->
<svg version="1.1" id="Слой_1" xmlns="http://www.w3.org/2000/svg" xmlns:xlink="http://www.w3.org/1999/xlink" x="0px" y="0px"
	 width="30px" height="30px" viewBox="0 0 30 30" style="enable-background:new 0 0 30 30;" xml:space="preserve">
<style type="text/css">
	.st0{fill-rule:evenodd;clip-rule:evenodd;fill:#C63539;}
</style>
<title>Red Tiger color</title>
<desc>Created with Sketch.</desc>
<g id="Red-Tiger-color">
	<path id="Fill-1" class="st0" d="M19.76,10.65c0.03,0.49,0.31,1.06,0.95,0.75c0.93-0.46,0.59-1.26,0.59-1.51
		c-0.21,0.03-0.58,0.04-0.77,0.12C20.26,10.11,19.95,10.36,19.76,10.65 M8.77,10.23c0.02,0.45-0.02,0.95,0.68,1.18
		c0.42,0.14,0.93-0.43,0.96-0.83c-0.28-0.35-0.56-0.51-0.82-0.6C8.93,9.73,8.78,9.69,8.77,10.23 M12.71,14.73
		c0,0-0.48,0.28-0.48,0.68c0,0.55,0.14,0.65,0.25,0.75c0.23,0.21,1.22,0.26,1.38,0.26c1.42,0.03,2,0,3.42-0.05
		c0.3-0.01,0.51-0.11,0.72-0.35c0.13-0.15,0.16-0.44,0-0.75c-0.08-0.16-0.18-0.41-0.35-0.54c-0.1,0.17,0.04,0.69-0.76,0.98
		c-0.34,0.12-1.26,0.2-1.63,0.2C13.52,15.91,12.69,15.67,12.71,14.73 M11.43,13.74c-0.79-0.01-1,0.48-1.17,0.98
		c-0.24,0.66,0.53,1.34-0.67,1.69c0.47,0.4,1.06,1.4,1.82,2.03c-1.3,0.28-1.83-0.75-2.7-1.22c0.26,1.51,1.66,1.7,2.49,2.47
		c-0.04,0.07-0.03,0.06-0.07,0.12c-0.79-0.2-1.56-0.39-2.54-0.63c0.7,1.33,2.08,0.67,2.93,1.37c-0.82,0.52-1.57,0.24-2.31,0.16
		c-0.16-0.02-0.33,0.1-0.5,0.16c0.1,0.15,0.17,0.36,0.32,0.45c0.35,0.23,0.72,0.47,1.12,0.58c0.34,0.1,0.76,0.13,1.1,0.03
		c1.07-0.33,2.12-0.73,3.16-1.13c0.18-0.07,0.38-0.3,0.41-0.49c0.07-0.34-0.01-0.7,0.02-1.04c0.05-0.51-0.19-0.82-0.65-0.95
		c-1.01-0.29-1.83-0.86-2.45-1.67c-0.24-0.33-0.47-0.92-0.48-1.33C11.24,14.81,11.36,14.29,11.43,13.74 M21.12,16.55
		c-1.01-0.29-1.03-0.95-1.07-1.61c-0.01-0.17-0.06-0.38-0.17-0.49c-0.26-0.26-0.57-0.48-0.87-0.72c-0.03,0.32-0.1,0.64-0.09,0.95
		c0.01,0.35,0.11,0.69,0.11,1.04c0,0.19-0.11,0.47-0.23,0.62c-0.71,0.87-1.52,1.61-2.62,2c-0.24,0.09-0.55,0.36-0.58,0.59
		c-0.06,0.43-0.05,0.86-0.04,1.25c0.01,0.29,0.19,0.54,0.45,0.64c1.07,0.41,2.07,0.8,3.08,1.15c0.25,0.09,0.59,0.12,0.83,0.02
		c0.46-0.18,0.89-0.45,1.3-0.73c0.16-0.11,0.24-0.34,0.35-0.51c-0.17-0.07-0.32-0.02-0.5-0.05c-0.5-0.09-1.2-0.06-1.53-0.38
		c0.72-0.28,1.59-0.1,2.08-1.14c-0.92,0.23-1.69,0.42-2.47,0.61c-0.04-0.07-0.04-0.07-0.08-0.14c0.77-0.76,2.24-0.87,2.3-2.37
		c-0.78,0.51-1.32,1.44-2.58,1.13C19.6,17.78,20.24,17.26,21.12,16.55 M18.88,26.27c-0.2-0.93,0-1.14,0.82-0.85
		c0.3,0.11,0.54,0.41,0.81,0.62c0.14,0.11,0.28,0.22,0.57,0.44c-0.93-3.02-3.29-3.97-6.85-3.77c-2.89,0.16-4.76,1.86-4.89,3.73
		c0.3-0.23,0.5-0.61,0.81-0.8c0.31-0.19,0.79-0.47,1.1-0.26c0.21,0.14,0.01,0.79,0.11,1.16c1.77,1.05,3.85,0.95,3.8-0.26
		c0,0.93,0.58,0.91,1.07,0.92C17.25,27.2,18.23,26.88,18.88,26.27 M9.87,3.08C9.1,3.53,7.81,3.93,7.11,3.83
		C6.39,3.73,5.56,3.7,4.87,3.5C4.66,3.43,4.42,3.45,4.16,3.6c0.49,0.25,2.19,0.99,2.17,1.03C6.14,4.57,5.18,4.36,4.91,4.27
		c0.17,0.7,0.32,1.31,0.46,1.91C5.44,6.16,5.5,6.14,5.57,6.11C5.45,6.79,5.28,7.46,5.24,8.14c-0.05,0.83,0.23,1.53,0.92,2.1
		c0.76,0.62,1.35,1.47,2.14,2.03c0.78,0.56,1.73,0.85,2.98,0.61c-0.31-0.3-0.46-0.54-0.69-0.66c-0.39-0.21-0.82-0.37-1.25-0.51
		C7.67,11.2,6.78,9.89,6.07,8.43C5.88,8.05,5.94,7.54,5.89,7.09l0.23-0.07C6.27,7.32,6.42,7.61,6.56,7.9
		C6.78,8.4,7.08,8.61,7.7,8.62c1.39,0.01,2.72,0.24,3.48,1.68c0.39,0.73,0.85,1.45,1.65,1.78c0.06-0.04-0.05-0.83-0.19-1.23
		c0.64-0.26,0.39-0.64,0.05-1.01c-0.47-0.5-0.94-1-1.44-1.53c0.5-0.14,1.13-0.52,1.11-0.61H9.66c0-0.03,0-0.05-0.01-0.08
		c0.79-0.14,2.37-0.7,2.36-0.84c-1.26-0.77-2.75-0.27-4.11-0.5c-0.01-0.1,0-0.08-0.01-0.19c0.87-0.22,1.74-0.44,2.6-0.67
		c0.84-0.23,2.49-0.9,2.47-1H9.41c1.12-0.5,2.11-1.23,3.4-1.21c1.35,0.03,2.7,0.08,4.04-0.02c1.5-0.11,2.68,0.6,3.99,1.22h-3.57
		c-0.02,0.1,1.67,0.78,2.54,1.01c0.85,0.23,1.7,0.44,2.53,0.75c-1.36,0.34-2.84-0.2-4.22,0.69c0.74,0.84,1.72,0.43,2.62,0.8h-2.87
		c-0.02,0.09,0.61,0.5,1.1,0.66c-0.5,0.54-0.99,1.06-1.49,1.58c-0.38,0.39-0.4,0.71,0.12,0.93c-0.14,0.38-0.27,1.21-0.2,1.26
		c0.31-0.24,0.66-0.45,0.92-0.74c0.3-0.33,0.57-0.71,0.77-1.1c0.68-1.38,1.99-1.63,3.28-1.64c0.82-0.01,1.19-0.27,1.42-0.96
		c0.07-0.22,0.22-0.42,0.37-0.71c0.33,0.82,0.06,1.39-0.25,2.04c-0.84,1.72-2.28,2.57-4,3.13c-0.31,0.1-0.55,0.38-0.83,0.58
		c0,0,0.83,0.31,1.16,0.24c1.47-0.32,2.71-1,3.53-2.31c0.08-0.13,0.25-0.33,0.36-0.44C24.97,9.39,25.26,8.1,24.9,7
		c-0.1-0.3-0.7-0.76,0.14-0.96c0.02-0.01,0.03-0.09,0.04-0.13c0.05-0.5,0.09-1,0.15-1.62c-0.4,0.21-0.83,0.29-1.3,0.54
		c0.55-0.53,1.32-1,2.23-1.17c0.01-0.07-0.93-0.32-1.4-0.28c-0.84,0.08-1.67,0.32-2.51,0.34c-0.58,0.01-1.61-0.63-1.58-0.63
		c2.55,0.39,4.88-0.35,7.14-1.41c0.94-0.44,1.87,0.09,1.84,1.13c-0.04,1.37-0.28,2.69-1.41,3.65c-0.2,0.17-0.42,0.75-0.42,0.75
		l0.99-0.51c0.13,1.26-0.86,1.49-1.76,1.85c-0.16-0.35-0.28-0.73-0.5-1.04c-0.12-0.17-0.4-0.22-0.61-0.32
		c-0.1,0.21-0.27,0.41-0.28,0.62c-0.02,0.45,0.03,0.9,0.09,1.34c0.15,1.18-0.29,2.09-1.21,2.81c-0.11,0.09-0.2,0.21-0.29,0.32
		c0.42,0.35,0.42,0.35,1.28-0.04c-0.17,0.42-0.23,1.01-0.55,1.23c-0.34,0.23-0.92,0.12-1.4,0.15c0.05,0.57,0.05,0.57,1.6,0.95
		c-0.07,0.26-0.14,0.52-0.21,0.78c-0.15,0.54-0.78,0.78-1.24,0.46c-0.9-0.61-1.78-1.07-2.96-0.69c0.96,0.55,1.92,1.09,2.94,1.67
		c-0.39,0.54-0.31,0.86,0.26,1.15c0.55,0.28,0.65,1.86,0.16,2.32c-0.52,0.48-0.64,3.59-0.56,3.62c0.18-0.32,0.43-1.19,0.56-1.6
		c0.31-0.95,0.53-1.42,1.04-2.03c0.37-0.44,1.13-1.88,0.12-2.57c0,0,0.19-0.38,0.45-1.05c0.41-1.04,0.72-1.4,1.25-2.39
		c0.04-0.08,0.64-0.94,0.7-1.01c0,0-1.4,4.32-1.42,4.55c0.26-0.07,1.35-0.55,1.46-0.49c-0.36,1.21-0.64,2.44-1.09,3.61
		c-0.45,1.17-1.07,2.28-1.61,3.41c0.1,0.08,1.04-0.32,1.34-0.66c1.58-1.8,2.19-4,2.38-6.33c0.08-0.92,0.01-1.84,0.17-2.8
		c0.23,0.87,0.58,1.72,0.65,2.6c0.11,1.26,0.38,1.92-0.01,3.81c0,0.16-0.08,0.34-0.17,0.49c-1.15,1.8-2.32,3.6-3.48,5.41l-0.21-0.89
		c-0.1-0.01-0.1-0.02-0.2-0.03c-0.12,0.21-0.25,0.41-0.35,0.63c-0.4,0.89-1.32,2.62-1.38,2.59c0-0.86,0.01-1.72,0-2.58
		c-0.01-0.4,0-0.89-0.55-0.89c-0.54,0-0.56,0.47-0.57,0.88c-0.01,0.47,0,0.93,0,1.51c-0.69-0.38-1.22-0.74-1.79-0.99
		c-0.63-0.28-1.23-0.38-1.83,0.26c-0.52,0.56-1.24,0.81-2.09,0.76c-1.16-0.06-2.34-0.05-3.49,0.1c-0.98,0.13-1.68-0.33-2.27-0.9
		c-0.54-0.52-1.06-0.53-1.63-0.29C8.94,27.27,8.37,27.63,7.67,28c-0.03-0.49,0-1-0.11-1.48c-0.07-0.31-0.3-0.79-0.51-0.82
		c-0.53-0.08-0.59,0.41-0.59,0.83c-0.01,0.89,0,1.79-0.1,2.77c-0.54-1.11-1.08-2.23-1.63-3.34c-0.1,0.01-0.1,0.01-0.19,0.02
		c-0.08,0.3-0.15,0.59-0.24,0.96c-0.75-1.26-1.46-2.46-2.17-3.66C2.09,23.21,2.04,23.15,2,23.08c-0.42-0.86-1.24-1.86-1.39-2.51
		c-0.48-2.01-0.09-4.09,0.88-6.03c0,0.45,0,0.9,0,1.35c0,0.47-0.03,0.95,0,1.42c0.18,2.31,0.8,4.47,2.32,6.28
		c0.32,0.38,0.83,0.61,1.36,0.82c-1.21-2.31-2.26-4.63-2.55-7.04l1.2,0.42c-0.12-0.42-0.2-0.87-0.37-1.26
		c-0.28-0.62-0.52-2.13-0.93-3.48c0.54,1.1,1.13,2.24,1.68,3.08c0.46,0.7,1.1,1.69,1.01,1.76c-0.45,0.4-0.9,1.45-0.26,2.43
		c0.42,0.65,0.85,1.22,1.15,1.97c0.28,0.7,0.36,0.68,0.61,1.83c0.09-0.38,0.15-1.18,0.14-1.33c-0.01-0.27-0.16-1.98-0.69-2.46
		c-0.64-0.58-0.4-2.09,0.28-2.65c0.21-0.17,0.11-0.88,0.11-0.88c0.96-0.55,1.92-1.1,2.89-1.66c-0.62-0.47-1.43-0.2-2.95,0.76
		c-0.47,0.3-1.1,0.01-1.22-0.53l-0.2-0.84c0.25-0.04,0.62-0.03,0.95-0.16c0.3-0.12,0.53-0.38,0.89-0.65
		c-0.75-0.13-1.34-0.11-1.77-0.37c-0.26-0.15-0.27-0.73-0.4-1.13c0.46,0.14,0.81,0.25,1.17,0.36l0.11-0.22
		c-0.35-0.4-0.75-0.77-1.03-1.22c-0.59-0.95-0.69-2-0.47-3.1c0.05-0.25-0.12-0.56-0.2-0.83C4.05,7.39,3.73,7.52,3.53,7.76
		C3.35,7.97,3.31,8.29,3.2,8.59C2.36,8.17,1.29,8.03,1.44,6.74l0.98,0.5c0,0-0.22-0.58-0.41-0.75C0.86,5.5,0.61,4.17,0.6,2.76
		C0.59,1.77,1.53,1.22,2.41,1.69c1.68,0.9,3.52,1.24,5.36,1.56C8.38,3.36,9.04,3.16,9.87,3.08"/>
</g>
</svg>
