<?xml version="1.0" encoding="utf-8"?>
<!-- Generator: Adobe Illustrator 24.0.2, SVG Export Plug-In . SVG Version: 6.00 Build 0)  -->
<svg version="1.1" id="svg8" xmlns="http://www.w3.org/2000/svg" xmlns:xlink="http://www.w3.org/1999/xlink" x="0px" y="0px"
	 width="30px" height="30px" viewBox="0 0 30 30" style="enable-background:new 0 0 30 30;" xml:space="preserve">
<style type="text/css">
	.st0{fill:#FF9F00;}
</style>
<g id="layer1" transform="translate(0 -270.5417)">
	<g id="Page-1" transform="matrix(.38945 0 0 .38945 -2.3487 268.193)">
		<g id="thunderkick-color">
			<path id="Shape" class="st0" d="M75.38,58.46l2.3-16.16l-9.67-20.29l-6.58,2.25l-8.58-9.2L37.69,6.8l-3.32,12.26l-2.35-6.44
				L20.38,24l-6.52,11.38l-0.29,11.8l-4.59-2.18l3.12,18.9l7.1,12.17l16.74,5.74l13.71,0.5l23.64-8.64l6.8-16.81L75.38,58.46z
				 M65.15,49.5l-13.41,0.34l-0.48,15.08l-0.72,8.93l-11.68-0.12v-8.56l-0.97-14.96l-14.01,0.6L23.4,36.33l20.63-0.12l21.35-0.6
				l0.36,1.93L65.15,49.5z"/>
		</g>
	</g>
</g>
</svg>
