<?xml version="1.0" encoding="utf-8"?>
<!-- Generator: Adobe Illustrator 24.0.2, SVG Export Plug-In . SVG Version: 6.00 Build 0)  -->
<svg version="1.1" id="svg8" xmlns="http://www.w3.org/2000/svg" xmlns:xlink="http://www.w3.org/1999/xlink" x="0px" y="0px"
	 width="30px" height="30px" viewBox="0 0 30 30" style="enable-background:new 0 0 30 30;" xml:space="preserve">
<style type="text/css">
	.st0{fill:#0089FF;}
</style>
<g id="layer1" transform="translate(0 -280.679)">
	<g id="g55" transform="translate(0 280.698) scale(.3949)">
		<path id="Shape_2_" class="st0" d="M51.15,41.84v4.78H26.59V29.29h6v12.56H51.15z"/>
		<path id="Shape_3_" class="st0" d="M67.82,46.62l-9.67-8.22v8.22h-5.89V29.29h5.89v7.33l0.11-0.11l9.89-7.22h7.22l-10.34,8.56
			l0.11,0.11l10.22,8.67H67.82z"/>
		<path id="Shape_4_" class="st0" d="M25.15,29.29v4.67h-16c-1.11,0-1.78,0-2,0.22c-0.22,0.33-0.22,1-0.22,1.44h18.23v4.56H6.92
			c0,0.44-0.11,1.11,0.11,1.44c0.22,0.22,1.11,0.33,2,0.22h16.11v4.78H8.81c-3.78,0-6.45,0.33-7.56-2.56
			c-0.22-0.56-0.33-1.44-0.33-2.33v-7.11c0-2,0.33-3.67,1.67-4.67c1.33-1,4.33-0.67,6.67-0.67H25.15z"/>
	</g>
</g>
</svg>
