<?xml version="1.0" encoding="utf-8"?>
<!-- Generator: Adobe Illustrator 24.0.2, SVG Export Plug-In . SVG Version: 6.00 Build 0)  -->
<svg version="1.1" id="Слой_1" xmlns="http://www.w3.org/2000/svg" xmlns:xlink="http://www.w3.org/1999/xlink" x="0px" y="0px"
	 width="30px" height="30px" viewBox="0 0 30 30" style="enable-background:new 0 0 30 30;" xml:space="preserve">
<g>
	<g transform="matrix(.37257 0 0 .37257 12.648 0)">
		<ellipse cx="-21.54" cy="14.29" rx="10.69" ry="10.68"/>
		<path d="M44.74,14.29c0.04,4.33-2.54,8.26-6.53,9.94c-3.99,1.69-8.61,0.8-11.69-2.25c-3.08-3.05-4.01-7.65-2.36-11.65
			c1.65-4.01,5.55-6.62,9.89-6.62C39.91,3.7,44.68,8.42,44.74,14.29L44.74,14.29z"/>
		<ellipse cx="-21.54" cy="66.23" rx="10.69" ry="10.68"/>
		<path d="M44.74,66.23c0,5.9-4.79,10.68-10.69,10.68c-5.9,0-10.69-4.78-10.69-10.68c0,0,0,0,0,0c0-5.9,4.79-10.68,10.69-10.68
			C39.95,55.55,44.73,60.33,44.74,66.23C44.74,66.23,44.74,66.23,44.74,66.23z M16.94,40.24c-0.02,4.33-2.64,8.22-6.65,9.85
			c-4.01,1.64-8.61,0.69-11.65-2.38c-3.04-3.08-3.92-7.69-2.23-11.67c1.69-3.98,5.62-6.56,9.94-6.52
			C12.22,29.57,16.96,34.36,16.94,40.24L16.94,40.24z"/>
	</g>
</g>
</svg>
