<?xml version="1.0" encoding="utf-8"?>
<!-- Generator: Adobe Illustrator 24.0.2, SVG Export Plug-In . SVG Version: 6.00 Build 0)  -->
<svg version="1.1" id="Слой_1" xmlns="http://www.w3.org/2000/svg" xmlns:xlink="http://www.w3.org/1999/xlink" x="0px" y="0px"
	 width="30px" height="30px" viewBox="0 0 30 30" style="enable-background:new 0 0 30 30;" xml:space="preserve">
<style type="text/css">
	.st0{fill:#FFFFFF;}
</style>
<g>
	<path d="M11.38,12.12c-0.78-0.3-1.44-0.67-2.14-0.79c-2.48-0.45-4.75,1.45-4.77,3.97c-0.03,2.56,0,5.13-0.02,7.69
		c0,0.41,0.21,0.38,0.48,0.38c5.68,0,11.36,0,17.04,0c1.02,0,2.04-0.01,3.05,0.01c0.36,0.01,0.48-0.09,0.48-0.47
		c-0.02-2.33,0-4.66-0.02-6.99c0-0.35,0.1-0.59,0.36-0.83c0.43-0.4,0.8-0.87,1.26-1.39c0.08,0.53,0.21,1.01,0.21,1.49
		c0.02,4.73,0.01,9.45,0.01,14.18c0,0.05-0.01,0.1-0.02,0.19c-8.2,0-16.39,0-24.64,0c-0.01-0.12-0.02-0.25-0.02-0.39
		c0-4.62-0.01-9.25,0-13.87c0.02-4.53,4.99-7.36,8.89-5.09c0.36,0.21,0.47,0.44,0.32,0.81C11.69,11.41,11.51,11.81,11.38,12.12z
		 M5.05,28c0-0.54,0-1.03,0-1.51c0.33,0.42,0.56,0.86,0.8,1.3c0.05,0.09,0.15,0.16,0.23,0.24c0.08-0.08,0.17-0.14,0.23-0.23
		c0.14-0.23,0.26-0.48,0.38-0.72c0.11-0.21,0.23-0.42,0.34-0.64c0.04,0.01,0.08,0.03,0.12,0.04c0,0.51,0,1.01,0,1.51
		c0.2,0,0.34,0,0.48,0c0-0.8,0-1.57,0-2.34c0-0.19-0.01-0.39-0.03-0.58c-0.01-0.07-0.08-0.13-0.13-0.2
		c-0.07,0.05-0.16,0.08-0.2,0.14c-0.11,0.16-0.19,0.34-0.28,0.51c-0.29,0.51-0.57,1.01-0.89,1.58c-0.23-0.4-0.41-0.72-0.6-1.05
		c-0.19-0.32-0.36-0.65-0.56-0.97C4.87,25,4.75,24.95,4.66,24.87c-0.04,0.1-0.1,0.2-0.11,0.3c-0.02,0.64-0.03,1.29-0.04,1.93
		c0,0.29,0,0.58,0,0.9C4.67,28,4.82,28,5.05,28z M22.3,26.46c0.01-0.93-0.68-1.63-1.63-1.65c-0.92-0.02-1.68,0.71-1.69,1.6
		c-0.01,0.96,0.68,1.65,1.65,1.65C21.59,28.06,22.29,27.39,22.3,26.46z M11.43,28.08c0-0.85,0.06-1.61-0.02-2.36
		c-0.06-0.6-0.6-0.92-1.25-0.91c-0.63,0.01-1.12,0.31-1.18,0.89C8.9,26.46,8.96,27.23,8.96,28c0.16,0,0.3,0,0.51,0
		c0-0.18-0.02-0.35,0.01-0.51c0.02-0.08,0.12-0.21,0.19-0.22c0.41-0.02,0.81-0.01,1.25-0.01c0.01,0.24-0.04,0.46,0.05,0.61
		C11.02,27.98,11.24,28,11.43,28.08z M18.04,27.36c-0.64,0.18-1.28,0.34-1.76-0.26c-0.29-0.36-0.32-0.8-0.08-1.19
		c0.46-0.74,1.15-0.55,1.85-0.37c0.06-0.16,0.11-0.29,0.18-0.5c-0.35-0.08-0.66-0.18-0.97-0.21c-0.93-0.09-1.78,0.66-1.8,1.56
		c-0.02,1.22,1.09,1.98,2.35,1.61C18.28,27.85,18.29,27.8,18.04,27.36z M12.66,27.34c-0.24,0.42-0.23,0.5,0.21,0.61
		c0.31,0.08,0.64,0.1,0.95,0.08c0.39-0.03,0.67-0.26,0.77-0.65c0.1-0.39-0.04-0.71-0.42-0.95c-0.25-0.15-0.55-0.23-0.79-0.4
		c-0.12-0.08-0.23-0.29-0.22-0.42c0.01-0.1,0.23-0.25,0.35-0.26c0.25-0.01,0.5,0.07,0.75,0.11c0.23-0.4,0.2-0.51-0.25-0.58
		c-0.24-0.04-0.49-0.05-0.72-0.01c-0.41,0.07-0.68,0.37-0.73,0.75c-0.06,0.4,0.14,0.67,0.47,0.85c0.21,0.12,0.46,0.18,0.66,0.32
		c0.14,0.11,0.22,0.3,0.32,0.46c-0.16,0.09-0.33,0.26-0.5,0.27C13.24,27.51,12.97,27.4,12.66,27.34z M25.48,24.87
		c-0.82,0-1.59-0.01-2.36,0.01c-0.08,0-0.22,0.16-0.22,0.25c0,0.09,0.13,0.22,0.23,0.25c0.14,0.04,0.31,0.03,0.46,0.01
		c0.28-0.03,0.35,0.09,0.35,0.36c-0.01,0.6-0.01,1.21,0,1.81c0,0.5,0.03,0.52,0.56,0.4c0-0.66,0-1.32,0-1.99
		c0-0.57,0-0.57,0.55-0.57c0.14,0,0.28,0,0.44,0C25.48,25.21,25.48,25.06,25.48,24.87z"/>
	<path d="M2.87,11.84c-0.07-0.49-0.2-0.94-0.2-1.39C2.65,7.18,2.66,3.91,2.65,0.64c0-0.05,0.01-0.1,0.02-0.18c8.2,0,16.4,0,24.63,0
		c0.01,0.1,0.03,0.2,0.03,0.29c0,3.17,0.03,6.34-0.02,9.51c-0.03,2.25-1.06,3.99-3.03,5.09c-1.97,1.1-3.97,1.01-5.93-0.08
		c-0.27-0.15-0.37-0.34-0.26-0.63c0.17-0.44,0.34-0.88,0.54-1.38c0.19,0.12,0.29,0.19,0.39,0.26c1.37,0.91,2.82,1.05,4.28,0.29
		c1.47-0.77,2.2-2.05,2.21-3.71c0.02-2.49,0-4.97,0.01-7.46c0-0.32-0.11-0.41-0.42-0.41c-6.74,0.01-13.48,0.01-20.21,0
		c-0.37,0-0.42,0.14-0.41,0.45c0.01,2.36,0,4.72,0.01,7.07c0,0.28-0.09,0.47-0.29,0.67C3.77,10.84,3.36,11.31,2.87,11.84z"/>
	<path d="M5.76,13.34c0.38,0.21,0.71,0.43,1.07,0.59c2.06,0.91,4.46-0.01,5.38-2.03c0.94-2.07,0.09-4.47-1.93-5.46
		c-0.22-0.11-0.36-0.14-0.54,0.11C9.08,7.43,7.77,7.27,7.29,6.28c-0.08-0.16-0.22-0.31-0.37-0.4C6.33,5.5,6.05,4.85,6.24,4.21
		c0.19-0.66,0.74-1.03,1.45-1.04c0.21,0,0.43-0.04,0.62-0.14c0.99-0.51,2.1,0.09,2.15,1.21c0.01,0.24,0.11,0.33,0.31,0.42
		c2.45,1.08,3.87,3.42,3.64,6.02c-0.22,2.53-2.01,4.62-4.55,5.25c-1.59,0.39-3.1,0.13-4.49-0.73c-0.11-0.07-0.24-0.24-0.23-0.35
		C5.17,14.29,5.4,13.78,5.76,13.34z"/>
	<path d="M24.1,12.28c-0.71-0.56-1.37-0.87-2.11-0.99c-2.03-0.34-3.97,0.86-4.62,2.88c-0.6,1.87,0.34,4.02,2.13,4.89
		c0.23,0.11,0.38,0.14,0.58-0.11c0.69-0.87,1.96-0.7,2.45,0.31c0.07,0.15,0.21,0.29,0.35,0.38c0.59,0.36,0.88,1.02,0.7,1.65
		c-0.19,0.67-0.76,1.06-1.48,1.05c-0.2,0-0.43,0.05-0.61,0.15c-0.91,0.48-2.04-0.09-2.14-1.13c-0.03-0.3-0.13-0.44-0.4-0.57
		c-3.63-1.66-4.69-6.1-2.21-9.22c1.82-2.28,5.26-2.85,7.72-1.28c0.2,0.13,0.31,0.25,0.22,0.5C24.48,11.26,24.3,11.73,24.1,12.28z"/>
	<path d="M15.81,11.88c-0.37-1.35-0.32-2.62,0.18-3.87c0.61-1.53,1.66-2.64,3.18-3.3c0.24-0.1,0.34-0.22,0.36-0.5
		c0.07-1.09,1.2-1.68,2.16-1.16c0.16,0.09,0.36,0.13,0.54,0.13c0.74-0.01,1.3,0.36,1.49,1.03c0.2,0.67-0.07,1.3-0.67,1.69
		c-0.14,0.09-0.28,0.23-0.34,0.38c-0.44,0.99-1.73,1.2-2.41,0.35c-0.21-0.26-0.37-0.27-0.64-0.13c-1.33,0.73-2.06,1.85-2.25,3.35
		c-0.02,0.2-0.15,0.42-0.29,0.58C16.71,10.92,16.28,11.37,15.81,11.88z"/>
	<path d="M14.19,13.64c0.4,1.46,0.3,2.84-0.31,4.18c-0.64,1.38-1.66,2.37-3.05,2.98c-0.22,0.1-0.32,0.21-0.35,0.47
		c-0.09,1.14-1.23,1.72-2.21,1.15c-0.13-0.08-0.31-0.11-0.47-0.1c-0.76,0.02-1.32-0.35-1.53-1.04c-0.19-0.64,0.07-1.27,0.67-1.66
		c0.15-0.1,0.28-0.25,0.36-0.41c0.49-1,1.77-1.16,2.45-0.28c0.17,0.22,0.3,0.23,0.51,0.12c1.39-0.73,2.15-1.87,2.33-3.42
		c0.02-0.18,0.13-0.38,0.25-0.52C13.27,14.62,13.71,14.16,14.19,13.64z"/>
	<path class="st0" d="M5.05,28c-0.23,0-0.38,0-0.55,0c0-0.31,0-0.61,0-0.9c0.01-0.64,0.02-1.29,0.04-1.93c0-0.1,0.07-0.2,0.11-0.3
		c0.09,0.07,0.22,0.12,0.28,0.21c0.2,0.32,0.38,0.64,0.56,0.97c0.18,0.32,0.37,0.64,0.6,1.05c0.32-0.57,0.61-1.08,0.89-1.58
		c0.09-0.17,0.18-0.34,0.28-0.51c0.04-0.06,0.13-0.1,0.2-0.14c0.04,0.07,0.12,0.13,0.13,0.2c0.03,0.19,0.03,0.39,0.03,0.58
		c0,0.77,0,1.54,0,2.34c-0.13,0-0.28,0-0.48,0c0-0.5,0-1,0-1.51c-0.04-0.01-0.08-0.03-0.12-0.04c-0.11,0.21-0.23,0.42-0.34,0.64
		c-0.13,0.24-0.24,0.48-0.38,0.72c-0.05,0.09-0.15,0.15-0.23,0.23c-0.08-0.08-0.17-0.14-0.23-0.24c-0.25-0.43-0.48-0.87-0.8-1.3
		C5.05,26.98,5.05,27.47,5.05,28z"/>
	<path class="st0" d="M22.3,26.46c-0.01,0.93-0.71,1.6-1.66,1.6c-0.97,0-1.66-0.69-1.65-1.65c0.01-0.89,0.77-1.62,1.69-1.6
		C21.62,24.83,22.31,25.52,22.3,26.46z M20.66,25.32c-0.59,0-1.06,0.47-1.07,1.08c-0.01,0.65,0.45,1.13,1.06,1.13
		c0.59,0,1.05-0.48,1.06-1.1C21.71,25.84,21.24,25.33,20.66,25.32z"/>
	<path class="st0" d="M11.43,28.08c-0.18-0.07-0.41-0.09-0.47-0.21c-0.08-0.15-0.04-0.37-0.05-0.61c-0.43,0-0.84-0.01-1.25,0.01
		c-0.07,0-0.17,0.13-0.19,0.22C9.45,27.65,9.47,27.82,9.47,28c-0.2,0-0.35,0-0.51,0c0-0.77-0.06-1.54,0.02-2.3
		c0.06-0.58,0.55-0.88,1.18-0.89c0.65-0.01,1.19,0.31,1.25,0.91C11.48,26.46,11.43,27.22,11.43,28.08z M10.91,26.78
		c0-0.48,0.13-0.97-0.3-1.3c-0.26-0.2-0.61-0.21-0.87,0.01c-0.41,0.34-0.3,0.82-0.28,1.29C9.96,26.78,10.41,26.78,10.91,26.78z"/>
	<path class="st0" d="M18.04,27.36c0.25,0.44,0.23,0.49-0.22,0.63c-1.26,0.37-2.37-0.39-2.35-1.61c0.02-0.9,0.87-1.65,1.8-1.56
		c0.31,0.03,0.61,0.13,0.97,0.21c-0.07,0.2-0.12,0.34-0.18,0.5c-0.7-0.19-1.39-0.38-1.85,0.37c-0.25,0.4-0.21,0.84,0.08,1.19
		C16.77,27.7,17.4,27.54,18.04,27.36z"/>
	<path class="st0" d="M12.66,27.34c0.31,0.07,0.58,0.17,0.85,0.16c0.17,0,0.33-0.17,0.5-0.27c-0.11-0.16-0.18-0.35-0.32-0.46
		c-0.19-0.14-0.44-0.2-0.66-0.32c-0.33-0.18-0.53-0.45-0.47-0.85c0.05-0.37,0.32-0.67,0.73-0.75c0.23-0.04,0.49-0.03,0.72,0.01
		c0.45,0.07,0.48,0.18,0.25,0.58c-0.25-0.04-0.5-0.12-0.75-0.11c-0.13,0.01-0.34,0.16-0.35,0.26c-0.02,0.13,0.1,0.34,0.22,0.42
		c0.24,0.16,0.54,0.24,0.79,0.4c0.39,0.23,0.52,0.55,0.42,0.95c-0.1,0.4-0.38,0.62-0.77,0.65c-0.31,0.02-0.64,0-0.95-0.08
		C12.43,27.84,12.42,27.76,12.66,27.34z"/>
	<path class="st0" d="M25.48,24.87c0,0.2,0,0.34,0,0.53c-0.17,0-0.3,0-0.44,0c-0.55,0-0.55,0-0.55,0.57c0,0.67,0,1.33,0,1.99
		c-0.53,0.13-0.56,0.1-0.56-0.4c0-0.6-0.01-1.21,0-1.81c0.01-0.26-0.07-0.38-0.35-0.36c-0.15,0.02-0.32,0.03-0.46-0.01
		c-0.1-0.03-0.22-0.16-0.23-0.25c0-0.09,0.14-0.25,0.22-0.25C23.89,24.86,24.66,24.87,25.48,24.87z"/>
	<path d="M20.66,25.32c0.58,0,1.05,0.51,1.04,1.12c-0.01,0.62-0.46,1.1-1.06,1.1c-0.61,0-1.06-0.48-1.06-1.13
		C19.6,25.8,20.07,25.32,20.66,25.32z"/>
	<path d="M10.91,26.78c-0.49,0-0.95,0-1.44,0c-0.02-0.47-0.13-0.95,0.28-1.29c0.25-0.22,0.6-0.21,0.87-0.01
		C11.04,25.82,10.9,26.31,10.91,26.78z"/>
</g>
</svg>
