<?xml version="1.0" encoding="utf-8"?>
<!-- Generator: Adobe Illustrator 24.0.2, SVG Export Plug-In . SVG Version: 6.00 Build 0)  -->
<svg version="1.1" id="Слой_1" xmlns="http://www.w3.org/2000/svg" xmlns:xlink="http://www.w3.org/1999/xlink" x="0px" y="0px"
	 width="30px" height="30px" viewBox="0 0 30 30" style="enable-background:new 0 0 30 30;" xml:space="preserve">
<style type="text/css">
	.st0{fill-rule:evenodd;clip-rule:evenodd;fill:url(#SVGID_1_);}
	.st1{fill-rule:evenodd;clip-rule:evenodd;fill:url(#SVGID_2_);}
	.st2{fill-rule:evenodd;clip-rule:evenodd;fill:url(#SVGID_3_);}
</style>
<g>
	
		<linearGradient id="SVGID_1_" gradientUnits="userSpaceOnUse" x1="-42.1425" y1="-8.6417" x2="-41.2474" y2="4.384" gradientTransform="matrix(1.3084 0 0 -0.7643 69.9734 1.1174)">
		<stop  offset="0" style="stop-color:#0B0A54"/>
		<stop  offset="0.2314" style="stop-color:#03246D"/>
		<stop  offset="1" style="stop-color:#01ACEE"/>
	</linearGradient>
	<path class="st0" d="M27.5,6c0,0-3.86-5.61-12.5-5.61C7.87,0.4,2.5,4.37,2.5,6.71c0,2.69,5.37,4.09,5.37,8.29h9.23
		c0-2.45-8.06-3.74-8.06-9C9.04,1.21,21.54,1.57,27.5,6z"/>
	
		<linearGradient id="SVGID_2_" gradientUnits="userSpaceOnUse" x1="-46.7758" y1="8.4713" x2="-43.1209" y2="-20.7524" gradientTransform="matrix(1.3084 0 0 -0.7643 69.9734 1.1174)">
		<stop  offset="0" style="stop-color:#553704"/>
		<stop  offset="0.2314" style="stop-color:#792307"/>
		<stop  offset="1" style="stop-color:#FEA702"/>
	</linearGradient>
	<path class="st1" d="M27.5,24c0,0-3.86,5.61-12.5,5.61c-7.13,0-12.5-3.97-12.5-6.31c0-2.69,5.37-4.21,5.37-8.29h9.23
		c0,2.45-8.06,3.74-8.06,9C9.04,28.79,21.54,28.43,27.5,24z"/>
	
		<linearGradient id="SVGID_3_" gradientUnits="userSpaceOnUse" x1="6.9588" y1="17.5972" x2="17.539" y2="17.1619" gradientTransform="matrix(0.898 0 0 -1.1135 -1.4373 34.6488)">
		<stop  offset="0" style="stop-color:#6A0804"/>
		<stop  offset="0.2314" style="stop-color:#A5080F"/>
		<stop  offset="1" style="stop-color:#FD121B"/>
	</linearGradient>
	<path class="st2" d="M2.62,5.89C2.5,6.24,2.5,6.47,2.5,6.71c0,2.69,5.37,4.09,5.37,8.29c0,4.09-5.37,5.61-5.37,8.29
		c0,0.23,0,0.47,0.12,0.7c-0.7-2.57,8.64-4.79,12.97-7.13c0.93-0.58,1.52-1.17,1.52-1.87c0-0.7-0.58-1.29-1.52-1.87
		C11.26,10.79,1.92,8.57,2.62,5.89L2.62,5.89z"/>
</g>
</svg>
