<svg xmlns="http://www.w3.org/2000/svg" viewBox="0 0 256 256"><defs/><path fill="#2c3e7e" d="M253 77c-14-33-71-40-133-19L93 41a12 12 0 00-19 11v27c-53 31-84 75-71 107 15 36 84 41 152 11 69-30 113-84 98-120M101 62l66 40a8 8 0 010 14l-66 39c-6 3-13 0-13-8V70c1-7 7-11 13-8M66 208c-30-2-42-21-34-47a32 32 0 003 12c11 28 64 32 117 9l3-2c-30 19-63 30-89 28m125-70c-27 32-75 55-108 53s-37-31-10-64l1-2v41c0 11 11 15 18 11l98-57a12 12 0 000-20l-40-22c11-3 21-5 30-4 32 2 37 31 11 64m37-48l-1-1c-9-22-45-29-87-19l-6-4c20-9 40-13 57-12 26 2 38 16 37 36"/></svg>