<?xml version="1.0" encoding="utf-8"?>
<!-- Generator: Adobe Illustrator 24.0.2, SVG Export Plug-In . SVG Version: 6.00 Build 0)  -->
<svg version="1.1" id="Слой_1" xmlns="http://www.w3.org/2000/svg" xmlns:xlink="http://www.w3.org/1999/xlink" x="0px" y="0px"
	 width="30px" height="30px" viewBox="0 0 30 30" style="enable-background:new 0 0 30 30;" xml:space="preserve">
<style type="text/css">
	.st0{fill:#F44F4E;}
</style>
<g>
	<path class="st0" d="M25.71,17.17c0.14-0.5,0.29-0.99,0.4-1.5c0.28-1.22,0.54-2.45,0.81-3.67c0.22-1.01,0.49-1.21,1.51-1.1
		c0.29,0.03,0.57,0.13,0.96,0.22c-0.53,2.03-1.01,4.02-1.57,5.99c-0.38,1.31-0.76,2.64-1.35,3.86c-0.65,1.36-3.23,2.03-4.51,1.26
		c-0.19-0.11-0.31-0.57-0.24-0.8c0.08-0.28,0.36-0.57,0.63-0.7c0.2-0.1,0.52,0.06,0.78,0.09c1.11,0.11,1.84-0.49,2-1.73
		c-1.44,0.03-1.63-1.07-1.9-2.14c-0.4-1.62-0.85-3.23-1.27-4.84c-0.11-0.44-0.45-0.97,0.29-1.16c0.67-0.17,1.4-0.3,1.82,0.47
		c0.18,0.33,0.25,0.73,0.33,1.1c0.36,1.53,0.7,3.06,1.05,4.59C25.55,17.14,25.63,17.16,25.71,17.17z"/>
	<path class="st0" d="M14.95,14.71c0,2.66-0.92,3.94-2.96,4.37c-1.77,0.38-3.45-0.56-4.05-2.27c-0.43-1.22-0.42-2.47-0.02-3.69
		c0.52-1.6,1.99-2.57,3.56-2.43c1.94,0.17,3.19,1.33,3.41,3.18C14.94,14.23,14.94,14.59,14.95,14.71z M9.98,14.96
		c0.09,0.56,0.08,1.16,0.31,1.65c0.17,0.36,0.68,0.82,1.01,0.79c0.39-0.03,1.02-0.5,1.06-0.84c0.13-1.07,0.11-2.18-0.02-3.26
		c-0.04-0.33-0.63-0.84-0.95-0.82c-0.4,0.02-0.92,0.42-1.11,0.8C10.04,13.77,10.07,14.39,9.98,14.96z"/>
	<path class="st0" d="M4.13,19.34c-1.68-0.18-2.9-1.06-3.27-2.62c-0.41-1.72-0.47-3.45,0.79-4.91c1.28-1.48,3.92-1.5,5.03,0.05
		c0.37,0.51,0.43,1.33,0.4,2c-0.01,0.23-0.72,0.51-1.14,0.62c-0.45,0.11-0.82-0.09-0.8-0.67c0.01-0.2,0.01-0.46-0.11-0.6
		c-0.24-0.3-0.58-0.76-0.85-0.74c-0.35,0.03-0.93,0.43-0.96,0.71c-0.11,1.07-0.18,2.19,0.02,3.24c0.2,1.03,1.21,1.24,2.42,0.66
		c0.48-0.23,0.86-0.38,1.18,0.2c0.27,0.48,0.25,0.9-0.26,1.13C5.8,18.76,4.96,19.03,4.13,19.34z"/>
	<path class="st0" d="M18.77,12.64c-1.2,0-2.24,0-3.27,0c-0.33-1.47-0.2-1.65,1.18-1.65c1.07,0,2.15-0.03,3.22,0.02
		c0.4,0.02,1.1,0.16,1.14,0.36c0.12,0.56,0.17,1.3-0.12,1.74c-0.8,1.25-1.77,2.39-2.68,3.57c-0.1,0.14-0.2,0.28-0.38,0.52
		c0.95,0,1.79,0.03,2.62-0.01c0.46-0.03,0.94-0.18,1.02,0.48c0.08,0.65-0.17,1.14-0.89,1.17c-0.83,0.04-1.67,0.02-2.51,0.03
		c-0.57,0-1.14,0.04-1.7-0.01c-0.37-0.04-0.99-0.15-1.04-0.36c-0.13-0.47-0.16-1.13,0.09-1.5c0.87-1.28,1.87-2.46,2.82-3.69
		C18.42,13.13,18.54,12.95,18.77,12.64z"/>
</g>
</svg>
