<?xml version="1.0" encoding="utf-8"?>
<!-- Generator: Adobe Illustrator 24.0.2, SVG Export Plug-In . SVG Version: 6.00 Build 0)  -->
<svg version="1.1" id="Слой_1" xmlns="http://www.w3.org/2000/svg" xmlns:xlink="http://www.w3.org/1999/xlink" x="0px" y="0px"
	 width="30px" height="30px" viewBox="0 0 30 30" style="enable-background:new 0 0 30 30;" xml:space="preserve">
<style type="text/css">
	.st0{fill:#3866AF;}
	.st1{fill:#FFFFFF;}
</style>
<g>
	<path class="st0" d="M15.02,0.29c7.98-0.09,14.67,6.52,14.69,14.71c0.02,7.93-6.34,14.71-14.7,14.7c-7.83,0-14.7-6.2-14.7-14.75
		C0.3,6.31,7.36,0.18,15.02,0.29z M10.08,15.53c0,2.33,0.05,4.66-0.03,6.99c-0.03,0.86,0.8,1.34,1.52,0.92
		c4.03-2.37,8.09-4.68,12.13-7.02c0.79-0.45,0.8-1.29,0.02-1.74c-4.04-2.34-8.09-4.68-12.14-7c-0.83-0.48-1.5-0.08-1.5,0.87
		C10.08,10.87,10.08,13.2,10.08,15.53z"/>
	<path class="st1" d="M10.08,15.53c0-2.33,0-4.66,0-6.99c0-0.95,0.67-1.35,1.5-0.87c4.05,2.33,8.1,4.66,12.14,7
		c0.78,0.45,0.76,1.28-0.02,1.74c-4.04,2.34-8.1,4.65-12.13,7.02c-0.71,0.42-1.54-0.05-1.52-0.92
		C10.13,20.19,10.08,17.86,10.08,15.53z"/>
</g>
</svg>
