<svg id="Capa_1" enable-background="new 0 0 510.179 510.179" height="512" viewBox="0 0 510.179 510.179" width="512" xmlns="http://www.w3.org/2000/svg"><g><g><path d="m275.26 9.527h-60.23c-9.55 0-16.339 9.244-13.554 18.379 11.236 36.844 33.113 47.525 33.113 47.525h40.67 40.67s21.877-10.681 33.113-47.525c2.786-9.135-4.003-18.379-13.554-18.379z" fill="#57be92"/></g><g><path d="m349.04 27.908c-11.234 36.843-33.108 47.523-33.108 47.523h-20.82s19.175-12.161 33.768-47.523c3.643-8.827-4.002-18.377-13.553-18.377h20.16c9.551 0 16.337 9.243 13.553 18.377z" fill="#22b27f"/></g><g><path d="m234.589 75.431h81.341v32.71h-81.341z" fill="#fac600"/></g><g><path d="m295.112 75.431h20.818v32.71h-20.818z" fill="#e8b800"/></g><g><path d="m412.268 349.841c-7.504 0-13.588-6.084-13.588-13.588v-136.915c0-24.89-13.07-48.058-34.661-61.442l-48.002-29.755h-40.757-40.757l-48.002 29.755c-21.591 13.384-34.661 36.552-34.661 61.442v136.916c0 7.504-6.084 13.588-13.588 13.588-10.076 0-18.244 8.168-18.244 18.244v34.885c0 10.076 8.168 18.244 18.244 18.244h274.016c10.076 0 18.244-8.168 18.244-18.244v-34.885c0-10.076-8.168-18.245-18.244-18.245z" fill="#57be92"/></g><g><path d="m430.514 368.088v34.882c0 10.075-8.173 18.248-18.248 18.248h-20.16c10.075 0 18.238-8.173 18.238-18.248v-22.885c0-6.974-5.657-12.631-12.631-12.631h-5.607c-7.509 0-13.592-6.083-13.592-13.592v-153.919c.391-7.285-1.625-18.922-11.472-31.041-24.109-29.672-71.929-60.758-71.929-60.758h20.909l47.998 29.75c21.587 13.384 34.664 36.556 34.664 61.442v136.922c0 7.499 6.083 13.582 13.582 13.582 10.075-.001 18.248 8.172 18.248 18.248z" fill="#22b27f"/></g><g><path d="m63.887 500.651h-41.053c-8.481 0-15.356-6.875-15.356-15.356v-119.97c0-8.481 6.875-15.356 15.356-15.356h41.053c8.481 0 15.356 6.875 15.356 15.356v119.97c0 8.481-6.875 15.356-15.356 15.356z" fill="#ee6161"/></g><g><path d="m79.239 365.328v119.971c0 8.48-6.875 15.356-15.356 15.356h-19.813c8.48 0 15.356-6.875 15.356-15.356v-119.971c0-8.48-6.875-15.356-15.356-15.356h19.814c8.48 0 15.355 6.876 15.355 15.356z" fill="#e94444"/></g><g><path d="m497.899 389.819c-7.968-12.338-23.69-17.104-37.168-11.267l-137.809 45.514-.251-.019c8.313-2.824 14.748-10.144 15.987-19.436 1.741-13.056-7.432-25.051-20.488-26.792-25.205-4.959-50.411-9.919-75.616-14.878-10.082-1.984-44.807-9.499-51.721-9.056-14.094.903-26.707 11.258-37.582 18.975-24.436 17.341-48.979 12.161-74.008 3.689v92.198l60.301-3.52c12.768-1.091 25.619.64 37.643 5.069 0 0 57.662 21.238 57.694 21.25 39.456 14.532 74.178-2.438 110.816-14.783 46.42-15.64 93.962-27.713 140.267-43.714 16.097-7.95 21.674-28.149 11.935-43.23z" fill="#fed2a4"/></g><g><path d="m485.962 433.051c-46.304 15.999-93.847 28.066-140.26 43.709-36.645 12.344-71.369 29.314-110.817 14.781-.04-.01-57.697-21.25-57.697-21.25-12.027-4.428-24.876-6.152-37.646-5.062l-60.303 3.517v-19.726l60.303-3.527c12.77-1.09 27.472-1.209 39.498 3.22 0 0 57.657 21.24 57.697 21.25 39.449 14.533 72.32-.585 108.965-12.928 46.413-15.643 93.956-27.719 140.26-43.719 7.42-3.665 12.601-9.927 15.078-17.089 4.884 13.949-1.179 29.948-15.078 36.824z" fill="#ffbd86"/></g><g><path d="m251.264 295.409c-3.457-2.26-8.091-1.292-10.351 2.165-2.261 3.456-1.292 8.09 2.164 10.351 9.378 6.134 15.794 7.983 24.047 8.461v7.828c0 4.13 3.348 7.478 7.478 7.478s7.478-3.347 7.478-7.478v-8.427c16.489-3.282 26.119-16.901 28.258-29.622 2.756-16.396-5.82-30.651-21.847-36.317-2.107-.745-4.261-1.525-6.411-2.337v-34.51c5.345 1.317 8.527 4.016 8.81 4.264 3.038 2.751 7.731 2.543 10.515-.474 2.8-3.036 2.61-7.767-.427-10.566-.418-.386-7.424-6.7-18.898-8.456v-6.989c0-4.13-3.348-7.478-7.478-7.478s-7.478 3.347-7.478 7.478v7.561c-1.062.236-2.138.506-3.239.837-10.56 3.181-18.451 12.217-20.593 23.581-1.954 10.367 1.369 20.366 8.675 26.096 3.844 3.015 8.622 5.777 15.157 8.69v43.862c-5.586-.429-9.49-1.832-15.86-5.998zm9.933-58.323c-2.894-2.27-4.124-6.699-3.207-11.557.814-4.316 3.638-9.499 9.135-11.657v27.022c-2.228-1.218-4.244-2.486-5.928-3.808zm22.308 26.862c13.49 4.768 12.659 16.312 12.083 19.737-1.116 6.641-5.716 13.677-13.509 16.544v-36.791c.476.17.939.338 1.426.51z"/><path d="m504.181 385.763c-9.93-15.377-29.268-21.318-46.097-14.212l-20.094 6.636v-10.102c0-14.184-11.539-25.723-25.723-25.723-3.369 0-6.11-2.741-6.11-6.11v-136.914c0-27.627-14.28-52.972-38.199-67.798l-44.551-27.616v-24.344c7.598-5.281 23.625-19.445 32.789-49.492 2.031-6.661.823-13.687-3.316-19.277-4.124-5.567-10.461-8.761-17.39-8.761h-120.46c-6.929 0-13.266 3.194-17.39 8.761-4.139 5.59-5.347 12.616-3.316 19.277 9.163 30.047 25.191 44.211 32.789 49.492v24.344l-44.551 27.616c-23.919 14.826-38.199 40.171-38.199 67.798v33.958c0 4.13 3.347 7.478 7.478 7.478s7.478-3.348 7.478-7.478v-33.958c0-22.414 11.635-43.006 31.123-55.086l46.192-28.634h77.254l46.192 28.634c19.488 12.079 31.123 32.672 31.123 55.086v136.916c0 11.616 9.449 21.065 21.065 21.065 5.937 0 10.767 4.83 10.767 10.767v15.041l-77.545 25.61c.244-1.025.439-2.072.581-3.138 1.106-8.295-1.085-16.523-6.167-23.17-5.034-6.582-12.307-10.833-20.502-11.989 0 0-123.439-24.396-129.046-24.02-14.619.937-26.849 9.796-37.64 17.612-1.286.932-2.549 1.847-3.791 2.727-7.033 4.991-14.099 7.921-21.438 9.248v-7.921c0-5.937 4.831-10.767 10.767-10.767 11.616 0 21.065-9.449 21.065-21.065v-68.449c0-4.13-3.347-7.478-7.478-7.478s-7.478 3.348-7.478 7.478v68.449c0 3.369-2.741 6.11-6.111 6.11-14.183 0-25.722 11.539-25.722 25.723v8.575c-8.055-.618-16.568-2.624-25.809-5.535v-5.801c0-12.591-10.243-22.834-22.834-22.834h-41.052c-12.591-.001-22.835 10.242-22.835 22.833v119.97c0 12.591 10.244 22.834 22.835 22.834h41.052c12.591 0 22.834-10.243 22.834-22.834v-9.496l53.26-3.11c.066-.004.133-.009.2-.015 11.596-.989 23.499.612 34.422 4.636 56.983 20.989 57.694 21.25 57.694 21.25 11.695 4.308 22.988 6.043 33.981 6.043 23.373 0 45.373-7.852 66.869-15.525 4.892-1.746 9.949-3.551 14.937-5.232 19.764-6.658 39.809-12.687 58.647-18.292 3.958-1.177 6.213-5.342 5.035-9.3-1.177-3.958-5.338-6.208-9.3-5.035-18.968 5.643-39.16 11.716-59.158 18.453-5.115 1.723-10.236 3.552-15.189 5.319-30.437 10.864-59.184 21.124-90.659 9.532-.328-.121-57.69-21.25-57.69-21.25-12.935-4.763-27.031-6.67-40.763-5.511l-52.288 3.053v-74.033c21.92 6.477 46.426 9.51 70.859-7.828 1.279-.907 2.581-1.851 3.907-2.812 9.149-6.627 19.52-14.138 29.824-14.799 4.728-.315 32.156 5.328 42.483 7.447 3.008.616 82.931 16.365 82.931 16.365.151.029.304.054.456.075 4.335.577 8.185 2.808 10.841 6.282s3.801 7.774 3.223 12.109c-1.193 8.947-9.436 15.26-18.391 14.063-.066-.009-.132-.017-.2-.023l-66.044-7.005c-4.097-.436-7.789 2.54-8.225 6.647s2.54 7.789 6.647 8.225l65.953 6.996c4.514.588 8.93.169 13.031-1.068.417-.062 139.058-45.802 139.058-45.802.212-.07.422-.15.627-.239 10.166-4.402 21.907-.844 27.915 8.462 3.486 5.398 4.505 12.047 2.794 18.242-1.671 6.053-5.801 11.142-11.366 14.025-13.726 4.735-28.555 9.479-47.989 15.355-3.953 1.195-6.189 5.368-4.993 9.322.977 3.232 3.945 5.315 7.155 5.315.717 0 1.446-.104 2.167-.322 19.851-6.002 34.971-10.843 49.021-15.698.297-.102.587-.224.868-.363 9.582-4.73 16.709-13.352 19.553-23.653 2.848-10.303 1.154-21.36-4.643-30.337zm-195.729-285.1h-66.384v-17.754h66.384zm5.462-32.71h-77.305c-1.833-1.178-5.392-3.752-9.501-8.219-5.532-6.014-13.23-16.797-18.479-34.009-.635-2.081-.259-4.273 1.03-6.014 1.274-1.719 3.231-2.706 5.371-2.706h120.46c2.14 0 4.097.986 5.371 2.706 1.289 1.741 1.665 3.934 1.03 6.014-5.249 17.212-12.947 27.994-18.479 34.009-4.121 4.479-7.689 7.056-9.498 8.219zm-242.149 417.342c0 4.344-3.534 7.878-7.878 7.878h-41.052c-4.345 0-7.879-3.534-7.879-7.878v-119.97c0-4.344 3.534-7.878 7.879-7.878h41.052c4.344 0 7.878 3.534 7.878 7.878z"/></g></g></svg>