<?xml version="1.0" encoding="utf-8"?>
<!-- Generator: Adobe Illustrator 24.0.2, SVG Export Plug-In . SVG Version: 6.00 Build 0)  -->
<svg version="1.1" id="Слой_1" xmlns="http://www.w3.org/2000/svg" xmlns:xlink="http://www.w3.org/1999/xlink" x="0px" y="0px"
	 width="30px" height="30px" viewBox="0 0 30 30" style="enable-background:new 0 0 30 30;" xml:space="preserve">
<style type="text/css">
	.st0{fill-rule:evenodd;clip-rule:evenodd;}
	.st1{fill-rule:evenodd;clip-rule:evenodd;fill:#FFFF00;}
	.st2{fill-rule:evenodd;clip-rule:evenodd;fill:#FFFFFF;}
	.st3{opacity:0.2;fill-rule:evenodd;clip-rule:evenodd;fill:#FFFFFF;enable-background:new    ;}
	.st4{fill:#2B2A29;}
</style>
<g>
	<path class="st0" d="M5.43,11.13l2.21-8.62h21.93l-6.53,24.97H1.12l3.32-12.82l-2.1,1.66l-1.99,1.55l0.55-2.1l1.55-5.75L3,7.82
		l1.11,1.55L5.43,11.13z"/>
	<path class="st1" d="M19.28,9.25c-1.11,3.98,1.88,4.53,1.11,7.4c-0.22,0.99-0.66,1.33-1.22,1.33c-0.44,0-0.66-0.33-0.44-1.33
		l0.33-1.1h-1.44l-0.33,0.99c-0.55,2.21-0.11,3.54,1.44,3.54c1.55,0,2.66-1.33,3.21-3.54c1.11-3.98-1.77-4.53-1.11-7.4
		c0.33-1.1,0.66-1.44,1.22-1.44c0.44,0,0.66,0.33,0.33,1.44l-0.11,0.66h1.44l0.11-0.55c0.66-2.21,0.22-3.54-1.33-3.54
		C20.94,5.72,19.83,7.04,19.28,9.25z"/>
	<path class="st2" d="M8.42,3.62h9.52l-2.21,8.84H6.1L8.42,3.62z M15.4,13.34l-2.21,8.84H3.55l2.33-8.84L15.4,13.34z"/>
	<path class="st3" d="M18.83,3.62h9.52l-2.21,8.84h-9.63L18.83,3.62z M25.81,13.34l-2.21,8.84h-9.63l2.33-8.84L25.81,13.34z"/>
	<path class="st2" d="M12.3,7.6c0.55,0,0.66,0.44,0.44,1.44l-0.22,0.88c-0.33,1.1-0.78,1.55-1.44,1.55h-0.66l1-3.87L12.3,7.6z
		 M10.64,13.56c0.78,0,0.89,0.44,0.55,1.77l-0.33,1.33c-0.22,1.1-0.66,1.44-1.22,1.44H8.76l1.11-4.53H10.64z M12.85,5.5h-2.44
		l-3.88,14.7h2.55c1.66,0,2.77-1.22,3.43-3.54l0.33-1.22c0.33-1.55,0.33-2.65-0.44-3.09c0.89-0.55,1.44-1.44,1.88-2.98l0.11-0.55
		C14.96,6.6,14.51,5.5,12.85,5.5z M12.52,8.04c0-0.11-0.11-0.22-0.22-0.22h-0.66l-0.78,3.31h0.22c0.22,0,0.44,0,0.55-0.22
		c0.22-0.22,0.44-0.55,0.55-1.1l0.22-0.77C12.52,8.48,12.52,8.15,12.52,8.04z M11.08,14.01c-0.11-0.11-0.22-0.22-0.44-0.22h-0.55
		l-1,3.98h0.55c0.22,0,0.33,0,0.55-0.22c0.11-0.11,0.22-0.44,0.44-0.99l0.33-1.33C11.08,14.67,11.19,14.23,11.08,14.01z M10.42,5.17
		h2.44c1,0,1.55,0.33,1.88,0.99s0.22,1.55-0.11,2.76l-0.11,0.55c-0.22,0.77-0.44,1.44-0.78,1.88c-0.22,0.44-0.55,0.77-0.89,0.99
		c0.33,0.33,0.44,0.66,0.44,1.1c0.11,0.55,0,1.33-0.22,2.1l-0.33,1.22c-0.33,1.22-0.78,2.1-1.33,2.76
		c-0.66,0.66-1.44,0.99-2.33,0.99H6.1l0.11-0.44l3.88-14.7l0.11-0.22L10.42,5.17z"/>
	<path class="st4" d="M12.3,7.6c0.55,0,0.66,0.44,0.44,1.44l-0.22,0.88c-0.33,1.1-0.78,1.55-1.44,1.55h-0.66l1-3.87L12.3,7.6z
		 M10.64,13.56c0.78,0,0.89,0.44,0.55,1.77l-0.33,1.33c-0.22,1.1-0.66,1.44-1.22,1.44H8.76l1.11-4.53H10.64z M12.85,5.5h-2.44
		l-3.88,14.7h2.55c1.66,0,2.77-1.22,3.43-3.54l0.33-1.22c0.33-1.55,0.33-2.65-0.44-3.09c0.89-0.55,1.44-1.44,1.88-2.98l0.11-0.55
		C14.96,6.6,14.51,5.5,12.85,5.5z"/>
	<path class="st1" d="M1.78,15.77l1.55-5.75l2.1,2.87L1.78,15.77z"/>
	<g>
		<path class="st1" d="M10.38,23.74c0.32,0,0.57,0.32,0.49,0.65v0.08c0.32,0.08,0.49,0.32,0.4,0.65c-0.08,0.4-0.49,0.65-0.81,0.65
			c-0.24,0-0.49-0.16-0.49-0.4c-0.16,0.24-0.49,0.4-0.73,0.4c-0.32,0-0.57-0.24-0.49-0.65c0.08-0.32,0.4-0.56,0.81-0.65v-0.08
			C9.65,24.06,10.06,23.74,10.38,23.74z"/>
		<path class="st1" d="M10.06,26.16L9.9,25.51l-0.4,0.65H10.06z M20.73,23.74c0.16,0,0.97,0.81,0.81,1.37
			c-0.08,0.4-0.4,0.65-0.81,0.65c-0.24,0-0.4-0.16-0.49-0.4c-0.16,0.24-0.4,0.4-0.65,0.4c-0.4,0-0.65-0.24-0.49-0.65
			C19.27,24.47,20.49,23.74,20.73,23.74z"/>
		<path class="st1" d="M20.32,26.16l-0.08-0.65l-0.49,0.65H20.32z M14.99,26c-0.32,0-1.13-0.81-0.97-1.53
			c0.08-0.32,0.49-0.65,0.89-0.65c0.32,0,0.49,0.16,0.49,0.4c0.24-0.24,0.49-0.4,0.81-0.4c0.32,0,0.57,0.32,0.49,0.65
			C16.52,25.27,15.23,26,14.99,26z M5.45,23.74c0.24,0.48,0.49,0.81,0.89,1.21c-0.57,0.32-0.97,0.65-1.46,1.13
			c-0.24-0.48-0.48-0.81-0.89-1.13C4.56,24.55,4.96,24.22,5.45,23.74z"/>
	</g>
</g>
</svg>
