<?xml version="1.0" encoding="utf-8"?>
<!-- Generator: Adobe Illustrator 24.0.2, SVG Export Plug-In . SVG Version: 6.00 Build 0)  -->
<svg version="1.1" id="Слой_1" xmlns="http://www.w3.org/2000/svg" xmlns:xlink="http://www.w3.org/1999/xlink" x="0px" y="0px"
	 width="30px" height="30px" viewBox="0 0 30 30" style="enable-background:new 0 0 30 30;" xml:space="preserve">
<style type="text/css">
	.st0{fill:#EC1C24;}
</style>
<path class="st0" d="M23.46,14.64h6.12v7.27c-0.88,0.65-1.82,1.12-2.82,1.41c-1,0.29-2.04,0.44-3.13,0.44
	c-1.42,0-2.71-0.22-3.87-0.67c-1.16-0.44-2.16-1.06-2.98-1.84c-0.83-0.78-1.46-1.71-1.91-2.79c-0.45-1.08-0.67-2.25-0.67-3.51
	c0-1.28,0.21-2.46,0.64-3.54c0.43-1.08,1.03-2,1.83-2.78s1.75-1.39,2.87-1.82c1.12-0.43,2.38-0.65,3.77-0.65
	c0.72,0,1.39,0.06,2.02,0.18c0.63,0.12,1.21,0.28,1.74,0.49c0.53,0.2,1.02,0.45,1.46,0.73c0.44,0.28,0.84,0.59,1.18,0.92l-1.16,1.76
	c-0.18,0.27-0.42,0.44-0.7,0.51c-0.29,0.06-0.6-0.01-0.93-0.21c-0.32-0.19-0.61-0.35-0.89-0.49c-0.28-0.14-0.56-0.25-0.86-0.34
	c-0.29-0.09-0.6-0.15-0.92-0.19c-0.32-0.04-0.68-0.06-1.09-0.06c-0.75,0-1.42,0.13-2.02,0.39c-0.6,0.26-1.11,0.64-1.53,1.12
	c-0.42,0.48-0.75,1.06-0.98,1.73c-0.23,0.67-0.34,1.42-0.34,2.25c0,0.92,0.13,1.72,0.38,2.44c0.25,0.71,0.61,1.31,1.07,1.8
	s1.01,0.86,1.65,1.12s1.35,0.38,2.13,0.38c0.48,0,0.92-0.05,1.31-0.14c0.39-0.09,0.77-0.22,1.14-0.38v-2.61h-1.7
	c-0.25,0-0.45-0.07-0.59-0.2c-0.14-0.13-0.21-0.3-0.21-0.51C23.46,16.83,23.46,14.64,23.46,14.64z M6.79,6.55
	c1.19,0,2.2,0.11,3.03,0.33c0.83,0.22,1.51,0.53,2.04,0.93c0.53,0.4,0.91,0.89,1.15,1.46c0.24,0.58,0.36,1.22,0.36,1.92
	c0,0.39-0.06,0.76-0.17,1.12c-0.11,0.36-0.28,0.69-0.52,1c-0.24,0.31-0.54,0.6-0.91,0.86c-0.37,0.26-0.82,0.49-1.33,0.67
	c1.13,0.27,1.97,0.72,2.51,1.33c0.54,0.61,0.82,1.41,0.82,2.39c0,0.73-0.14,1.41-0.42,2.04c-0.28,0.63-0.7,1.18-1.25,1.65
	c-0.55,0.47-1.22,0.83-2.02,1.1c-0.8,0.26-1.72,0.39-2.75,0.39H0.47V6.55H6.79z M4.46,9.54v4.25h2.08c0.44,0,0.84-0.03,1.19-0.09
	c0.35-0.06,0.65-0.17,0.9-0.33s0.44-0.37,0.57-0.65c0.13-0.27,0.2-0.62,0.2-1.04c0-0.41-0.05-0.75-0.15-1.02
	c-0.1-0.27-0.26-0.49-0.47-0.65C8.56,9.84,8.29,9.72,7.96,9.65C7.63,9.58,7.25,9.54,6.8,9.54L4.46,9.54L4.46,9.54z M7.27,20.74
	c0.53,0,0.96-0.07,1.29-0.2c0.33-0.13,0.6-0.31,0.78-0.52c0.19-0.21,0.32-0.45,0.39-0.72c0.07-0.27,0.11-0.54,0.11-0.82
	c0-0.32-0.04-0.6-0.12-0.85C9.63,17.38,9.49,17.17,9.29,17c-0.2-0.17-0.46-0.31-0.8-0.4c-0.33-0.09-0.75-0.14-1.25-0.14H4.46v4.29
	C4.46,20.74,7.27,20.74,7.27,20.74z"/>
</svg>
