<svg xmlns="http://www.w3.org/2000/svg" viewBox="0 0 256 256"><defs/><defs><linearGradient id="a" x1="-19.9" x2="1013.1" y1="2183.5" y2="-2104.7" gradientUnits="userSpaceOnUse"><stop offset="0" stop-color="#21e418"/><stop offset=".3" stop-color="#31b6e9"/><stop offset="1" stop-color="#21e418"/></linearGradient></defs><path fill="url(#a)" d="M128 .5A128 128 0 000 128.7a123.8 123.8 0 005.6 37c2.4-3.2 4.7-6.5 6.8-10L38.7 116l6.4-10.1c2-3.3 4.2-6.8 6-10.1q6.4-10.2 12-20.4C65 71.8 67 68.6 69 65s3.8-6.8 5.6-10.3L80 44.3l5.2-10.5.5-.7a11.9 11.9 0 0115.5-5.4 12.7 12.7 0 016.5 11.7c0 6.1-1.1 12.5-1.6 18.6l-1.2 18.8c-.5 12.4-.7 25-.7 37.5s.7 25 1.9 36.9q1 8.8 2.8 17.6a56.7 56.7 0 005 15 15.6 15.6 0 002.7 4c.7.4.3.2.7.2h.5l.5-.2h.2l.7-.3 1-.6a33.3 33.3 0 005.1-5 117.2 117.2 0 0010.4-13.8c3.3-5 6.3-10.4 9.4-15.8a556 556 0 0017.1-33l8-17.2c2.6-5.6 5.2-11.5 7.5-17.1a11.6 11.6 0 0115-6.4 11.2 11.2 0 017 8.7 45.5 45.5 0 00.5 5.2l.7 5.4c.5 3.5 1 7 1.7 10.5a204.6 204.6 0 004.5 21 156.3 156.3 0 007 20.1 80.1 80.1 0 0010.8 18.4 3.2 3.2 0 01-.5 4.2 2.9 2.9 0 01-3.8 0 98.6 98.6 0 01-15.5-17.4 170.7 170.7 0 01-11.7-20c-2.4-4.7-4.2-9.4-6.3-14.1-1.4 2.8-2.6 5.6-4 8.2-5.7 11.5-11.3 23-17.9 34.5-3.3 6.1-6.6 11.8-10.3 17.4a146.2 146.2 0 01-12.5 16.7 72.7 72.7 0 01-8.7 8.2 13.6 13.6 0 01-3 1.9l-2.1 1.1-1.2.5h-.2l-.7.2h-.5l-1 .3a5.6 5.6 0 01-1.8.4l-4.2.7a24 24 0 01-9.2-1.1 25.6 25.6 0 01-7.8-4.5 36.1 36.1 0 01-8.6-11 81.2 81.2 0 01-7-20.9 197 197 0 01-3-20c-1.5-13.1-2-26-2.2-39.2V95.6l-7 13.1c-1.8 3.5-3.7 7-5.8 10.6l-6 10.5c-8 14.1-16.1 28-24.8 41.8-5.4 9-11 17.9-16.7 26.6A128 128 0 10235 57.8 129.1 129.1 0 00128 .5z"/></svg>