<?xml version="1.0" encoding="utf-8"?>
<!-- Generator: Adobe Illustrator 24.0.2, SVG Export Plug-In . SVG Version: 6.00 Build 0)  -->
<svg version="1.1" id="Слой_1" xmlns="http://www.w3.org/2000/svg" xmlns:xlink="http://www.w3.org/1999/xlink" x="0px" y="0px"
	 width="30px" height="30px" viewBox="0 0 30 30" style="enable-background:new 0 0 30 30;" xml:space="preserve">
<style type="text/css">
	.st0{fill-rule:evenodd;clip-rule:evenodd;fill:#009344;}
	.st1{fill-rule:evenodd;clip-rule:evenodd;fill:#929497;}
	.st2{fill-rule:evenodd;clip-rule:evenodd;fill:#FEFEFE;}
</style>
<g>
	<path class="st0" d="M9.27,20.82l0.55,0.07c-0.08,0.13-0.13,0.22-0.19,0.31c-1.1,1.6-2.2,3.19-3.29,4.8
		c-0.17,0.26-0.27,0.33-0.54,0.09c-2.83-2.54-4.68-5.65-5.13-9.47C0.17,12.44,1.33,8.72,4.04,5.53c2.07-2.43,4.7-3.97,7.8-4.66
		c2.5-0.55,4.98-0.36,7.42,0.41c1.18,0.37,2.3,0.84,3.34,1.53c0.26,0.17,0.27,0.28,0.09,0.53c-1.33,1.8-2.65,3.6-3.97,5.4
		c-0.14,0.19-0.27,0.33-0.53,0.28c-0.33-0.07-0.53,0.09-0.72,0.36c-0.86,1.23-1.75,2.43-2.66,3.69c-0.88-1.25-1.73-2.45-2.57-3.67
		c-0.19-0.27-0.37-0.4-0.71-0.38c-0.79,0.03-1.59,0.01-2.39,0.01C9.13,9.24,9.29,9.34,9.38,9.48c1.24,1.79,2.47,3.57,3.73,5.34
		c0.19,0.27,0.18,0.43-0.01,0.68C11.83,17.24,10.57,19,9.27,20.82"/>
	<path class="st1" d="M15.18,16.92c0.89,1.27,1.75,2.47,2.59,3.7c0.18,0.27,0.38,0.36,0.69,0.35c0.79-0.02,1.58-0.01,2.47-0.01
		c-0.46-0.66-0.86-1.26-1.28-1.85c-0.92-1.32-1.84-2.64-2.77-3.95c-0.17-0.24-0.18-0.4,0-0.65c1.17-1.6,2.33-3.22,3.48-4.83
		c0.11-0.15,0.21-0.31,0.32-0.47c-0.14-0.14-0.32-0.03-0.45-0.11c-0.05-0.09,0.02-0.14,0.06-0.2c1.12-1.64,2.25-3.27,3.36-4.91
		c0.18-0.27,0.31-0.28,0.54-0.07c2.44,2.2,4.18,4.85,4.89,8.09c0.81,3.7,0.25,7.23-1.72,10.48c-2.14,3.52-5.24,5.77-9.23,6.61
		c-3.66,0.78-7.17,0.23-10.42-1.71c-0.33-0.2-0.37-0.35-0.14-0.68c1.24-1.8,2.47-3.61,3.69-5.43c0.14-0.21,0.29-0.37,0.56-0.32
		c0.35,0.07,0.53-0.12,0.72-0.38C13.4,19.38,14.27,18.18,15.18,16.92"/>
	<path class="st2" d="M8.25,15.34c0,1.44-0.01,2.88,0.01,4.32c0,0.29-0.09,0.38-0.37,0.37c-0.75-0.02-1.49-0.02-2.24,0.01
		c-0.35,0.01-0.45-0.1-0.45-0.45c0.01-2.65,0.01-5.29,0.01-7.94c0-1.16-0.21-1.38-1.34-1.4c-0.25,0-0.36-0.05-0.35-0.33
		c0.02-1.01-0.08-0.81,0.77-0.81c0.76,0,1.52-0.06,2.28,0.07c1,0.17,1.62,0.82,1.64,1.84c0.03,1.44,0.01,2.88,0.01,4.32L8.25,15.34z
		 M21.29,13.77c0-0.84-0.02-1.56,0-2.28c0.03-0.96,0.58-1.7,1.48-2.01c1.2-0.42,2.42-0.37,3.61,0.01c0.95,0.29,1.29,0.82,1.33,1.85
		c0.02,0.42,0.01,0.85,0,1.27c-0.02,0.88-0.57,1.45-1.19,1.97c-0.71,0.58-1.5,1.07-2.15,1.73c-0.54,0.54-0.77,1.19-0.75,1.95
		c0.01,0.29,0.1,0.37,0.38,0.37c1.07-0.01,2.15,0.01,3.22-0.01c0.4-0.01,0.5,0.13,0.5,0.51c-0.01,0.9,0.01,0.9-0.87,0.9
		c-1.71,0-3.42-0.01-5.13,0.01c-0.35,0-0.46-0.09-0.44-0.45c0.03-0.56,0.06-1.13,0-1.69c-0.14-1.24,0.49-2.05,1.38-2.74
		c0.62-0.49,1.23-1,1.87-1.47c0.95-0.7,0.97-1.69,0.82-2.7c-0.07-0.5-0.51-0.56-0.94-0.56c-0.42,0-0.67,0.19-0.75,0.61
		c-0.01,0.06-0.04,0.13-0.02,0.19c0.17,0.75-0.29,1.12-0.83,1.48C22.31,13,21.84,13.36,21.29,13.77"/>
</g>
</svg>
