<svg id="Layer_5" enable-background="new 0 0 64 64" height="512" viewBox="0 0 64 64" width="512" xmlns="http://www.w3.org/2000/svg"><g><g><g><path d="m62 45.56v5.73c0 1.54-1.17 2.83-2.7 2.98l-3.7.37c-2.04.2-3.6 1.92-3.6 3.98v2.38c0 .55-.45 1-1 1h-4c-.55 0-1-.45-1-1v-2c0-1.1-.9-2-2-2h-10c-1.1 0-2 .9-2 2v2c0 .55-.45 1-1 1h-4c-.55 0-1-.44-1-1 0-.33 0-1.26 0-2.14 0-.33-.02-.67-.07-.99 2.51-2.54 4.07-6.02 4.07-9.87 0-3.71-1.45-7.09-3.81-9.6 1.89-1.5 4.28-2.4 6.88-2.4h11.93l1-6c2.89 0 5.35 2.09 5.82 4.93l.18 1.07c.95 0 1.85.23 2.65.65.41.21.79.46 1.13.76.78.67 1.37 1.55 1.7 2.56.1.31.18.64.23.98.17 1.24 1.08 2.25 2.3 2.55l.48.12c.89.22 1.51 1.02 1.51 1.94z" fill="#ecc19c"/></g><g><circle cx="49" cy="25" fill="#ff826e" r="2"/></g><g><circle cx="41" cy="25" fill="#ff826e" r="2"/></g><g><circle cx="33" cy="25" fill="#ff826e" r="2"/></g><g><path d="m62 27v6l-2.36.8c-.4 2.19-1.14 4.27-2.16 6.17-.33-1.01-.92-1.89-1.7-2.56-.34-.3-.72-.55-1.13-.76.87-2.05 1.35-4.29 1.35-6.65 0-9.39-7.61-17-17-17-6.5 0-12.14 3.64-15 9-4.42 0-8 3.58-8 8v-8-5h4c3.08 0 5.74-1.73 7.08-4.28 2.4-1.66 5.15-2.82 8.12-3.36l.8-2.36h6l.8 2.36c2.97.54 5.72 1.7 8.12 3.36l2.22-1.1 4.24 4.24-1.1 2.22c1.66 2.4 2.82 5.15 3.36 8.12z" fill="#fcd770"/></g><g><path d="m33 40h12v4h-12z" fill="#e6e9ed"/></g><g><path d="m24 9h4c0 1.34-.33 2.61-.92 3.72-1.34 2.55-4 4.28-7.08 4.28h-4c0-4.42 3.58-8 8-8z" fill="#b4dd7f"/></g><g><path d="m24 22h4c0 3.73-2.55 6.86-6 7.75-.64.16-1.31.25-2 .25h-4c0-4.42 3.58-8 8-8z" fill="#b4dd7f"/></g><g><path d="m26.19 38.4c2.36 2.51 3.81 5.89 3.81 9.6 0 3.85-1.56 7.33-4.07 9.87-2.54 2.55-6.05 4.13-9.93 4.13-7.73 0-14-6.27-14-14s6.27-14 14-14c2.57 0 4.98.69 7.05 1.91 1.16.67 2.22 1.51 3.14 2.49z" fill="#ffc729"/></g><g><circle cx="16" cy="48" fill="#fcd770" r="10"/></g><g><path d="m23.05 35.9v.01c-2.07-1.22-4.48-1.91-7.05-1.91v-4h4c.69 0 1.36-.09 2-.25v.25c0 2.08.37 4.07 1.05 5.9z" fill="#fcd770"/></g><g><path d="m16 10h-4c-4.42 0-8-3.58-8-8h4c4.42 0 8 3.58 8 8z" fill="#b4dd7f"/></g><g><path d="m16 22h-4c-4.42 0-8-3.58-8-8h4c4.42 0 8 3.58 8 8z" fill="#b4dd7f"/></g></g><g><path d="m16 45c.551 0 1 .448 1 1h2c0-1.302-.839-2.402-2-2.816v-2.184h-2v2.184c-1.161.414-2 1.514-2 2.816 0 1.654 1.346 3 3 3 .551 0 1 .448 1 1s-.449 1-1 1-1-.448-1-1h-2c0 1.302.839 2.402 2 2.816v2.184h2v-2.184c1.161-.414 2-1.514 2-2.816 0-1.654-1.346-3-3-3-.551 0-1-.448-1-1s.449-1 1-1z"/><path d="m16 37c-6.065 0-11 4.935-11 11s4.935 11 11 11 11-4.935 11-11-4.935-11-11-11zm0 20c-4.962 0-9-4.037-9-9s4.038-9 9-9 9 4.037 9 9-4.038 9-9 9z"/><circle cx="52" cy="41" r="1"/><path d="m32 45h14v-6h-14zm2-4h10v2h-10z"/><path d="m63 33.718v-7.436l-2.491-.84c-.561-2.669-1.593-5.164-3.074-7.436l1.164-2.349-5.258-5.257-2.349 1.164c-2.273-1.482-4.769-2.514-7.435-3.073l-.839-2.491h-7.437l-.84 2.491c-1.961.412-3.822 1.098-5.578 2.012.084-.49.137-.99.137-1.503v-1h-5c-2.826 0-5.349 1.312-7 3.356v-.356-1c0-4.963-4.038-9-9-9h-5v1c0 4.963 4.038 9 9 9h3v5.356c-1.651-2.044-4.174-3.356-7-3.356h-5v1c0 4.963 4.038 9 9 9h3v7 1 2.051c-7.805.518-14 7.015-14 14.949 0 8.271 6.729 15 15 15 3.38 0 6.492-1.137 9.003-3.031 0 .453 0 .84-.001 1.031-.002.534.205 1.037.582 1.415.377.379.881.588 1.417.588h4c1.103 0 2-.897 2-2v-2.003c0-.552.449-1 1-1h10c.551 0 1 .448 1 1v2c0 1.103.897 2 2 2h4c1.103 0 2-.897 2-2v-2.38c0-1.548 1.162-2.831 2.702-2.985l3.696-.369c2.052-.205 3.601-1.917 3.601-3.981v-5.724c0-1.379-.935-2.576-2.272-2.91l-.476-.119c-.824-.206-1.435-.883-1.555-1.724-.035-.247-.104-.482-.166-.72.901-1.746 1.571-3.599 1.978-5.53zm-51-24.718c-3.521 0-6.442-2.612-6.929-6h2.929c3.521 0 6.442 2.612 6.929 6zm12 1h2.929c-.487 3.388-3.408 6-6.929 6h-2.929c.487-3.388 3.408-6 6.929-6zm-12 11c-3.521 0-6.442-2.612-6.929-6h2.929c3.521 0 6.442 2.612 6.929 6zm42.068 14.338c-.392-.128-.795-.229-1.212-.283l-.048-.287c-.557-3.342-3.42-5.768-6.808-5.768h-.847l-1 6h-11.086c-.002 0-.003 0-.005 0-2.459 0-4.788.725-6.791 2.098-.726-.685-1.52-1.295-2.372-1.825-.539-1.544-.832-3.157-.879-4.805 3.479-1.246 5.98-4.566 5.98-8.468v-1h-3.221c2.963-4.353 7.882-7 13.221-7 8.822 0 16 7.178 16 16 0 1.841-.326 3.629-.932 5.338zm-30.068-12.338h2.929c-.487 3.388-3.408 6-6.929 6h-2.929c.487-3.388 3.408-6 6.929-6zm-4 8c.353 0 .699-.026 1.041-.065.054 1.055.199 2.094.434 3.115-1.402-.552-2.905-.894-4.475-.999v-2.051zm-17 17c0-7.168 5.832-13 13-13s13 5.832 13 13-5.832 13-13 13-13-5.832-13-13zm56.766-3.528.476.119c.446.112.758.511.758.971v5.724c0 1.032-.774 1.888-1.801 1.99l-3.696.369c-2.567.257-4.503 2.396-4.503 4.975v2.38h-4v-2c0-1.654-1.346-3-3-3h-10c-1.654 0-3 1.346-3 3v2.003l-3.998.005c.001-.337.001-1.27 0-2.149 0-.215-.029-.43-.046-.646 2.5-2.681 4.044-6.266 4.044-10.213 0-3.567-1.256-6.843-3.343-9.42 1.611-1.033 3.459-1.58 5.405-1.58h.004 12.781l.988-5.93c2.029.346 3.651 1.933 4 4.025l.318 1.905h.847c2.356 0 4.384 1.759 4.717 4.092.236 1.649 1.433 2.976 3.049 3.38zm-1.11-10.856c-.26 1.422-.68 2.799-1.234 4.121-.435-.582-.961-1.091-1.554-1.507.737-1.991 1.132-4.079 1.132-6.23 0-9.925-8.075-18-18-18-6.465 0-12.384 3.45-15.597 9.03-2.582.171-4.869 1.427-6.403 3.325v-1.355-1-4h3c3.349 0 6.271-1.842 7.821-4.563 2.289-1.548 4.829-2.593 7.563-3.093l.58-.105.754-2.239h4.563l.755 2.238.58.105c2.8.512 5.402 1.587 7.732 3.197l.485.334 2.109-1.045 3.227 3.227-1.045 2.11.335.484c1.608 2.328 2.684 4.93 3.197 7.732l.106.58 2.238.756v4.564l-2.238.754z"/><path d="m33 22c-1.654 0-3 1.346-3 3s1.346 3 3 3 3-1.346 3-3-1.346-3-3-3zm0 4c-.551 0-1-.448-1-1s.449-1 1-1 1 .448 1 1-.449 1-1 1z"/><path d="m41 22c-1.654 0-3 1.346-3 3s1.346 3 3 3 3-1.346 3-3-1.346-3-3-3zm0 4c-.551 0-1-.448-1-1s.449-1 1-1 1 .448 1 1-.449 1-1 1z"/><path d="m46 25c0 1.654 1.346 3 3 3s3-1.346 3-3-1.346-3-3-3-3 1.346-3 3zm4 0c0 .552-.449 1-1 1s-1-.448-1-1 .449-1 1-1 1 .448 1 1z"/></g></g></svg>