<svg height="472pt" viewBox="-2 0 472 472" width="472pt" xmlns="http://www.w3.org/2000/svg"><path d="m416 256 48.800781 48.800781c4 4 5.597657 10.398438 4 16l-4.800781 15.199219h-48zm0 0" fill="#d8b4ad"/><path d="m392 160h16v72h-16zm0 0" fill="#4a4a56"/><path d="m416 304v-64c0-8.800781-7.199219-16-16-16s-16 7.199219-16 16v13.601562l-34.398438 30.398438c-3.203124 3.199219-5.601562 7.199219-5.601562 12v36.800781c0 4 1.601562 7.199219 4 10.398438l28 32v24h64v-24l16.800781-11.199219c4.800781-3.199219 7.199219-8 7.199219-13.601562v-14.398438zm0 0" fill="#efccbf"/><path d="m456 112c0 30.929688-25.070312 56-56 56s-56-25.070312-56-56 25.070312-56 56-56 56 25.070312 56 56zm0 0" fill="#e57e73"/><path d="m370.582031 93.898438 11.3125-11.3125 48.082031 48.082031-11.3125 11.316406zm0 0" fill="#fff"/><path d="m370.582031 130.101562 48.082031-48.082031 11.3125 11.316407-48.082031 48.082031zm0 0" fill="#fff"/><path d="m360 400h96v72h-96zm0 0" fill="#878b9b"/><path d="m360 424h72v16h-72zm0 0" fill="#676b7f"/><path d="m440.800781 320.800781-13.601562-9.601562 15.199219-28.800781 11.203124 11.203124zm0 0" fill="#c9a8a3"/><path d="m72 256 48.800781 48.800781c4 4 5.597657 10.398438 4 16l-4.800781 15.199219h-48zm0 0" fill="#d8b4ad"/><path d="m48 160h16v72h-16zm0 0" fill="#4a4a56"/><path d="m72 304v-64c0-8.800781-7.199219-16-16-16s-16 7.199219-16 16v13.601562l-34.398438 30.398438c-3.203124 3.199219-5.601562 7.199219-5.601562 12v36.800781c0 4 1.601562 7.199219 4 10.398438l28 32.800781v24h64v-24l16.800781-11.199219c4.800781-3.199219 7.199219-8 7.199219-13.601562v-15.199219zm0 0" fill="#efccbf"/><path d="m112 112c0 30.929688-25.070312 56-56 56s-56-25.070312-56-56 25.070312-56 56-56 56 25.070312 56 56zm0 0" fill="#e57e73"/><path d="m296 344 13.601562-13.601562c5.597657-5.597657 6.398438-15.199219.796876-21.597657l-62.398438-76.800781-32 32 72 88zm0 0" fill="#d8b4ad"/><path d="m216 136h16v72h-16zm0 0" fill="#4a4a56"/><path d="m296 72c0 39.765625-32.234375 72-72 72s-72-32.234375-72-72 32.234375-72 72-72 72 32.234375 72 72zm0 0" fill="#5da364"/><path d="m277.601562 325.601562-11.203124-11.203124 30.402343-23.199219 10.398438 12.800781zm0 0" fill="#c9a8a3"/><path d="m176 416h120v56h-120zm0 0" fill="#878b9b"/><path d="m176 440h64v16h-64zm0 0" fill="#676b7f"/><path d="m256 440h16v16h-16zm0 0" fill="#676b7f"/><path d="m200 107.199219-21.601562-21.597657 11.203124-11.203124 10.398438 10.402343 50.398438-50.402343 11.203124 11.203124zm0 0" fill="#fff"/><path d="m26.582031 93.898438 11.316407-11.3125 48.082031 48.082031-11.316407 11.3125zm0 0" fill="#fff"/><path d="m26.582031 130.101562 48.082031-48.082031 11.316407 11.3125-48.082031 48.082031zm0 0" fill="#fff"/><path d="m16 400h96v72h-96zm0 0" fill="#878b9b"/><path d="m16 424h72v16h-72zm0 0" fill="#676b7f"/><path d="m96.800781 320.800781-13.601562-9.601562 15.199219-28.800781 11.203124 11.203124zm0 0" fill="#c9a8a3"/><path d="m253.601562 301.601562 32-24-10.402343-12-27.199219 20.796876v9.601562zm0 0" fill="#c9a8a3"/><path d="m248 296v-72c0-13.601562-10.398438-24-24-24s-24 10.398438-24 24v16l-35.199219 35.199219c-3.199219 3.199219-4.800781 7.199219-4.800781 11.199219v52.800781c0 3.199219.800781 6.402343 2.398438 8.800781l29.601562 44v24h88v-24l11.199219-11.199219c3.199219-3.199219 4.800781-7.199219 4.800781-11.199219v-25.601562zm0 0" fill="#efccbf"/><g fill="#d8b4ad"><path d="m208 256h-16v36.800781l-16 16v22.398438l32-32zm0 0"/><path d="m32 272v28.800781l-16 16v22.398438l32-32v-35.199219zm0 0"/><path d="m376 272v28.800781l-16 16v22.398438l32-32v-35.199219zm0 0"/></g></svg>