<svg height="480pt" viewBox="-19 0 479 480" width="480pt" xmlns="http://www.w3.org/2000/svg"><path d="m400.5 416c0-22.398438-17.601562-40-40-40h-64c-22.398438 0-40 17.601562-40 40-22.398438 0-40 17.601562-40 40v24h224v-24c0-22.398438-17.601562-40-40-40zm0 0" fill="#f4c167"/><path d="m376.5 312 64 64v-81.601562c0-4-1.601562-8-4.800781-11.199219l-43.199219-43.199219h-16zm0 0" fill="#727272"/><path d="m280.5 312-64 64v-81.601562c0-4 1.601562-8 4.800781-11.199219l43.199219-43.199219h16zm0 0" fill="#727272"/><path d="m112.5 424h-32c-31.199219 0-56 24.800781-56 56h144c0-31.199219-24.800781-56-56-56zm0 0" fill="#f4c167"/><path d="m48.5 320-35.199219 35.199219c-3.199219 3.199219-4.800781 7.199219-4.800781 11.199219v49.601562l48-48zm0 0" fill="#727272"/><path d="m179.699219 355.199219-35.199219-35.199219-8 48 48 48v-49.601562c0-4-1.601562-8-4.800781-11.199219zm0 0" fill="#727272"/><path d="m96.5 128-8.800781 9.601562c-40 44.796876-56 106.398438-44.800781 164.796876l13.601562 65.601562h80l12.800781-64.800781c12-59.199219-4.800781-120-44.800781-164.800781zm0 0" fill="#bfbfbf"/><path d="m46.898438 320 9.601562 48h80l9.601562-48zm0 0" fill="#8c8c8c"/><path d="m328.5 8-18.398438 21.601562c-44 52-62.402343 121.597657-48.800781 188.796876l19.199219 93.601562h96l18.398438-93.601562c13.601562-67.199219-4.796876-136.796876-48.796876-188.796876zm0 0" fill="#bfbfbf"/><path d="m368.5 176c0 22.089844-17.910156 40-40 40s-40-17.910156-40-40 17.910156-40 40-40 40 17.910156 40 40zm0 0" fill="#2b4a66"/><path d="m352.5 336h-48c-18.398438 22.398438-16 56 4 76l20 20 20-20c20-20 22.398438-53.601562 4-76zm0 0" fill="#f4a422"/><path d="m360.5 440h-64c-17.601562 0-32 14.398438-32 32v8h128v-8c0-17.601562-14.398438-32-32-32zm0 0" fill="#f4a422"/><path d="m80.5 392c-9.601562 13.601562-7.199219 32.800781 4 44l12 12 12-12c12-12 13.601562-30.398438 4-44" fill="#f4a422"/><path d="m120.5 256c0 13.253906-10.746094 24-24 24s-24-10.746094-24-24 10.746094-24 24-24 24 10.746094 24 24zm0 0" fill="#2b4a66"/><g fill="#d6d7d8"><path d="m200.5 32h16v40h-16zm0 0"/><path d="m152.5 96h16v24h-16zm0 0"/><path d="m72.5 48h16v40h-16zm0 0"/><path d="m136.5 0h16v32h-16zm0 0"/><path d="m184.5 176h16v24h-16zm0 0"/><path d="m.5 96h16v24h-16zm0 0"/><path d="m424.5 8h16v40h-16zm0 0"/><path d="m256.5 8h16v24h-16zm0 0"/></g><path d="m105.300781 137.601562-8.800781-9.601562-8.800781 9.601562c-14.398438 16-25.597657 34.398438-33.597657 54.398438h84.796876c-8-20-19.199219-38.398438-33.597657-54.398438zm0 0" fill="#8c8c8c"/><path d="m46.898438 320 9.601562 48h40v-48zm0 0" fill="#a0a0a0"/><path d="m382.101562 88c-8.800781-21.601562-20.800781-40.800781-36-58.398438l-17.601562-21.601562-18.398438 21.601562c-15.203124 17.597657-27.203124 37.597657-36 58.398438zm0 0" fill="#8c8c8c"/><path d="m280.5 312h48v-48h-57.601562zm0 0" fill="#a0a0a0"/><path d="m376.5 312h-48v-48h57.601562zm0 0" fill="#8c8c8c"/></svg>