<svg id="Layer_1" enable-background="new 0 0 511.473 511.473" height="512" viewBox="0 0 511.473 511.473" width="512" xmlns="http://www.w3.org/2000/svg"><g><path d="m300.421 118.231c71.422 34.324 156.64-2.722 180.161-78.501-71.422-34.324-156.64 2.723-180.161 78.501z" fill="#e0ef9b"/><circle cx="134.287" cy="398.996" fill="#ea5172" r="104.978"/><circle cx="373.093" cy="398.802" fill="#ea5172" r="104.978"/><path d="m320.421 118.231c15.95-51.385 61.44-86.89 113.853-90.967-59.688-4.639-115.71 32.517-133.853 90.967 20.397 9.803 43.272 14.259 66.309 12.467-16.132-1.254-31.844-5.515-46.309-12.467z" fill="#0ea8b2"/><path d="m49.309 398.996c0-54.604 41.692-99.464 94.978-104.501-61.985-5.859-114.978 42.847-114.978 104.501 0 61.765 53.101 110.349 114.978 104.501-53.287-5.037-94.978-49.897-94.978-104.501z" fill="#b3387f"/><path d="m289.364 414.945c-9.273-59.583 33.454-114.901 93.876-120.653-68.215-6.574-124.413 52.949-113.876 120.653 8.589 55.185 58.706 93.591 113.582 88.366-46.596-4.49-86.052-39.98-93.582-88.366z" fill="#b3387f"/><path d="m430.963 98.423 9.104 11.921c22.68-17.32 39.168-40.968 47.682-68.387l1.919-6.18-5.833-2.804c-75.08-36.085-164.904 2.431-190.256 82.066-5.157 2.999-10.237 6.096-15.24 9.289-34.142-49.913-77.269-94.288-130.558-124.328l-7.366 13.066c50.57 28.508 92.098 70.884 125.411 119.538-19.535 13.456-37.79 28.442-54.626 44.864-50.11 48.878-74.804 94.947-81.732 109.154-59.795 2.533-107.662 51.963-107.662 112.37 0 25.54 8.341 49.612 24.122 69.615l11.776-9.29c-13.671-17.331-20.898-38.19-20.898-60.325 0-53.75 43.729-97.48 97.48-97.48s97.48 43.729 97.48 97.48-43.729 97.48-97.48 97.48c-25.123 0-48.981-9.534-67.181-26.845l-10.338 10.869c21.001 19.975 48.531 30.976 77.519 30.976 62.021 0 112.48-50.458 112.48-112.48 0-58.039-44.187-105.948-100.686-111.863 9.494-17.884 33.243-57.616 75.593-98.924 16.164-15.766 33.689-30.161 52.444-43.098 29.897 46.513 53.735 100.328 67.263 145.775-53.311 15.626-88.195 68.868-79.427 125.215 8.631 55.451 56.617 95.195 111.073 95.191 68.697-.006 121.876-61.232 111.207-129.784-9.523-61.188-66.981-103.25-128.156-93.883-13.62-46.658-38.602-102.84-69.448-150.792 5.14-3.276 10.36-6.452 15.668-9.516 40.568 17.495 86.843 14.317 124.375-7.94l-7.652-12.901c-28.898 17.142-64.992 22.225-99.325 11.335 4.786-2.472 124.194-58.712 124.194-58.712l-6.381-13.575s-118.858 55.975-123.384 58.294c28.096-58.656 97.173-84.983 157.168-60.03-8.042 21.764-21.887 40.554-40.329 54.639zm-57.812 202.892c47.19 0 88.781 34.443 96.26 82.497 8.286 53.229-28.087 103.023-81.327 111.308-53.107 8.261-103.043-28.219-111.309-81.328-9.136-58.703 36.278-112.477 96.376-112.477z"/><g><path d="m54.591 393.18h15v15h-15z" fill="#fff"/></g><g><g><path d="m76.591 440.473h15v15h-15z" fill="#fff"/></g><g><path d="m76.591 345.886h15v15h-15z" fill="#fff"/></g></g></g></svg>