<?xml version="1.0" encoding="utf-8"?>
<!-- Generator: Adobe Illustrator 24.0.2, SVG Export Plug-In . SVG Version: 6.00 Build 0)  -->
<svg version="1.1" id="Слой_1" xmlns="http://www.w3.org/2000/svg" xmlns:xlink="http://www.w3.org/1999/xlink" x="0px" y="0px"
	 width="30px" height="30px" viewBox="0 0 30 30" style="enable-background:new 0 0 30 30;" xml:space="preserve">
<style type="text/css">
	.st0{fill:#404040;}
</style>
<g>
	<title>Hacksaw white</title>
	<desc>Created with Sketch.</desc>
	<g id="Hacksaw-white-">
		<g id="Group" transform="translate(17.000000, 9.000000)">
			<path id="Path" class="st0" d="M-2.15,8.64H2.3v3.64l7.05,0.19V-7.91c0-0.22-0.11-0.41-0.3-0.41H2.6c-0.19,0-0.3,0.15-0.3,0.41
				v9.65h-4.45v-9.65c0-0.22-0.11-0.41-0.3-0.41h-6.38c-0.19,0-0.3,0.15-0.3,0.41v19.93l6.97,0.19V8.64z"/>
			<path id="Path_1_" class="st0" d="M-1.23,19.95c0,0.22,0.11,0.37,0.29,0.37h6.31c0.18,0,0.29-0.15,0.29-0.37v-6.37l-6.93-0.18
				L-1.23,19.95z"/>
			<path id="Path_2_" class="st0" d="M-12.06,20.31h6.3c0.18,0,0.33-0.15,0.33-0.38v-6.86l-6.93-0.15v7.01
				C-12.35,20.16-12.24,20.31-12.06,20.31z"/>
		</g>
	</g>
</g>
</svg>
