<?xml version="1.0" encoding="utf-8"?>
<!-- Generator: Adobe Illustrator 24.0.2, SVG Export Plug-In . SVG Version: 6.00 Build 0)  -->
<svg version="1.1" id="Слой_1" xmlns="http://www.w3.org/2000/svg" xmlns:xlink="http://www.w3.org/1999/xlink" x="0px" y="0px"
	 width="30px" height="30px" viewBox="0 0 30 30" style="enable-background:new 0 0 30 30;" xml:space="preserve">
<style type="text/css">
	.st0{fill-rule:evenodd;clip-rule:evenodd;fill:#BBDC00;}
	.st1{fill-rule:evenodd;clip-rule:evenodd;fill:#8FCF69;}
	.st2{fill-rule:evenodd;clip-rule:evenodd;fill:#4DC0A1;}
	.st3{fill-rule:evenodd;clip-rule:evenodd;fill:#66CCCC;}
	.st4{fill-rule:evenodd;clip-rule:evenodd;fill:#EE88D0;}
</style>
<title>Group 30</title>
<desc>Created with Sketch.</desc>
<g id="Page-1">
	<g id="_x31_70518_x5F_NL" transform="translate(-155.000000, -162.000000)">
		<g id="Group-30" transform="translate(155.000000, 162.276000)">
			<path id="Fill-6" class="st0" d="M1.31,23.63L1.31,23.63c-0.48-0.21-0.69-0.78-0.48-1.26L8.26,5.68C8.47,5.21,9.04,4.99,9.51,5.2
				C9.99,5.41,10.21,5.98,10,6.46L2.56,23.15C2.35,23.63,1.78,23.84,1.31,23.63"/>
			<path id="Fill-8" class="st0" d="M4.43,23.63L4.43,23.63c-0.48-0.21-0.69-0.78-0.48-1.26L9.53,9.84
				c0.21-0.48,0.78-0.69,1.26-0.48c0.48,0.21,0.69,0.78,0.48,1.26L5.69,23.15C5.47,23.63,4.91,23.84,4.43,23.63"/>
			<path id="Fill-9" class="st1" d="M7.56,23.63L7.56,23.63c-0.48-0.21-0.69-0.78-0.48-1.26l3.64-8.26
				c0.21-0.48,0.78-0.69,1.26-0.48c0.48,0.21,0.69,0.78,0.48,1.26l-3.64,8.26C8.6,23.63,8.03,23.84,7.56,23.63"/>
			<path id="Fill-10" class="st2" d="M10.64,23.63L10.64,23.63c-0.48-0.21-0.69-0.78-0.48-1.26l1.73-3.88
				c0.21-0.48,0.78-0.69,1.26-0.48c0.48,0.21,0.69,0.78,0.48,1.26l-1.73,3.88C11.69,23.63,11.12,23.84,10.64,23.63"/>
			<path id="Fill-11" class="st3" d="M20.05,23.63L20.05,23.63c-0.48-0.21-0.69-0.78-0.48-1.26l1.73-3.88
				c0.21-0.48,0.78-0.69,1.26-0.48c0.48,0.21,0.69,0.78,0.48,1.26l-1.73,3.88C21.09,23.63,20.53,23.84,20.05,23.63"/>
			<path id="Fill-12" class="st4" d="M23.17,23.63L23.17,23.63c-0.48-0.21-0.69-0.78-0.48-1.26l1.73-3.88
				c0.21-0.48,0.78-0.69,1.26-0.48c0.48,0.21,0.69,0.78,0.48,1.26l-1.73,3.88C24.22,23.63,23.65,23.84,23.17,23.63"/>
			<path id="Fill-13" class="st4" d="M26.26,23.63L26.26,23.63c-0.48-0.21-0.69-0.78-0.48-1.26l1.73-3.88
				c0.21-0.48,0.78-0.69,1.26-0.48c0.48,0.21,0.69,0.78,0.48,1.26l-1.73,3.88C27.3,23.63,26.74,23.84,26.26,23.63"/>
			<path id="Fill-14" class="st2" d="M13.73,23.63L13.73,23.63c-0.48-0.21-0.69-0.78-0.48-1.26l7.44-16.69
				c0.21-0.48,0.78-0.69,1.26-0.48c0.48,0.21,0.69,0.78,0.48,1.26l-7.44,16.69C14.78,23.63,14.21,23.84,13.73,23.63"/>
			<path id="Fill-15" class="st3" d="M16.88,23.63L16.88,23.63c-0.48-0.21-0.69-0.78-0.48-1.26l7.44-16.69
				c0.21-0.48,0.78-0.69,1.26-0.48c0.48,0.21,0.69,0.78,0.48,1.26l-7.44,16.69C17.93,23.63,17.36,23.84,16.88,23.63"/>
		</g>
	</g>
</g>
</svg>
