<?xml version="1.0" encoding="utf-8"?>
<!-- Generator: Adobe Illustrator 24.0.2, SVG Export Plug-In . SVG Version: 6.00 Build 0)  -->
<svg version="1.1" id="svg8" xmlns="http://www.w3.org/2000/svg" xmlns:xlink="http://www.w3.org/1999/xlink" x="0px" y="0px"
	 width="30px" height="30px" viewBox="0 0 30 30" style="enable-background:new 0 0 30 30;" xml:space="preserve">
<style type="text/css">
	.st0{fill:#FFFC00;}
</style>
<g id="layer1" transform="translate(0 -270.5417)">
	<g id="g1565" transform="matrix(.53023 0 0 .42565 -7.7943 266.34)">
		<path id="path1559" class="st0" d="M15.91,11.28h23.64c9.59-0.44,19.5,3.7,25.39,11.44c3.7,4.79,5.01,11,5.23,17
			c-4.47,0.11-8.93,0-13.51,0c-0.11-5.34-2.51-11.11-7.52-13.51c-6.21-2.83-13.18-1.42-19.72-1.63c-0.11,5.01,0,10.13-0.11,15.15
			h-13.4V11.28z"/>
		<path id="path1561" class="st0" d="M15.91,43.09c4.47-0.11,8.93-0.11,13.29-0.11v35.3h-13.4C15.91,66.52,15.91,54.86,15.91,43.09z
			"/>
		<path id="path1563" class="st0" d="M56.56,43.53h13.51c0.11,11.77,0,23.43,0,35.19c-4.47,0.44-9.04,0.22-13.62,0
			C56.45,66.96,56.34,55.19,56.56,43.53z"/>
	</g>
</g>
</svg>
