<?xml version="1.0" encoding="utf-8"?>
<!-- Generator: Adobe Illustrator 24.0.2, SVG Export Plug-In . SVG Version: 6.00 Build 0)  -->
<svg version="1.1" id="svg8" xmlns="http://www.w3.org/2000/svg" xmlns:xlink="http://www.w3.org/1999/xlink" x="0px" y="0px"
	 width="30px" height="30px" viewBox="0 0 30 30" style="enable-background:new 0 0 30 30;" xml:space="preserve">
<style type="text/css">
	.st0{fill:#0486D1;}
</style>
<g id="layer1" transform="translate(0 -278.2051)">
	<g id="Page-1" transform="matrix(.37097 0 0 .37097 -1.4839 269.1165)">
		<g id="gameart-color">
			<g id="gameart" transform="translate(4 24.5)">
				<path id="Shape" class="st0" d="M57.69,24.04l-0.29-0.46H0.44v33.72h41.19l3.82-5.72h21.87l3.72,5.3l0.29,0.4h9.25l-1.01-1.47
					L57.69,24.04z M36.37,39.19v9.54l-0.25,0.21c-3.05,2.61-7.63,3.95-13.36,3.95c-10.21,0-16.31-4.64-16.31-12.42
					c-0.11-3.73,1.66-7.26,4.71-9.41c3.41-2.17,7.41-3.25,11.45-3.09c5.72,0,9.67,1.13,12.65,3.53l0.55,0.46l-0.46,0.55l-1.91,2.52
					L33,35.6l-0.57-0.48c-1.91-1.66-4.41-2.77-9.81-2.77c-7.21,0-10.86,2.67-10.86,8.07c0,5.4,3.55,8.11,10.86,8.11
					c3.08,0.21,6.15-0.45,8.87-1.91V43H20.23v-4.54h16.16L36.37,39.19z M50.34,44.38l5.95-8.83l6.07,8.83H50.34z"/>
			</g>
		</g>
	</g>
</g>
</svg>
