<svg id="flat" height="512" viewBox="0 0 512 512" width="512" xmlns="http://www.w3.org/2000/svg"><g fill="#ffb401"><path d="m352.93509 85.29869 37.46491-28.09869a6 6 0 0 1 3.6-1.2 6 6 0 0 1 6 6v34l-56 56h-16v32h24l80-80v-44a36 36 0 0 0 -36-36 36 36 0 0 0 -21.6 7.2l-25.63684 19.22764z"/><path d="m159.06491 85.29869-37.46491-28.09869a6 6 0 0 0 -3.6-1.2 6 6 0 0 0 -6 6v34l56 56h16v32h-24l-80-80v-44a36 36 0 0 1 36-36 36 36 0 0 1 21.6 7.2l25.63685 19.22765z"/><path d="m272 248v72l40 32h-112l40-32v-72z"/><path d="m392 336h16v56h-16z"/><path d="m464 312h-24v-16h20l20-26.6665v-12.3628a8.97038 8.97038 0 0 0 -15.31348-6.34326l-22.5664 22.56592-11.31446-11.31348 22.56641-22.56588a24.97075 24.97075 0 0 1 42.62793 17.6567v15.0293a8.00222 8.00222 0 0 1 -1.59961 4.7998l-24 32a8.0009 8.0009 0 0 1 -6.40039 3.2002z"/></g><path d="m336 488 24-96h80l24 96z" fill="#a36522"/><path d="m48 488 24-96h80l24 96z" fill="#a36522"/><path d="m176 40h160a24 24 0 0 1 24 24v24a0 0 0 0 1 0 0h-208a0 0 0 0 1 0 0v-24a24 24 0 0 1 24-24z" fill="#ffd873"/><path d="m344 88a54.776 54.776 0 0 0 -16 38.63v65.37a72 72 0 0 1 -144 0v-65.37a54.776 54.776 0 0 0 -16-38.63z" fill="#ffc431"/><path d="m344 488h-176l16-136h144z" fill="#b1712c"/><path d="m400 224a48 48 0 0 1 48 48v72a0 0 0 0 1 0 0h-96a0 0 0 0 1 0 0v-72a48 48 0 0 1 48-48z" fill="#ffc431" transform="matrix(-1 0 0 -1 800 568)"/><path d="m224 120v16h-40v-9.37a54.17963 54.17963 0 0 0 -.40991-6.63z" fill="#ffb401"/><path d="m328.40991 120a54.17963 54.17963 0 0 0 -.40991 6.63v9.37h-88v-16z" fill="#ffb401"/><path d="m104 336h16v56h-16z" fill="#ffb401"/><path d="m48 312h24v-16h-20l-20-26.6665v-12.3628a8.97038 8.97038 0 0 1 15.31348-6.34326l22.5664 22.56592 11.31446-11.31348-22.56641-22.56588a24.97075 24.97075 0 0 0 -42.62793 17.6567v15.0293a8.00222 8.00222 0 0 0 1.59961 4.7998l24 32a8.0009 8.0009 0 0 0 6.40039 3.2002z" fill="#ffb401"/><path d="m64 224h96a0 0 0 0 1 0 0v72a48 48 0 0 1 -48 48 48 48 0 0 1 -48-48v-72a0 0 0 0 1 0 0z" fill="#ffc431"/></svg>