<?xml version="1.0" standalone="no"?>
<!DOCTYPE svg PUBLIC "-//W3C//DTD SVG 20010904//EN"
 "http://www.w3.org/TR/2001/REC-SVG-20010904/DTD/svg10.dtd">
<svg version="1.0" xmlns="http://www.w3.org/2000/svg"
 width="1648.000000pt" height="1789.000000pt" viewBox="0 0 1648.000000 1789.000000"
 preserveAspectRatio="xMidYMid meet">
<g transform="translate(0.000000,1789.000000) scale(0.100000,-0.100000)"
fill="#002a5b" stroke="none">
<path d="M7250 17789 c-2278 -81 -4086 -415 -5218 -965 -464 -225 -769 -436
-1054 -732 -441 -458 -720 -1106 -837 -1942 -49 -355 -56 -481 -56 -1105 0
-796 17 -1040 190 -2740 35 -346 78 -783 95 -970 200 -2223 444 -3839 782
-5180 294 -1169 629 -1926 1066 -2409 621 -687 1779 -1184 3377 -1450 536 -89
1077 -147 1750 -188 284 -18 1506 -18 1790 0 2081 127 3594 512 4565 1162 487
326 797 690 1071 1255 582 1201 1041 3500 1324 6640 25 275 81 856 125 1290
115 1144 147 1519 171 2036 15 334 7 1106 -15 1339 -75 800 -261 1405 -580
1895 -201 307 -478 577 -831 810 -182 119 -281 175 -517 289 -1143 555 -2951
887 -5263 966 -329 11 -1611 11 -1935 -1z m1890 -619 c2435 -84 4298 -452
5316 -1051 472 -278 747 -561 954 -984 193 -393 293 -794 350 -1405 18 -184
24 -893 11 -1180 -23 -499 -65 -1011 -166 -1995 -74 -723 -88 -864 -140 -1437
-283 -3121 -774 -5494 -1346 -6501 -119 -210 -223 -351 -369 -501 -752 -776
-2331 -1245 -4675 -1388 -282 -17 -1388 -17 -1670 0 -1997 122 -3416 474
-4285 1063 -377 255 -622 543 -844 994 -547 1107 -993 3371 -1271 6440 -25
275 -79 831 -120 1235 -162 1598 -192 2043 -182 2750 10 688 73 1138 220 1575
205 604 515 984 1080 1321 1010 602 2887 979 5292 1063 343 12 1508 12 1845 1z"/>
<path d="M7550 16314 c-1070 -36 -1737 -89 -2510 -199 -1648 -236 -2751 -658
-3106 -1191 -290 -436 -410 -1187 -364 -2289 24 -574 50 -881 225 -2595 13
-135 45 -472 70 -750 126 -1384 272 -2511 460 -3535 303 -1649 649 -2671 1035
-3055 613 -611 2249 -1036 4320 -1121 312 -13 1101 -7 1380 10 1512 94 2697
339 3485 721 344 166 580 355 734 584 553 827 1053 3219 1336 6391 19 220 74
778 120 1240 122 1211 152 1574 175 2115 35 817 -26 1463 -180 1906 -41 116
-137 312 -193 393 -425 609 -1809 1062 -3882 1270 -361 37 -795 67 -1310 92
-201 9 -1597 20 -1795 13z m-15 -3127 c33 -9 98 -36 145 -59 148 -72 285 -230
405 -468 150 -296 1875 -3575 1883 -3578 4 -1 126 565 271 1259 284 1358 288
1382 262 1548 -16 101 -43 157 -102 212 -52 50 -172 114 -279 149 -36 12 -123
33 -195 46 -137 25 -164 37 -202 93 -40 59 -39 97 16 346 28 127 59 248 69
270 25 57 108 137 177 171 l60 29 1870 0 1870 0 57 -28 c68 -33 98 -84 98
-163 0 -27 -31 -171 -70 -324 -77 -303 -90 -333 -170 -382 -27 -16 -108 -44
-197 -68 -178 -47 -332 -104 -422 -157 -112 -66 -216 -186 -282 -326 -20 -44
-182 -691 -555 -2222 -290 -1188 -533 -2187 -540 -2220 -17 -76 -18 -176 -2
-229 26 -84 189 -217 393 -318 126 -63 197 -88 455 -162 124 -35 250 -75 281
-89 107 -47 160 -115 174 -222 9 -65 -70 -426 -110 -507 -54 -107 -126 -161
-242 -178 -82 -13 -3148 -39 -3268 -28 -137 13 -205 39 -280 109 -36 34 -85
93 -109 133 -24 39 -455 807 -956 1706 -502 899 -925 1648 -939 1664 -32 35
-95 65 -136 66 -45 0 -87 -32 -120 -91 -7 -14 -93 -463 -189 -997 -190 -1047
-194 -1080 -161 -1221 33 -140 101 -222 281 -343 106 -71 198 -107 378 -148
179 -40 220 -61 253 -124 23 -43 19 -99 -21 -326 -46 -260 -59 -303 -110 -356
-79 -81 74 -76 -1901 -64 -962 6 -1849 15 -1970 18 -219 7 -220 7 -287 39 -77
36 -112 80 -127 157 -7 40 -3 79 24 217 37 184 60 247 108 297 41 43 131 70
272 83 256 24 398 64 520 147 117 80 216 233 284 437 37 111 808 3868 823
4010 19 175 -19 409 -88 548 -148 294 -467 477 -1042 597 -268 56 -446 124
-493 190 -10 14 -26 55 -36 91 l-17 67 53 238 c73 328 101 393 181 434 99 50
22 49 2025 47 1753 -2 1874 -3 1930 -20z"/>
</g>
</svg>
