<?xml version="1.0" encoding="utf-8"?>
<!-- Generator: Adobe Illustrator 24.0.2, SVG Export Plug-In . SVG Version: 6.00 Build 0)  -->
<svg version="1.1" id="Слой_1" xmlns="http://www.w3.org/2000/svg" xmlns:xlink="http://www.w3.org/1999/xlink" x="0px" y="0px"
	 width="30px" height="30px" viewBox="0 0 30 30" style="enable-background:new 0 0 30 30;" xml:space="preserve">
<style type="text/css">
	.st0{fill:#2472FF;}
</style>
<path class="st0" d="M19.26,20.06H8.27l-1.65,4.58c-0.55,0.96-0.82,1.93-0.82,2.41c0,0.48,0.27,0.96,0.55,1.21
	c0.55,0.24,1.37,0.48,2.75,0.72v0.72H0.3v-0.72c1.1-0.24,1.92-0.48,2.2-0.96c0.82-0.72,1.65-1.93,2.47-4.1L14.59,0.3h0.82
	l9.62,23.86c0.55,1.93,1.37,3.13,1.92,3.86c0.82,0.48,1.65,0.72,2.75,0.96v0.72H18.71v-0.72c1.1-0.24,1.92-0.24,2.2-0.72
	c0.55-0.24,0.55-0.72,0.55-1.21c0-0.48-0.27-1.45-0.82-2.89L19.26,20.06z M18.43,18.62L13.76,7.05L9.09,18.62H18.43z"/>
</svg>
