<svg id="Capa_1" enable-background="new 0 0 512 512" height="512" viewBox="0 0 512 512" width="512" xmlns="http://www.w3.org/2000/svg"><g><g><g><path d="m397.272 216.033c-5.988 0-11.819-3.074-15.087-8.603-26.272-44.459-74.623-72.079-126.185-72.079s-99.913 27.619-126.185 72.079c-4.918 8.323-15.653 11.085-23.975 6.166-8.323-4.918-11.084-15.652-6.166-23.975 15.77-26.686 38.254-49.047 65.022-64.662 27.607-16.105 59.179-24.617 91.303-24.617s63.697 8.512 91.303 24.617c26.768 15.615 49.253 37.975 65.022 64.662 4.918 8.322 2.158 19.057-6.166 23.975-2.792 1.651-5.86 2.437-8.886 2.437z" fill="#95d6a4"/></g><g><path d="m34.429 155.167c-3.278 0-6.592-.919-9.543-2.843-8.099-5.28-10.383-16.124-5.103-24.223 52.295-80.213 140.601-128.101 236.217-128.101s183.921 47.888 236.218 128.1c5.281 8.098 2.996 18.943-5.103 24.223-8.098 5.283-18.943 2.995-24.223-5.103-45.81-70.263-123.153-112.211-206.892-112.211s-161.082 41.948-206.892 112.212c-3.355 5.147-8.961 7.946-14.679 7.946z" fill="#95d6a4"/></g><g><path d="m315.831 272.586c-5.784 0-11.444-2.864-14.781-8.104-9.876-15.508-26.717-24.766-45.05-24.766s-35.175 9.258-45.05 24.766c-5.192 8.154-16.011 10.555-24.167 5.362-8.154-5.193-10.554-16.013-5.362-24.167 16.336-25.654 44.217-40.969 74.579-40.969s58.243 15.315 74.579 40.969c5.193 8.154 2.793 18.974-5.362 24.167-2.914 1.856-6.169 2.742-9.386 2.742z" fill="#95d6a4"/></g><g><path d="m412.326 189.621c-15.77-26.686-38.254-49.047-65.022-64.662-27.607-16.105-59.179-24.617-91.303-24.617-5.041 0-10.065.234-15.066.65 26.866 2.233 52.963 10.389 76.237 23.967 26.768 15.615 49.253 37.975 65.022 64.662 3.361 5.688 3.131 12.5-.005 17.814 3.268 5.525 9.098 8.598 15.084 8.598 3.026 0 6.094-.786 8.888-2.437 8.322-4.918 11.083-15.653 6.165-23.975z" fill="#78c2a4"/></g><g><g><path d="m492.218 128.1c-52.297-80.212-140.602-128.1-236.218-128.1-5.044 0-10.067.141-15.066.406 89.765 4.745 171.614 51.714 221.151 127.694 3.762 5.77 3.666 12.926.381 18.478.141.215.285.427.426.642 5.28 8.098 16.125 10.385 24.223 5.103 8.099-5.28 10.383-16.126 5.103-24.223z" fill="#78c2a4"/></g></g><g><path d="m330.579 245.677c-16.336-25.654-44.217-40.969-74.579-40.969-5.108 0-10.142.443-15.066 1.286 24.347 4.169 45.925 18.344 59.513 39.683 3.665 5.756 3.532 12.832.278 18.328.105.162.221.314.326.477 3.337 5.24 8.997 8.104 14.781 8.104 3.217 0 6.471-.886 9.386-2.742 8.154-5.192 10.554-16.013 5.361-24.167z" fill="#78c2a4"/></g></g><g><g><path d="m370.555 512h-224.586c-49.821 0-90.209-40.388-90.209-90.209v-.046c0-49.821 40.388-90.209 90.209-90.209h224.586c49.821 0 90.209 40.388 90.209 90.209v.046c0 49.821-40.388 90.209-90.209 90.209z" fill="#5766cb"/></g><g><path d="m419.593 346.032c9.168 14.123 14.496 30.969 14.496 49.061 0 49.834-40.398 90.232-90.232 90.232h-224.54c-18.092 0-34.938-5.328-49.061-14.496 16.084 24.778 43.994 41.171 75.736 41.171h224.541c49.834 0 90.232-40.398 90.232-90.232-.001-31.742-16.393-59.652-41.172-75.736z" fill="#3d4fc3"/></g><g><circle cx="256" cy="318.885" fill="#95d6a4" r="25.376"/></g><g><path d="m256.369 293.519c4.055 4.498 6.524 10.452 6.524 16.984 0 14.015-11.361 25.376-25.376 25.376-.124 0-.246-.008-.369-.009 4.644 5.152 11.369 8.392 18.851 8.392 14.015 0 25.376-11.361 25.376-25.376.001-13.892-11.162-25.169-25.006-25.367z" fill="#78c2a4"/></g><g fill="#f1f4f6"><path d="m158.629 415.941h-17.221v-17.5h19.354c4.143 0 7.502-3.359 7.502-7.502s-3.359-7.502-7.502-7.502h-26.856c-4.143 0-7.502 3.359-7.502 7.502v66.263c0 4.143 3.359 7.502 7.502 7.502s7.502-3.359 7.502-7.502v-26.257h17.221c4.143 0 7.502-3.359 7.502-7.502s-3.359-7.502-7.502-7.502z"/><path d="m310.941 449.012h-20.367v-18.068h18.313c4.143 0 7.502-3.359 7.502-7.502s-3.359-7.502-7.502-7.502h-18.313v-18.068h20.367c4.143 0 7.502-3.359 7.502-7.502s-3.359-7.502-7.502-7.502h-27.869c-4.143 0-7.502 3.359-7.502 7.502v66.143c0 4.143 3.359 7.502 7.502 7.502h27.869c4.143 0 7.502-3.359 7.502-7.502s-3.359-7.501-7.502-7.501z"/><path d="m383.572 449.012h-20.368v-18.068h18.313c4.143 0 7.502-3.359 7.502-7.502s-3.359-7.502-7.502-7.502h-18.313v-18.068h20.368c4.143 0 7.502-3.359 7.502-7.502s-3.359-7.502-7.502-7.502h-27.87c-4.143 0-7.502 3.359-7.502 7.502v66.143c0 4.143 3.359 7.502 7.502 7.502h27.87c4.143 0 7.502-3.359 7.502-7.502s-3.359-7.501-7.502-7.501z"/><path d="m226.861 432.146c11.312-2.642 19.739-12.462 19.739-24.145 0-13.702-11.588-24.85-25.832-24.85h-17.738c-.004 0-.007.001-.011.001s-.007-.001-.011-.001c-4.143 0-7.502 3.359-7.502 7.502v66.752c0 4.143 3.359 7.502 7.502 7.502s7.502-3.359 7.502-7.502v-21.127l22.956 26.083c1.483 1.685 3.553 2.546 5.634 2.546 1.76 0 3.528-.616 4.953-1.871 3.11-2.737 3.412-7.477.675-10.588zm-6.093-33.992c5.869 0 10.828 4.509 10.828 9.846s-4.959 9.846-10.828 9.846c-2.356 0-6.483.018-10.156.036-.019-3.594-.046-15.965-.058-19.728z"/></g></g></g></svg>