<svg id="Capa_1" enable-background="new 0 0 512 512" height="512" viewBox="0 0 512 512" width="512" xmlns="http://www.w3.org/2000/svg"><g><g><g><path d="m327.198 504.093-253.361-65.238c-6.76-1.741-10.83-8.632-9.089-15.392l104.661-406.467c1.741-6.76 8.632-10.83 15.393-9.089l253.361 65.238c6.76 1.741 10.83 8.632 9.089 15.393l-104.661 406.466c-1.741 6.76-8.632 10.83-15.393 9.089z" fill="#b3dafe"/></g><g><path d="m447.254 88.546-104.66 406.448c-1.741 6.766-8.637 10.839-15.403 9.098l-10.839-2.792c2.792-1.641 4.964-4.364 5.835-7.746l105.74-410.662c1.391-5.405-.931-10.889-5.365-13.762l15.593 4.013c6.767 1.742 10.84 8.638 9.099 15.403z" fill="#8ac9fe"/></g><g><path d="m386.813 478.631h-261.626c-6.981 0-12.64-5.659-12.64-12.64v-419.725c0-6.981 5.659-12.64 12.64-12.64h261.626c6.981 0 12.64 5.659 12.64 12.64v419.725c0 6.981-5.659 12.64-12.64 12.64z" fill="#d8ecfe"/></g><g><path d="m399.453 46.28v419.699c0 6.986-5.665 12.651-12.651 12.651h-20.017c6.986 0 12.651-5.665 12.651-12.651v-419.699c0-6.986-5.665-12.651-12.651-12.651h20.017c6.986.001 12.651 5.665 12.651 12.651z" fill="#c4e2ff"/></g></g><g><path d="m317.357 237.186c-2.042-14.999-14.056-30.258-29.886-31.03-14.405-.702-27.329 9.546-31.471 23.073-4.142-13.527-17.066-23.775-31.471-23.073-15.83.772-27.844 16.031-29.886 31.03-.915 6.721.355 13.444 3.173 19.577 6.027 13.119 17.523 21.81 28.991 29.87.017.012 19.393 13.629 26.565 18.67 1.579 1.11 3.677 1.11 5.256 0 7.172-5.04 26.548-18.658 26.565-18.67 11.468-8.059 22.964-16.751 28.991-29.87 2.817-6.133 4.088-12.856 3.173-19.577z" fill="#e94444"/><path d="m314.18 256.76c-6.025 13.121-17.515 21.809-28.985 29.875-.02.01-19.396 13.622-26.563 18.666-1.581 1.111-3.683 1.111-5.264 0-3.033-2.132-8.237-5.795-13.241-9.308.33-.12.65-.29.951-.5 6.926-4.864 25.662-18.035 25.682-18.045 11.08-7.787 22.199-16.194 28.024-28.875 2.722-5.925 3.953-12.431 3.063-18.926-1.201-8.807-5.945-17.695-12.911-23.49.831-.04 1.682-.04 2.532 0 15.834.771 27.844 16.034 29.886 31.027.919 6.725-.352 13.451-3.174 19.576z" fill="#d83131"/><g><path d="m452.353 75.145c-2.735-4.631-7.11-7.921-12.318-9.261l-33.083-8.519v-11.101c0-11.104-9.033-20.138-20.137-20.138h-101.183l-98.962-25.481c-5.21-1.342-10.63-.575-15.26 2.161-4.632 2.734-7.921 7.109-9.262 12.319l-2.833 11.002h-34.129c-11.103 0-20.137 9.034-20.137 20.138v190.613l-32.68 126.919c-1.033 4.011 1.382 8.099 5.392 9.131 4.011 1.04 8.099-1.381 9.132-5.392l18.156-70.512v142.124l-29.344-7.556c-1.329-.343-2.445-1.182-3.143-2.364s-.894-2.565-.552-3.895l6.197-24.068c1.033-4.01-1.382-8.099-5.392-9.132-4.01-1.037-8.099 1.382-9.132 5.392l-6.197 24.068c-1.341 5.209-.574 10.628 2.161 15.26 2.735 4.631 7.11 7.92 12.318 9.261l33.083 8.518v11.359c0 11.104 9.033 20.137 20.137 20.137h102.18l97.964 25.225c1.675.432 3.371.645 5.057.645 3.556-.001 7.061-.95 10.204-2.806 4.632-2.734 7.921-7.109 9.262-12.319l2.767-10.745h34.195c11.104 0 20.137-9.033 20.137-20.137v-190.868l47.563-184.718c1.341-5.209.574-10.628-2.161-15.26zm-275.681-56.281c.342-1.33 1.182-2.446 2.363-3.144 1.183-.698 2.566-.89 3.895-.552l42.559 10.958h-50.687zm158.656 474.272c-.342 1.33-1.182 2.446-2.364 3.144-1.182.699-2.566.89-3.894.552l-41.561-10.701h49.623zm104.662-406.471-33.039 128.31v-28.465c0-4.142-3.357-7.499-7.499-7.499s-7.499 3.357-7.499 7.499v279.483c0 2.833-2.305 5.139-5.139 5.139h-261.629c-2.834 0-5.139-2.305-5.139-5.139v-419.729c0-2.835 2.305-5.14 5.139-5.14h261.629c2.834 0 5.139 2.305 5.139 5.14v105.001c0 4.142 3.357 7.499 7.499 7.499s7.499-3.357 7.499-7.499v-78.414l29.344 7.556c1.329.343 2.445 1.182 3.143 2.364.699 1.182.894 2.564.552 3.894z"/><path d="m370.657 386.79c-3.872-1.477-8.203.468-9.677 4.339l-3.079 8.084h-21.378l-3.043-8.063c-1.463-3.873-5.789-5.833-9.664-4.367-3.875 1.462-5.831 5.788-4.368 9.664l19.569 51.854c.026.068.053.137.081.205 1.346 3.272 4.5 5.385 8.037 5.385h.007c3.54-.004 6.694-2.123 8.036-5.399.023-.058.046-.114.068-.173l19.749-51.853c1.474-3.869-.468-8.202-4.338-9.676zm-23.494 40.617-4.98-13.196h10.006z"/><path d="m192.552 115.811-19.569-51.855c-.026-.068-.053-.137-.081-.205-1.346-3.272-4.5-5.385-8.037-5.385-.002 0-.005 0-.008 0-3.54.004-6.694 2.123-8.036 5.399-.023.058-.046.114-.068.173l-19.749 51.853c-1.474 3.87.469 8.202 4.339 9.676 3.873 1.475 8.202-.468 9.677-4.339l3.079-8.084h21.378l3.043 8.063c1.134 3.003 3.987 4.853 7.018 4.853.879 0 1.775-.156 2.646-.485 3.874-1.463 5.83-5.789 4.368-9.664zm-32.741-17.765 5.026-13.196 4.98 13.196z"/><path d="m324.789 236.175c-2.406-17.67-16.886-36.531-36.953-37.51-12.294-.603-24.111 5.235-31.836 14.849-7.724-9.613-19.541-15.451-31.836-14.849-20.067.979-34.547 19.84-36.953 37.51-1.063 7.807.248 16.009 3.789 23.719 6.724 14.638 19.245 24.268 31.501 32.881.247.173 19.431 13.654 26.557 18.663 2.076 1.46 4.509 2.189 6.942 2.189 2.432 0 4.865-.73 6.94-2.188 0 0 26.396-18.551 26.565-18.67 12.249-8.607 24.77-18.237 31.494-32.875 3.542-7.709 4.852-15.912 3.79-23.719zm-17.42 17.457c-5.167 11.25-15.478 19.127-26.417 26.815-.046.032-.046.032-16.227 11.403l-8.725 6.131c-8.637-6.069-24.875-17.481-24.881-17.484-11.01-7.738-21.32-15.615-26.488-26.865-2.351-5.117-3.235-10.454-2.557-15.434 1.545-11.348 10.708-23.961 22.82-24.551.343-.017.686-.025 1.027-.025 10.176 0 19.703 7.339 22.907 17.803.965 3.151 3.875 5.304 7.171 5.304s6.206-2.152 7.171-5.304c3.312-10.815 13.366-18.281 23.934-17.777 12.111.59 21.275 13.203 22.82 24.551.68 4.98-.205 10.317-2.555 15.433z"/></g></g></g></svg>