<?xml version="1.0" encoding="utf-8"?>
<!-- Generator: Adobe Illustrator 24.0.2, SVG Export Plug-In . SVG Version: 6.00 Build 0)  -->
<svg version="1.1" id="Слой_1" xmlns="http://www.w3.org/2000/svg" xmlns:xlink="http://www.w3.org/1999/xlink" x="0px" y="0px"
	 width="30px" height="30px" viewBox="0 0 30 30" style="enable-background:new 0 0 30 30;" xml:space="preserve">
<style type="text/css">
	.st0{fill:#221F20;}
	.st1{fill:#03AEF2;}
</style>
<g>
	<path class="st0" d="M14.86,11.53c-1.45,2.67-2.77,5.11-4.09,7.55c-1.42,2.64-2.85,5.27-4.24,7.92c-0.29,0.56-0.62,0.85-1.3,0.83
		c-1.53-0.05-3.06-0.01-4.87-0.01c4.88-8.94,9.63-17.63,14.5-26.56c4.97,8.92,9.81,17.61,14.77,26.53c-2.02,0-3.83,0.05-5.63-0.05
		c-0.32-0.02-0.68-0.64-0.91-1.05c-2.5-4.58-4.97-9.17-7.45-13.76C15.43,12.54,15.21,12.15,14.86,11.53z"/>
	<path class="st1" d="M11.34,18.77c2.48,0,4.69,0,7.16,0c-1.19,2.09-2.3,4.04-3.56,6.25C13.7,22.87,12.58,20.92,11.34,18.77z"/>
</g>
</svg>
