<svg height="484pt" viewBox="-3 0 484 484.44814" width="484pt" xmlns="http://www.w3.org/2000/svg"><path d="m470.382812 292.511719c1.921876 10.363281-1.367187 21.007812-8.800781 28.480469l-117.839843 117.761718c-1.449219 1.605469-1.910157 3.875-1.203126 5.917969l4.402344 14.558594c.597656 1.484375.503906 3.15625-.253906 4.5625s-2.101562 2.402343-3.667969 2.71875l-53.519531 9.839843c-3.476562.386719-6.828125-1.433593-8.398438-4.558593l-25.039062-46.722657c-.167969-.304687-.300781-.625-.402344-.957031-.617187-1.386719-.730468-2.941406-.320312-4.402343l8.480468-27.4375 1.039063-3.519532c2.246094-7.695312 7.535156-14.136718 14.640625-17.839844l1.199219-.640624 32.480469-17.121094 61.042968-54.082032 31.519532-27.917968c4.433593-3.988282 10.816406-4.964844 16.238281-2.480469l-14.558594-135.839844c-.710937-3.628906.089844-7.386719 2.21875-10.410156 2.132813-3.019531 5.40625-5.039063 9.058594-5.589844 11.148437-.503906 20.832031 7.582031 22.320312 18.640625zm0 0" fill="#c0ab91"/><path d="m287.582031 286.191406c-9.042969 13.839844-8 74-8 74h-80s1.039063-60.160156-8-74c-25.359375-38.71875-72-108.800781-72-158 0-66.273437 53.726563-120 120-120 66.273438 0 120 53.726563 120 120 0 49.199219-46.640625 119.28125-72 158zm0 0" fill="#ffeb99"/><path d="m295.582031 144.191406h-32v32h-48v-32h-32l56-40zm0 0" fill="#cca400"/><path d="m279.582031 368.191406 1.117188 2.082032-1.199219.640624c-7.105469 3.703126-12.394531 10.144532-14.640625 17.839844l-1.039063 3.519532-.238281-.082032h-48l-.242187.082032-1.039063-3.519532c-2.246093-7.695312-7.535156-14.136718-14.640625-17.839844l-1.199218-.640624 1.121093-2.082032v-8h80zm0 0" fill="#c6c5ca"/><path d="m263.820312 392.273438-8.480468 27.4375c-.410156 1.460937-.296875 3.015624.320312 4.402343l-.078125.078125h-32l-.082031-.078125c.617188-1.386719.730469-2.941406.320312-4.402343l-8.480468-27.4375.242187-.082032h48zm0 0" fill="#898890"/><path d="m223.820312 419.710938c.410157 1.460937.296876 3.015624-.320312 4.402343-.097656.332031-.230469.652344-.398438.957031l-25.039062 46.722657c-1.574219 3.125-4.921875 4.945312-8.402344 4.558593l-53.519531-9.839843c-1.566406-.316407-2.910156-1.3125-3.667969-2.71875-.757812-1.40625-.847656-3.078125-.25-4.5625l4.398438-14.558594c.707031-2.042969.25-4.3125-1.199219-5.917969l-117.839844-117.761718c-7.433593-7.472657-10.722656-18.117188-8.800781-28.480469l29.359375-157.039063c1.488281-11.058594 11.175781-19.144531 22.320313-18.640625 3.65625.550781 6.929687 2.570313 9.058593 5.589844 2.128907 3.023437 2.933594 6.78125 2.222657 10.410156l-14.5625 135.839844c5.425781-2.484375 11.804687-1.507813 16.242187 2.480469l31.519531 27.917968 61.039063 54.082032 32.480469 17.121094 1.199218.640624c7.105469 3.703126 12.394532 10.144532 14.640625 17.839844l1.039063 3.519532zm0 0" fill="#c0ab91"/><path d="m478.261719 291.007812-29.273438-156.214843c-1.867187-15.554688-15.566406-26.933594-31.199219-25.914063-5.761718.765625-10.964843 3.839844-14.421874 8.515625-3.453126 4.675781-4.859376 10.554688-3.898438 16.285157l13.480469 125.769531c-4.710938.386719-9.140625 2.40625-12.519531 5.710937l-91.832032 81.367188-21.015625 11.089844c-.265625-24 1.597657-59.199219 6.71875-67.050782l1.9375-2.957031c26.671875-40.785156 71.34375-109.066406 71.34375-159.417969 0-70.691406-57.308593-128-128-128-70.695312 0-128 57.308594-128 128 0 50.351563 44.671875 118.632813 71.367188 159.417969l1.9375 2.957031c5.117187 7.832032 6.972656 43.058594 6.71875 67.050782l-21.039063-11.089844-91.488281-81.03125c-3.460937-3.4375-8.007813-5.5625-12.863281-6.007813l13.476562-125.792969c.960938-5.742187-.457031-11.632812-3.929687-16.308593-3.46875-4.675781-8.691407-7.742188-14.46875-8.492188-8.460938-.738281-16.800781 2.402344-22.671875 8.539063-4.613282 4.398437-7.570313 10.257812-8.367188 16.582031l-29.34375 156.992187c-2.433594 12.976563 1.695313 26.320313 11.03125 35.65625l116.734375 116.648438-4.125 13.679688c-1.203125 3.800781-.730469 7.929687 1.300781 11.359374 1.945313 3.195313 5.167969 5.398438 8.847657 6.046876l53.554687 9.792968c.839844.152344 1.691406.230469 2.542969.234375 6.035156-.109375 11.527344-3.519531 14.304687-8.882812l23.28125-43.351563h22.398438l23.199219 43.320313c2.785156 5.40625 8.320312 8.84375 14.402343 8.9375.859376-.003907 1.71875-.082031 2.566407-.234375l53.601562-9.855469c3.644531-.664063 6.835938-2.859375 8.757813-6.03125 2.039062-3.445313 2.507812-7.597656 1.289062-11.40625l-4.113281-13.601563 116.738281-116.65625c9.339844-9.335937 13.46875-22.675781 11.039063-35.65625zm-247.152344 125.183594-4.921875-16h26.785156l-4.917968 16zm27.015625-32h-37.097656c-2.234375-6.21875-6.070313-11.734375-11.117188-16h59.351563c-5.050781 4.265625-8.890625 9.785156-11.136719 16zm-130.542969-256c0-61.855468 50.144531-112 112-112s112 50.144532 112 112c0 45.601563-44.730469 113.9375-68.761719 150.664063l-1.933593 2.960937c-8.265625 12.640625-9.304688 51.824219-9.363281 70.375h-63.886719c0-18.550781-1.085938-57.734375-9.359375-70.398437l-1.9375-2.960938c-24.03125-36.703125-68.757813-105.039062-68.757813-150.640625zm63.519531 340.296875-50.511718-9.296875 3.726562-12.320312c1.539063-4.832032.3125-10.121094-3.199218-13.78125l-117.863282-117.746094c-5.601562-5.601562-8.078125-13.605469-6.617187-21.390625l29.472656-157.761719c.398437-2.84375 1.753906-5.464844 3.847656-7.429687 2.457031-2.671875 5.972657-4.117188 9.601563-3.945313 3.902344.441406 4.496094 4.726563 4.222656 7.199219l-14.097656 131.558594c-7.828125 4.679687-13.09375 12.679687-14.292969 21.722656-.863281 6.371094 1.191406 12.789063 5.597656 17.472656l64.519531 75.023438c2.863282 3.960937 6.324219 7.453125 10.265626 10.34375 2.105468 1.519531 3.902343 3.0625 5.527343 4.449219 3.523438 3.65625 8 6.253906 12.921875 7.503906l2.71875-15.761719c-1.910156-1.0625-3.671875-2.371094-5.242187-3.894531-1.925781-1.648438-4.054688-3.464844-6.527344-5.25-2.746094-2.046875-5.148437-4.515625-7.125-7.3125l-65.371094-75.976563c-1.183593-1.363281-1.6875-3.1875-1.367187-4.964843.410156-2.9375 1.824218-5.644532 4-7.65625 1.308594-1.351563 2.882812-2.410157 4.625-3.113282l.144531-.039062c2.628906-1.296875 5.78125-.894532 8 1.023437l92.558594 82c.488281.425781 1.027343.789063 1.601562 1.085938l33.742188 17.792969c5.207031 2.703124 9.066406 7.4375 10.664062 13.082031l9.410157 30.183593zm264.800782-153.144531-117.824219 117.761719c-3.546875 3.679687-4.777344 9.015625-3.199219 13.878906l3.679688 12.191406-50.402344 8.839844-24.976562-46.589844 9.328124-30.335937c1.617188-5.660156 5.5-10.402344 10.730469-13.097656l33.679688-17.761719c.574219-.296875 1.109375-.660157 1.597656-1.085938l92.882813-82.335937c2.210937-1.679688 5.1875-1.945313 7.664062-.6875l.140625.039062c1.816406.738282 3.453125 1.851563 4.800781 3.273438 2.140625 2.023437 3.515625 4.730468 3.882813 7.65625.261719 1.933594-.402344 3.875-1.792969 5.246094l-65.359375 76c-1.867187 2.601562-4.128906 4.894531-6.707031 6.792968-2.496094 1.800782-4.621094 3.617188-6.550782 5.261719-1.566406 1.527344-3.328124 2.835937-5.238281 3.898437l2.71875 15.757813c4.921875-1.246094 9.398438-3.847656 12.921875-7.503906 1.597656-1.382813 3.421875-2.925781 5.550782-4.472657 3.769531-2.734374 7.085937-6.042968 9.832031-9.804687l64.550781-75.082031c4.601562-4.695313 6.804688-11.230469 5.992188-17.75-.726563-6.574219-3.714844-12.691406-8.457032-17.304688-1.753906-1.761718-3.71875-3.296875-5.855468-4.570312l-14.109376-131.589844c-.273437-2.457031.316407-6.746094 4.167969-7.199219 3.636719-.160156 7.164063 1.28125 9.652344 3.941407 2.253906 2.183593 3.652344 5.097656 3.945313 8.21875l29.382812 157.023437c1.460938 7.785156-1.019531 15.789063-6.621094 21.390625zm0 0"/><path d="m234.933594 97.679688-56 40c-2.832032 2.019531-4.035156 5.640624-2.972656 8.953124s4.140624 5.558594 7.621093 5.558594h24v24c0 4.417969 3.582031 8 8 8h48c4.417969 0 8-3.582031 8-8v-24h24c3.476563 0 6.558594-2.246094 7.617188-5.558594 1.0625-3.3125-.136719-6.933593-2.96875-8.953124l-56-40c-2.78125-1.984376-6.515625-1.984376-9.296875 0zm35.6875 38.511718h-7.039063c-4.417969 0-8 3.582032-8 8v24h-32v-24c0-4.417968-3.582031-8-8-8h-7.042969l31.042969-22.167968zm0 0"/><path d="m211.667969 273.046875 13.394531-8.742187-1.9375-2.960938c-19.015625-29.046875-63.542969-97.078125-63.542969-133.152344.046875-44.160156 35.835938-79.949218 80-80v-16c-52.996093.058594-95.945312 43.003906-96 96 0 40.847656 44.6875 109.113282 66.160157 141.90625zm0 0"/><path d="m55.484375 80 .191406-16 16 .191406-.191406 16zm0 0"/><path d="m23.484375 80 .191406-16 16 .191406-.191406 16zm0 0"/><path d="m39.484375 64 .191406-16 16 .191406-.191406 16zm0 0"/><path d="m39.484375 96 .191406-16 15.996094.191406-.1875 16zm0 0"/><path d="m119.484375 32 .191406-16 16 .191406-.191406 16zm0 0"/><path d="m87.484375 31.996094.191406-15.996094 16 .1875-.191406 16zm0 0"/><path d="m103.488281 16 .191407-16 15.996093.191406-.191406 16zm0 0"/><path d="m103.484375 47.996094.191406-15.996094 16 .191406-.191406 15.996094zm0 0"/><path d="m407.488281 64.195312 16-.183593.1875 15.996093-16 .1875zm0 0"/><path d="m439.488281 64.199219 16-.191407.191407 16-16 .191407zm0 0"/><path d="m423.492188 48.195312 15.996093-.1875.1875 16-15.996093.1875zm0 0"/><path d="m423.488281 80.191406 16-.1875.1875 16-16 .1875zm0 0"/><path d="m343.488281 16.191406 16-.1875.1875 15.996094-16 .1875zm0 0"/><path d="m375.488281 16.191406 15.996094-.191406.191406 16-16 .191406zm0 0"/><path d="m359.484375.195312 16-.1874995.1875 15.9999995-16 .1875zm0 0"/><path d="m359.484375 32.195312 16-.1875.1875 15.996094-16 .1875zm0 0"/></svg>