<?xml version="1.0" encoding="utf-8"?>
<!-- Generator: Adobe Illustrator 24.0.2, SVG Export Plug-In . SVG Version: 6.00 Build 0)  -->
<svg version="1.1" id="svg8" xmlns="http://www.w3.org/2000/svg" xmlns:xlink="http://www.w3.org/1999/xlink" x="0px" y="0px"
	 width="30px" height="30px" viewBox="0 0 30 30" style="enable-background:new 0 0 30 30;" xml:space="preserve">
<style type="text/css">
	.st0{fill-rule:evenodd;clip-rule:evenodd;fill:#373435;}
	.st1{fill-rule:evenodd;clip-rule:evenodd;fill:#376CB3;}
	.st2{fill-rule:evenodd;clip-rule:evenodd;fill:#4B4B4D;}
	.st3{fill-rule:evenodd;clip-rule:evenodd;fill:#00AFEF;}
</style>
<g id="layer1" transform="translate(0 -274.709)">
	<g id="Page-1" transform="matrix(.34156 0 0 .34156 -.3416 270.2687)">
		<g id="mrsl-color">
			<g id="mrsl" transform="translate(1 13)">
				<path id="path1381" class="st0" d="M16.88,53L7.94,4.08l36.27-1.94l37.67,2.03l-8.59,48.57l1.3-0.28
					c3.94,2.15,7.87,4.3,11.81,6.45C73.42,68.94,59.51,78.18,45.04,86.98C30.54,78.36,16.8,68.99,3.78,58.9l11.26-6.55L16.88,53z"/>
				<path id="polygon1383" class="st1" d="M53.63,51.53l6.74,13.93l10.06-5.82L45.04,75.9v-4.34l8.59-3.42L53.63,51.53z"/>
				<path id="path1385" class="st1" d="M66.18,11.31L79.76,6.2c-0.74,4.44-1.47,8.89-2.22,13.34
					C77.48,12.47,73.25,10.25,66.18,11.31L66.18,11.31z"/>
				<path id="path1387" class="st1" d="M63.51,45.85c6.26-2.66,10.14-5.57,10.98-10.06l-4.07,23.86L63.51,45.85z"/>
				<path id="path1389" class="st1" d="M65.26,28.27c0.84-5.73-5.38-3.11-11.3-0.61v10.85C59.11,37.06,64.23,35.32,65.26,28.27z"/>
				<path id="path1391" class="st2" d="M20.8,61.52l-5.54-6.97c-2.38,1.5-4.75,3.02-7.14,4.52c11.33,9.55,23.42,17.82,35.9,25.43
					L20.8,61.52z"/>
				<path id="polygon1393" class="st2" d="M10.52,6.2l9.55,54.4l6.05,2.65l18.92,11.22L44.76,19.4L10.52,6.2z"/>
				<path id="polygon1395" class="st3" d="M10.52,6.2l33.52-2.04L79.76,6.2L44.76,19.4l-7.81-3.02l-7.76,12.1l-5.83-17.34L10.52,6.2
					z"/>
				<path id="path1397" class="st3" d="M26.12,63.24l-4.15-1.65c6.82,4.89,14.53,9.66,23.07,14.31v-4.34l-8.31-3.23l-0.08-24.38
					l-6.37,10.16l-6.56-15.5L26.12,63.24z"/>
				<path id="polygon1399" class="st2" d="M74.07,55.04l-3.39,3.13l-0.25,1.47l12.33-0.54L74.07,55.04z"/>
			</g>
		</g>
	</g>
</g>
</svg>
