<?xml version="1.0" encoding="utf-8"?>
<!-- Generator: Adobe Illustrator 24.0.2, SVG Export Plug-In . SVG Version: 6.00 Build 0)  -->
<svg version="1.1" id="Слой_1" xmlns="http://www.w3.org/2000/svg" xmlns:xlink="http://www.w3.org/1999/xlink" x="0px" y="0px"
	 width="30px" height="30px" viewBox="0 0 30 30" style="enable-background:new 0 0 30 30;" xml:space="preserve">
<style type="text/css">
	.st0{fill-rule:evenodd;clip-rule:evenodd;fill:url(#SVGID_1_);}
	.st1{fill-rule:evenodd;clip-rule:evenodd;fill:#F7F6F6;}
	.st2{fill:#F7F6F6;}
</style>
<g transform="matrix(.3392 0 0 .33073 0 0)">
	
		<linearGradient id="SVGID_1_" gradientUnits="userSpaceOnUse" x1="42.4587" y1="81.0654" x2="65.588" y2="81.0654" gradientTransform="matrix(0.9874 0 0 -1.0128 -55.1076 127.4541)">
		<stop  offset="0" style="stop-color:#B80101"/>
		<stop  offset="1" style="stop-color:#FD1515"/>
	</linearGradient>
	<ellipse class="st0" cx="44.22" cy="45.35" rx="43.16" ry="44.27"/>
	<path class="st1" d="M41.03,62.99h5.73c0.22,0,0.4-0.18,0.4-0.4v-26.5h4c2.69-4.92,7.48-6.78,7.48-6.78H30.83
		c0,0,4.16,1.32,5.69,6.78h4.11v26.5C40.63,62.81,40.81,62.99,41.03,62.99L41.03,62.99z"/>
	<path class="st1" d="M72.67,38.42l2.74-5.29c0,0-3.69-3.71-10.22-3.71c-9.49,0-14.76,7.52-15.07,17.37
		c-0.31,9.64,6.22,16.52,14.54,16.63c8.33,0.11,12.01-4.02,12.01-4.02V44.5c0-0.32-0.25-0.58-0.57-0.58l-9.39-0.19
		c-0.33-0.01-0.59,0.25-0.59,0.57l-0.08,5.07c-0.01,0.33,0.25,0.59,0.58,0.59h2.94c0.32,0,0.58,0.26,0.58,0.58v5.56
		c0,0-12.92,5.72-13.17-10.27c-0.11-6.67,4.53-10.06,8.54-10.27C69.24,35.36,72.67,38.42,72.67,38.42L72.67,38.42z"/>
	<path class="st2" d="M44.23,1.42c-23.66,0-42.84,19.67-42.84,43.94s19.18,43.94,42.84,43.94c23.66,0,42.84-19.67,42.84-43.94
		S67.89,1.42,44.23,1.42z M44.23,3.96c22.29,0,40.36,18.53,40.36,41.4c0,8.06-2.24,15.58-6.12,21.94
		c-1.59,0.91-6.91,3.29-19.02,3.12c-14.44-0.2-18.78-3.53-32.17-3.53c-7.69,0-14.08,2.08-15.78,2.68C6.7,62.76,3.87,54.4,3.87,45.35
		C3.87,22.49,21.94,3.96,44.23,3.96z M25.7,71.42c6.87,0,23.29,7.95,38.62,9.86c-3.59,2.12-7.54,3.69-11.72,4.6
		C34.71,74.7,27.25,71.42,25.7,71.42L25.7,71.42z M39.18,86.43c-7.38-0.94-14.13-3.93-19.72-8.4c1.71-0.19,6.8,0.75,10.43,2.53
		C32.75,81.95,36.07,83.85,39.18,86.43L39.18,86.43z M69.96,77.26c-11.06,0.79-26.9-5.98-36.82-7.32
		c10.82-0.73,29.63,5.09,43.76-0.25C74.89,72.5,72.56,75.05,69.96,77.26L69.96,77.26z"/>
	<path class="st2" d="M32.15,44.14c2-1.59,3.11-2.81,3.11-6.51c0-4.02-3.9-8.31-11.12-8.31c-8.75,0-11.07,5.72-11.07,5.72V59.6
		c0,0,4.32,3.39,10.64,3.39c3.7,0,13.65,0.11,13.65-10.96C37.37,47.47,33.94,45.62,32.15,44.14z M20.45,38.31
		c0,0,0.9-2.59,3.58-2.65c2.11-0.04,3.9,1.38,3.9,3.07c0,1.91-1.42,3.28-2.79,3.28c-1.17,0-3.23,0.14-4.24,0.12
		c-0.25,0-0.45-0.21-0.45-0.47V38.31z M29.52,53.93c-0.53,4.02-7.48,2.97-8.85,1.98c-0.13-0.08-0.21-0.21-0.21-0.37v-7.39
		c0-0.23,0.19-0.42,0.42-0.42c0,0,6.32-0.85,8.22,1.85C29.7,50.46,29.74,52.25,29.52,53.93z"/>
	<path class="st1" d="M54.81,12.22l-6.03,4.81l2.07,7.44l-6.42-4.27l-6.41,4.27l2.06-7.44l-6.03-4.81l7.69-0.34l2.69-7.24l2.7,7.24
		L54.81,12.22z M31.25,17.65l-2.58,2.68l1.45,3.44l-3.34-1.64l-2.81,2.46l0.53-3.7l-3.19-1.93l3.66-0.65l0.84-3.64l1.74,3.3
		L31.25,17.65z M16.85,25.09l-1.2,2l1.37,1.9l-2.27-0.53l-1.37,1.9l-0.2-2.33l-2.21-0.72l2.14-0.91v-2.34l1.53,1.76L16.85,25.09z
		 M72.15,25.09l1.2,2l-1.37,1.9l2.27-0.53l1.37,1.9l0.2-2.33l2.21-0.72l-2.14-0.91v-2.34l-1.53,1.76L72.15,25.09z M57.88,17.65
		l2.58,2.68L59,23.77l3.34-1.64l2.8,2.46l-0.52-3.7l3.19-1.93l-3.67-0.65l-0.83-3.64l-1.75,3.3L57.88,17.65z"/>
</g>
</svg>
