<?xml version="1.0" encoding="utf-8"?>
<!-- Generator: Adobe Illustrator 24.0.2, SVG Export Plug-In . SVG Version: 6.00 Build 0)  -->
<svg version="1.1" id="Слой_1" xmlns="http://www.w3.org/2000/svg" xmlns:xlink="http://www.w3.org/1999/xlink" x="0px" y="0px"
	 width="30px" height="30px" viewBox="0 0 30 30" style="enable-background:new 0 0 30 30;" xml:space="preserve">
<style type="text/css">
	.st0{fill:#434343;}
	.st1{fill:#FFFFFF;}
	.st2{fill:#DA1F32;}
	.st3{fill:#E21830;}
</style>
<g>
	<path class="st0" d="M23.22,20.16c0.13,0,0.26-0.03,0.38,0.01c0.36,0.1,0.76,0.15,1.05,0.36c0.45,0.32,0.46,0.73,0.17,1.19
		c-0.14,0.21-0.28,0.42-0.43,0.63c-0.39,0.57-0.71,0.66-1.33,0.34c-1.14-0.58-2.29-1.12-3.38-1.77c-1.16-0.7-2.35-0.94-3.7-0.92
		c-4.8,0.06-9.6,0.02-14.41,0.03c-1.03,0-1.4-0.4-1.24-1.42c0.44-2.78,0.89-5.56,1.34-8.33C1.78,9.54,2.07,9.3,2.84,9.3
		c6.84,0,13.69-0.01,20.53,0.01c0.42,0,0.66-0.13,0.89-0.48c0.69-1.08,1.45-2.13,2.14-3.22c0.39-0.61,0.9-0.9,1.6-0.79
		c0.74,0.11,1.34,0.46,1.65,1.18c0.18,0.41,0.08,0.8-0.16,1.16c-0.46,0.68-0.91,1.36-1.39,2.07c0.09,0.03,0.14,0.06,0.19,0.06
		c0.95,0.06,1.28,0.43,1.13,1.36c-0.2,1.29-0.41,2.57-0.62,3.85c-0.24,1.49-0.49,2.99-0.72,4.48c-0.12,0.74-0.44,1.03-1.19,1.04
		c-1.08,0.01-2.15,0-3.23,0c-0.14,0-0.29,0.02-0.43,0.02C23.21,20.09,23.21,20.13,23.22,20.16z M15.82,13.89
		c0.83-0.39,1.12-1.06,1.11-1.89c-0.01-0.68-0.31-1.15-0.97-1.25c-0.81-0.12-1.65-0.12-2.48-0.17c-0.3,1.93-0.58,3.75-0.87,5.6
		c0.51,0,0.99,0,1.48,0c0.12-0.73,0.23-1.45,0.35-2.16c0.02,0,0.05,0.01,0.07,0.01c0.15,0.72,0.31,1.45,0.46,2.15
		c0.57,0,1.07,0,1.6,0C16.31,15.4,16.07,14.66,15.82,13.89z M5.35,13.88c0.85-0.4,1.12-1.07,1.11-1.9
		c-0.01-0.65-0.31-1.12-0.95-1.22c-0.82-0.12-1.65-0.13-2.49-0.19c-0.3,1.93-0.58,3.75-0.87,5.6c0.51,0,0.98,0,1.47,0
		c0.12-0.72,0.23-1.41,0.34-2.11c0.22,0.61,0.34,1.22,0.48,1.82c0.03,0.12,0.17,0.29,0.26,0.29c0.45,0.03,0.9,0.01,1.39,0.01
		C5.84,15.4,5.6,14.65,5.35,13.88z M9.23,10.58c-0.3,1.92-0.58,3.75-0.87,5.62c0.47,0,0.88,0,1.29,0c1.54-0.02,2.51-0.77,2.88-2.25
		c0.09-0.37,0.15-0.75,0.17-1.13c0.06-1.05-0.5-1.9-1.43-2.08C10.61,10.61,9.92,10.63,9.23,10.58z M24.13,16.19
		c-0.27-0.88-0.54-1.71-0.78-2.56c-0.05-0.19-0.02-0.45,0.08-0.62c0.39-0.7,0.82-1.39,1.24-2.08c0.05-0.09,0.09-0.19,0.14-0.32
		c-0.24,0-0.43,0.03-0.6,0c-0.69-0.13-1.1,0.13-1.34,0.8c-0.17,0.49-0.47,0.94-0.71,1.41c-0.03-0.01-0.06-0.02-0.09-0.03
		c0.11-0.71,0.21-1.42,0.32-2.15c-0.5,0-0.97,0-1.48,0c-0.29,1.85-0.57,3.68-0.86,5.53c0.53,0,1,0,1.48,0
		c0.13-0.8,0.26-1.58,0.39-2.36c0.03,0,0.06,0,0.09,0c0.17,0.79,0.35,1.58,0.52,2.38C23.09,16.19,23.58,16.19,24.13,16.19z
		 M19.92,16.19c-0.11-1.87-0.21-3.7-0.32-5.57c-0.58,0-1.13-0.01-1.68,0.01c-0.07,0-0.19,0.09-0.21,0.16
		c-0.18,0.52-0.33,1.05-0.52,1.56c-0.17,0.45-0.38,0.89-0.57,1.34c-0.11,0.25-0.33,0.54-0.29,0.76c0.12,0.6,0.36,1.17,0.54,1.76
		c0.04,0.01,0.08,0.01,0.11,0.02c0.14-0.25,0.23-0.61,0.44-0.72c0.24-0.13,0.6-0.03,0.91-0.03c0.02,0.27,0.04,0.49,0.06,0.71
		C18.92,16.19,19.38,16.19,19.92,16.19z M25.23,10.64c-0.29,1.84-0.57,3.67-0.86,5.54c0.97,0,1.86,0,2.79,0
		c0.06-0.41,0.12-0.81,0.2-1.27c-0.45,0-0.85,0-1.24,0c-0.05-0.86-0.01-0.9,0.76-0.9c0.15,0,0.31,0,0.49,0
		c0.06-0.43,0.12-0.83,0.18-1.28c-0.42,0-0.76,0-1.19,0c0.19-0.32-0.1-0.78,0.46-0.82c0.33-0.02,0.78,0.07,0.97-0.1
		c0.2-0.18,0.15-0.63,0.21-0.96c0.01-0.05,0.01-0.11,0.01-0.19C27.1,10.64,26.18,10.64,25.23,10.64z M7.35,12.72
		c0.02-0.83,0.02-0.83,0.77-0.83c0.14,0,0.29,0.01,0.42-0.01c0.08-0.02,0.19-0.09,0.21-0.16c0.07-0.35,0.12-0.71,0.17-1.06
		c-0.96,0-1.85,0-2.77,0c0.79,0.86,0.83,2.26,0.01,2.98c-0.43,0.38-0.41,0.68-0.22,1.1c0.04,0.09,0.06,0.19,0.09,0.28
		C6.45,16.3,6.45,16.3,7.8,16.2c0.03,0,0.06,0.01,0.08,0c0.07-0.05,0.18-0.1,0.2-0.17c0.07-0.34,0.11-0.69,0.17-1.08
		C7.79,14.93,7.39,14.91,7,14.89c0.04-0.88,0.04-0.88,0.85-0.89c0.07,0,0.15,0.02,0.21-0.01c0.09-0.05,0.22-0.13,0.24-0.21
		c0.07-0.33,0.11-0.66,0.16-1.06C8.06,12.72,7.71,12.72,7.35,12.72z M23.43,22.04c-0.31-1-0.31-1-1.02-1.55
		c-0.33-0.25-0.67-0.48-0.97-0.75c-1.1-0.97-2.34-1.66-3.79-1.95c-0.01,0-0.03-0.01-0.04-0.02c-0.51-0.15-1.01-0.3-1.57-0.46
		c0.16,0.63,0.33,1.12,0.96,1.4c1.13,0.51,2.21,1.13,3.32,1.71C21.32,20.96,22.34,21.48,23.43,22.04z M25.19,8.79
		C25.95,8.75,26.5,9,26.86,9.6c0.04-0.02,0.08-0.03,0.09-0.05c0.44-0.65,0.89-1.31,1.33-1.96c0.31-0.46,0.26-0.74-0.2-1.07
		c-0.49-0.35-1.12-0.36-1.37,0.01C26.21,7.25,25.73,7.99,25.19,8.79z M24.38,10c0.78,0,1.44,0.01,2.09-0.01
		c0.07,0,0.22-0.19,0.2-0.26c-0.07-0.44-0.42-0.6-0.79-0.73c-0.33-0.12-0.68-0.16-0.93,0.15C24.76,9.39,24.61,9.65,24.38,10z
		 M19.6,18.17c0.18,0.14,0.35,0.27,0.56,0.43c0.39-0.57,0.76-1.12,1.16-1.72c-0.51-0.09-0.89-0.1-1.13,0.39
		C20.05,17.58,19.82,17.84,19.6,18.17z M27.06,6.09c0.69,0.04,1.26,0.26,1.69,0.86c0.1-0.26,0.22-0.54,0.14-0.73
		c-0.19-0.45-0.63-0.61-1.1-0.65C27.43,5.54,27.19,5.7,27.06,6.09z M24.24,21.2c-0.42-0.37-0.61-0.38-0.97-0.07
		c0.11,0.29,0.23,0.58,0.38,0.95C23.87,21.74,24.05,21.48,24.24,21.2z M16.31,17.1c-0.01,0.06-0.02,0.11-0.03,0.17
		c0.25,0.07,0.5,0.13,0.75,0.2c0.01-0.06,0.03-0.12,0.04-0.19C16.82,17.22,16.56,17.16,16.31,17.1z"/>
	<path class="st1" d="M15.82,13.89c0.25,0.78,0.49,1.51,0.74,2.29c-0.53,0-1.03,0-1.6,0c-0.15-0.7-0.3-1.42-0.46-2.15
		c-0.02,0-0.05-0.01-0.07-0.01c-0.11,0.71-0.23,1.43-0.35,2.16c-0.5,0-0.97,0-1.48,0c0.29-1.85,0.57-3.68,0.87-5.6
		c0.83,0.05,1.67,0.05,2.48,0.17c0.66,0.1,0.96,0.57,0.97,1.25C16.94,12.82,16.65,13.49,15.82,13.89z M14.78,11.8
		c-0.07,0.47-0.14,0.92-0.2,1.38c0.56-0.04,0.88-0.36,0.87-0.84C15.43,11.97,15.23,11.78,14.78,11.8z"/>
	<path class="st2" d="M5.35,13.88c0.25,0.78,0.49,1.53,0.75,2.32c-0.49,0-0.94,0.02-1.39-0.01c-0.1-0.01-0.24-0.18-0.26-0.29
		c-0.14-0.6-0.26-1.21-0.48-1.82c-0.11,0.69-0.23,1.39-0.34,2.11c-0.49,0-0.96,0-1.47,0c0.29-1.85,0.57-3.68,0.87-5.6
		c0.84,0.06,1.67,0.06,2.49,0.19c0.64,0.1,0.94,0.57,0.95,1.22C6.47,12.81,6.2,13.48,5.35,13.88z M4.1,13.18
		c0.62-0.01,1.04-0.57,0.82-1.06c-0.06-0.14-0.26-0.23-0.41-0.31c-0.04-0.02-0.2,0.1-0.22,0.17C4.22,12.37,4.17,12.77,4.1,13.18z"/>
	<path class="st2" d="M9.23,10.58c0.69,0.05,1.38,0.03,2.04,0.15c0.93,0.18,1.49,1.03,1.43,2.08c-0.02,0.38-0.07,0.76-0.17,1.13
		c-0.37,1.48-1.35,2.24-2.88,2.25c-0.41,0-0.82,0-1.29,0C8.64,14.33,8.93,12.5,9.23,10.58z M10.49,12
		c-0.15,0.96-0.29,1.89-0.44,2.82c0.6,0,0.99-0.57,1.08-1.5C11.22,12.43,11.08,12.11,10.49,12z"/>
	<path class="st1" d="M24.13,16.19c-0.55,0-1.04,0-1.59,0c-0.17-0.79-0.35-1.58-0.52-2.38c-0.03,0-0.06,0-0.09,0
		c-0.13,0.78-0.26,1.56-0.39,2.36c-0.48,0-0.95,0-1.48,0c0.29-1.85,0.57-3.68,0.86-5.53c0.51,0,0.98,0,1.48,0
		c-0.11,0.73-0.22,1.44-0.32,2.15c0.03,0.01,0.06,0.02,0.09,0.03c0.24-0.47,0.53-0.92,0.71-1.41c0.24-0.67,0.65-0.92,1.34-0.8
		c0.18,0.03,0.37,0,0.6,0c-0.06,0.13-0.09,0.23-0.14,0.32c-0.41,0.69-0.84,1.38-1.24,2.08c-0.1,0.17-0.13,0.43-0.08,0.62
		C23.58,14.48,23.86,15.31,24.13,16.19z"/>
	<path class="st1" d="M19.92,16.19c-0.54,0-1.01,0-1.51,0c-0.02-0.23-0.04-0.44-0.06-0.71c-0.31,0-0.67-0.1-0.91,0.03
		c-0.21,0.11-0.3,0.47-0.44,0.72c-0.04-0.01-0.08-0.01-0.11-0.02c-0.19-0.58-0.43-1.16-0.54-1.76c-0.04-0.23,0.18-0.51,0.29-0.76
		c0.19-0.45,0.4-0.89,0.57-1.34c0.19-0.51,0.34-1.04,0.52-1.56c0.02-0.07,0.14-0.15,0.21-0.16c0.55-0.01,1.1-0.01,1.68-0.01
		C19.71,12.49,19.82,14.32,19.92,16.19z M18.4,14.3c0-0.71,0-1.39,0-2.07c-0.01,0-0.03,0-0.04-0.01c-0.21,0.68-0.42,1.35-0.64,2.07
		C17.97,14.3,18.15,14.3,18.4,14.3z"/>
	<path class="st1" d="M25.23,10.64c0.95,0,1.86,0,2.79,0c-0.01,0.08,0,0.14-0.01,0.19c-0.06,0.33-0.01,0.78-0.21,0.96
		c-0.19,0.18-0.64,0.08-0.97,0.1c-0.56,0.04-0.27,0.5-0.46,0.82c0.43,0,0.77,0,1.19,0c-0.06,0.45-0.12,0.85-0.18,1.28
		c-0.19,0-0.34,0-0.49,0c-0.77,0-0.81,0.04-0.76,0.9c0.4,0,0.8,0,1.24,0c-0.07,0.46-0.13,0.86-0.2,1.27c-0.93,0-1.82,0-2.79,0
		C24.66,14.32,24.95,12.48,25.23,10.64z"/>
	<path class="st2" d="M7.35,12.72c0.36,0,0.72,0,1.12,0c-0.06,0.4-0.09,0.73-0.16,1.06c-0.02,0.09-0.15,0.16-0.24,0.21
		C8,14.02,7.92,14,7.85,14c-0.8,0.01-0.8,0.01-0.85,0.89c0.4,0.02,0.8,0.04,1.25,0.06c-0.06,0.39-0.1,0.74-0.17,1.08
		c-0.01,0.07-0.13,0.12-0.2,0.17c-0.02,0.01-0.06,0-0.08,0c-1.35,0.1-1.35,0.1-1.77-1.18C6,14.93,5.97,14.83,5.93,14.74
		c-0.19-0.42-0.21-0.72,0.22-1.1c0.82-0.72,0.78-2.12-0.01-2.98c0.93,0,1.81,0,2.77,0c-0.06,0.36-0.1,0.71-0.17,1.06
		c-0.01,0.07-0.13,0.14-0.21,0.16c-0.14,0.03-0.28,0.01-0.42,0.01C7.37,11.9,7.37,11.9,7.35,12.72z"/>
	<path class="st3" d="M23.43,22.04c-1.09-0.56-2.1-1.09-3.12-1.61c-1.1-0.57-2.19-1.19-3.32-1.71c-0.63-0.28-0.8-0.77-0.96-1.4
		c0.56,0.16,1.06,0.31,1.57,0.46c0.01,0,0.03,0.01,0.04,0.02c1.45,0.28,2.69,0.97,3.79,1.95c0.31,0.27,0.65,0.5,0.97,0.75
		C23.12,21.04,23.12,21.04,23.43,22.04z"/>
	<path class="st3" d="M25.19,8.79c0.54-0.8,1.02-1.53,1.52-2.25c0.26-0.37,0.88-0.36,1.37-0.01c0.46,0.32,0.51,0.61,0.2,1.07
		c-0.44,0.65-0.89,1.31-1.33,1.96c-0.01,0.02-0.05,0.02-0.09,0.05C26.5,9,25.95,8.75,25.19,8.79z"/>
	<path class="st3" d="M24.38,10c0.23-0.35,0.39-0.62,0.58-0.86c0.25-0.31,0.59-0.27,0.93-0.15c0.36,0.13,0.72,0.3,0.79,0.73
		c0.01,0.08-0.13,0.26-0.2,0.26C25.81,10.01,25.15,10,24.38,10z"/>
	<path class="st3" d="M19.6,18.17c0.22-0.33,0.44-0.59,0.59-0.89c0.24-0.49,0.62-0.48,1.13-0.39c-0.4,0.59-0.77,1.14-1.16,1.72
		C19.95,18.44,19.78,18.31,19.6,18.17z"/>
	<path class="st3" d="M27.06,6.09c0.14-0.39,0.37-0.54,0.72-0.52c0.47,0.04,0.91,0.2,1.1,0.65c0.08,0.19-0.04,0.47-0.14,0.73
		C28.32,6.34,27.75,6.12,27.06,6.09z"/>
	<path class="st3" d="M24.24,21.2c-0.19,0.28-0.37,0.55-0.59,0.88c-0.15-0.37-0.27-0.66-0.38-0.95
		C23.63,20.82,23.82,20.83,24.24,21.2z"/>
	<path class="st3" d="M16.31,17.1c0.25,0.06,0.51,0.12,0.76,0.18c-0.01,0.06-0.03,0.12-0.04,0.19c-0.25-0.07-0.5-0.13-0.75-0.2
		C16.29,17.21,16.3,17.15,16.31,17.1z"/>
	<path class="st0" d="M14.78,11.8c0.45-0.02,0.65,0.17,0.66,0.54c0.01,0.48-0.31,0.81-0.87,0.84C14.64,12.72,14.71,12.28,14.78,11.8
		z"/>
	<path class="st0" d="M4.1,13.18c0.06-0.41,0.11-0.81,0.19-1.2c0.01-0.07,0.18-0.19,0.22-0.17c0.15,0.08,0.35,0.17,0.41,0.31
		C5.14,12.61,4.73,13.16,4.1,13.18z"/>
	<path class="st0" d="M10.49,12c0.59,0.11,0.74,0.43,0.65,1.32c-0.09,0.93-0.49,1.51-1.08,1.5C10.19,13.89,10.34,12.96,10.49,12z"/>
	<path class="st0" d="M18.4,14.3c-0.24,0-0.43,0-0.67,0c0.22-0.72,0.43-1.4,0.64-2.07c0.01,0,0.03,0,0.04,0.01
		C18.4,12.91,18.4,13.59,18.4,14.3z"/>
</g>
</svg>
