<?xml version="1.0" encoding="utf-8"?>
<!-- Generator: Adobe Illustrator 24.0.2, SVG Export Plug-In . SVG Version: 6.00 Build 0)  -->
<svg version="1.1" id="Слой_1" xmlns="http://www.w3.org/2000/svg" xmlns:xlink="http://www.w3.org/1999/xlink" x="0px" y="0px"
	 width="30px" height="30px" viewBox="0 0 30 30" style="enable-background:new 0 0 30 30;" xml:space="preserve">
<style type="text/css">
	.st0{fill:#BF1E2E;}
</style>
<g>
	<path class="st0" d="M28.25,1.3c-0.57,0.8-1.09,1.55-1.62,2.3C20.8,11.85,14.97,20.1,9.15,28.36c-0.11,0.16-0.22,0.29-0.45,0.29
		c-2.68,0-5.36,0-8.05,0.01c-0.05,0-0.11-0.01-0.22-0.02c0.08-0.13,0.14-0.23,0.21-0.33c4.9-7.01,9.81-14.02,14.71-21.03
		c1.34-1.92,2.68-3.84,4.03-5.75c0.08-0.12,0.26-0.23,0.4-0.24c2.74-0.02,5.48-0.02,8.22-0.02C28.05,1.27,28.12,1.28,28.25,1.3z"/>
	<path d="M20.35,15.55c3.06,4.37,6.08,8.68,9.13,13.04c-0.14,0.01-0.23,0.02-0.33,0.02c-2.66,0.01-5.32,0.01-7.98,0.02
		c-0.21,0-0.37-0.03-0.5-0.24c-1.39-2.28-2.79-4.55-4.19-6.82c-0.09-0.15-0.17-0.26-0.03-0.45c1.28-1.8,2.54-3.61,3.81-5.41
		C20.29,15.67,20.3,15.63,20.35,15.55z"/>
	<path d="M9.72,12.11C7.31,8.5,4.92,4.93,2.5,1.32c0.12-0.02,0.2-0.03,0.28-0.04c2.73-0.01,5.45-0.01,8.18-0.02
		c0.21,0,0.33,0.06,0.43,0.25c0.78,1.52,1.58,3.02,2.37,4.54c0.05,0.1,0.06,0.3-0.01,0.39C12.43,8.32,11.09,10.18,9.72,12.11z"/>
</g>
</svg>
