<?xml version="1.0" encoding="utf-8"?>
<!-- Generator: Adobe Illustrator 24.0.2, SVG Export Plug-In . SVG Version: 6.00 Build 0)  -->
<svg version="1.1" id="Слой_1" xmlns="http://www.w3.org/2000/svg" xmlns:xlink="http://www.w3.org/1999/xlink" x="0px" y="0px"
	 width="30px" height="30px" viewBox="0 0 30 30" style="enable-background:new 0 0 30 30;" xml:space="preserve">
<style type="text/css">
	.st0{fill:#FCAF1C;}
	.st1{fill:#898989;}
</style>
<g>
	<path class="st0" d="M6.09,3.07C6.72,3.06,7.34,3.3,7.81,3.72c0.51,0.46,0.77,1.13,0.73,1.82c0.05,0.68-0.22,1.35-0.73,1.82
		C7.34,7.78,6.72,8.01,6.09,8.01C5.46,8.01,4.84,7.78,4.37,7.35C3.87,6.89,3.6,6.22,3.65,5.54C3.6,4.85,3.87,4.18,4.37,3.72
		C4.84,3.29,5.46,3.06,6.09,3.07 M6.09,0.69C4.88,0.7,3.72,1.16,2.84,1.98c-1,0.89-1.55,2.17-1.52,3.51
		C1.28,6.83,1.83,8.11,2.83,9.01c0.9,0.8,2.06,1.24,3.26,1.24c1.2,0.01,2.37-0.43,3.26-1.24c0.99-0.89,1.54-2.17,1.51-3.51
		c0.04-1.33-0.51-2.61-1.5-3.51C8.47,1.17,7.3,0.7,6.09,0.69 M7.46,12.5v16.53h-2.9V12.39C5.03,12.53,5.51,12.6,6,12.6
		c0.49,0,0.98-0.07,1.44-0.22L7.46,12.5z"/>
	<path class="st1" d="M25.59,8.28c-0.23-2.85-1.39-5.01-4.29-5.01c-1.97-0.14-3.67,1.35-3.81,3.32V6.9
		c0,6.29,11.18,6.36,11.18,15.31c0,4.43-2.54,7.09-7.14,7.09c-4.36,0-6.99-3.21-7.06-7.87h2.78c0.07,3.28,1.62,5.32,4.59,5.32
		c2.51,0,4.12-1.62,4.12-4.59c0-6.36-11.18-7.06-11.18-15.01c0-3.93,2.73-6.48,6.71-6.48c3.99,0,6.63,2.73,6.87,7.56L25.59,8.28z"/>
</g>
</svg>
