<?xml version="1.0" encoding="iso-8859-1"?>
<!-- Generator: Adobe Illustrator 19.0.0, SVG Export Plug-In . SVG Version: 6.00 Build 0)  -->
<svg version="1.1" id="Capa_1" xmlns="http://www.w3.org/2000/svg" xmlns:xlink="http://www.w3.org/1999/xlink" x="0px" y="0px"
	 viewBox="0 0 512 512" style="enable-background:new 0 0 512 512;" xml:space="preserve">
<path style="fill:#27A2DE;" d="M488,434.8H24c-8.8,0-16-7.2-16-16V94c0-8.8,7.2-16,16-16h464c8.8,0,16,7.2,16,16v324
	C504,427.6,496.8,434.8,488,434.8z"/>
<rect x="40" y="110" style="fill:#FFFFFF;" width="432" height="292"/>
<circle style="fill:#FFBF5D;" cx="200" cy="234" r="94.4"/>
<circle style="fill:#F15F50;" cx="312" cy="234" r="94.4"/>
<path style="fill:#FFBF5D;" d="M277.6,181.2c-4-5.6-8-10.4-12.8-15.2H248c-4.8,4.8-9.6,9.6-12.8,15.2H277.6z"/>
<path style="fill:#F15F50;" d="M277.6,181.2h-42.4c-3.2,4.8-6.4,9.6-8.8,15.2h59.2C283.2,190.8,280.8,186,277.6,181.2z"/>
<path style="fill:#FFBF5D;" d="M285.6,196.4h-59.2c-2.4,4.8-4,9.6-5.6,15.2h69.6C289.6,206,288,201.2,285.6,196.4z"/>
<path style="fill:#F15F50;" d="M291.2,210.8h-69.6c-1.6,4.8-2.4,9.6-2.4,15.2h75.2C292.8,221.2,292,216.4,291.2,210.8z"/>
<path style="fill:#FFBF5D;" d="M294.4,234.8c0-3.2,0-5.6-0.8-8h-75.2c0,2.4-0.8,5.6-0.8,8s0,4.8,0,6.4h75.2
	C293.6,238.8,294.4,237.2,294.4,234.8z"/>
<path style="fill:#F15F50;" d="M293.6,241.2h-75.2c0,4.8,0.8,10.4,2.4,15.2h70.4C292.8,251.6,293.6,246.8,293.6,241.2z"/>
<path style="fill:#FFBF5D;" d="M291.2,256.4h-70.4c1.6,4.8,3.2,10.4,4.8,15.2h60.8C288.8,266.8,290.4,261.2,291.2,256.4z"/>
<path style="fill:#F15F50;" d="M225.6,271.6c2.4,5.6,4.8,10.4,8,15.2h44.8c3.2-4.8,5.6-9.6,8-15.2H225.6z"/>
<path style="fill:#FFBF5D;" d="M233.6,286.8c4,5.6,8,10.4,12.8,15.2h20c4.8-4.8,8.8-9.6,12.8-15.2H233.6z"/>
<g>
	<path style="fill:#193651;" d="M0,94v324c0,13.6,10.4,24,24,24h464c13.6,0,24-10.4,24-24V94c0-13.6-10.4-24-24-24H24
		C10.4,70,0,81.2,0,94z M496,94v324c0,4.8-3.2,8-8,8H24c-4.8,0-8-3.2-8-8V94c0-4.8,3.2-8,8-8h464C492.8,86,496,90,496,94z"/>
	<rect x="76.8" y="362.8" style="fill:#193651;" width="16" height="16"/>
	<rect x="133.6" y="362.8" style="fill:#193651;" width="16" height="16"/>
	<rect x="191.2" y="362.8" style="fill:#193651;" width="16" height="16"/>
	<rect x="248" y="362.8" style="fill:#193651;" width="16" height="16"/>
	<rect x="304.8" y="362.8" style="fill:#193651;" width="16" height="16"/>
	<rect x="362.4" y="362.8" style="fill:#193651;" width="16" height="16"/>
	<rect x="419.2" y="362.8" style="fill:#193651;" width="16" height="16"/>
</g>
<g>
</g>
<g>
</g>
<g>
</g>
<g>
</g>
<g>
</g>
<g>
</g>
<g>
</g>
<g>
</g>
<g>
</g>
<g>
</g>
<g>
</g>
<g>
</g>
<g>
</g>
<g>
</g>
<g>
</g>
</svg>
