<?xml version="1.0" encoding="utf-8"?>
<!-- Generator: Adobe Illustrator 24.0.2, SVG Export Plug-In . SVG Version: 6.00 Build 0)  -->
<svg version="1.1" id="Слой_1" xmlns="http://www.w3.org/2000/svg" xmlns:xlink="http://www.w3.org/1999/xlink" x="0px" y="0px"
	 width="30px" height="30px" viewBox="0 0 30 30" style="enable-background:new 0 0 30 30;" xml:space="preserve">
<style type="text/css">
	.st0{fill:#FFCC01;}
	.st1{stroke:#000000;stroke-width:1.0067;stroke-miterlimit:10;}
</style>
<g>
	<rect x="3.34" y="0.32" class="st0" width="23.31" height="29.36"/>
	<g>
		<path class="st1" d="M9.29,5.54c1.12-0.24,2.9-0.41,4.7-0.41c2.57,0,4.23,0.44,5.47,1.45c1.04,0.77,1.66,1.95,1.66,3.52
			c0,1.92-1.27,3.61-3.37,4.38v0.06c1.89,0.47,4.11,2.04,4.11,5c0,1.72-0.68,3.02-1.69,3.99c-1.39,1.27-3.64,1.86-6.89,1.86
			c-1.77,0-3.14-0.12-3.99-0.24V5.54z M11.86,13.7h2.34c2.72,0,4.32-1.42,4.32-3.34c0-2.34-1.77-3.25-4.38-3.25
			c-1.18,0-1.86,0.09-2.28,0.18V13.7z M11.86,23.25c0.5,0.09,1.24,0.12,2.16,0.12c2.66,0,5.12-0.98,5.12-3.87
			c0-2.72-2.34-3.84-5.15-3.84h-2.13V23.25z"/>
	</g>
</g>
</svg>
