<?xml version="1.0" encoding="utf-8"?>
<svg viewBox="27.025 208.606 239.011 240.699" style="enable-background:new 0 0 652 652;" xmlns="http://www.w3.org/2000/svg">
  <defs>
    <style type="text/css">
	.st0{clip-path:url(#SVGID_2_);fill:url(#SVGID_3_);}
	.st1{clip-path:url(#SVGID_5_);fill:url(#SVGID_6_);}
	.st2{clip-path:url(#SVGID_8_);fill:url(#SVGID_9_);}
	.st3{clip-path:url(#SVGID_11_);fill:url(#SVGID_12_);}
	.st4{clip-path:url(#SVGID_14_);fill:url(#SVGID_15_);}
	.st5{clip-path:url(#SVGID_17_);fill:url(#SVGID_18_);}
	.st6{fill:#FFFFFF;}
	.st7{fill:#0055B8;}
	.st8{clip-path:url(#SVGID_20_);fill:url(#SVGID_21_);}
</style>
  </defs>
  <g>
    <defs>
      <path id="SVGID_1_" d="M194.3,428.6c10.4-5.1,19.8-11.8,28.1-19.7l-24.7-26.1L194.3,428.6z"/>
    </defs>
    <clipPath id="SVGID_2_">
      <path d="M194.3,428.6c10.4-5.1,19.8-11.8,28.1-19.7l-24.7-26.1L194.3,428.6z" transform="matrix(1, 0, 0, 1, 0, 0)" style="overflow: visible;"/>
    </clipPath>
    <linearGradient id="SVGID_3_" gradientUnits="userSpaceOnUse" x1="4.9029" y1="743.864" x2="10.6409" y2="743.864" gradientTransform="matrix(13.8332 13.8332 13.8332 -13.8332 -10220.2734 10557.1807)">
      <stop offset="0" style="stop-color:#0096D6"/>
      <stop offset="0.3926" style="stop-color:#0096D6"/>
      <stop offset="0.6216" style="stop-color:#0067B2"/>
      <stop offset="0.9575" style="stop-color:#005A9B"/>
      <stop offset="1" style="stop-color:#005A9B"/>
    </linearGradient>
    <polygon class="st0" points="208.3,368.7 245.2,405.7 208.3,442.6 171.4,405.7  "/>
  </g>
  <g>
    <defs>
      <path id="SVGID_4_" d="M224.2,264.3c0,27.5-7.3,53.2-20,75.5l35.9-36.3c0.2-0.2,0.5-0.2,0.7,0c0.2,0.2,0.3,0.5,0.1,0.8l-32.3,48.9    l47.1-10.1c0.6-4.8,1-9.6,1-14.5c0-31.1-12.7-59.1-33.2-79.3C224,254.1,224.2,259.1,224.2,264.3"/>
    </defs>
    <clipPath id="SVGID_5_">
      <path d="M224.2,264.3c0,27.5-7.3,53.2-20,75.5l35.9-36.3c0.2-0.2,0.5-0.2,0.7,0c0.2,0.2,0.3,0.5,0.1,0.8l-32.3,48.9    l47.1-10.1c0.6-4.8,1-9.6,1-14.5c0-31.1-12.7-59.1-33.2-79.3C224,254.1,224.2,259.1,224.2,264.3" transform="matrix(1, 0, 0, 1, 0, 0)" style="overflow: visible;"/>
    </clipPath>
    <linearGradient id="SVGID_6_" gradientUnits="userSpaceOnUse" x1="4.9029" y1="747.6591" x2="10.6409" y2="747.6591" gradientTransform="matrix(13.8332 13.8332 13.8332 -13.8332 -10209.4102 10546.3174)">
      <stop offset="0" style="stop-color:#0096D6"/>
      <stop offset="0.3926" style="stop-color:#0096D6"/>
      <stop offset="0.6216" style="stop-color:#0067B2"/>
      <stop offset="0.9575" style="stop-color:#005A9B"/>
      <stop offset="1" style="stop-color:#005A9B"/>
    </linearGradient>
    <polygon class="st1" points="230.4,222.8 308.7,301.1 230.4,379.3 152.2,301.1  "/>
  </g>
  <g>
    <defs>
      <path id="SVGID_7_" d="M226.5,404.7c5.9-6.3,11.1-13.3,15.4-20.8l-33.5-8L226.5,404.7z"/>
    </defs>
    <clipPath id="SVGID_8_">
      <path d="M226.5,404.7c5.9-6.3,11.1-13.3,15.4-20.8l-33.5-8L226.5,404.7z" transform="matrix(1, 0, 0, 1, 0, 0)" style="overflow: visible;"/>
    </clipPath>
    <linearGradient id="SVGID_9_" gradientUnits="userSpaceOnUse" x1="4.9029" y1="744.715" x2="10.6409" y2="744.715" gradientTransform="matrix(13.8332 13.8332 13.8332 -13.8332 -10215.958 10552.8652)">
      <stop offset="0" style="stop-color:#0096D6"/>
      <stop offset="0.3926" style="stop-color:#0096D6"/>
      <stop offset="0.6216" style="stop-color:#0067B2"/>
      <stop offset="0.9575" style="stop-color:#005A9B"/>
      <stop offset="1" style="stop-color:#005A9B"/>
    </linearGradient>
    <polygon class="st2" points="225.1,359.2 256.3,390.3 225.1,421.5 194,390.3  "/>
  </g>
  <g>
    <defs>
      <path id="SVGID_10_" d="M77.6,417c18.8,14.3,42.2,22.9,67.6,22.9c14.8,0,28.9-2.9,41.9-8.2l-2.6-49.1l-41.7,42.2    c-0.2,0.2-0.5,0.2-0.8,0c-0.2-0.2-0.3-0.5-0.1-0.7l29.1-44C145.8,401.9,113.2,415.6,77.6,417"/>
    </defs>
    <clipPath id="SVGID_11_">
      <path d="M77.6,417c18.8,14.3,42.2,22.9,67.6,22.9c14.8,0,28.9-2.9,41.9-8.2l-2.6-49.1l-41.7,42.2    c-0.2,0.2-0.5,0.2-0.8,0c-0.2-0.2-0.3-0.5-0.1-0.7l29.1-44C145.8,401.9,113.2,415.6,77.6,417" transform="matrix(1, 0, 0, 1, 0, 0)" style="overflow: visible;"/>
    </clipPath>
    <linearGradient id="SVGID_12_" gradientUnits="userSpaceOnUse" x1="4.9029" y1="741.3352" x2="10.6409" y2="741.3352" gradientTransform="matrix(13.8332 13.8332 13.8332 -13.8332 -10225.4189 10562.3262)">
      <stop offset="0" style="stop-color:#0096D6"/>
      <stop offset="0.3926" style="stop-color:#0096D6"/>
      <stop offset="0.6216" style="stop-color:#0067B2"/>
      <stop offset="0.9575" style="stop-color:#005A9B"/>
      <stop offset="1" style="stop-color:#005A9B"/>
    </linearGradient>
    <polygon class="st3" points="132.4,325.3 217,410 132.4,494.6 47.7,410  "/>
  </g>
  <g>
    <defs>
      <path id="SVGID_13_" d="M212.7,364.5l32.9,12.5c4.2-8.6,7.3-17.8,9.1-27.5L212.7,364.5z"/>
    </defs>
    <clipPath id="SVGID_14_">
      <path d="M212.7,364.5l32.9,12.5c4.2-8.6,7.3-17.8,9.1-27.5L212.7,364.5z" transform="matrix(1, 0, 0, 1, 0, 0)" style="overflow: visible;"/>
    </clipPath>
    <linearGradient id="SVGID_15_" gradientUnits="userSpaceOnUse" x1="4.9029" y1="745.7665" x2="10.6409" y2="745.7665" gradientTransform="matrix(13.8332 13.8332 13.8332 -13.8332 -10212.7559 10549.6631)">
      <stop offset="0" style="stop-color:#0096D6"/>
      <stop offset="0.3926" style="stop-color:#0096D6"/>
      <stop offset="0.6216" style="stop-color:#0067B2"/>
      <stop offset="0.9575" style="stop-color:#005A9B"/>
      <stop offset="1" style="stop-color:#005A9B"/>
    </linearGradient>
    <polygon class="st4" points="233.7,328.6 268.4,363.4 233.7,398.1 199,363.4  "/>
  </g>
  <g>
    <defs>
      <path id="SVGID_16_" d="M33.7,328.4c0,33.1,14.5,62.9,37.4,83.3h0.1c36.1,0,69.2-13,94.8-34.5l-76,16.3c-0.3,0.1-0.6-0.1-0.7-0.4    c-0.1-0.3,0.1-0.6,0.4-0.7L170,364l-79.5-30.3c-0.3-0.1-0.4-0.4-0.4-0.7c0.1-0.3,0.4-0.4,0.7-0.4l83.5,20L142.8,303    c-0.1-0.2-0.1-0.6,0.1-0.7c0.2-0.2,0.5-0.2,0.8,0.1l41.2,43.4l7.1-94.5c0-0.3,0.3-0.5,0.6-0.5c0.3,0,0.5,0.2,0.6,0.5l4.6,88.8    c13.3-22.2,21-48.1,21-75.8c0-7.1-0.5-14-1.5-20.8c-19.4-16.5-44.6-26.5-72.1-26.5C83.7,216.9,33.7,266.9,33.7,328.4"/>
    </defs>
    <clipPath id="SVGID_17_">
      <path d="M33.7,328.4c0,33.1,14.5,62.9,37.4,83.3h0.1c36.1,0,69.2-13,94.8-34.5l-76,16.3c-0.3,0.1-0.6-0.1-0.7-0.4    c-0.1-0.3,0.1-0.6,0.4-0.7L170,364l-79.5-30.3c-0.3-0.1-0.4-0.4-0.4-0.7c0.1-0.3,0.4-0.4,0.7-0.4l83.5,20L142.8,303    c-0.1-0.2-0.1-0.6,0.1-0.7c0.2-0.2,0.5-0.2,0.8,0.1l41.2,43.4l7.1-94.5c0-0.3,0.3-0.5,0.6-0.5c0.3,0,0.5,0.2,0.6,0.5l4.6,88.8    c13.3-22.2,21-48.1,21-75.8c0-7.1-0.5-14-1.5-20.8c-19.4-16.5-44.6-26.5-72.1-26.5C83.7,216.9,33.7,266.9,33.7,328.4" transform="matrix(1, 0, 0, 1, 0, 0)" style="overflow: visible;"/>
    </clipPath>
    <linearGradient id="SVGID_18_" gradientUnits="userSpaceOnUse" x1="8.981" y1="744.6321" x2="14.7189" y2="744.6321" gradientTransform="matrix(19.88 19.88 19.88 -19.88 -14917.8398 14876.7529)">
      <stop offset="0" style="stop-color:#FFED00"/>
      <stop offset="0.0041" style="stop-color:#FFED00"/>
      <stop offset="0.2934" style="stop-color:#FFD500"/>
      <stop offset="0.3711" style="stop-color:#FBC002"/>
      <stop offset="0.5313" style="stop-color:#F28908"/>
      <stop offset="0.686" style="stop-color:#E84E0F"/>
      <stop offset="1" style="stop-color:#E84E0F"/>
    </linearGradient>
    <polygon class="st5" points="126.3,124.4 316.2,314.3 126.3,504.3 -63.7,314.3  "/>
  </g>
  <g>
    <defs>
      <path id="SVGID_19_" d="M33.7,328.4c0,33.1,14.5,62.9,37.4,83.3h0.1c81.5,0,147.5-66,147.5-147.5c0-7.1-0.5-14-1.5-20.8    c-19.4-16.5-44.6-26.5-72.1-26.5C83.7,216.9,33.7,266.9,33.7,328.4"/>
    </defs>
    <clipPath id="SVGID_20_">
      <path d="M33.7,328.4c0,33.1,14.5,62.9,37.4,83.3h0.1c81.5,0,147.5-66,147.5-147.5c0-7.1-0.5-14-1.5-20.8    c-19.4-16.5-44.6-26.5-72.1-26.5C83.7,216.9,33.7,266.9,33.7,328.4" transform="matrix(1, 0, 0, 1, 0, 0)" style="overflow: visible;"/>
    </clipPath>
    <linearGradient id="SVGID_21_" gradientUnits="userSpaceOnUse" x1="8.981" y1="744.6321" x2="14.7189" y2="744.6321" gradientTransform="matrix(19.88 19.88 19.88 -19.88 -14917.8398 14876.7529)">
      <stop offset="0" style="stop-color:#FFED00"/>
      <stop offset="0.0041" style="stop-color:#FFED00"/>
      <stop offset="0.2934" style="stop-color:#FFD500"/>
      <stop offset="0.3711" style="stop-color:#FBC002"/>
      <stop offset="0.5313" style="stop-color:#F28908"/>
      <stop offset="0.686" style="stop-color:#E84E0F"/>
      <stop offset="1" style="stop-color:#E84E0F"/>
    </linearGradient>
    <polygon class="st8" points="126.3,124.4 316.2,314.3 126.3,504.3 -63.7,314.3  "/>
  </g>
  <g>
    <path class="st6" d="M255.7,342.9l-47.1,10.1l32.3-48.9c0.2-0.2,0.1-0.6-0.1-0.7c-0.2-0.2-0.5-0.2-0.7,0l-35.9,36.3   c12.7-22.3,20-48.1,20-75.5c0-5.1-0.3-10.2-0.8-15.2c-2-2-4-3.9-6.1-5.7c1,6.8,1.5,13.8,1.5,20.8c0,27.7-7.7,53.7-21,75.8   l-4.6-88.8c0-0.3-0.2-0.5-0.6-0.5c-0.3,0-0.5,0.2-0.6,0.5l-7.1,94.5l-41.2-43.4c-0.2-0.2-0.5-0.3-0.8-0.1c-0.2,0.2-0.3,0.5-0.1,0.7   l31.4,49.6l-83.5-20c-0.3,0-0.6,0.1-0.7,0.4c-0.1,0.3,0.1,0.6,0.3,0.7L170,364l-80.2,28.5c-0.3,0.1-0.4,0.4-0.4,0.7   c0.1,0.3,0.4,0.5,0.7,0.4l76-16.3c-25.6,21.5-58.7,34.5-94.8,34.5h-0.1c2.1,1.8,4.2,3.6,6.4,5.3c35.6-1.5,68.1-15.1,93.4-37   l-29.1,44c-0.1,0.2-0.1,0.6,0.1,0.7c0.2,0.2,0.6,0.2,0.8,0l41.7-42.2l2.6,49.1c2.4-1,4.8-2,7.2-3.2l3.4-45.8l24.7,26.1   c1.4-1.3,2.8-2.7,4.1-4.1l-18.1-28.8l33.5,8c1.3-2.2,2.5-4.5,3.7-6.9l-32.9-12.5l42-14.9C255.1,347.4,255.4,345.2,255.7,342.9"/>
  </g>
</svg>