<?xml version="1.0" encoding="utf-8"?>
<!-- Generator: Adobe Illustrator 24.0.2, SVG Export Plug-In . SVG Version: 6.00 Build 0)  -->
<svg version="1.1" id="_Layer_" xmlns="http://www.w3.org/2000/svg" xmlns:xlink="http://www.w3.org/1999/xlink" x="0px" y="0px"
	 width="30px" height="30px" viewBox="0 0 30 30" style="enable-background:new 0 0 30 30;" xml:space="preserve">
<style type="text/css">
	.st0{fill:#F19021;}
</style>
<title>Artboard 2</title>
<g>
	<path class="st0" d="M16.34,11.66c-3.19,0.2-1.75,4.35,1.77,4.13C21.56,15.58,19.74,11.45,16.34,11.66z"/>
	<path class="st0" d="M15,9.1c-5.67,0-10.26,4.59-10.26,10.26S9.33,29.62,15,29.62s10.26-4.59,10.26-10.26c0,0,0,0,0,0
		C25.26,13.69,20.67,9.1,15,9.1z M15,28.55c-5.07,0-9.18-4.11-9.19-9.18s4.11-9.18,9.18-9.19s9.18,4.11,9.19,9.18c0,0,0,0,0,0
		C24.18,24.44,20.07,28.55,15,28.55z M14.69,1.94c-2.44,1.84-2.01,4.67-2.01,4.67s-1.53-3.97-3.52-6.4
		C8.89,3.33,9.87,7.47,9.87,7.47S8.62,4.9,5.57,4.76C8.1,6.21,9.09,8.83,9.31,9.53c1.51-0.93,3.23-1.45,5-1.51
		C14.12,7.37,13.41,4.61,14.69,1.94z"/>
</g>
</svg>
