<svg xmlns="http://www.w3.org/2000/svg" width="96" height="96"><title>GDC - Icon - Circle - Entertainment</title><desc>Created with Sketch.</desc><g fill="none"><g><circle cx="48" cy="48" r="48" fill="#ECEDEF"/><rect id="Rectangle" width="16" height="2" x="40" y="79" fill="#000" rx="1"/><g transform="rotate(20 66 47) translate(45 26)"><rect id="Rectangle" width="42" height="42" fill="#fff" stroke="#000" stroke-width="2" rx="21"/><rect id="Rectangle" width="4" height="4" x="11" y="14" fill="#000" rx="2"/><rect id="Rectangle-Copy-5" width="4" height="4" x="27" y="14" fill="#000" rx="2"/><path id="Combined-Shape" fill="#D4393E" d="M33 32c0-6.63-5.37-12-12-12S9 25.37 9 32z"/></g><g transform="rotate(-20 31 47) translate(10 26)"><rect id="Rectangle" width="42" height="42" fill="#fff" stroke="#000" stroke-width="2" rx="21"/><rect id="Rectangle" width="4" height="4" x="11" y="14" fill="#000" rx="2"/><rect width="4" height="4" x="27" y="14" fill="#000" rx="2"/><path fill="#D4393E" d="M33 22c0 6.63-5.37 12-12 12S9 28.63 9 22z"/></g><g fill="#000" transform="translate(40 8)"><rect id="Rectangle" width="16" height="2" y="7" rx="1"/><rect width="2" height="16" x="7" rx="1"/></g></g></g></svg>