<svg id="Capa_1" enable-background="new 0 0 512 512" height="512" viewBox="0 0 512 512" width="512" xmlns="http://www.w3.org/2000/svg"><g><g><path d="m308.079 393.809c-11.046 0-20-8.954-20-20v-185.194c0-11.046 8.954-20 20-20s20 8.954 20 20v185.193c0 11.046-8.955 20.001-20 20.001z" fill="#b3e59f"/><path d="m315.579 392.344c-2.32.94-4.85 1.46-7.5 1.46-11.05 0-20-8.95-20-20v-185.19c0-11.04 8.95-20 20-20 2.65 0 5.18.52 7.5 1.46-7.33 2.96-12.5 10.15-12.5 18.54v185.19c0 8.4 5.17 15.58 12.5 18.54z" fill="#78c2a4"/><circle cx="308.079" cy="111.295" fill="#f4dd45" r="103.801"/><circle cx="308.079" cy="111.295" fill="#ffc250" r="70.092"/><ellipse cx="369.609" cy="289.07" fill="#78c2a4" rx="56.683" ry="29.613" transform="matrix(.707 -.707 .707 .707 -96.148 346.019)"/><ellipse cx="232.685" cy="261.739" fill="#b3e59f" rx="39.855" ry="76.289" transform="matrix(.707 -.707 .707 .707 -116.926 241.195)"/><g fill="#f4dd45"><g><path d="m161.699 97.607v1.871c0 6.6-5.11 12.073-11.695 12.525l-20.254 1.389c-7.255.498-13.413-5.253-13.413-12.525v-4.65c0-7.272 6.159-13.022 13.413-12.525l20.254 1.389c6.585.453 11.695 5.926 11.695 12.526z"/><path d="m177.328 157.809.936 1.621c3.3 5.716 1.611 13.011-3.866 16.694l-16.846 11.33c-6.034 4.058-14.243 2.157-17.879-4.14l-2.325-4.027c-3.636-6.297-1.178-14.357 5.354-17.553l18.235-8.924c5.929-2.902 13.091-.717 16.391 4.999z"/><path d="m178.264 37.657-.936 1.621c-3.3 5.716-10.462 7.9-16.391 4.999l-18.235-8.924c-6.532-3.196-8.99-11.256-5.354-17.553l2.325-4.027c3.636-6.297 11.845-8.198 17.879-4.14l16.846 11.33c5.477 3.683 7.166 10.978 3.866 16.694z"/></g><g><path d="m454.458 97.607v1.871c0 6.6 5.11 12.073 11.695 12.525l20.254 1.389c7.255.498 13.413-5.253 13.413-12.525v-4.65c0-7.272-6.159-13.022-13.413-12.525l-20.254 1.389c-6.584.453-11.695 5.926-11.695 12.526z"/><path d="m438.829 157.809-.936 1.621c-3.3 5.716-1.611 13.011 3.866 16.694l16.846 11.33c6.034 4.058 14.243 2.157 17.879-4.14l2.325-4.027c3.636-6.297 1.178-14.357-5.354-17.553l-18.235-8.924c-5.929-2.902-13.091-.717-16.391 4.999z"/><path d="m437.893 37.657.936 1.621c3.3 5.716 10.462 7.9 16.391 4.999l18.235-8.924c6.532-3.196 8.99-11.256 5.354-17.553l-2.325-4.027c-3.636-6.297-11.845-8.198-17.879-4.14l-16.846 11.33c-5.477 3.683-7.166 10.978-3.866 16.694z"/></g></g><path d="m192.167 345.69c149.804-15.92 206.938 24.717 206.938 24.717l-164.455 86.7z" fill="#845c47"/><g><path d="m481.057 415.729-119.097 77.579c-15.041 9.8-33.313 13.342-50.918 9.856l-249.228-49.35 101.114-121.751 93.54 43.597 59.444 27.698 109.147-72.654c11.609-7.733 25.325-10.086 38.108-7.554 11.556 2.288 22.365 8.577 30.155 18.509 2.057 2.614 3.811 5.363 5.271 8.203 11.663 22.694 4.71 51.368-17.536 65.867z" fill="#ffece4"/><path d="m223.627 268.842-40.386 22.804c-23.636 13.346-51.462 16.442-77.78 9.793-18.78-4.744-39.37-2.644-57.765 7.584-36.68 20.394-51.006 66.641-32.312 104.216 19.699 39.596 67.921 55.261 107.062 35.024l151.356-82.374c26.799-13.856 37.291-46.812 23.435-73.611-13.854-26.799-46.811-37.291-73.61-23.436z" fill="#ffece4"/><g fill="#ffddce"><path d="m296.202 290.387c-10.032-.929-20.439.906-30.055 5.885l-40.392 22.8c-23.639 13.35-51.462 16.436-77.772 9.79-18.781-4.742-39.377-2.638-57.767 7.592-36.684 20.385-51.015 66.64-32.31 104.21 2.523 5.073 5.526 9.759 8.91 14.026-21.55-5.439-40.714-19.91-51.434-41.453-18.693-37.568-4.363-83.823 32.321-104.208 18.39-10.229 38.986-12.334 57.767-7.592 26.31 6.646 54.134 3.56 77.772-9.79l40.392-22.8c11.421-5.909 23.964-7.39 35.664-5.073 15.094 2.988 28.797 12.309 36.904 26.613z"/><path d="m498.593 349.861c-12.645-8.916-29.881-9.1-42.842.297l-123.719 89.718-147.271-23.829 71.707-40.387 59.444 27.698 109.147-72.654c11.609-7.733 25.325-10.086 38.108-7.554 11.556 2.288 22.365 8.577 30.155 18.509 2.057 2.612 3.811 5.361 5.271 8.202z"/></g></g></g><g><path d="m308.41 188.895c42.785 0 77.592-34.808 77.592-77.592s-34.807-77.592-77.592-77.592c-42.784 0-77.591 34.807-77.591 77.592s34.807 77.592 77.591 77.592zm0-140.184c34.513 0 62.592 28.078 62.592 62.592s-28.079 62.592-62.592 62.592-62.591-28.079-62.591-62.592 28.077-62.592 62.591-62.592z"/><path d="m129.237 120.93c.452 0 .905-.016 1.359-.047l20.254-1.389c10.476-.719 18.682-9.507 18.682-20.007v-1.871c0-10.5-8.206-19.288-18.682-20.007l-20.255-1.389c-5.519-.38-11.012 1.571-15.059 5.35-4.046 3.779-6.367 9.121-6.367 14.658v4.65c0 5.537 2.321 10.879 6.367 14.658 3.716 3.466 8.646 5.394 13.701 5.394zm-5.067-24.704c0-1.416.57-2.728 1.604-3.694.947-.885 2.156-1.36 3.437-1.36.119 0 .238.004.357.012l20.254 1.389c2.641.181 4.709 2.396 4.709 5.042v1.871c0 2.646-2.068 4.861-4.709 5.042l-20.254 1.389c-1.395.097-2.76-.381-3.795-1.348-1.034-.966-1.604-2.278-1.604-3.694v-4.649z"/><path d="m184.156 154.066c-5.25-9.093-16.751-12.602-26.182-7.986l-18.233 8.924c-4.974 2.434-8.753 6.866-10.368 12.162s-.954 11.083 1.814 15.879l2.325 4.026c2.768 4.795 7.449 8.261 12.843 9.51 1.485.344 2.996.513 4.502.513 3.962 0 7.886-1.171 11.215-3.41l16.846-11.33c8.714-5.861 11.426-17.575 6.175-26.667zm-13.61 15.842-16.846 11.33c-1.175.79-2.58 1.049-3.962.73-1.379-.32-2.528-1.171-3.236-2.397l-2.325-4.026c-.708-1.227-.87-2.648-.457-4.002s1.341-2.443 2.613-3.065l18.234-8.924c.708-.347 1.463-.512 2.208-.512 1.756 0 3.462.915 4.391 2.524l.936 1.622c1.322 2.291.639 5.243-1.556 6.72z"/><path d="m139.739 42.098 18.234 8.924c2.811 1.375 5.804 2.029 8.762 2.029 6.969 0 13.735-3.631 17.421-10.015l.936-1.62c5.251-9.093 2.539-20.807-6.175-26.668l-16.846-11.33c-4.595-3.09-10.324-4.145-15.717-2.896-5.394 1.249-10.075 4.715-12.843 9.51l-2.325 4.027c-2.769 4.795-3.43 10.582-1.814 15.878 1.615 5.294 5.394 9.728 10.367 12.161zm4.438-20.54 2.325-4.027c.708-1.226 1.857-2.077 3.236-2.397.386-.089.773-.133 1.157-.133.99 0 1.958.294 2.805.863l16.846 11.33c2.195 1.477 2.879 4.429 1.556 6.72v.001l-.936 1.621c-1.322 2.291-4.22 3.176-6.599 2.012l-18.234-8.924c-1.272-.623-2.2-1.711-2.613-3.065-.414-1.354-.251-2.775.457-4.001z"/><path d="m486.224 76.219-20.254 1.389c-10.476.718-18.682 9.507-18.682 20.007v1.871c0 10.5 8.206 19.289 18.682 20.007l20.254 1.389c.454.031.906.047 1.359.047 5.056 0 9.985-1.928 13.7-5.396 4.046-3.779 6.367-9.121 6.367-14.658v-4.65c0-5.537-2.321-10.879-6.367-14.658-4.045-3.777-9.527-5.725-15.059-5.348zm6.427 20.007v4.65c0 1.416-.57 2.728-1.604 3.694-1.035.966-2.401 1.445-3.795 1.348l-20.254-1.389c-2.641-.181-4.709-2.396-4.709-5.042v-1.871c0-2.646 2.068-4.861 4.709-5.042l20.253-1.389c.12-.008.239-.012.357-.012 1.281 0 2.491.476 3.438 1.36 1.035.965 1.605 2.277 1.605 3.693z"/><path d="m437.904 182.354 16.846 11.33c3.329 2.239 7.253 3.41 11.215 3.41 1.505 0 3.017-.169 4.502-.513 5.394-1.249 10.075-4.715 12.843-9.51l2.325-4.027c2.769-4.794 3.43-10.581 1.814-15.877-1.615-5.296-5.395-9.729-10.367-12.163l-18.234-8.924c-9.434-4.615-20.931-1.107-26.181 7.983l-.938 1.624c-5.251 9.094-2.538 20.807 6.175 26.667zm6.814-19.165.936-1.621c0-.001.001-.002.001-.003.929-1.609 2.634-2.524 4.391-2.524.745 0 1.5.165 2.208.511l18.234 8.924c1.272.623 2.2 1.711 2.613 3.066.413 1.354.251 2.775-.457 4.001l-2.325 4.027c-.708 1.226-1.857 2.077-3.236 2.397-1.383.319-2.788.06-3.962-.73l-16.846-11.33c-2.196-1.476-2.88-4.429-1.557-6.718z"/><path d="m431.729 41.418.936 1.618c3.686 6.384 10.451 10.015 17.421 10.015 2.957 0 5.951-.654 8.762-2.029l18.234-8.924c4.974-2.434 8.752-6.867 10.367-12.163 1.615-5.295.954-11.082-1.814-15.877l-2.325-4.027c-2.768-4.795-7.449-8.261-12.843-9.51-5.393-1.249-11.122-.193-15.717 2.896l-16.846 11.33c-8.713 5.86-11.426 17.574-6.176 26.667 0 .002.001.003.001.004zm14.546-14.224 16.846-11.33c1.174-.791 2.579-1.05 3.962-.73 1.379.32 2.528 1.171 3.236 2.397l2.325 4.027c.708 1.226.87 2.647.457 4.001-.413 1.355-1.342 2.444-2.613 3.066l-18.234 8.923c-2.374 1.162-5.274.28-6.6-2.015l-.936-1.618c-1.323-2.291-.638-5.244 1.557-6.721z"/><path d="m499.549 337.037c-6.173-7.859-14.289-14.029-23.472-17.843-3.825-1.59-8.214.223-9.803 4.049-1.59 3.825.224 8.214 4.049 9.803 6.813 2.831 12.841 7.415 17.427 13.254 7.603 9.69 10.684 21.72 8.672 33.875-2.011 12.156-8.804 22.555-19.126 29.281l-119.1 77.58c-13.483 8.786-29.599 11.901-45.368 8.776l-239.812-47.486c-.124-.031-.25-.06-.378-.085-22.149-4.381-40.536-18.535-50.445-38.833-8.011-16.405-9.377-35.137-3.847-52.746s17.361-32.194 33.314-41.07c16.012-8.911 34.586-11.351 52.298-6.871 28.815 7.27 58.401 3.526 83.301-10.541l40.266-22.73c23.051-11.841 51.464-2.766 63.385 20.275 3.497 6.759 5.27 14.025 5.27 21.593 0 17.725-9.768 33.787-25.494 41.917-.08.041-.158.083-.236.127l-89.039 50.15c-3.609 2.033-4.887 6.606-2.854 10.215s6.607 4.887 10.216 2.854l68.344-38.493 55.957 26.077c1.009.47 2.09.702 3.167.702 1.457 0 2.905-.424 4.157-1.257l109.142-72.655c4.801-3.188 10.051-5.358 15.605-6.448 4.064-.798 6.713-4.739 5.915-8.804-.796-4.064-4.735-6.713-8.804-5.915-7.497 1.471-14.567 4.389-21.022 8.676l-42.087 28.017c-10.293-3.814-24.583-8.104-43.235-11.535v-3.471c2.033.162 4.064.254 6.09.254 20.148 0 39.711-7.942 54.181-22.411 17.682-17.682 25.616-42.968 21.222-67.639-.551-3.095-2.974-5.517-6.068-6.069-24.671-4.394-49.955 3.539-67.639 21.222-2.854 2.854-5.45 5.909-7.785 9.124v-52.796c48.114-12.274 83.799-55.976 83.799-107.859 0-61.371-49.928-111.299-111.299-111.299-22.345 0-43.896 6.598-62.326 19.08-3.43 2.323-4.326 6.986-2.004 10.415 2.324 3.43 6.986 4.327 10.416 2.004 15.936-10.794 34.58-16.5 53.914-16.5 53.099 0 96.299 43.2 96.299 96.299s-43.2 96.299-96.299 96.299-96.299-43.2-96.299-96.299c0-22.259 7.771-43.971 21.884-61.137 2.63-3.2 2.169-7.926-1.031-10.557-3.198-2.63-7.924-2.169-10.557 1.031-16.312 19.843-25.296 44.938-25.296 70.663 0 51.883 35.685 95.585 83.799 107.859v27.295c-4.063-6.563-8.886-12.677-14.406-18.198-23.2-23.199-56.378-33.607-88.749-27.84-3.094.551-5.517 2.973-6.068 6.067-4.654 26.11 1.118 52.716 15.868 74.304l-7.673 4.331c-21.53 12.164-47.189 15.382-72.252 9.059-21.43-5.42-43.899-2.47-63.265 8.307-19.322 10.75-33.645 28.394-40.331 49.683-6.686 21.286-5.023 43.951 4.678 63.82 11.926 24.43 34.005 41.501 60.62 46.888.13.033.261.063.393.089l240.188 47.559c4.975.986 9.975 1.473 14.943 1.473 14.642 0 28.998-4.231 41.528-12.395l119.1-77.58c13.688-8.92 23.069-23.281 25.736-39.4 2.665-16.116-1.588-32.73-11.674-45.584zm-183.957 57.755-42.397-19.758 4.505-2.537c9.698-5.042 17.67-12.375 23.399-21.149 27.02 2.476 47.542 7.091 62.28 11.632zm38.712-121.351c12.941-12.941 30.952-19.387 49.047-17.775 1.611 18.095-4.834 36.107-17.775 49.047-10.406 10.406-24.091 16.603-38.461 17.796l24.219-24.219c2.929-2.929 2.929-7.677 0-10.606-2.929-2.928-7.677-2.929-10.607 0l-24.218 24.217c1.194-14.369 7.389-28.055 17.795-38.46zm-45.892-50.841c4.226 0 8.395-.245 12.5-.706v116.639c-4.123-.575-8.417-1.103-12.889-1.575 2.06-6.226 3.159-12.838 3.159-19.638 0-9.85-2.402-19.701-6.948-28.486-2.325-4.495-5.137-8.575-8.321-12.233v-54.706c4.104.46 8.273.705 12.499.705zm-122.733-8.189c25.836-2.958 51.747 5.981 70.219 24.453 6.059 6.059 11.132 12.952 15.095 20.427-10.363-3.91-21.735-5.067-32.898-3.074l-8.89-8.89c-2.928-2.929-7.677-2.928-10.606 0-2.929 2.929-2.929 7.678.001 10.607l3.491 3.491c-.525.253-1.052.494-1.573.764-.081.042-.162.086-.241.131l-19.583 11.054c-12.065-17.099-17.424-38.044-15.015-58.963z"/><path d="m221.949 295.093c-4.077-.714-7.966 2.014-8.681 6.095-.165.946-1.518 9.545 1.932 20.118 3.206 9.826 11.291 23.242 31.604 31.355.912.365 1.854.537 2.78.537 2.978 0 5.795-1.786 6.967-4.72 1.536-3.847-.336-8.21-4.183-9.747-27.761-11.089-24.469-34.045-24.325-34.958.715-4.08-2.013-7.966-6.094-8.68z"/><path d="m280.3 149.7c7.841 4.225 13.304 5.633 20.032 6.053v3.574c0 2.071.839 3.946 2.197 5.303 1.357 1.357 3.232 2.197 5.303 2.197 4.142 0 7.5-3.358 7.5-7.5v-4.146c14.552-2.839 23.416-13.561 24.895-24.138 1.75-12.522-6.233-23.266-20.338-27.371-1.5-.437-3.027-.89-4.557-1.359v-20.704c4.078.989 6.483 2.645 6.659 2.771 3.377 2.399 8.059 1.606 10.458-1.771 2.398-3.376 1.606-8.058-1.771-10.457-1.441-1.024-6.932-4.564-15.346-5.83v-3.043c0-4.142-3.358-7.5-7.5-7.5s-7.5 3.358-7.5 7.5v3.516c-.59.122-1.185.255-1.787.405-10.098 2.505-17.644 10.25-19.224 19.732-1.355 8.131 1.975 15.877 8.692 20.216 3.192 2.062 7.094 3.956 12.32 5.929v27.644c-4.412-.378-7.736-1.433-12.918-4.225-3.646-1.965-8.195-.601-10.16 3.045-1.609 2.987-.986 6.578 1.296 8.86.503.503 1.089.944 1.749 1.299zm35.395-31.626c6.839 1.991 10.365 5.962 9.676 10.893-.584 4.181-4.16 8.558-10.039 10.663v-21.663c.123.035.239.07.363.107zm-19.544-23.527c-2.271-1.467-2.251-3.857-2.035-5.15.415-2.49 2.274-5.481 6.216-7.056v14.477c-1.553-.733-2.97-1.489-4.181-2.271z"/></g></g></svg>