<svg id="Capa_1" enable-background="new 0 0 511.969 511.969" height="512" viewBox="0 0 511.969 511.969" width="512" xmlns="http://www.w3.org/2000/svg"><g><g><g><g><path d="m354.326 480.383c38.044 6.669 76.087 6.669 114.131 0 18.229-3.195 31.722-18.756 32.433-37.25 4.793-124.763 4.793-249.525 0-374.288-.711-18.494-14.203-34.054-32.433-37.25-38.043-6.669-76.087-6.669-114.131 0-18.229 3.196-31.722 18.756-32.433 37.25-4.793 124.763-4.793 249.525 0 374.288.711 18.494 14.204 34.055 32.433 37.25z" fill="#da4a54"/><path d="m381.246 483.972c-8.964-.823-17.942-2.028-26.906-3.6-18.236-3.189-31.726-18.75-32.446-37.251-4.791-124.758-4.791-249.517 0-374.275.72-18.501 14.21-34.063 32.446-37.251 8.964-1.572 17.942-2.778 26.906-3.601-13.916 5.937-23.57 19.794-24.158 35.768-4.79 128.153-4.79 256.291 0 384.444.588 15.972 10.242 29.829 24.158 35.766z" fill="#d82e3d"/></g><g><path d="m200.107 481.923c36.939 4.615 73.877 4.615 110.816 0 18.983-2.372 33.638-17.924 34.569-37.032 4.155-85.272 4.155-170.544 0-255.816-.931-19.108-15.586-34.66-34.569-37.032-36.939-4.615-73.877-4.615-110.816 0-18.983 2.372-33.638 17.924-34.569 37.032-4.155 85.272-4.155 170.544 0 255.816.932 19.108 15.587 34.66 34.569 37.032z" fill="#f4dd45"/><path d="m215.237 483.544c-5.041-.441-10.095-.984-15.136-1.616-18.971-2.366-33.636-17.928-34.562-37.031-4.159-85.273-4.159-170.547 0-255.821.926-19.103 15.591-34.65 34.562-37.031 5.055-.631 10.095-1.175 15.15-1.631-8.449 7.273-13.975 18.133-14.533 30.374-4.159 90.799-4.159 181.598 0 272.411.558 12.227 6.084 23.086 14.519 30.345z" fill="#ffc250"/></g><g><path d="m155.433 482.949c-36.57 3.247-73.141 3.247-109.711 0-19.343-1.718-34.596-17.316-35.767-36.699-3.294-54.498-3.294-108.996 0-163.494 1.171-19.384 16.424-34.982 35.767-36.699 36.57-3.247 73.14-3.247 109.711 0 19.343 1.718 34.596 17.316 35.767 36.699 3.294 54.498 3.294 108.996 0 163.494-1.171 19.383-16.424 34.982-35.767 36.699z" fill="#b3e59f"/><path d="m63.429 484.265c-5.907-.338-11.8-.779-17.707-1.308-19.338-1.719-34.592-17.31-35.767-36.707-3.292-54.488-3.292-108.991 0-163.493 1.176-19.382 16.429-34.974 35.767-36.693 5.907-.529 11.8-.955 17.707-1.308-10.419 6.966-17.502 18.971-18.295 32.77-3.292 57.985-3.292 115.986 0 173.971.794 13.796 7.877 25.802 18.295 32.768z" fill="#78c2a4"/></g></g><g><path d="m470.142 168.453-11.09 73.94c-1.22 8.19-11.25 11.49-17.11 5.64l-16.75-16.76s-95.96 165.37-305.35 224.24c-12.9 3.62-23.28-10.79-15.69-21.81l23.32-33.82c7.39-10.73 6.39-24.62-1.35-34.15-2.03-2.52-4.54-4.73-7.5-6.5l-7.34-4.38-25.88-15.46c-11.31-6.75-8.21-23.93 4.77-26.27 66.84-12.09 205.25-44.89 294.44-120.01l-15.39-15.39c-5.71-5.71-2.74-15.47 5.18-17.04l72.64-14.3c13.27-2.61 25.1 8.7 23.1 22.07z" fill="#f9f6f6"/><path d="m384.612 193.113s-33.37 93.21-273.33 161.74l-25.88-15.46c-11.31-6.75-8.21-23.93 4.77-26.27 66.84-12.09 205.25-44.89 294.44-120.01z" fill="#efe7e4"/></g></g><path d="m508.38 68.552c-.842-21.917-17.087-40.569-38.626-44.349-3.485-.612-6.96-1.167-10.328-1.648-4.105-.585-7.899 2.264-8.485 6.364-.585 4.101 2.264 7.899 6.364 8.485 3.21.458 6.525.987 9.854 1.572 14.627 2.567 25.659 15.248 26.231 30.151 4.771 123.994 4.771 249.729 0 373.714-.572 14.911-11.603 27.591-26.23 30.15-37.001 6.487-74.529 6.487-111.544-.001-3.758-.656-7.332-1.982-10.58-3.9 4.659-6.878 7.522-15.043 7.95-23.839 1.912-39.401 2.946-79.206 3.092-118.376.061-.059.123-.118.185-.177 37.734-36.633 60.719-68.891 70.281-83.467l10.1 10.1c4.723 4.724 11.598 6.358 17.944 4.266 6.343-2.092 10.897-7.494 11.883-14.094l11.092-73.941c0-.001 0-.002 0-.002 1.3-8.686-1.713-17.493-8.061-23.558-6.348-6.066-15.284-8.676-23.906-6.981l-72.657 14.308c-6.384 1.264-11.525 5.918-13.417 12.147-1.892 6.227-.209 12.952 4.391 17.552l9.541 9.541c-6.221 4.973-12.775 9.832-19.642 14.578-.256-6.152-.531-12.315-.826-18.436-.843-17.32-11.101-32.208-25.996-39.567.581-26.604 1.381-53.49 2.4-80.016.572-14.903 11.604-27.583 26.231-30.15 24.051-4.22 48.45-5.713 72.517-4.438 4.151.22 7.667-2.957 7.886-7.092.219-4.137-2.956-7.667-7.092-7.886-25.201-1.337-50.736.227-75.903 4.642-21.541 3.781-37.786 22.433-38.628 44.35-.968 25.221-1.736 50.762-2.311 76.085-.078-.01-.155-.025-.234-.034-37.385-4.676-75.296-4.676-112.68 0-22.715 2.836-40.014 21.384-41.132 44.107-.811 16.659-1.453 33.385-1.934 49.875-.003 0-.007-.001-.01-.001-36.84-3.273-74.198-3.273-111.038 0-22.9 2.036-41.21 20.831-42.592 43.719-3.293 54.545-3.293 109.859 0 164.404 1.382 22.888 19.692 41.683 42.594 43.718 18.419 1.632 36.967 2.448 55.516 2.448s37.1-.816 55.52-2.448c8.474-.753 16.318-3.809 22.911-8.515 6.018 3.979 12.881 6.535 20.166 7.462 10.003 1.248 20.208 2.175 30.33 2.755.146.008.292.012.436.012 3.946 0 7.252-3.082 7.481-7.071.237-4.135-2.923-7.68-7.059-7.917-9.79-.561-19.658-1.458-29.313-2.662-3.919-.498-7.657-1.693-11.078-3.501 5.011-6.955 8.171-15.3 8.718-24.281.249-4.114.47-8.252.677-12.374 20.752-9.462 40.951-20.242 60.467-32.316 28.623-17.708 55.841-38.192 81.152-61.035-.317 34.356-1.313 69.104-2.984 103.542-.75 15.42-12.53 28.021-28.007 29.962-16.61 2.071-33.485 3.206-50.157 3.373-4.142.042-7.466 3.433-7.424 7.575.041 4.116 3.391 7.425 7.498 7.425h.077c17.24-.172 34.689-1.346 51.868-3.488 8.509-1.067 16.257-4.336 22.679-9.201 5.523 3.834 11.811 6.429 18.493 7.596 19.367 3.395 38.863 5.092 58.364 5.092 19.497 0 38.998-1.697 58.354-5.091 21.542-3.77 37.789-22.421 38.631-44.349 4.786-124.369 4.786-250.492 0-374.868zm-335.354 120.891c.759-15.426 12.539-28.025 28.01-29.957 36.149-4.521 72.808-4.521 108.96 0 15.479 1.932 27.258 14.529 28.008 29.949.438 9.08.833 18.255 1.182 27.347-31.738 19.926-69.445 37.64-112.671 52.899-9.498 3.353-18.909 6.457-28.154 9.336-2.164-16.213-12.826-29.969-27.357-36.518.487-17.513 1.16-35.326 2.022-53.056zm10.694 256.355c-.946 15.54-13.391 28.302-28.946 29.685-35.959 3.187-72.426 3.187-108.384 0-15.565-1.383-28.01-14.143-28.948-29.681-3.256-53.945-3.256-108.65 0-162.596.938-15.538 13.383-28.298 28.948-29.682 35.958-3.196 72.423-3.196 108.381 0 15.557 1.383 28.002 14.145 28.947 29.664.005.08.009.16.014.24-37.135 10.834-70.69 17.933-94.893 22.31-9.014 1.628-15.897 8.5-17.536 17.509-1.641 9.019 2.384 17.885 10.255 22.588l33.232 19.848c2.107 1.253 3.959 2.857 5.515 4.779 5.839 7.185 6.248 17.532.994 25.16l-23.318 33.827c-5.261 7.638-5.179 17.442.208 24.976 4.197 5.869 10.73 9.147 17.639 9.147 2 0 4.033-.275 6.048-.841 21.124-5.939 41.863-13.175 62.112-21.657-.088 1.576-.173 3.155-.268 4.724zm67.928-56.354c-41.831 25.842-86.858 45.641-133.831 58.847-4.304 1.21-6.773-1.677-7.426-2.591-.644-.901-2.551-4.121-.058-7.74l23.318-33.828c9.006-13.077 8.305-30.813-1.696-43.118-2.665-3.294-5.861-6.061-9.486-8.216l-33.218-19.839c-3.74-2.235-3.387-5.943-3.19-7.026.196-1.08 1.169-4.661 5.446-5.434 33.782-6.109 85.493-17.431 140.002-36.673 65.166-23.003 118.302-51.593 157.933-84.974 1.606-1.353 2.572-3.318 2.662-5.416.09-2.099-.705-4.139-2.19-5.624l-15.392-15.392c-.955-.955-.814-2.029-.645-2.585.169-.557.651-1.53 1.971-1.792l72.646-14.305c.799-.157 1.597-.234 2.385-.234 3.06 0 5.981 1.163 8.262 3.342 2.868 2.741 4.176 6.564 3.589 10.49l-11.093 73.946c-.205 1.367-1.182 1.883-1.746 2.069-.565.187-1.66.353-2.641-.627l-16.753-16.752c-1.646-1.646-3.967-2.434-6.271-2.132-2.308.3-4.347 1.656-5.517 3.668-8.206 14.107-34.083 50.822-73.282 88.804-28.719 27.827-60.27 52.432-93.779 73.132z"/></g></svg>