<?xml version="1.0" encoding="utf-8"?>
<!-- Generator: Adobe Illustrator 24.0.2, SVG Export Plug-In . SVG Version: 6.00 Build 0)  -->
<svg version="1.1" id="Слой_1" xmlns="http://www.w3.org/2000/svg" xmlns:xlink="http://www.w3.org/1999/xlink" x="0px" y="0px"
	 width="30px" height="30px" viewBox="0 0 30 30" style="enable-background:new 0 0 30 30;" xml:space="preserve">
<style type="text/css">
	.st0{fill:#244289;}
</style>
<g>
	<g>
		<path class="st0" d="M29.83,12.82c-3.38-0.23-6.68-0.24-9.96,1.03c2.34,2.97,3.84,6.2,4.17,9.92c-0.83-3.33-2.39-6.28-4.62-8.89
			c-0.47-0.54-0.85-0.64-1.44-0.26c-0.69,0.44-1.42,0.82-2.26,1.3c2.13,2.14,3.67,4.53,4.37,7.4c-1.17-2.63-2.84-4.86-5.16-6.71
			c-2.38,1.83-4.06,4.16-5.24,6.89c0.67-2.91,2.22-5.33,4.43-7.58c-1.01-0.55-1.92-1.08-2.86-1.53c-0.14-0.07-0.53,0.19-0.7,0.38
			c-2.06,2.3-3.56,4.92-4.42,7.9c-0.06,0.21-0.12,0.41-0.24,0.6c0.36-3.52,1.85-6.56,4.08-9.4c-3.26-1.27-6.55-1.26-9.9-0.95
			c1.17-0.79,2.48-1.08,3.84-1.19c2.19-0.18,4.32,0.13,6.4,0.85c0.28,0.1,0.74,0,0.98-0.18c0.78-0.6,1.5-1.28,2.3-1.98
			c-3.01-1.61-6.2-2.37-9.55-2.55C4.7,7.41,6.41,7.18,7.77,7.32c2.32,0.23,4.52,0.89,6.56,2.01c0.41,0.23,0.71,0.23,1.13,0
			c2.04-1.12,4.24-1.78,6.56-2c1.29-0.12,2.55,0.02,3.77,0.47c-3.34,0.26-6.52,0.98-9.54,2.61c0.87,0.78,1.64,1.52,2.48,2.18
			c0.18,0.14,0.61,0.06,0.89-0.03c2.91-0.97,5.84-1.23,8.81-0.31C28.91,12.38,29.36,12.62,29.83,12.82z M11.99,13.22
			c0.97,0.66,1.8,1.24,2.64,1.78c0.12,0.08,0.38,0.1,0.5,0.03c0.87-0.56,1.71-1.15,2.68-1.81c-0.91-0.66-1.76-1.3-2.63-1.89
			c-0.13-0.09-0.44-0.07-0.58,0.02C13.74,11.94,12.91,12.56,11.99,13.22z"/>
	</g>
</g>
</svg>
