<?xml version="1.0" encoding="utf-8"?>
<!-- Generator: Adobe Illustrator 24.0.2, SVG Export Plug-In . SVG Version: 6.00 Build 0)  -->
<svg version="1.1" id="Слой_1" xmlns="http://www.w3.org/2000/svg" xmlns:xlink="http://www.w3.org/1999/xlink" x="0px" y="0px"
	 width="30px" height="30px" viewBox="0 0 30 30" style="enable-background:new 0 0 30 30;" xml:space="preserve">
<style type="text/css">
	.st0{fill:#E63E35;}
</style>
<g>
	<path class="st0" d="M17.03,8.67c0,2.68,0,5.32,0,7.96c0.1,0.07,0.2,0.14,0.3,0.21c0.11-0.21,0.19-0.46,0.35-0.63
		c2.21-2.32,4.45-4.61,6.65-6.94c0.45-0.47,0.89-0.7,1.55-0.67c1.25,0.05,2.5,0.02,3.87,0.02c0,0.79,0.01,1.56-0.01,2.32
		c0,0.1-0.17,0.22-0.29,0.27c-0.11,0.05-0.27,0.04-0.4,0.01c-1.54-0.28-2.61,0.36-3.61,1.51c-1.74,1.99-3.65,3.83-5.46,5.76
		c-0.39,0.41-0.78,0.56-1.34,0.55c-2.43-0.03-4.87-0.03-7.3,0c-0.49,0.01-0.82-0.15-1.15-0.51c-2.09-2.21-4.22-4.39-6.31-6.61
		c-0.47-0.5-0.95-0.8-1.67-0.72c-0.59,0.07-1.2,0.01-1.84,0.01c0-0.88,0-1.71,0-2.61c1.54,0,3.05-0.02,4.56,0.02
		c0.21,0.01,0.45,0.24,0.63,0.42c2.35,2.43,4.69,4.87,7.03,7.3c0.1,0.11,0.22,0.2,0.44,0.41c0-2.76,0-5.4,0-8.1
		C14.37,8.67,15.63,8.67,17.03,8.67z"/>
	<path d="M17.02,19.94c0,1.74,0,3.46,0,5.22c-1.31,0-2.61,0-3.95,0c0-1.74,0-3.45,0-5.22C14.39,19.94,15.68,19.94,17.02,19.94z"/>
</g>
</svg>
