<?xml version="1.0" encoding="utf-8"?>
<!-- Generator: Adobe Illustrator 24.0.2, SVG Export Plug-In . SVG Version: 6.00 Build 0)  -->
<svg version="1.1" id="Слой_1" xmlns="http://www.w3.org/2000/svg" xmlns:xlink="http://www.w3.org/1999/xlink" x="0px" y="0px"
	 width="30px" height="30px" viewBox="0 0 30 30" style="enable-background:new 0 0 30 30;" xml:space="preserve">
<style type="text/css">
	.st0{fill:#C31B06;}
</style>
<g>
	<path class="st0" d="M29.68,13.91c0,0.68,0,1.36,0,2.04c-0.05,0.26-0.12,0.51-0.15,0.77c-0.23,1.81-0.76,3.53-1.72,5.24
		c-2.83-6.16-5.6-12.21-8.45-18.42C15,11.34,10.74,18.97,6.43,26.67c-4.63-3.84-6.64-8.58-5.61-14.45
		C2.01,5.49,7.95,0.54,14.87,0.41c6.76-0.13,12.87,4.61,14.36,11.16C29.41,12.34,29.53,13.13,29.68,13.91z"/>
	<path class="st0" d="M14.08,29.51c-1.04-0.2-2.08-0.4-3.22-0.63c2.83-6.51,5.62-12.94,8.49-19.52c0.33,0.73,0.61,1.33,0.88,1.93
		c1.87,4.18,3.73,8.36,5.62,12.53c0.22,0.49,0.13,0.78-0.22,1.14c-2.47,2.51-5.43,4.02-8.95,4.41c-0.19,0.02-0.37,0.09-0.55,0.14
		C15.44,29.51,14.76,29.51,14.08,29.51z"/>
</g>
</svg>
