<?xml version="1.0" encoding="utf-8"?>
<!-- Generator: Adobe Illustrator 24.0.2, SVG Export Plug-In . SVG Version: 6.00 Build 0)  -->
<svg version="1.1" id="Слой_1" xmlns="http://www.w3.org/2000/svg" xmlns:xlink="http://www.w3.org/1999/xlink" x="0px" y="0px"
	 width="30px" height="30px" viewBox="0 0 30 30" style="enable-background:new 0 0 30 30;" xml:space="preserve">
<style type="text/css">
	.st0{fill:url(#SVGID_1_);}
	.st1{fill:url(#SVGID_2_);}
	.st2{fill:url(#SVGID_3_);}
	.st3{fill:url(#SVGID_4_);}
	.st4{fill:url(#SVGID_5_);}
</style>
<g>
	
		<linearGradient id="SVGID_1_" gradientUnits="userSpaceOnUse" x1="87.8877" y1="72.1141" x2="110.4669" y2="72.1141" gradientTransform="matrix(0.6391 0 0 -1.5646 -52.5613 115.5175)">
		<stop  offset="0" style="stop-color:#EF374E"/>
		<stop  offset="1" style="stop-color:#F89928"/>
	</linearGradient>
	<path class="st0" d="M16.29,4.26c0.35,0,0.64-0.28,0.65-0.63V1.76c0-0.35-0.29-0.64-0.64-0.64s-0.64,0.29-0.64,0.64v1.86
		C15.65,3.97,15.94,4.26,16.29,4.26z"/>
	
		<linearGradient id="SVGID_2_" gradientUnits="userSpaceOnUse" x1="-1591.649" y1="71.0211" x2="-1273.8876" y2="71.0211" gradientTransform="matrix(0.6392 0 0 -1.5643 -52.5429 115.4947)">
		<stop  offset="0" style="stop-color:#EF374E"/>
		<stop  offset="1" style="stop-color:#F89928"/>
	</linearGradient>
	<path class="st1" d="M13.72,5.96c0.35,0,0.64-0.29,0.64-0.64V3.47c0-0.35-0.29-0.64-0.64-0.64c-0.35,0-0.64,0.29-0.64,0.64v1.86
		C13.08,5.68,13.37,5.96,13.72,5.96L13.72,5.96z"/>
	
		<linearGradient id="SVGID_3_" gradientUnits="userSpaceOnUse" x1="-1078.3885" y1="60.026" x2="-875.8658" y2="60.026" gradientTransform="matrix(1.0071 0 0 -0.9929 11.4663 60.6399)">
		<stop  offset="0" style="stop-color:#EF374E"/>
		<stop  offset="1" style="stop-color:#F89928"/>
	</linearGradient>
	<path class="st2" d="M13.72,1.67c0.35,0,0.64-0.28,0.64-0.63v0.01c0-0.35-0.29-0.64-0.64-0.64c-0.35,0-0.64,0.29-0.64,0.64V1.04
		C13.09,1.39,13.37,1.67,13.72,1.67z"/>
	
		<linearGradient id="SVGID_4_" gradientUnits="userSpaceOnUse" x1="-1078.8202" y1="55.3531" x2="-877.4161" y2="55.3531" gradientTransform="matrix(1.0035 0 0 -0.9965 10.8448 60.979)">
		<stop  offset="0" style="stop-color:#EF374E"/>
		<stop  offset="1" style="stop-color:#F89928"/>
	</linearGradient>
	<path class="st3" d="M18.86,6.46c0.35,0,0.64-0.29,0.64-0.64c0,0,0,0,0,0v0.01c0-0.35-0.29-0.64-0.64-0.64s-0.64,0.29-0.64,0.64
		V5.81C18.21,6.17,18.5,6.46,18.86,6.46C18.85,6.46,18.86,6.46,18.86,6.46L18.86,6.46z"/>
	
		<linearGradient id="SVGID_5_" gradientUnits="userSpaceOnUse" x1="-18330.793" y1="49.4801" x2="-14839.2559" y2="49.4801" gradientTransform="matrix(0.8917 0 0 -1.1214 -8.6117 72.9752)">
		<stop  offset="0" style="stop-color:#EF374E"/>
		<stop  offset="1" style="stop-color:#F89928"/>
	</linearGradient>
	<path class="st4" d="M23.99,11.21c-0.35,0-0.64,0.29-0.64,0.64v0.32c-0.03,0.34-0.32,0.61-0.66,0.59
		c-0.34-0.01-0.62-0.29-0.62-0.64v-1.6c-0.01-0.35-0.3-0.62-0.64-0.62c-0.35,0-0.63,0.27-0.64,0.62v0.04c0,0.35-0.29,0.64-0.64,0.64
		c-0.35,0-0.64-0.29-0.64-0.64l0,0V7.89c0-0.35-0.29-0.64-0.64-0.64c-0.35,0-0.64,0.29-0.64,0.64v1.02
		c-0.01,0.35-0.29,0.63-0.64,0.64c-0.35,0-0.64-0.29-0.64-0.64c0,0,0,0,0,0V6.02c0-0.35-0.29-0.64-0.64-0.64
		c-0.35,0-0.64,0.29-0.64,0.64v2.52c0,0.35-0.29,0.64-0.64,0.64c-0.35,0-0.64-0.29-0.64-0.64v-0.9c0-0.35-0.29-0.64-0.64-0.64
		c-0.35,0-0.64,0.29-0.64,0.64v1.93c0,0.35-0.29,0.64-0.64,0.64c-0.35,0-0.64-0.29-0.64-0.64V6.88c0-0.35-0.29-0.64-0.64-0.64
		s-0.64,0.29-0.64,0.64v4.1c0,0.35-0.29,0.64-0.64,0.64c-0.35,0-0.64-0.29-0.64-0.64V9.9c0-0.35-0.29-0.64-0.64-0.64
		c-0.35,0-0.64,0.29-0.64,0.64v3.02c-0.01,0.35-0.3,0.62-0.64,0.62c-0.35,0-0.63-0.27-0.64-0.62v-0.99c0-0.35-0.29-0.64-0.64-0.64
		s-0.64,0.29-0.64,0.64l-0.01,0.99v11.11L15,29.59l9.63-5.56V11.85C24.63,11.5,24.34,11.21,23.99,11.21z M19.54,22.12h-3.02v-2.3
		h-3.02v2.3h-3.02v-7.21h3.02v2.42h3.02v-2.42h3.02L19.54,22.12z"/>
</g>
</svg>
