<?xml version="1.0" encoding="utf-8"?>
<!-- Generator: Adobe Illustrator 24.0.2, SVG Export Plug-In . SVG Version: 6.00 Build 0)  -->
<svg version="1.1" id="Слой_1" xmlns="http://www.w3.org/2000/svg" xmlns:xlink="http://www.w3.org/1999/xlink" x="0px" y="0px"
	 width="30px" height="30px" viewBox="0 0 30 30" style="enable-background:new 0 0 30 30;" xml:space="preserve">
<style type="text/css">
	.st0{fill:#E1002A;}
	.st1{fill:#FFFFFF;}
</style>
<g>
	<path class="st0" d="M1.13,13.84C1.18,10.46,1.8,5.85,3.49,1.42c0.3-0.79,0.65-0.98,1.48-0.83c9.45,1.69,17.21,6.28,23.52,13.46
		c0.74,0.84,0.69,1.38-0.02,2.19c-6.4,7.24-14.29,11.83-23.84,13.49C3.96,29.83,3.77,29.54,3.55,29C2,25.08,1.09,19.95,1.13,13.84z
		 M10.37,9.22c-1.37,0.03-2.14,0.84-2.15,2.09c-0.02,2.54-0.03,5.08,0,7.62c0.02,1.82,1.5,2.69,3.08,1.79
		c2.18-1.23,4.35-2.49,6.5-3.77c1.62-0.97,1.6-2.67-0.03-3.63c-2.1-1.24-4.21-2.45-6.33-3.66C11.03,9.43,10.58,9.3,10.37,9.22z"/>
	<path class="st1" d="M10.37,9.22c0.21,0.08,0.67,0.21,1.07,0.44c2.12,1.2,4.23,2.42,6.33,3.66c1.63,0.96,1.65,2.67,0.03,3.63
		c-2.15,1.28-4.32,2.54-6.5,3.77c-1.58,0.89-3.06,0.03-3.08-1.79c-0.03-2.54-0.02-5.08,0-7.62C8.22,10.06,8.99,9.25,10.37,9.22z"/>
</g>
</svg>
