<?xml version="1.0" encoding="utf-8"?>
<!-- Generator: Adobe Illustrator 24.0.2, SVG Export Plug-In . SVG Version: 6.00 Build 0)  -->
<svg version="1.1" id="Слой_1" xmlns="http://www.w3.org/2000/svg" xmlns:xlink="http://www.w3.org/1999/xlink" x="0px" y="0px"
	 width="30px" height="30px" viewBox="0 0 30 30" style="enable-background:new 0 0 30 30;" xml:space="preserve">
<style type="text/css">
	.st0{fill:#FFC20E;}
</style>
<g>
	<path class="st0" d="M19.42,12.9c0.42-0.55,0.82-1.08,1.2-1.6h6.43l2.5-3.25h-6.73c1.45-2.33,2.08-3.92,1.66-4.27
		c-0.09-0.08-0.25-0.09-0.46-0.03c-0.5,0.14-1.11,0.58-1.54,0.91c-0.44,0.33-0.94,0.74-1.49,1.22C19.8,6.95,19.85,6.92,20.94,6
		c0.61-0.51,1.1-0.87,1.47-1.05c0.11-0.05,0.2-0.09,0.3-0.11c0.13-0.03,0.22-0.03,0.29,0.02c0.3,0.24-0.26,1.44-1.42,3.2
		c-1.33,2.04-3.48,4.86-6.03,7.86l-0.18,0.21c-1.38,1.63-2.74,3.13-3.98,4.44h8.05v-4.58h7.06l2.35-3.04h-9.42L19.42,12.9
		L19.42,12.9z"/>
	<path d="M15.57,13.27c0.15-0.21,0.28-0.47,0.39-0.75c0.1-0.28,0.15-0.62,0.15-0.99c0-0.57-0.11-1.08-0.35-1.51
		c-0.23-0.43-0.56-0.79-0.99-1.08c-0.43-0.3-0.95-0.51-1.55-0.65s-1.28-0.21-2.03-0.21l-8.38,0l-2.51,3.25l11.06,0
		c0.27,0,0.52,0.06,0.74,0.17c0.22,0.11,0.34,0.33,0.34,0.63c0,0.33-0.11,0.55-0.33,0.66c-0.21,0.12-0.47,0.17-0.75,0.17H8.35v0
		H0.32v7.6h8.04v0h0.73c-0.21,0.21-0.47,0.48-0.74,0.75v0c-1.03,1.03-2.4,2.33-3.47,2.93c-0.1,0.05-0.19,0.1-0.27,0.13
		c-0.2,0.08-0.35,0.09-0.43,0.02c-0.46-0.4,1.44-2.83,1.44-2.83c-1.37,1.51-2.88,3.95-2.25,4.48c0.12,0.1,0.33,0.09,0.61-0.02
		c0.25-0.1,0.57-0.27,0.94-0.53c0.14-0.1,0.3-0.2,0.45-0.33c0.8-0.6,1.82-1.45,2.99-2.51v0c0.69-0.63,1.44-1.33,2.21-2.1
		c1.44-1.42,2.98-3.06,4.51-4.84c0.21-0.25,0.43-0.5,0.63-0.75c-0.06-0.06-0.12-0.13-0.18-0.18c-0.22-0.21-0.47-0.38-0.74-0.51
		c-0.12-0.05-0.23-0.1-0.37-0.14c0.21-0.07,0.42-0.18,0.63-0.33C15.24,13.66,15.42,13.48,15.57,13.27z M12.22,17.12
		c-0.18,0.15-0.49,0.22-0.92,0.22H8.35v0H4.19v-1.72h4.16v0h2.95c0.43,0,0.73,0.07,0.92,0.21c0.18,0.14,0.29,0.36,0.29,0.63
		C12.51,16.76,12.42,16.98,12.22,17.12z"/>
</g>
</svg>
