<?xml version="1.0" encoding="utf-8"?>
<!-- Generator: Adobe Illustrator 24.0.2, SVG Export Plug-In . SVG Version: 6.00 Build 0)  -->
<svg version="1.1" id="svg8" xmlns="http://www.w3.org/2000/svg" xmlns:xlink="http://www.w3.org/1999/xlink" x="0px" y="0px"
	 width="30px" height="30px" viewBox="0 0 30 30" style="enable-background:new 0 0 30 30;" xml:space="preserve">
<style type="text/css">
	.st0{fill-rule:evenodd;clip-rule:evenodd;fill:#E23535;}
</style>
<g id="layer1" transform="translate(0 -277.5164)">
	<g id="Wazdan-color" transform="matrix(.35538 0 0 .35538 -.8968 268.567)">
		<g id="Group" transform="matrix(-1 0 0 1 77.5 24.6327)">
			<g id="g5188">
				<path id="Path" class="st0" d="M27.08,64.25L-7.61,29.64c-1.35-1.35-0.4-3.57,1.48-3.57h34.68c1.14,0,2.09,0.94,2.09,2.09v34.62
					C30.65,64.59,28.42,65.53,27.08,64.25"/>
				<path id="path5186" class="st0" d="M34.89,62.77V28.15c0-1.14,0.94-2.09,2.09-2.09h34.68c1.89,0,2.83,2.22,1.48,3.57
					L38.46,64.25C37.11,65.53,34.89,64.59,34.89,62.77"/>
			</g>
		</g>
	</g>
</g>
</svg>
