<svg id="Layer_1" enable-background="new 0 0 256 256" height="512" viewBox="0 0 256 256" width="512" xmlns="http://www.w3.org/2000/svg"><path d="m159.399 195.508c-3.622 0-6.713-2.274-7.925-5.472-.353.933-.547 1.944-.547 3 0 4.679 3.793 8.472 8.472 8.472s8.472-3.793 8.472-8.472c0-1.056-.194-2.067-.547-3-1.211 3.198-4.302 5.472-7.925 5.472z" fill="#ebe7f2"/><path d="m193.177 195.508c-3.622 0-6.713-2.274-7.925-5.472-.353.933-.547 1.944-.547 3 0 4.679 3.793 8.472 8.472 8.472s8.472-3.793 8.472-8.472c0-1.056-.194-2.067-.547-3-1.212 3.198-4.303 5.472-7.925 5.472z" fill="#ebe7f2"/><path d="m159.399 162.012c-3.622 0-6.713-2.274-7.925-5.472-.353.933-.547 1.944-.547 3 0 4.679 3.793 8.472 8.472 8.472s8.472-3.793 8.472-8.472c0-1.056-.194-2.067-.547-3-1.211 3.198-4.302 5.472-7.925 5.472z" fill="#ebe7f2"/><path d="m193.177 162.012c-3.622 0-6.713-2.274-7.925-5.472-.353.933-.547 1.944-.547 3 0 4.679 3.793 8.472 8.472 8.472s8.472-3.793 8.472-8.472c0-1.056-.194-2.067-.547-3-1.212 3.198-4.303 5.472-7.925 5.472z" fill="#ebe7f2"/><path d="m62.823 98.932c-3.622 0-6.713-2.274-7.925-5.472-.353.933-.547 1.944-.547 3 0 4.679 3.793 8.472 8.472 8.472s8.472-3.793 8.472-8.472c0-1.056-.194-2.067-.547-3-1.211 3.198-4.302 5.472-7.925 5.472z" fill="#ebe7f2"/><path d="m96.601 98.932c-3.622 0-6.713-2.274-7.925-5.472-.353.933-.547 1.944-.547 3 0 4.679 3.793 8.472 8.472 8.472s8.472-3.793 8.472-8.472c0-1.056-.194-2.067-.547-3-1.212 3.198-4.303 5.472-7.925 5.472z" fill="#ebe7f2"/><path d="m62.823 65.436c-3.622 0-6.713-2.274-7.925-5.472-.353.933-.547 1.944-.547 3 0 4.679 3.793 8.472 8.472 8.472s8.472-3.793 8.472-8.472c0-1.056-.194-2.067-.547-3-1.211 3.198-4.302 5.472-7.925 5.472z" fill="#ebe7f2"/><path d="m96.601 65.436c-3.622 0-6.713-2.274-7.925-5.472-.353.933-.547 1.944-.547 3 0 4.679 3.793 8.472 8.472 8.472s8.472-3.793 8.472-8.472c0-1.056-.194-2.067-.547-3-1.212 3.198-4.303 5.472-7.925 5.472z" fill="#ebe7f2"/><path d="m114.287 108.231h-69.149c-3.836 0-6.945-3.109-6.945-6.945v13c0 3.836 3.109 6.945 6.945 6.945h69.149c3.836 0 6.945-3.109 6.945-6.945v-13c-.001 3.836-3.11 6.945-6.945 6.945z" fill="#ebe7f2"/><path d="m210.862 204.807h-69.149c-3.836 0-6.945-3.109-6.945-6.945v13c0 3.836 3.109 6.945 6.945 6.945h69.149c3.836 0 6.945-3.109 6.945-6.945v-13c0 3.836-3.109 6.945-6.945 6.945z" fill="#ebe7f2"/><path d="m174 101.5c-17.001 0-31.156-12.187-34.206-28.301-.399 2.11-.609 4.287-.609 6.513 0 19.227 15.587 34.814 34.814 34.814s34.814-15.587 34.814-34.814c0-2.226-.209-4.403-.609-6.513-3.048 16.115-17.202 28.301-34.204 28.301z" fill="#ebe7f2"/><path d="m78.568 151.068c-13.276 0-24.076 10.801-24.076 24.076s10.8 24.076 24.076 24.076 24.076-10.8 24.076-24.076-10.8-24.076-24.076-24.076z" fill="#f9b087"/><g fill="#846f75"><path d="m114.287 35.693h-40.992c-1.381 0-2.5 1.119-2.5 2.5s1.119 2.5 2.5 2.5h40.991c2.451 0 4.445 1.994 4.445 4.445v69.149c0 2.451-1.994 4.445-4.445 4.445h-69.148c-2.451 0-4.445-1.994-4.445-4.445v-69.149c0-2.451 1.994-4.445 4.445-4.445h17.686c1.381 0 2.5-1.119 2.5-2.5s-1.119-2.5-2.5-2.5h-17.686c-5.208 0-9.445 4.237-9.445 9.445v69.149c0 5.208 4.237 9.445 9.445 9.445h69.149c5.208 0 9.445-4.237 9.445-9.445v-69.149c-.001-5.208-4.237-9.445-9.445-9.445z"/><path d="m62.823 51.992c-6.05 0-10.972 4.922-10.972 10.972s4.922 10.972 10.972 10.972 10.972-4.922 10.972-10.972-4.921-10.972-10.972-10.972zm0 16.944c-3.293 0-5.972-2.679-5.972-5.972s2.679-5.972 5.972-5.972 5.972 2.679 5.972 5.972-2.679 5.972-5.972 5.972z"/><path d="m62.823 85.488c-6.05 0-10.972 4.922-10.972 10.972s4.922 10.972 10.972 10.972 10.972-4.922 10.972-10.972-4.921-10.972-10.972-10.972zm0 16.944c-3.293 0-5.972-2.679-5.972-5.972s2.679-5.972 5.972-5.972 5.972 2.679 5.972 5.972-2.679 5.972-5.972 5.972z"/><path d="m96.601 73.936c6.05 0 10.972-4.922 10.972-10.972s-4.922-10.972-10.972-10.972-10.972 4.922-10.972 10.972 4.922 10.972 10.972 10.972zm0-16.944c3.293 0 5.972 2.679 5.972 5.972s-2.679 5.972-5.972 5.972-5.972-2.679-5.972-5.972 2.679-5.972 5.972-5.972z"/><path d="m96.601 107.432c6.05 0 10.972-4.922 10.972-10.972s-4.922-10.972-10.972-10.972-10.972 4.922-10.972 10.972 4.922 10.972 10.972 10.972zm0-16.944c3.293 0 5.972 2.679 5.972 5.972s-2.679 5.972-5.972 5.972-5.972-2.679-5.972-5.972 2.679-5.972 5.972-5.972z"/><path d="m210.862 132.269h-40.991c-1.381 0-2.5 1.119-2.5 2.5s1.119 2.5 2.5 2.5h40.991c2.451 0 4.445 1.994 4.445 4.445v69.149c0 2.451-1.994 4.445-4.445 4.445h-69.149c-2.451 0-4.445-1.994-4.445-4.445v-69.149c0-2.451 1.994-4.445 4.445-4.445h17.686c1.381 0 2.5-1.119 2.5-2.5s-1.119-2.5-2.5-2.5h-17.686c-5.208 0-9.445 4.237-9.445 9.445v69.149c0 5.208 4.237 9.445 9.445 9.445h69.149c5.208 0 9.445-4.237 9.445-9.445v-69.149c0-5.209-4.237-9.445-9.445-9.445z"/><path d="m159.399 148.568c-6.05 0-10.972 4.922-10.972 10.972s4.922 10.972 10.972 10.972 10.972-4.922 10.972-10.972-4.922-10.972-10.972-10.972zm0 16.944c-3.293 0-5.972-2.679-5.972-5.972s2.679-5.972 5.972-5.972 5.972 2.679 5.972 5.972-2.679 5.972-5.972 5.972z"/><path d="m159.399 182.064c-6.05 0-10.972 4.922-10.972 10.972s4.922 10.972 10.972 10.972 10.972-4.922 10.972-10.972-4.922-10.972-10.972-10.972zm0 16.944c-3.293 0-5.972-2.679-5.972-5.972s2.679-5.972 5.972-5.972 5.972 2.679 5.972 5.972-2.679 5.972-5.972 5.972z"/><path d="m193.177 170.512c6.05 0 10.972-4.922 10.972-10.972s-4.922-10.972-10.972-10.972-10.972 4.922-10.972 10.972 4.921 10.972 10.972 10.972zm0-16.944c3.293 0 5.972 2.679 5.972 5.972s-2.679 5.972-5.972 5.972-5.972-2.679-5.972-5.972 2.679-5.972 5.972-5.972z"/><path d="m193.177 204.008c6.05 0 10.972-4.922 10.972-10.972s-4.922-10.972-10.972-10.972-10.972 4.922-10.972 10.972 4.921 10.972 10.972 10.972zm0-16.944c3.293 0 5.972 2.679 5.972 5.972s-2.679 5.972-5.972 5.972-5.972-2.679-5.972-5.972 2.679-5.972 5.972-5.972z"/><path d="m174 117.026c20.575 0 37.314-16.739 37.314-37.314s-16.738-37.314-37.314-37.314-37.314 16.739-37.314 37.314 16.739 37.314 37.314 37.314zm0-69.628c17.818 0 32.314 14.496 32.314 32.314s-14.496 32.314-32.314 32.314-32.314-14.496-32.314-32.314 14.496-32.314 32.314-32.314z"/><path d="m78.568 134.59c-22.361 0-40.554 18.192-40.554 40.554 0 22.361 18.192 40.553 40.554 40.553s40.554-18.192 40.554-40.553-18.192-40.554-40.554-40.554zm0 76.108c-19.604 0-35.554-15.949-35.554-35.553s15.949-35.554 35.554-35.554 35.554 15.95 35.554 35.554-15.949 35.553-35.554 35.553z"/></g></svg>