<?xml version="1.0" encoding="utf-8"?>
<!-- Generator: Adobe Illustrator 24.0.2, SVG Export Plug-In . SVG Version: 6.00 Build 0)  -->
<svg version="1.1" id="Слой_1" xmlns="http://www.w3.org/2000/svg" xmlns:xlink="http://www.w3.org/1999/xlink" x="0px" y="0px"
	 width="30px" height="30px" viewBox="0 0 30 30" style="enable-background:new 0 0 30 30;" xml:space="preserve">
<style type="text/css">
	.st0{fill:#0F4596;}
	.st1{fill:#E33B52;}
</style>
<g>
	<path class="st0" d="M0.85,26.49c0.36-0.33,0.67-0.85,1.09-0.95c0.83-0.21,1.72-0.22,2.59-0.26c1.54-0.08,3.08-0.06,4.61-0.21
		c1.08-0.11,1.59-0.82,1.4-2.11c-0.44,0.04-0.87,0.06-1.29,0.11c-2.1,0.26-4.17,0.18-6.16-0.59C1.52,21.87,0.97,21,0.96,19.33
		c0-0.29,0-0.58,0-0.88c0-2.95,0.91-4.12,3.85-4.4c1.85-0.17,3.74,0.06,5.6,0.05c0.78,0,1.55-0.14,2.33-0.22
		c0.67-0.07,1,0.15,1,0.89c-0.02,3.04,0.04,6.09-0.05,9.13c-0.02,0.57-0.46,1.28-0.92,1.64c-0.64,0.49-1.47,0.93-2.25,0.99
		c-3.14,0.24-6.28,0.33-9.43,0.47C1.01,26.84,0.93,26.67,0.85,26.49z M10.64,18.27c0.01-2.34-0.53-2.78-3.4-2.8
		c-2.43-0.02-3.11,0.55-3.11,2.6c-0.01,3.07,0.36,3.44,3.38,3.44C10.17,21.51,10.63,21.02,10.64,18.27z"/>
	<g>
		<path class="st1" d="M29.66,24.1c-4.12,0-7.78,0-11.51,0c-0.18-1.71-0.36-3.38-0.56-5.2c1.5-0.28,2.99-0.57,4.49-0.83
			c1.68-0.3,3.36-0.61,5.04-0.83c0.34-0.04,0.98,0.21,1.04,0.44C28.71,19.74,29.15,21.83,29.66,24.1z"/>
		<path class="st1" d="M15.15,13.12c2.6-0.95,5.16-1.9,7.75-2.8c0.23-0.08,0.69,0.09,0.85,0.3c1.31,1.65,2.58,3.33,3.87,5
			c-0.07,0.14-0.14,0.27-0.22,0.41c-3.37,0.6-6.73,1.19-10.08,1.78C16.58,16.22,15.89,14.73,15.15,13.12z"/>
		<path class="st1" d="M10.97,8.83c1.81-1.05,3.42-2,5.05-2.9c0.29-0.16,0.78-0.25,1.03-0.11c1.78,1.04,3.52,2.15,5.58,3.43
			c-2.85,1.04-5.28,1.94-7.74,2.8c-0.24,0.08-0.66-0.06-0.86-0.24C13.03,10.88,12.07,9.91,10.97,8.83z"/>
		<path class="st1" d="M5.77,5.7C6.81,4.83,7.73,4,8.73,3.25c0.28-0.21,0.8-0.33,1.13-0.23c1.82,0.56,3.61,1.21,5.71,1.93
			c-1.92,1.11-3.55,2.07-5.2,2.98c-0.19,0.11-0.56,0.04-0.77-0.07C8.35,7.19,7.13,6.48,5.77,5.7z"/>
	</g>
</g>
</svg>
