<svg id="_x33_0" enable-background="new 0 0 64 64" height="512" viewBox="0 0 64 64" width="512" xmlns="http://www.w3.org/2000/svg"><g><g><g><path d="m39.36 2.91h-14.72c-13.01 3.28-22.64 15.06-22.64 29.09 0 16.57 13.43 30 30 30s30-13.43 30-30c0-14.03-9.63-25.81-22.64-29.09z" fill="#ff826e"/></g><g><path d="m49 42.29 3.84 1.6c-1.05 1.85-2.35 3.55-3.84 5.05z" fill="#ffeaa7"/></g><g><path d="m19.44 30.04c-.08.05-.15.1-.23.15-1.31.88-2.37 2.06-3.09 3.41s-1.12 2.88-1.12 4.46v10.88c-4.32-4.35-7-10.33-7-16.94 0-2.2.29-4.32.85-6.34z" fill="#ffeaa7"/></g><g><path d="m28.2 27.18-17.05-7.07c2.32-4.07 5.81-7.39 10-9.52.02.09.04.17.06.26l.74 2.96c-.59.55-.95 1.33-.95 2.19 0 .83.34 1.58.88 2.12s1.29.88 2.12.88h1.07.01c.32 2.34 1.81 4.3 3.85 5.29z" fill="#ffeaa7"/></g><g><path d="m56 32c0 2.19-.3 4.32-.86 6.34l-6.45-2.67c-.19-.72-.46-1.42-.81-2.07-.72-1.35-1.78-2.53-3.09-3.41-1.18-.78-2.52-1.29-3.91-1.49l-2.86-.41-2.02-.29-.93-3.71c.7-.34 1.33-.79 1.88-1.34 1.05-1.05 1.76-2.41 1.97-3.95h.01 1.07c.83 0 1.58-.34 2.12-.88s.88-1.29.88-2.12c0-.86-.36-1.64-.95-2.19l.74-2.96c.02-.09.04-.17.06-.26 7.8 3.96 13.15 12.06 13.15 21.41z" fill="#ffeaa7"/></g><g><path d="m31 10h-1.7c-.85 0-1.68.25-2.38.72-.83.55-1.43 1.36-1.71 2.28h-.01-1.2c-.8 0-1.52.31-2.05.81l-.74-2.96c-.02-.09-.04-.17-.06-.26-.1-.48-.15-.97-.15-1.47 0-1.96.8-3.74 2.09-5.03.46-.46.98-.86 1.55-1.18 1.03-.58 2.22-.91 3.48-.91h7.76c1.26 0 2.45.33 3.48.91 2.17 1.22 3.64 3.55 3.64 6.21 0 .5-.05.99-.15 1.47-.02.09-.04.17-.06.26l-.74 2.96c-.53-.5-1.25-.81-2.05-.81h-1.2-.01c-.28-.92-.88-1.73-1.71-2.28-.7-.47-1.53-.72-2.38-.72z" fill="#656d78"/></g><g><path d="m34 36 2 12-4 4-4-4 2-12z" fill="#e6e9ed"/></g><g><path d="m34.78 33.67-.78 2.33h-4l-.78-2.33 2.78-1.67z" fill="#ccd1d9"/></g><g><path d="m43 53.32c-3.3 1.72-7.04 2.68-11 2.68s-7.7-.96-11-2.68c-2.23-1.14-4.25-2.62-6-4.38v-10.88c0-1.58.4-3.11 1.12-4.46s1.78-2.53 3.09-3.41c.08-.05.15-.1.23-.15 1.12-.69 2.38-1.15 3.68-1.34l2.86-.41 1.02 6.71 2.22-1.33.78 2.33-2 12 4 4 4-4-2-12 .78-2.33 2.22 1.33 1.02-6.71 2.86.41c1.39.2 2.73.71 3.91 1.49 1.31.88 2.37 2.06 3.09 3.41.35.65.62 1.35.81 2.07.2.77.31 1.57.31 2.39v4.23 6.65c-1.75 1.76-3.77 3.24-6 4.38z" fill="#4fc1e9"/></g><g><path d="m38.02 28.29-1.02 6.71-2.22-1.33-2.78-1.67 4-4z" fill="#3bafda"/></g><g><path d="m32 32-2.78 1.67-2.22 1.33-1.02-6.71 2.02-.29z" fill="#3bafda"/></g><g><path d="m40 13c.8 0 1.52.31 2.05.81.59.55.95 1.33.95 2.19 0 .83-.34 1.58-.88 2.12s-1.29.88-2.12.88h-1.07-.01c.06-.33.08-.66.08-1v-3.7c0-.45-.07-.89-.21-1.3h.01z" fill="#f0d0b4"/></g><g><path d="m28.93 24.29c.93.46 1.97.71 3.07.71 1.11 0 2.15-.25 3.07-.71l.93 3.71-4 4-4-4 .2-.82z" fill="#f0d0b4"/></g><g><path d="m39 14.3v3.7c0 .34-.02.67-.08 1-.21 1.54-.92 2.9-1.97 3.95-.55.55-1.18 1-1.88 1.34-.92.46-1.96.71-3.07.71-1.1 0-2.14-.25-3.07-.71-2.04-.99-3.53-2.95-3.85-5.29-.06-.33-.08-.66-.08-1v-3.7c0-.45.07-.89.21-1.3.28-.92.88-1.73 1.71-2.28.7-.47 1.53-.72 2.38-.72h1.7 3.7c.85 0 1.68.25 2.38.72.83.55 1.43 1.36 1.71 2.28.14.41.21.85.21 1.3z" fill="#f0d0b4"/></g><g><path d="m24 19c-.83 0-1.58-.34-2.12-.88s-.88-1.29-.88-2.12c0-.86.36-1.64.95-2.19.53-.5 1.25-.81 2.05-.81h1.2.01c-.14.41-.21.85-.21 1.3v3.7c0 .34.02.67.08 1h-.01z" fill="#f0d0b4"/></g></g><g><path d="m32 22c1.615 0 3.067-.897 3.789-2.342l.105-.211-1.789-.895-.105.212c-.381.762-1.147 1.236-2 1.236s-1.619-.474-2-1.236l-.105-.211-1.789.895.105.21c.722 1.445 2.174 2.342 3.789 2.342z"/><path d="m39.744 1.981c-1.15-.625-2.468-.981-3.867-.981h-7.754c-1.399 0-2.716.355-3.866.981-13.699 3.522-23.257 15.843-23.257 30.019 0 17.094 13.906 31 31 31s31-13.906 31-31c0-14.175-9.558-26.496-23.256-30.019zm2.256 35.019v15.709c-3.025 1.467-6.418 2.291-10 2.291s-6.975-.824-10-2.291v-15.709h-2v14.613c-1.448-.889-2.787-1.936-4-3.113v-10.436c0-2.836 1.409-5.469 3.769-7.042 1.044-.696 2.254-1.159 3.498-1.337l1.877-.268 1.091 7.207 2.434-1.46.305.915-2.044 12.263 5.07 5.072 5.071-5.071-2.044-12.263.305-.915 2.434 1.46 1.091-7.207 1.877.268c1.244.178 2.454.641 3.498 1.337 2.359 1.573 3.768 4.206 3.768 7.041v10.436c-1.213 1.177-2.552 2.224-4 3.113v-14.613zm-18-22.697v3.697c-1.103 0-2-.897-2-2s.897-2 2-2h.019c-.006.101-.019.201-.019.303zm-3.507-2.212.366 1.463c-.53.678-.859 1.521-.859 2.446 0 2.206 1.794 4 4 4h.263c.519 2.007 1.796 3.707 3.511 4.78l-.258 1.033-14.918-6.179c1.951-3.062 4.633-5.659 7.895-7.543zm8.81-1.091h5.395c.654 0 1.287.192 1.832.555.92.613 1.47 1.641 1.47 2.748v3.697c0 3.309-2.691 6-6 6s-6-2.691-6-6v-3.697c0-1.107.55-2.134 1.471-2.748.545-.363 1.177-.555 1.832-.555zm-1.656 18.061 2.741 2.741-2.622 1.573-.643-4.24zm3.2 7.939h2.305l1.776 10.657-2.928 2.929-2.929-2.929zm2.432-2h-2.559l-.296-.889 1.576-.945 1.576.945zm.334-3.198 2.741-2.741.524.075-.643 4.24zm1.279-4.109-2.892 2.893-2.892-2.892.513-2.055c.751.234 1.551.361 2.379.361s1.628-.127 2.379-.361zm-23.309-6.315 14.284 5.917-2.883.412c-1.263.181-2.49.61-3.606 1.23l-9.311-3.857c.401-1.281.902-2.521 1.516-3.702zm-2.041 5.649 7.917 3.279c-2.183 1.968-3.459 4.768-3.459 7.758v8.229c-3.126-3.928-5-8.894-5-14.293 0-1.698.189-3.362.542-4.973zm40.458 16.759 1.383.573c-.428.669-.89 1.315-1.383 1.935zm2.395-1.173-2.395-.992v-3.556c0-.267-.029-.53-.049-.794l3.983 1.649c-.406 1.284-.924 2.517-1.539 3.693zm2.058-5.643-4.955-2.052c-.707-2.243-2.143-4.217-4.157-5.56-1.291-.861-2.786-1.432-4.324-1.652l-4.209-.602-.582-2.325c1.715-1.073 2.991-2.773 3.511-4.78h.263c2.206 0 4-1.794 4-4 0-.925-.329-1.767-.858-2.446l.366-1.463c7.116 4.111 11.492 11.623 11.492 19.91 0 1.707-.193 3.369-.547 4.97zm-12.453-20.97c0 1.103-.897 2-2 2v-3.697c0-.102-.013-.202-.019-.303h.019c1.103 0 2 .897 2 2zm-6.123-13c3.376 0 6.123 2.747 6.123 6.123 0 .501-.062 1-.183 1.485l-.415 1.659c-.437-.165-.907-.267-1.402-.267h-.534c-.406-.84-1.025-1.575-1.827-2.109-.874-.583-1.892-.891-2.942-.891h-3.697c-.552 0-1-.449-1-1s.448-1 1-1h1v-2h-1c-1.654 0-3 1.346-3 3 0 .398.082.777.223 1.125-.66.137-1.293.387-1.862.766-.802.534-1.421 1.269-1.827 2.109h-.534c-.495 0-.965.102-1.403.267l-.415-1.66c-.12-.483-.182-.983-.182-1.484 0-3.376 2.747-6.123 6.123-6.123zm-3.877 58c-15.99 0-29-13.01-29-29 0-11.933 7.249-22.445 18.036-26.836-.657 1.173-1.036 2.522-1.036 3.959 0 .309.022.618.057.925-8.067 4.391-13.057 12.728-13.057 21.952 0 13.785 11.215 25 25 25s25-11.215 25-25c0-9.224-4.989-17.56-13.057-21.951.035-.307.057-.616.057-.926 0-1.437-.379-2.786-1.036-3.958 10.787 4.39 18.036 14.902 18.036 26.835 0 15.99-13.01 29-29 29z"/></g></g></svg>