<?xml version="1.0" encoding="utf-8"?>
<!-- Generator: Adobe Illustrator 24.0.2, SVG Export Plug-In . SVG Version: 6.00 Build 0)  -->
<svg version="1.1" id="Слой_1" xmlns="http://www.w3.org/2000/svg" xmlns:xlink="http://www.w3.org/1999/xlink" x="0px" y="0px"
	 width="30px" height="30px" viewBox="0 0 30 30" style="enable-background:new 0 0 30 30;" xml:space="preserve">
<style type="text/css">
	.st0{fill:#AB0000;}
</style>
<g>
	<path class="st0" d="M21.37,13.5c-0.34,3.69-0.68,7.25-0.98,10.8c-0.07,0.83-0.44,1.37-1.29,1.38c-2.17,0.03-4.34,0.01-6.52,0.01
		C13.07,20.45,17.33,14.27,21.37,13.5z"/>
	<path class="st0" d="M13.98,0.53c-0.55,5.39-4.9,11.38-8.88,12.19C5.45,8.99,5.75,5.3,6.19,1.62c0.05-0.41,0.8-1.02,1.25-1.04
		C9.61,0.47,11.79,0.53,13.98,0.53z"/>
	<path class="st0" d="M11.67,25.68c-2.19,0-4.41,0.05-6.62-0.05c-0.34-0.02-0.95-0.77-0.93-1.16c0.25-3.65,0.6-7.29,0.93-10.95
		C9.55,14.47,12.18,21.57,11.67,25.68z"/>
	<path class="st0" d="M21.41,12.78c-4.07-1.31-7.3-7.35-6.63-12.23c2.2,0,4.41-0.05,6.63,0.05c0.35,0.02,0.68,0.74,0.99,1.15
		c0.06,0.08-0.02,0.25-0.04,0.39C22.05,5.65,21.73,9.17,21.41,12.78z"/>
	<path class="st0" d="M25.3,4.88c0.12,0.52,0.39,1.04,0.35,1.55c-0.6,7.19-1.24,14.37-1.87,21.56c-0.08,0.91-0.54,1.34-1.47,1.34
		c-4.33-0.01-8.66,0.01-12.98-0.03c-0.47,0-0.93-0.32-1.4-0.49c0.04-0.16,0.07-0.32,0.11-0.48c0.46-0.03,0.91-0.08,1.37-0.08
		c3.79-0.01,7.58,0,11.38,0c1.86,0,1.95-0.02,2.12-1.9c0.61-6.61,1.17-13.22,1.75-19.84c0.05-0.51,0.11-1.03,0.16-1.54
		C24.98,4.93,25.14,4.9,25.3,4.88z"/>
	<path class="st0" d="M6.48,26.48c1.06,0,2.12,0,3.18,0c3.21,0,6.43-0.03,9.64,0.01c1.25,0.01,1.84-0.39,1.95-1.73
		c0.55-6.93,1.19-13.84,1.8-20.76c0.03-0.29,0.06-0.58,0.09-0.87c0.14-0.03,0.28-0.06,0.41-0.09c0.15,0.56,0.48,1.14,0.44,1.69
		c-0.58,7.1-1.22,14.2-1.84,21.29c-0.09,1.02-0.54,1.46-1.63,1.45c-4.24-0.04-8.48,0-12.72-0.03c-0.49,0-0.97-0.23-1.46-0.35
		C6.4,26.88,6.44,26.68,6.48,26.48z"/>
</g>
</svg>
